G04*
G04 #@! TF.GenerationSoftware,Altium Limited,Altium Designer,23.3.1 (30)*
G04*
G04 Layer_Color=8388736*
%FSLAX25Y25*%
%MOIN*%
G70*
G04*
G04 #@! TF.SameCoordinates,31E1B7B5-1CAE-4E1F-A508-08906AB7C5AB*
G04*
G04*
G04 #@! TF.FilePolarity,Negative*
G04*
G01*
G75*
%ADD14R,0.03347X0.04528*%
%ADD15R,0.03347X0.04528*%
G04:AMPARAMS|DCode=16|XSize=33.47mil|YSize=45.28mil|CornerRadius=0mil|HoleSize=0mil|Usage=FLASHONLY|Rotation=255.000|XOffset=0mil|YOffset=0mil|HoleType=Round|Shape=Rectangle|*
%AMROTATEDRECTD16*
4,1,4,-0.01754,0.02202,0.02620,0.01030,0.01754,-0.02202,-0.02620,-0.01030,-0.01754,0.02202,0.0*
%
%ADD16ROTATEDRECTD16*%

G04:AMPARAMS|DCode=17|XSize=33.47mil|YSize=45.28mil|CornerRadius=0mil|HoleSize=0mil|Usage=FLASHONLY|Rotation=255.000|XOffset=0mil|YOffset=0mil|HoleType=Round|Shape=Rectangle|*
%AMROTATEDRECTD17*
4,1,4,-0.01754,0.02202,0.02620,0.01030,0.01754,-0.02202,-0.02620,-0.01030,-0.01754,0.02202,0.0*
%
%ADD17ROTATEDRECTD17*%

%ADD18R,0.04528X0.03347*%
%ADD19R,0.04528X0.03347*%
G04:AMPARAMS|DCode=20|XSize=33.47mil|YSize=45.28mil|CornerRadius=0mil|HoleSize=0mil|Usage=FLASHONLY|Rotation=285.000|XOffset=0mil|YOffset=0mil|HoleType=Round|Shape=Rectangle|*
%AMROTATEDRECTD20*
4,1,4,-0.02620,0.01030,0.01754,0.02202,0.02620,-0.01030,-0.01754,-0.02202,-0.02620,0.01030,0.0*
%
%ADD20ROTATEDRECTD20*%

G04:AMPARAMS|DCode=21|XSize=33.47mil|YSize=45.28mil|CornerRadius=0mil|HoleSize=0mil|Usage=FLASHONLY|Rotation=285.000|XOffset=0mil|YOffset=0mil|HoleType=Round|Shape=Rectangle|*
%AMROTATEDRECTD21*
4,1,4,-0.02620,0.01030,0.01754,0.02202,0.02620,-0.01030,-0.01754,-0.02202,-0.02620,0.01030,0.0*
%
%ADD21ROTATEDRECTD21*%

%ADD22R,0.10433X0.04528*%
G04:AMPARAMS|DCode=23|XSize=45.28mil|YSize=45.28mil|CornerRadius=12.8mil|HoleSize=0mil|Usage=FLASHONLY|Rotation=0.000|XOffset=0mil|YOffset=0mil|HoleType=Round|Shape=RoundedRectangle|*
%AMROUNDEDRECTD23*
21,1,0.04528,0.01968,0,0,0.0*
21,1,0.01968,0.04528,0,0,0.0*
1,1,0.02559,0.00984,-0.00984*
1,1,0.02559,-0.00984,-0.00984*
1,1,0.02559,-0.00984,0.00984*
1,1,0.02559,0.00984,0.00984*
%
%ADD23ROUNDEDRECTD23*%
G04:AMPARAMS|DCode=24|XSize=45.28mil|YSize=45.28mil|CornerRadius=12.8mil|HoleSize=0mil|Usage=FLASHONLY|Rotation=90.000|XOffset=0mil|YOffset=0mil|HoleType=Round|Shape=RoundedRectangle|*
%AMROUNDEDRECTD24*
21,1,0.04528,0.01968,0,0,90.0*
21,1,0.01968,0.04528,0,0,90.0*
1,1,0.02559,0.00984,0.00984*
1,1,0.02559,0.00984,-0.00984*
1,1,0.02559,-0.00984,-0.00984*
1,1,0.02559,-0.00984,0.00984*
%
%ADD24ROUNDEDRECTD24*%
%ADD25C,0.10191*%
D14*
X398200Y315162D02*
D03*
Y320282D02*
D03*
X330900Y330319D02*
D03*
Y325200D02*
D03*
D15*
X405306Y315164D02*
D03*
Y320282D02*
D03*
X398200Y325400D02*
D03*
X405306D02*
D03*
Y330518D02*
D03*
X398200D02*
D03*
X323794Y330318D02*
D03*
Y325200D02*
D03*
X330900Y320082D02*
D03*
X323794D02*
D03*
Y314964D02*
D03*
X330900D02*
D03*
D16*
X397445Y338875D02*
D03*
X392500Y340200D02*
D03*
D17*
X399283Y345740D02*
D03*
X394339Y347064D02*
D03*
X387556Y341525D02*
D03*
X389395Y348389D02*
D03*
X384452Y349713D02*
D03*
X382613Y342849D02*
D03*
D18*
X372319Y337800D02*
D03*
X367200D02*
D03*
D19*
X372318Y344906D02*
D03*
X367200D02*
D03*
X362082Y337800D02*
D03*
Y344906D02*
D03*
X356964D02*
D03*
Y337800D02*
D03*
D20*
X346828Y342885D02*
D03*
X341883Y341561D02*
D03*
D21*
X344987Y349749D02*
D03*
X340044Y348425D02*
D03*
X336939Y340236D02*
D03*
X335100Y347100D02*
D03*
X330156Y345775D02*
D03*
X331996Y338911D02*
D03*
D22*
X346800Y314782D02*
D03*
Y319900D02*
D03*
Y325018D02*
D03*
Y330136D02*
D03*
D23*
X381900Y302100D02*
D03*
X371619Y302212D02*
D03*
X371619Y296359D02*
D03*
D24*
X382100Y296400D02*
D03*
X371600Y308000D02*
D03*
X381900D02*
D03*
D25*
X362700Y360100D02*
D03*
X351900Y285500D02*
D03*
M02*
