G04*
G04 #@! TF.GenerationSoftware,Altium Limited,Altium Designer,23.3.1 (30)*
G04*
G04 Layer_Physical_Order=2*
G04 Layer_Color=36540*
%FSLAX25Y25*%
%MOIN*%
G70*
G04*
G04 #@! TF.SameCoordinates,31E1B7B5-1CAE-4E1F-A508-08906AB7C5AB*
G04*
G04*
G04 #@! TF.FilePolarity,Positive*
G04*
G01*
G75*
%ADD35C,0.00500*%
G04:AMPARAMS|DCode=37|XSize=39.37mil|YSize=39.37mil|CornerRadius=9.84mil|HoleSize=0mil|Usage=FLASHONLY|Rotation=90.000|XOffset=0mil|YOffset=0mil|HoleType=Round|Shape=RoundedRectangle|*
%AMROUNDEDRECTD37*
21,1,0.03937,0.01968,0,0,90.0*
21,1,0.01968,0.03937,0,0,90.0*
1,1,0.01968,0.00984,0.00984*
1,1,0.01968,0.00984,-0.00984*
1,1,0.01968,-0.00984,-0.00984*
1,1,0.01968,-0.00984,0.00984*
%
%ADD37ROUNDEDRECTD37*%
%ADD39C,0.02362*%
G36*
X368146Y357958D02*
X368148Y356134D01*
X368159Y356082D01*
X368155Y356028D01*
X368220Y355546D01*
X368258Y355434D01*
X368286Y355318D01*
X368669Y354486D01*
X368769Y354347D01*
X368852Y354232D01*
X368852Y354232D01*
X368852Y354232D01*
X368852Y354232D01*
X369524Y353609D01*
X369650Y353532D01*
X369791Y353445D01*
X370650Y353127D01*
X370766Y353108D01*
X370880Y353078D01*
X371339Y353050D01*
X371364Y353053D01*
X371388Y353048D01*
X387576Y353049D01*
X387897Y352549D01*
X387760Y352217D01*
Y351549D01*
X388016Y350931D01*
X388489Y350458D01*
X389106Y350202D01*
X389775D01*
X390393Y350458D01*
X390866Y350931D01*
X391122Y351549D01*
Y352217D01*
X390985Y352549D01*
X391306Y353049D01*
X394964Y353049D01*
X395171Y352549D01*
X394875Y352252D01*
X394619Y351634D01*
Y350966D01*
X394875Y350348D01*
X395348Y349875D01*
X395966Y349619D01*
X396634D01*
X396848Y349707D01*
X402091Y344464D01*
X401841Y344031D01*
X379595Y349992D01*
X379594Y349992D01*
X379282Y350012D01*
X378985Y349911D01*
X378750Y349705D01*
X378611Y349424D01*
X377694Y346001D01*
X377694Y346001D01*
X377677Y345736D01*
X377536Y345631D01*
X377212Y345494D01*
X373468Y349238D01*
X373220Y349404D01*
X372927Y349462D01*
X369368D01*
X369290Y349649D01*
X368817Y350122D01*
X368199Y350378D01*
X367530D01*
X366912Y350122D01*
X366440Y349649D01*
X366184Y349031D01*
Y348363D01*
X366440Y347745D01*
X366912Y347272D01*
X367530Y347016D01*
X368199D01*
X368817Y347272D01*
X369290Y347745D01*
X369368Y347933D01*
X372611D01*
X376163Y344380D01*
X375972Y343918D01*
X352286D01*
X352141Y344123D01*
X352061Y344400D01*
X352510Y344849D01*
X352676Y345097D01*
X352734Y345390D01*
X352734Y345390D01*
Y348754D01*
X352676Y349047D01*
X352510Y349295D01*
X349564Y352241D01*
X349316Y352407D01*
X349023Y352465D01*
X339896D01*
X339855Y352529D01*
X340127Y353028D01*
X354492Y353029D01*
X354884Y353021D01*
X355000Y353042D01*
X355117Y353051D01*
X355826Y353250D01*
X355963Y353320D01*
X356101Y353389D01*
X356682Y353841D01*
X356783Y353957D01*
X356885Y354074D01*
X357253Y354712D01*
X357290Y354822D01*
X357339Y354927D01*
X357424Y355287D01*
X357428Y355381D01*
X357446Y355473D01*
X357445Y357572D01*
X357945Y357706D01*
X358447Y356837D01*
X359436Y355847D01*
X360648Y355147D01*
X362000Y354785D01*
X363400D01*
X364752Y355147D01*
X365964Y355847D01*
X366953Y356837D01*
X367653Y358049D01*
X368146Y357958D01*
D02*
G37*
G36*
X336423Y352528D02*
X336219Y352034D01*
Y351366D01*
X336475Y350748D01*
X336948Y350275D01*
X337566Y350019D01*
X338234D01*
X338852Y350275D01*
X339325Y350748D01*
X339403Y350935D01*
X348707D01*
X349310Y350332D01*
X349180Y349849D01*
X325811Y343588D01*
X325530Y343449D01*
X325323Y343214D01*
X325222Y342917D01*
X325243Y342604D01*
X326160Y339182D01*
X326299Y338901D01*
X326534Y338694D01*
X326831Y338594D01*
X327143Y338614D01*
X349390Y344575D01*
X349640Y344142D01*
X345203Y339705D01*
X344725Y339552D01*
X344252Y340025D01*
X343634Y340281D01*
X342966D01*
X342348Y340025D01*
X341875Y339552D01*
X341619Y338934D01*
Y338266D01*
X341875Y337648D01*
X342348Y337175D01*
X342535Y337097D01*
Y326063D01*
X342314Y325842D01*
X335912D01*
X335825Y326052D01*
X335352Y326525D01*
X335165Y326603D01*
Y331238D01*
X335106Y331531D01*
X334941Y331779D01*
X330099Y336621D01*
X329851Y336786D01*
X329558Y336845D01*
X325155D01*
X325155Y336845D01*
X324863Y336786D01*
X324615Y336621D01*
X321370Y333376D01*
X320974Y333687D01*
X322043Y337479D01*
X323476Y341266D01*
X325232Y344913D01*
X327299Y348395D01*
X329660Y351683D01*
X330816Y353028D01*
X336198Y353028D01*
X336423Y352528D01*
D02*
G37*
G36*
X401600Y338765D02*
X401534Y338265D01*
X393403D01*
X393325Y338452D01*
X392852Y338925D01*
X392234Y339181D01*
X391566D01*
X390948Y338925D01*
X390475Y338452D01*
X390219Y337834D01*
Y337166D01*
X390297Y336978D01*
X388083Y334765D01*
X381900D01*
X381900Y334765D01*
X381900Y334765D01*
X379028D01*
X378865Y334928D01*
Y343525D01*
X378806Y343817D01*
X378641Y344065D01*
X378641Y344065D01*
X378185Y344521D01*
X378444Y344969D01*
X401600Y338765D01*
D02*
G37*
G36*
X351192Y343174D02*
X351397Y343029D01*
Y339572D01*
X351458Y339264D01*
X351632Y339004D01*
X351893Y338830D01*
X352200Y338769D01*
X377043D01*
X377335Y338528D01*
Y334962D01*
X377138Y334765D01*
X368903D01*
X368825Y334952D01*
X368352Y335425D01*
X367734Y335681D01*
X367066D01*
X366448Y335425D01*
X365975Y334952D01*
X365719Y334334D01*
Y333666D01*
X365975Y333048D01*
X366448Y332575D01*
X366635Y332497D01*
Y329217D01*
X365683Y328265D01*
X356200D01*
X355907Y328206D01*
X355659Y328041D01*
X354322Y326703D01*
X354134Y326781D01*
X353466D01*
X352848Y326525D01*
X352375Y326052D01*
X352288Y325842D01*
X344247D01*
X344065Y326024D01*
Y337097D01*
X344252Y337175D01*
X344725Y337648D01*
X344824Y337887D01*
X345231D01*
X345524Y337945D01*
X345772Y338111D01*
X350915Y343254D01*
X351192Y343174D01*
D02*
G37*
G36*
X406183Y341115D02*
X406859Y339231D01*
X406865Y339222D01*
X406867Y339211D01*
X407106Y338598D01*
X407530Y337353D01*
X407900Y336090D01*
X408214Y334813D01*
X408343Y334168D01*
X408466Y333552D01*
X408659Y332311D01*
X408798Y331062D01*
X408882Y329808D01*
X408897Y329181D01*
X408907Y329139D01*
X408904Y329097D01*
X409004Y328320D01*
X409089Y327321D01*
X408617Y326976D01*
X408362Y327081D01*
X407693D01*
X407076Y326825D01*
X406603Y326352D01*
X406347Y325734D01*
Y325066D01*
X406603Y324448D01*
X407076Y323975D01*
X407693Y323719D01*
X408362D01*
X408702Y323860D01*
X409038Y323700D01*
X409198Y323539D01*
X409167Y322839D01*
X409173Y322803D01*
X409167Y322766D01*
X409199Y322082D01*
X408945Y321846D01*
X408706Y321754D01*
X408374Y321892D01*
X407705D01*
X407087Y321636D01*
X406614Y321163D01*
X406358Y320545D01*
Y319876D01*
X406614Y319258D01*
X407087Y318785D01*
X407212Y318734D01*
Y312921D01*
X404818Y310526D01*
X404318Y310734D01*
Y335282D01*
X404257Y335589D01*
X404083Y335850D01*
X403822Y336024D01*
X403515Y336085D01*
X399972D01*
X399664Y336024D01*
X399404Y335850D01*
X399230Y335589D01*
X399169Y335282D01*
Y311510D01*
X398707Y311318D01*
X394465Y315561D01*
Y317897D01*
X394652Y317975D01*
X395125Y318448D01*
X395381Y319066D01*
Y319734D01*
X395125Y320352D01*
X394652Y320825D01*
X394034Y321081D01*
X393366D01*
X392748Y320825D01*
X392275Y320352D01*
X392197Y320165D01*
X390317D01*
X389165Y321317D01*
Y333683D01*
X391378Y335897D01*
X391566Y335819D01*
X392234D01*
X392852Y336075D01*
X393325Y336548D01*
X393403Y336735D01*
X402069D01*
X402362Y336793D01*
X402610Y336959D01*
X404961Y339311D01*
X405127Y339559D01*
X405185Y339851D01*
Y342091D01*
X405685Y342200D01*
X406183Y341115D01*
D02*
G37*
G36*
X387635Y332913D02*
Y321000D01*
X387694Y320707D01*
X387859Y320459D01*
X389459Y318859D01*
X389707Y318693D01*
X390000Y318635D01*
X392197D01*
X392275Y318448D01*
X392748Y317975D01*
X392935Y317897D01*
Y315244D01*
X392993Y314951D01*
X393159Y314703D01*
X398980Y308882D01*
X398789Y308420D01*
X387883D01*
X387842Y308412D01*
X387800Y308416D01*
X387356Y308370D01*
X387244Y308335D01*
X387129Y308312D01*
X386308Y307970D01*
X386180Y307884D01*
X386050Y307797D01*
X385421Y307168D01*
X385333Y307037D01*
X385247Y306909D01*
X384905Y306088D01*
X384882Y305973D01*
X384847Y305861D01*
X384801Y305417D01*
X384805Y305375D01*
X384797Y305335D01*
X384797Y303638D01*
X384297Y303589D01*
X384282Y303663D01*
X383954Y304154D01*
X383463Y304482D01*
X382884Y304598D01*
X380916D01*
X380337Y304482D01*
X379846Y304154D01*
X379518Y303663D01*
X379402Y303084D01*
Y301116D01*
X379518Y300537D01*
X379846Y300046D01*
X380337Y299718D01*
X380916Y299602D01*
X382884D01*
X383463Y299718D01*
X383954Y300046D01*
X384282Y300537D01*
X384297Y300611D01*
X384797Y300562D01*
Y295000D01*
X384811Y294931D01*
X384809Y294861D01*
X384860Y294572D01*
X384736Y294002D01*
X384403Y293524D01*
X383913Y293210D01*
X383697Y293171D01*
X360447D01*
X360402Y293162D01*
X360356Y293166D01*
X359893Y293113D01*
X359784Y293078D01*
X359673Y293055D01*
X358821Y292697D01*
X358693Y292611D01*
X358565Y292525D01*
X357943Y291904D01*
X357747Y291911D01*
X357433Y291983D01*
X357398Y292004D01*
X357225Y292422D01*
X356752Y292895D01*
X356134Y293150D01*
X355466D01*
X354848Y292895D01*
X354375Y292422D01*
X354119Y291804D01*
Y291135D01*
X354229Y290870D01*
X354100Y290677D01*
X353849Y290480D01*
X352600Y290815D01*
X351200D01*
X349849Y290453D01*
X349612Y290316D01*
X349215Y290664D01*
X349381Y291066D01*
Y291734D01*
X349125Y292352D01*
X348652Y292825D01*
X348298Y292972D01*
X348241Y293258D01*
X348075Y293506D01*
X348075Y293506D01*
X345841Y295741D01*
X345593Y295906D01*
X345300Y295965D01*
X337317D01*
X335165Y298117D01*
Y323597D01*
X335352Y323675D01*
X335825Y324148D01*
X335893Y324312D01*
X352307D01*
X352375Y324148D01*
X352848Y323675D01*
X353466Y323419D01*
X354134D01*
X354752Y323675D01*
X355225Y324148D01*
X355481Y324766D01*
Y325434D01*
X355403Y325622D01*
X356517Y326735D01*
X366000D01*
X366293Y326794D01*
X366541Y326959D01*
X367941Y328359D01*
X368107Y328607D01*
X368165Y328900D01*
Y332497D01*
X368352Y332575D01*
X368825Y333048D01*
X368903Y333235D01*
X380747D01*
X381020Y332963D01*
Y310498D01*
X380916D01*
X380337Y310382D01*
X379846Y310054D01*
X379518Y309563D01*
X379402Y308984D01*
Y307016D01*
X379518Y306437D01*
X379846Y305946D01*
X380337Y305618D01*
X380916Y305502D01*
X382884D01*
X383463Y305618D01*
X383954Y305946D01*
X384282Y306437D01*
X384398Y307016D01*
Y308984D01*
X384282Y309563D01*
X383954Y310054D01*
X383463Y310382D01*
X382884Y310498D01*
X382549D01*
Y333017D01*
X382768Y333235D01*
X387313D01*
X387635Y332913D01*
D02*
G37*
%LPC*%
G36*
X362034Y351681D02*
X361366D01*
X360748Y351425D01*
X360275Y350952D01*
X360019Y350334D01*
Y349666D01*
X360275Y349048D01*
X360748Y348575D01*
X361366Y348319D01*
X362034D01*
X362652Y348575D01*
X363125Y349048D01*
X363381Y349666D01*
Y350334D01*
X363125Y350952D01*
X362652Y351425D01*
X362034Y351681D01*
D02*
G37*
G36*
X334134Y352081D02*
X333466D01*
X332848Y351825D01*
X332375Y351352D01*
X332119Y350734D01*
Y350066D01*
X332375Y349448D01*
X332848Y348975D01*
X333466Y348719D01*
X334134D01*
X334752Y348975D01*
X335225Y349448D01*
X335481Y350066D01*
Y350734D01*
X335225Y351352D01*
X334752Y351825D01*
X334134Y352081D01*
D02*
G37*
G36*
X337934Y337881D02*
X337266D01*
X336648Y337625D01*
X336175Y337152D01*
X335919Y336534D01*
Y335866D01*
X336175Y335248D01*
X336648Y334775D01*
X337266Y334519D01*
X337934D01*
X338552Y334775D01*
X339025Y335248D01*
X339281Y335866D01*
Y336534D01*
X339025Y337152D01*
X338552Y337625D01*
X337934Y337881D01*
D02*
G37*
G36*
X387834Y339381D02*
X387166D01*
X386548Y339125D01*
X386075Y338652D01*
X385819Y338034D01*
Y337366D01*
X386075Y336748D01*
X386548Y336275D01*
X387166Y336019D01*
X387834D01*
X388452Y336275D01*
X388925Y336748D01*
X389181Y337366D01*
Y338034D01*
X388925Y338652D01*
X388452Y339125D01*
X387834Y339381D01*
D02*
G37*
G36*
X363234Y332681D02*
X362566D01*
X361948Y332425D01*
X361475Y331952D01*
X361219Y331334D01*
Y330666D01*
X361475Y330048D01*
X361948Y329575D01*
X362566Y329319D01*
X363234D01*
X363852Y329575D01*
X364325Y330048D01*
X364581Y330666D01*
Y331334D01*
X364325Y331952D01*
X363852Y332425D01*
X363234Y332681D01*
D02*
G37*
G36*
X395134Y327081D02*
X394466D01*
X393848Y326825D01*
X393375Y326352D01*
X393119Y325734D01*
Y325066D01*
X393375Y324448D01*
X393848Y323975D01*
X394466Y323719D01*
X395134D01*
X395752Y323975D01*
X396225Y324448D01*
X396481Y325066D01*
Y325734D01*
X396225Y326352D01*
X395752Y326825D01*
X395134Y327081D01*
D02*
G37*
G36*
X359434Y325581D02*
X358766D01*
X358148Y325325D01*
X357675Y324852D01*
X357419Y324234D01*
Y323566D01*
X357675Y322948D01*
X358148Y322475D01*
X358766Y322219D01*
X359434D01*
X360052Y322475D01*
X360525Y322948D01*
X360781Y323566D01*
Y324234D01*
X360525Y324852D01*
X360052Y325325D01*
X359434Y325581D01*
D02*
G37*
G36*
X338134Y321681D02*
X337466D01*
X336848Y321425D01*
X336375Y320952D01*
X336119Y320334D01*
Y319666D01*
X336375Y319048D01*
X336848Y318575D01*
X337466Y318319D01*
X338134D01*
X338752Y318575D01*
X339225Y319048D01*
X339481Y319666D01*
Y320334D01*
X339225Y320952D01*
X338752Y321425D01*
X338134Y321681D01*
D02*
G37*
G36*
X372034Y321381D02*
X371366D01*
X370748Y321125D01*
X370275Y320652D01*
X370019Y320034D01*
Y319366D01*
X370275Y318748D01*
X370748Y318275D01*
X371366Y318019D01*
X372034D01*
X372652Y318275D01*
X373125Y318748D01*
X373381Y319366D01*
Y320034D01*
X373125Y320652D01*
X372652Y321125D01*
X372034Y321381D01*
D02*
G37*
G36*
X372584Y310498D02*
X370616D01*
X370037Y310382D01*
X369546Y310054D01*
X369218Y309563D01*
X369102Y308984D01*
Y307016D01*
X369218Y306437D01*
X369546Y305946D01*
X370037Y305618D01*
X370616Y305502D01*
X372584D01*
X373163Y305618D01*
X373654Y305946D01*
X373982Y306437D01*
X374098Y307016D01*
Y308984D01*
X373982Y309563D01*
X373654Y310054D01*
X373163Y310382D01*
X372584Y310498D01*
D02*
G37*
G36*
X344534Y304081D02*
X343866D01*
X343248Y303825D01*
X342775Y303352D01*
X342519Y302734D01*
Y302066D01*
X342775Y301448D01*
X343248Y300975D01*
X343866Y300719D01*
X344534D01*
X345152Y300975D01*
X345625Y301448D01*
X345881Y302066D01*
Y302734D01*
X345625Y303352D01*
X345152Y303825D01*
X344534Y304081D01*
D02*
G37*
G36*
X372604Y304710D02*
X370635D01*
X370056Y304595D01*
X369565Y304267D01*
X369237Y303776D01*
X369122Y303197D01*
Y301228D01*
X369237Y300649D01*
X369565Y300158D01*
X370056Y299830D01*
X370635Y299715D01*
X372604D01*
X373183Y299830D01*
X373674Y300158D01*
X374002Y300649D01*
X374117Y301228D01*
Y303197D01*
X374002Y303776D01*
X373674Y304267D01*
X373183Y304595D01*
X372604Y304710D01*
D02*
G37*
G36*
X372604Y298856D02*
X370635D01*
X370056Y298741D01*
X369565Y298413D01*
X369237Y297922D01*
X369122Y297343D01*
Y295374D01*
X369237Y294795D01*
X369565Y294304D01*
X370056Y293976D01*
X370635Y293861D01*
X372604D01*
X373183Y293976D01*
X373674Y294304D01*
X374002Y294795D01*
X374117Y295374D01*
Y297343D01*
X374002Y297922D01*
X373674Y298413D01*
X373183Y298741D01*
X372604Y298856D01*
D02*
G37*
%LPD*%
D35*
X343300Y325659D02*
X343348D01*
X343300D02*
Y338600D01*
Y325077D02*
Y325659D01*
X343348D02*
X343880Y325127D01*
X342631Y325077D02*
X343300D01*
X334423D02*
X342631D01*
X343212Y325659D01*
X343300D01*
X387742Y334000D02*
X388400D01*
X381900D02*
X387742D01*
Y333888D02*
Y334000D01*
Y333888D02*
X388325Y333305D01*
X381784Y333362D02*
X381813D01*
X382420Y333969D01*
X381701Y333362D02*
X381784D01*
X381064Y334000D02*
X381900D01*
X378100D02*
X381064D01*
X381784Y333362D02*
Y333884D01*
Y309302D02*
Y333362D01*
X381064Y334000D02*
X381701Y333362D01*
X378601Y334004D02*
Y334110D01*
X378100Y334611D02*
X378601Y334110D01*
X378100Y334611D02*
Y343525D01*
Y334000D02*
Y334611D01*
X378066D02*
X378100D01*
X377513Y334058D02*
X378066Y334611D01*
X381784Y333884D02*
X381900Y334000D01*
X347534Y291565D02*
Y292966D01*
Y291565D02*
X347700Y291400D01*
X345300Y295200D02*
X347534Y292966D01*
X334400Y297800D02*
X337000Y295200D01*
X345300D01*
X334400Y325100D02*
Y331238D01*
X329558Y336080D02*
X334400Y331238D01*
X325155Y336080D02*
X329558D01*
X321016Y331940D02*
X325155Y336080D01*
X321016Y326197D02*
Y331940D01*
X343300Y338600D02*
X343352Y338652D01*
X345231D01*
X351969Y345390D01*
X349023Y351700D02*
X351969Y348754D01*
Y345390D02*
Y348754D01*
X337900Y351700D02*
X349023D01*
X367400Y334000D02*
X378100D01*
X372927Y348697D02*
X378100Y343525D01*
X367865Y348697D02*
X372927D01*
X396300Y351300D02*
X396336D01*
X404420Y343216D01*
Y339851D02*
Y343216D01*
X402069Y337500D02*
X404420Y339851D01*
X391900Y337500D02*
X402069D01*
X393700Y315244D02*
Y319400D01*
Y315244D02*
X400145Y308799D01*
X404171D01*
X407976Y312604D01*
Y320147D02*
X408040Y320210D01*
X407976Y312604D02*
Y320147D01*
X334400Y297800D02*
Y325100D01*
X353800D02*
X356200Y327500D01*
X367400Y328900D02*
Y334000D01*
X390000Y319400D02*
X393700D01*
X388400Y321000D02*
X390000Y319400D01*
X388400Y321000D02*
Y334000D01*
X391900Y337500D01*
X366000Y327500D02*
X367400Y328900D01*
X356200Y327500D02*
X366000D01*
X343300Y325077D02*
X353777D01*
D37*
X382100Y296400D02*
D03*
X381900Y308000D02*
D03*
D39*
X338500Y314800D02*
D03*
X377100Y349400D02*
D03*
X382500Y337400D02*
D03*
X333179Y335858D02*
D03*
X334400Y325100D02*
D03*
X321016Y326197D02*
D03*
X343300Y338600D02*
D03*
X367400Y334000D02*
D03*
X353800Y325100D02*
D03*
X347700Y291400D02*
D03*
X393700Y319400D02*
D03*
X391900Y337500D02*
D03*
X386300Y311800D02*
D03*
X408040Y320210D02*
D03*
X367865Y348697D02*
D03*
X396300Y351300D02*
D03*
X337900Y351700D02*
D03*
X394350Y331750D02*
D03*
X356964Y333000D02*
D03*
M02*
