G04*
G04 #@! TF.GenerationSoftware,Altium Limited,Altium Designer,23.0.1 (38)*
G04*
G04 Layer_Physical_Order=1*
G04 Layer_Color=255*
%FSLAX25Y25*%
%MOIN*%
G70*
G04*
G04 #@! TF.SameCoordinates,C8DA3EBC-D80D-4B36-BEA7-CCC05AEA56C0*
G04*
G04*
G04 #@! TF.FilePolarity,Positive*
G04*
G01*
G75*
%ADD22C,0.00500*%
%ADD23R,0.09843X0.03937*%
%ADD24C,0.01000*%
%ADD25R,0.02756X0.03937*%
%ADD26R,0.02756X0.03937*%
G04:AMPARAMS|DCode=27|XSize=27.56mil|YSize=39.37mil|CornerRadius=0mil|HoleSize=0mil|Usage=FLASHONLY|Rotation=255.000|XOffset=0mil|YOffset=0mil|HoleType=Round|Shape=Rectangle|*
%AMROTATEDRECTD27*
4,1,4,-0.01545,0.01841,0.02258,0.00822,0.01545,-0.01841,-0.02258,-0.00822,-0.01545,0.01841,0.0*
%
%ADD27ROTATEDRECTD27*%

G04:AMPARAMS|DCode=28|XSize=27.56mil|YSize=39.37mil|CornerRadius=0mil|HoleSize=0mil|Usage=FLASHONLY|Rotation=255.000|XOffset=0mil|YOffset=0mil|HoleType=Round|Shape=Rectangle|*
%AMROTATEDRECTD28*
4,1,4,-0.01545,0.01841,0.02258,0.00822,0.01545,-0.01841,-0.02258,-0.00822,-0.01545,0.01841,0.0*
%
%ADD28ROTATEDRECTD28*%

%ADD29R,0.03937X0.02756*%
%ADD30R,0.03937X0.02756*%
G04:AMPARAMS|DCode=31|XSize=27.56mil|YSize=39.37mil|CornerRadius=0mil|HoleSize=0mil|Usage=FLASHONLY|Rotation=285.000|XOffset=0mil|YOffset=0mil|HoleType=Round|Shape=Rectangle|*
%AMROTATEDRECTD31*
4,1,4,-0.02258,0.00822,0.01545,0.01841,0.02258,-0.00822,-0.01545,-0.01841,-0.02258,0.00822,0.0*
%
%ADD31ROTATEDRECTD31*%

G04:AMPARAMS|DCode=32|XSize=27.56mil|YSize=39.37mil|CornerRadius=0mil|HoleSize=0mil|Usage=FLASHONLY|Rotation=285.000|XOffset=0mil|YOffset=0mil|HoleType=Round|Shape=Rectangle|*
%AMROTATEDRECTD32*
4,1,4,-0.02258,0.00822,0.01545,0.01841,0.02258,-0.00822,-0.01545,-0.01841,-0.02258,0.00822,0.0*
%
%ADD32ROTATEDRECTD32*%

%ADD33C,0.09600*%
%ADD34C,0.02362*%
G36*
X362039Y209894D02*
X361612Y208298D01*
X359395Y208892D01*
X359395Y208892D01*
X359082Y208912D01*
X358785Y208811D01*
X358550Y208605D01*
X358411Y208324D01*
X357494Y204901D01*
X357494Y204901D01*
X357474Y204589D01*
X357574Y204292D01*
X357781Y204057D01*
X358062Y203918D01*
X360279Y203324D01*
X359542Y200574D01*
X364003Y199379D01*
X364311Y199296D01*
Y199296D01*
X364486Y199250D01*
X364486Y199250D01*
X369255Y197972D01*
X369991Y200722D01*
X375111Y199350D01*
X374375Y196600D01*
X376225Y196104D01*
Y195243D01*
X374202Y193220D01*
X358027D01*
X354588Y196659D01*
Y197669D01*
X356842D01*
X357150Y197730D01*
X357410Y197904D01*
X357584Y198164D01*
X357645Y198472D01*
Y202015D01*
X357584Y202322D01*
X357410Y202583D01*
X357150Y202757D01*
X356842Y202818D01*
X354587D01*
Y205684D01*
X349650D01*
Y202818D01*
X344350D01*
Y205684D01*
X343219D01*
X343028Y206146D01*
X344417Y207535D01*
X347201D01*
X347375Y207117D01*
X347848Y206644D01*
X348466Y206388D01*
X349134D01*
X349752Y206644D01*
X350225Y207117D01*
X350481Y207734D01*
Y208403D01*
X350225Y209021D01*
X349752Y209494D01*
X349134Y209750D01*
X348466D01*
X347848Y209494D01*
X347418Y209065D01*
X344100D01*
X343807Y209007D01*
X343559Y208841D01*
X341159Y206441D01*
X340993Y206193D01*
X340935Y205900D01*
Y205684D01*
X339413D01*
Y205684D01*
X339232D01*
Y205684D01*
X337307D01*
Y210662D01*
X337567Y210922D01*
X361012D01*
X362039Y209894D01*
D02*
G37*
G36*
X324121Y210415D02*
X321917Y209824D01*
X322659Y207056D01*
X317540Y205684D01*
X316798Y208453D01*
X312030Y207175D01*
X312030Y207175D01*
X311855Y207128D01*
X311855Y207128D01*
X311547Y207046D01*
X308104Y206123D01*
X307802Y206522D01*
X307936Y206747D01*
X310247Y209965D01*
X311059Y210911D01*
X324056D01*
X324121Y210415D01*
D02*
G37*
G36*
X380077Y210441D02*
X382340Y207138D01*
X383721Y204699D01*
X383345Y204350D01*
X383237Y204422D01*
X382944Y204480D01*
X382006D01*
X381702Y204876D01*
X381953Y205815D01*
X377185Y207092D01*
X376443Y204324D01*
X371324Y205695D01*
X372066Y208464D01*
X367297Y209742D01*
Y209742D01*
X366814Y209871D01*
X363278Y210819D01*
X362610Y211487D01*
X362801Y211949D01*
X378841Y211949D01*
X380077Y210441D01*
D02*
G37*
G36*
X324730Y199333D02*
X325059Y199421D01*
X325455Y199117D01*
Y191505D01*
X321179D01*
Y190138D01*
X312578D01*
Y191688D01*
X309731D01*
Y193942D01*
X309670Y194250D01*
X309496Y194510D01*
X309236Y194684D01*
X308928Y194745D01*
X305385D01*
X305078Y194684D01*
X304817Y194510D01*
X304643Y194250D01*
X304582Y193942D01*
Y191687D01*
X302121D01*
X301706Y192183D01*
X301720Y192253D01*
X302794Y196066D01*
X304196Y199771D01*
X304706Y200830D01*
X305237Y200780D01*
X305960Y198082D01*
X306099Y197801D01*
X306334Y197594D01*
X306631Y197494D01*
X306943Y197514D01*
X309160Y198108D01*
X309897Y195358D01*
X314666Y196636D01*
Y196636D01*
X314841Y196683D01*
X315149Y196765D01*
X319610Y197961D01*
X318873Y200711D01*
X323993Y202082D01*
X324730Y199333D01*
D02*
G37*
G36*
X335778Y210679D02*
Y205684D01*
X334295D01*
Y202818D01*
X332000D01*
X331693Y202757D01*
X331432Y202583D01*
X331258Y202322D01*
X331197Y202015D01*
Y198472D01*
X331258Y198164D01*
X331432Y197904D01*
X331693Y197730D01*
X332000Y197669D01*
X334295D01*
Y194822D01*
X339232D01*
Y194822D01*
X339413D01*
Y194822D01*
X344350D01*
Y197669D01*
X349651D01*
Y194822D01*
X353541D01*
X356884Y191479D01*
X357214Y191258D01*
X357605Y191180D01*
X371385D01*
X371576Y190718D01*
X370012Y189154D01*
X332021D01*
Y191505D01*
X327495D01*
Y200074D01*
X329498Y200610D01*
X328762Y203360D01*
X330939Y203944D01*
X330939D01*
X331220Y204082D01*
X331427Y204318D01*
X331527Y204614D01*
X331507Y204927D01*
X330590Y208350D01*
X330451Y208630D01*
X330216Y208837D01*
X329919Y208938D01*
X329607Y208917D01*
X329607Y208917D01*
X327428Y208333D01*
X326843Y210514D01*
X327148Y210911D01*
X335546D01*
X335778Y210679D01*
D02*
G37*
G36*
X376122Y191549D02*
Y186950D01*
X376122D01*
Y186768D01*
X376122D01*
Y184967D01*
X368202D01*
X367910Y184909D01*
X367662Y184743D01*
X361683Y178765D01*
X332021D01*
Y181269D01*
X321179D01*
Y179647D01*
X312578D01*
Y181450D01*
X309731D01*
Y186751D01*
X312578D01*
Y188099D01*
X321179D01*
Y186568D01*
X332021D01*
Y187114D01*
X370434D01*
X370824Y187192D01*
X371155Y187413D01*
X374996Y191254D01*
X375015Y191258D01*
X375345Y191479D01*
X375622Y191756D01*
X376122Y191549D01*
D02*
G37*
G36*
X301716Y189554D02*
Y186750D01*
X304582D01*
Y181450D01*
X301716D01*
Y176649D01*
X301277Y176366D01*
X300797Y176774D01*
X300527Y180459D01*
X300582Y184420D01*
X300980Y188362D01*
X301216Y189601D01*
X301716Y189554D01*
D02*
G37*
G36*
X387602Y189873D02*
X387684Y188663D01*
X387688Y188479D01*
X387643Y187977D01*
X387708Y187641D01*
X387739Y187505D01*
X387742Y187492D01*
X387767Y187367D01*
X387772Y187359D01*
X387774Y187350D01*
X387781Y187340D01*
X387810Y187113D01*
X387940Y185593D01*
X388002Y184109D01*
Y182544D01*
X387989Y182244D01*
X387967Y182133D01*
Y181274D01*
X387990Y181157D01*
X388006Y180823D01*
Y179099D01*
X387946Y177618D01*
X387862Y176614D01*
X387446Y176198D01*
X386984Y176390D01*
Y176532D01*
X384118D01*
Y181832D01*
X386984D01*
Y186768D01*
X386984D01*
Y186950D01*
X386984D01*
Y190905D01*
X387484Y190932D01*
X387602Y189873D01*
D02*
G37*
G36*
X376122Y181832D02*
X378969D01*
Y176531D01*
X376122D01*
Y175002D01*
X339982D01*
X339592Y174924D01*
X339261Y174703D01*
X333978Y169420D01*
X327300D01*
X326910Y169342D01*
X326579Y169121D01*
X325179Y167721D01*
X324958Y167390D01*
X324880Y167000D01*
Y162658D01*
X324475Y162252D01*
X324219Y161634D01*
Y160966D01*
X324475Y160348D01*
X324948Y159875D01*
X325566Y159619D01*
X326234D01*
X326852Y159875D01*
X327325Y160348D01*
X327581Y160966D01*
Y161634D01*
X327325Y162252D01*
X326920Y162658D01*
Y166578D01*
X327722Y167380D01*
X334400D01*
X334790Y167458D01*
X335121Y167679D01*
X340404Y172962D01*
X376122D01*
Y171594D01*
X378969D01*
Y169339D01*
X379030Y169032D01*
X379204Y168772D01*
X379464Y168598D01*
X379772Y168536D01*
X383315D01*
X383622Y168598D01*
X383883Y168772D01*
X384057Y169032D01*
X384118Y169339D01*
Y171595D01*
X386984D01*
Y173573D01*
X388173Y174762D01*
X388349Y174726D01*
X388651Y174533D01*
X388565Y173853D01*
X388428Y173052D01*
X388257Y172257D01*
X388154Y171864D01*
X388154Y171863D01*
X388153Y171863D01*
X388050Y171466D01*
X387745Y170704D01*
X387349Y169986D01*
X386866Y169322D01*
X386304Y168724D01*
X385672Y168201D01*
X384980Y167760D01*
X384239Y167408D01*
X383971Y167320D01*
X378051Y167320D01*
X367683D01*
X367642Y167312D01*
X367600Y167316D01*
X367156Y167270D01*
X367044Y167235D01*
X366929Y167212D01*
X366108Y166870D01*
X365980Y166783D01*
X365850Y166697D01*
X365221Y166068D01*
X365134Y165937D01*
X365047Y165809D01*
X364705Y164988D01*
X364682Y164873D01*
X364647Y164761D01*
X364601Y164317D01*
X364605Y164275D01*
X364597Y164235D01*
X364597Y161926D01*
Y153900D01*
X364611Y153831D01*
X364609Y153761D01*
X364660Y153472D01*
X364536Y152902D01*
X364203Y152424D01*
X363713Y152110D01*
X363497Y152071D01*
X340247D01*
X340202Y152062D01*
X340157Y152066D01*
X339693Y152013D01*
X339584Y151978D01*
X339473Y151955D01*
X338621Y151597D01*
X338493Y151511D01*
X338365Y151425D01*
X337712Y150773D01*
X337626Y150645D01*
X337540Y150517D01*
X337181Y149666D01*
X337157Y149552D01*
X337122Y149442D01*
X337072Y148980D01*
X337075Y148936D01*
X337067Y148893D01*
Y146734D01*
X336567Y146600D01*
X335953Y147663D01*
X334963Y148653D01*
X333752Y149353D01*
X332400Y149715D01*
X331000D01*
X329648Y149353D01*
X328436Y148653D01*
X327447Y147663D01*
X326862Y146651D01*
X326362Y146785D01*
X326362Y148991D01*
X326348Y149062D01*
X326349Y149134D01*
X326280Y149519D01*
X326238Y149625D01*
X326208Y149734D01*
X325860Y150434D01*
X325756Y150568D01*
X325668Y150682D01*
X325668Y150682D01*
X325668Y150682D01*
X325078Y151195D01*
X324953Y151267D01*
X324806Y151350D01*
X324065Y151599D01*
X323948Y151614D01*
X323833Y151640D01*
X323441Y151652D01*
X323429Y151649D01*
X323417Y151652D01*
X318700Y151651D01*
X318640Y151651D01*
X318528Y151691D01*
X318436Y151765D01*
X318373Y151866D01*
X318360Y151924D01*
X318332Y151987D01*
X318318Y152056D01*
X318269Y152129D01*
X318233Y152210D01*
X318183Y152258D01*
X318144Y152316D01*
X318070Y152365D01*
X318006Y152426D01*
X317941Y152452D01*
X317883Y152490D01*
X317797Y152507D01*
X317714Y152539D01*
X317645Y152538D01*
X317576Y152551D01*
X309873Y152551D01*
X308683Y154057D01*
X306410Y157413D01*
X304440Y160950D01*
X302785Y164645D01*
X301458Y168470D01*
X300467Y172395D01*
X300086Y174755D01*
X300522Y175000D01*
X301716Y173983D01*
Y171395D01*
X304582D01*
Y169100D01*
X304643Y168793D01*
X304817Y168532D01*
X305078Y168358D01*
X305385Y168297D01*
X308928D01*
X309236Y168358D01*
X309496Y168532D01*
X309670Y168793D01*
X309731Y169100D01*
Y171395D01*
X312578D01*
Y172699D01*
X321179D01*
Y171213D01*
X332021D01*
Y176150D01*
X332021D01*
Y176331D01*
X332021D01*
Y177235D01*
X362000D01*
X362293Y177294D01*
X362541Y177459D01*
X368519Y183438D01*
X376122D01*
Y181832D01*
D02*
G37*
D22*
X310584Y211529D02*
X310584Y211529D01*
X300187Y176291D02*
X300188Y176291D01*
X388465Y187997D02*
Y187997D01*
X305512Y204161D02*
X305784Y204620D01*
X305239Y203702D02*
X305512Y204161D01*
X305784Y204620D02*
X306123Y205191D01*
X305784Y204620D02*
X306583D01*
X305784D02*
X305784D01*
X306583D02*
X306638Y204675D01*
X306123Y205191D02*
X306638Y204675D01*
X306948D01*
X309956D01*
X304362Y201879D02*
Y201881D01*
X303493Y200073D02*
X304350Y201854D01*
X304362Y201881D02*
X305239Y203702D01*
X304350Y201854D02*
X304362Y201879D01*
X306123Y205191D02*
X307296Y207166D01*
X310584Y211529D02*
X310731Y211676D01*
X310571Y211516D02*
X310584Y211529D01*
X310261Y173764D02*
X310561Y173464D01*
X323100D01*
X300188Y176291D02*
X300202Y176277D01*
X300056Y176423D02*
X300187Y176291D01*
X308136Y208336D02*
X309645Y210438D01*
X307296Y207166D02*
X308136Y208336D01*
X310731Y211676D02*
X335863D01*
X309462Y205170D02*
X309956Y204675D01*
X309645Y210438D02*
X310571Y211516D01*
X335863Y211686D02*
X336500D01*
X337223Y211659D02*
X337239D01*
X336543Y210979D02*
X337223Y211659D01*
X336500Y211686D02*
X361329D01*
X336543Y210996D02*
Y211644D01*
Y210979D02*
Y210996D01*
X335863Y211676D02*
X336543Y210996D01*
Y203992D02*
Y210979D01*
X336500Y211686D02*
X336543Y211644D01*
X361329Y211686D02*
X364080Y208935D01*
X388464Y188021D02*
X388465Y187997D01*
X341700Y203906D02*
Y205900D01*
Y203906D02*
X341800Y203806D01*
X322800Y178882D02*
X323682Y178000D01*
X310462Y178882D02*
X322800D01*
X368202Y184202D02*
X378854D01*
X388364Y189941D02*
X388448Y188698D01*
X388226Y191180D02*
X388364Y189941D01*
X388035Y192411D02*
X388226Y191180D01*
X387913Y193022D02*
X388035Y192411D01*
X388516Y187617D02*
X388534Y187476D01*
X387473Y194929D02*
X387785Y193662D01*
X388465Y187997D02*
X388473Y187660D01*
X387106Y196182D02*
X387473Y194929D01*
X386685Y197418D02*
X387106Y196182D01*
X386527Y197823D02*
X386685Y197418D01*
X387785Y193662D02*
X387913Y193022D01*
X386517Y197833D02*
X386527Y197823D01*
X388463Y188033D02*
Y188087D01*
Y188033D02*
X388464Y188021D01*
X386443Y198039D02*
X386517Y197833D01*
X386378Y198207D02*
Y198222D01*
Y198207D02*
X386443Y198039D01*
X385765Y199926D02*
X386378Y198222D01*
X384945Y201714D02*
X385765Y199926D01*
X382944Y203715D02*
X384882Y201778D01*
X384945Y201714D01*
X388448Y188698D02*
X388463Y188087D01*
X388473Y187660D02*
X388516Y187617D01*
X388710Y177581D02*
X388770Y179084D01*
X386311Y173982D02*
X388601Y176272D01*
X388709Y177570D01*
X388710Y177581D01*
X385331Y173982D02*
X386311D01*
X388770Y179084D02*
Y180841D01*
X388751Y181254D02*
X388770Y180841D01*
X388732Y181274D02*
Y182133D01*
X388751Y182152D01*
X388767Y182527D01*
Y184125D01*
X388703Y185640D02*
X388767Y184125D01*
X388702Y185653D02*
X388703Y185640D01*
X388571Y187195D02*
X388702Y185653D01*
X388732Y181274D02*
X388751Y181254D01*
X388534Y187476D02*
X388571Y187195D01*
X381030Y203715D02*
X382944D01*
X379784Y204961D02*
X381030Y203715D01*
X300202Y176277D02*
X303085Y173822D01*
X303225Y173703D02*
X303409Y173702D01*
X303085Y173822D02*
X303225Y173703D01*
X323682Y178000D02*
X362000D01*
X368202Y184202D01*
X371300Y195100D02*
X371323Y195077D01*
X371583D01*
X353300Y182600D02*
X353400D01*
X344100Y208300D02*
X348569D01*
X348800Y208069D01*
X341700Y205900D02*
X344100Y208300D01*
X321187Y197913D02*
X321500Y197600D01*
X320987Y199731D02*
X321187Y199531D01*
Y197913D02*
Y199531D01*
X299762Y180433D02*
X300042Y176608D01*
X300056Y176423D01*
X299817Y184464D02*
X300223Y188472D01*
X302067Y196306D02*
X303493Y200073D01*
X299762Y180433D02*
Y180455D01*
X300975Y192429D02*
X302067Y196306D01*
X300223Y188472D02*
X300975Y192429D01*
X299762Y180455D02*
X299817Y184464D01*
D23*
X326600Y173682D02*
D03*
Y178800D02*
D03*
Y183918D02*
D03*
Y189036D02*
D03*
D24*
X323784Y188134D02*
X370434D01*
X326475Y201633D02*
X326628Y201785D01*
X326475Y189161D02*
X326600Y189036D01*
X326475Y189161D02*
Y201633D01*
X318800Y183900D02*
X318900D01*
X374500Y192200D02*
X374624D01*
X357605D02*
X374500D01*
X339982Y173982D02*
X378937D01*
X334400Y168400D02*
X339982Y173982D01*
X327300Y168400D02*
X334400D01*
X325900Y167000D02*
X327300Y168400D01*
X325900Y161300D02*
Y167000D01*
X370434Y188134D02*
X374500Y192200D01*
X377245Y194820D02*
Y197775D01*
X374624Y192200D02*
X377245Y194820D01*
X352873Y196932D02*
X357605Y192200D01*
X323100Y188818D02*
X323784Y188134D01*
X312037Y189118D02*
X323100D01*
D25*
X378000Y174063D02*
D03*
Y179182D02*
D03*
X310700Y189219D02*
D03*
Y184100D02*
D03*
D26*
X385106Y189418D02*
D03*
X378000Y184300D02*
D03*
X385106D02*
D03*
Y179182D02*
D03*
Y174064D02*
D03*
X378000Y189418D02*
D03*
X303594Y173864D02*
D03*
X310700Y178982D02*
D03*
X303594D02*
D03*
Y184100D02*
D03*
Y189218D02*
D03*
X310700Y173864D02*
D03*
D27*
X377245Y197775D02*
D03*
X372300Y199100D02*
D03*
D28*
X364252Y208613D02*
D03*
X367356Y200425D02*
D03*
X369196Y207289D02*
D03*
X374139Y205964D02*
D03*
X379083Y204640D02*
D03*
X362413Y201749D02*
D03*
D29*
X352119Y196700D02*
D03*
X347000D02*
D03*
D30*
X336764Y203806D02*
D03*
X341882Y196700D02*
D03*
Y203806D02*
D03*
X347000D02*
D03*
X352118D02*
D03*
X336764Y196700D02*
D03*
D31*
X326628Y201785D02*
D03*
X321683Y200461D02*
D03*
D32*
X309956Y204675D02*
D03*
X316739Y199136D02*
D03*
X314900Y206000D02*
D03*
X319844Y207325D02*
D03*
X324787Y208649D02*
D03*
X311795Y197811D02*
D03*
D33*
X342500Y219000D02*
D03*
X331700Y144400D02*
D03*
D34*
X311200Y208900D02*
D03*
X318900Y183900D02*
D03*
X330200Y195000D02*
D03*
X359300Y195600D02*
D03*
X353300Y162600D02*
D03*
X306800Y162900D02*
D03*
X368700Y178500D02*
D03*
X353400Y182600D02*
D03*
X348800Y208069D02*
D03*
X325900Y161300D02*
D03*
M02*
