G04*
G04 #@! TF.GenerationSoftware,Altium Limited,Altium Designer,23.3.1 (30)*
G04*
G04 Layer_Physical_Order=2*
G04 Layer_Color=16711680*
%FSLAX25Y25*%
%MOIN*%
G70*
G04*
G04 #@! TF.SameCoordinates,76A80B4F-B454-4E83-830C-21A368A3A4FA*
G04*
G04*
G04 #@! TF.FilePolarity,Positive*
G04*
G01*
G75*
%ADD15C,0.01500*%
%ADD16R,0.03937X0.09843*%
%ADD17C,0.01575*%
%ADD18C,0.01968*%
G36*
X286697Y204232D02*
Y180500D01*
X286758Y180193D01*
X286932Y179932D01*
X287193Y179758D01*
X287500Y179697D01*
Y177303D01*
X287193Y177242D01*
X286932Y177068D01*
X286758Y176807D01*
X286697Y176500D01*
Y171607D01*
X286610Y171542D01*
X286110Y171794D01*
Y173508D01*
X283142D01*
Y174508D01*
X282142D01*
Y180429D01*
X280173D01*
Y180221D01*
X279216D01*
Y180486D01*
X279209Y180522D01*
Y180816D01*
X279096Y181087D01*
X279096Y181090D01*
X279094Y181094D01*
X278967Y181399D01*
X278520Y181846D01*
X277937Y182087D01*
X277306D01*
X276722Y181846D01*
X276276Y181399D01*
X276034Y180816D01*
Y180221D01*
X275232D01*
Y180190D01*
X273845D01*
Y180736D01*
X273837Y180772D01*
Y181066D01*
X273725Y181337D01*
X273724Y181341D01*
X273722Y181343D01*
X273596Y181649D01*
X273149Y182096D01*
X272566Y182337D01*
X271934D01*
X271351Y182096D01*
X270904Y181649D01*
X270663Y181066D01*
Y180727D01*
X270182Y180388D01*
X269865Y180481D01*
X269787Y180684D01*
Y181316D01*
X269546Y181899D01*
X269099Y182346D01*
X268564Y182568D01*
Y194153D01*
X268502Y194466D01*
X268325Y194730D01*
X268060Y194907D01*
X267748Y194969D01*
X267436Y194907D01*
X267171Y194730D01*
X266995Y194466D01*
X266932Y194153D01*
Y181977D01*
X266854Y181899D01*
X266728Y181594D01*
X266726Y181590D01*
X266725Y181587D01*
X266613Y181316D01*
Y181022D01*
X266605Y180986D01*
Y180190D01*
X264980D01*
Y170363D01*
X264479Y170156D01*
X263303Y171333D01*
Y176500D01*
X263242Y176807D01*
X263068Y177068D01*
X262807Y177242D01*
X262500Y177303D01*
Y179697D01*
X262807Y179758D01*
X263068Y179932D01*
X263242Y180193D01*
X263303Y180500D01*
Y204168D01*
X264832Y205697D01*
X285599D01*
X286697Y204232D01*
D02*
G37*
G36*
X257697D02*
Y180500D01*
X257758Y180193D01*
X257932Y179932D01*
X258193Y179758D01*
X258500Y179697D01*
Y177303D01*
X258193Y177242D01*
X257932Y177068D01*
X257758Y176807D01*
X257697Y176500D01*
Y171607D01*
X257610Y171542D01*
X257110Y171794D01*
Y173508D01*
X254142D01*
Y174508D01*
X253142D01*
Y180429D01*
X251173D01*
Y180221D01*
X250216D01*
Y180486D01*
X250209Y180522D01*
Y180816D01*
X250096Y181087D01*
X250096Y181090D01*
X250094Y181094D01*
X249967Y181399D01*
X249520Y181846D01*
X248937Y182087D01*
X248306D01*
X247722Y181846D01*
X247276Y181399D01*
X247034Y180816D01*
Y180221D01*
X246232D01*
Y180190D01*
X244845D01*
Y180736D01*
X244837Y180772D01*
Y181066D01*
X244725Y181337D01*
X244724Y181341D01*
X244722Y181343D01*
X244596Y181649D01*
X244149Y182096D01*
X243566Y182337D01*
X242934D01*
X242351Y182096D01*
X241904Y181649D01*
X241663Y181066D01*
Y180727D01*
X241182Y180388D01*
X240865Y180481D01*
X240787Y180684D01*
Y181316D01*
X240546Y181899D01*
X240099Y182346D01*
X239564Y182568D01*
Y194153D01*
X239502Y194466D01*
X239325Y194730D01*
X239060Y194907D01*
X238748Y194969D01*
X238436Y194907D01*
X238171Y194730D01*
X237995Y194466D01*
X237932Y194153D01*
Y181977D01*
X237854Y181899D01*
X237728Y181594D01*
X237726Y181590D01*
X237725Y181587D01*
X237613Y181316D01*
Y181022D01*
X237605Y180986D01*
Y180190D01*
X235980D01*
Y170363D01*
X235479Y170156D01*
X234303Y171333D01*
Y176500D01*
X234242Y176807D01*
X234068Y177068D01*
X233807Y177242D01*
X233500Y177303D01*
Y179697D01*
X233807Y179758D01*
X234068Y179932D01*
X234242Y180193D01*
X234303Y180500D01*
Y204168D01*
X235833Y205697D01*
X256599D01*
X257697Y204232D01*
D02*
G37*
G36*
X228697D02*
Y180500D01*
X228758Y180193D01*
X228932Y179932D01*
X229193Y179758D01*
X229500Y179697D01*
Y177303D01*
X229193Y177242D01*
X228932Y177068D01*
X228758Y176807D01*
X228697Y176500D01*
Y171607D01*
X228610Y171542D01*
X228110Y171794D01*
Y173508D01*
X225142D01*
Y174508D01*
X224142D01*
Y180429D01*
X222173D01*
Y180221D01*
X221216D01*
Y180486D01*
X221209Y180522D01*
Y180816D01*
X221096Y181087D01*
X221096Y181090D01*
X221094Y181094D01*
X220967Y181399D01*
X220520Y181846D01*
X219937Y182087D01*
X219306D01*
X218722Y181846D01*
X218276Y181399D01*
X218034Y180816D01*
Y180221D01*
X217231D01*
Y180190D01*
X215845D01*
Y180736D01*
X215837Y180772D01*
Y181066D01*
X215725Y181337D01*
X215724Y181341D01*
X215722Y181343D01*
X215596Y181649D01*
X215149Y182096D01*
X214566Y182337D01*
X213934D01*
X213351Y182096D01*
X212904Y181649D01*
X212663Y181066D01*
Y180727D01*
X212182Y180388D01*
X211865Y180481D01*
X211787Y180684D01*
Y181316D01*
X211546Y181899D01*
X211099Y182346D01*
X210564Y182568D01*
Y194153D01*
X210502Y194466D01*
X210325Y194730D01*
X210060Y194907D01*
X209748Y194969D01*
X209436Y194907D01*
X209171Y194730D01*
X208995Y194466D01*
X208932Y194153D01*
Y181977D01*
X208854Y181899D01*
X208728Y181594D01*
X208726Y181590D01*
X208725Y181587D01*
X208613Y181316D01*
Y181022D01*
X208605Y180986D01*
Y180190D01*
X206979D01*
Y170363D01*
X206480Y170156D01*
X205303Y171333D01*
Y176500D01*
X205242Y176807D01*
X205068Y177068D01*
X204807Y177242D01*
X204500Y177303D01*
Y179697D01*
X204807Y179758D01*
X205068Y179932D01*
X205242Y180193D01*
X205303Y180500D01*
Y204168D01*
X206833Y205697D01*
X227599D01*
X228697Y204232D01*
D02*
G37*
G36*
X199697D02*
Y180500D01*
X199758Y180193D01*
X199932Y179932D01*
X200193Y179758D01*
X200500Y179697D01*
Y177303D01*
X200193Y177242D01*
X199932Y177068D01*
X199758Y176807D01*
X199697Y176500D01*
Y171607D01*
X199610Y171542D01*
X199110Y171794D01*
Y173508D01*
X196142D01*
Y174508D01*
X195142D01*
Y180429D01*
X193173D01*
Y180221D01*
X192216D01*
Y180486D01*
X192209Y180522D01*
Y180816D01*
X192096Y181087D01*
X192096Y181090D01*
X192094Y181094D01*
X191967Y181399D01*
X191521Y181846D01*
X190937Y182087D01*
X190306D01*
X189722Y181846D01*
X189276Y181399D01*
X189034Y180816D01*
Y180221D01*
X188232D01*
Y180190D01*
X186845D01*
Y180736D01*
X186837Y180772D01*
Y181066D01*
X186725Y181337D01*
X186724Y181341D01*
X186722Y181343D01*
X186596Y181649D01*
X186149Y182096D01*
X185566Y182337D01*
X184934D01*
X184351Y182096D01*
X183904Y181649D01*
X183663Y181066D01*
Y180727D01*
X183182Y180388D01*
X182865Y180481D01*
X182787Y180684D01*
Y181316D01*
X182546Y181899D01*
X182099Y182346D01*
X181564Y182568D01*
Y194153D01*
X181502Y194466D01*
X181325Y194730D01*
X181060Y194907D01*
X180748Y194969D01*
X180436Y194907D01*
X180171Y194730D01*
X179994Y194466D01*
X179932Y194153D01*
Y181977D01*
X179854Y181899D01*
X179728Y181594D01*
X179726Y181590D01*
X179725Y181587D01*
X179613Y181316D01*
Y181022D01*
X179605Y180986D01*
Y180190D01*
X177980D01*
Y170363D01*
X177480Y170156D01*
X176303Y171333D01*
Y176500D01*
X176242Y176807D01*
X176068Y177068D01*
X175807Y177242D01*
X175500Y177303D01*
Y179697D01*
X175807Y179758D01*
X176068Y179932D01*
X176242Y180193D01*
X176303Y180500D01*
Y204168D01*
X177832Y205697D01*
X198599D01*
X199697Y204232D01*
D02*
G37*
G36*
X170697D02*
Y180500D01*
X170758Y180193D01*
X170932Y179932D01*
X171193Y179758D01*
X171500Y179697D01*
Y177303D01*
X171193Y177242D01*
X170932Y177068D01*
X170758Y176807D01*
X170697Y176500D01*
Y171607D01*
X170610Y171542D01*
X170110Y171794D01*
Y173508D01*
X167142D01*
Y174508D01*
X166142D01*
Y180429D01*
X164173D01*
Y180221D01*
X163216D01*
Y180486D01*
X163209Y180522D01*
Y180816D01*
X163096Y181087D01*
X163096Y181090D01*
X163094Y181094D01*
X162967Y181399D01*
X162521Y181846D01*
X161937Y182087D01*
X161306D01*
X160722Y181846D01*
X160276Y181399D01*
X160034Y180816D01*
Y180221D01*
X159231D01*
Y180190D01*
X157845D01*
Y180736D01*
X157837Y180772D01*
Y181066D01*
X157725Y181337D01*
X157724Y181341D01*
X157722Y181343D01*
X157596Y181649D01*
X157149Y182096D01*
X156566Y182337D01*
X155934D01*
X155351Y182096D01*
X154904Y181649D01*
X154663Y181066D01*
Y180727D01*
X154182Y180388D01*
X153865Y180481D01*
X153787Y180684D01*
Y181316D01*
X153546Y181899D01*
X153099Y182346D01*
X152564Y182568D01*
Y194153D01*
X152502Y194466D01*
X152325Y194730D01*
X152060Y194907D01*
X151748Y194969D01*
X151436Y194907D01*
X151171Y194730D01*
X150995Y194466D01*
X150932Y194153D01*
Y181977D01*
X150854Y181899D01*
X150728Y181594D01*
X150726Y181590D01*
X150725Y181587D01*
X150613Y181316D01*
Y181022D01*
X150605Y180986D01*
Y180190D01*
X148979D01*
Y170363D01*
X148479Y170156D01*
X147303Y171333D01*
Y176500D01*
X147242Y176807D01*
X147068Y177068D01*
X146807Y177242D01*
X146500Y177303D01*
Y179697D01*
X146807Y179758D01*
X147068Y179932D01*
X147242Y180193D01*
X147303Y180500D01*
Y204168D01*
X148832Y205697D01*
X169599D01*
X170697Y204232D01*
D02*
G37*
G36*
X286697Y166732D02*
Y143000D01*
X286758Y142693D01*
X286932Y142432D01*
X287193Y142258D01*
X287500Y142197D01*
Y139803D01*
X287193Y139742D01*
X286932Y139568D01*
X286758Y139307D01*
X286697Y139000D01*
Y134107D01*
X286610Y134042D01*
X286110Y134294D01*
Y136008D01*
X283142D01*
Y137008D01*
X282142D01*
Y142929D01*
X280173D01*
Y142721D01*
X279216D01*
Y142986D01*
X279209Y143022D01*
Y143316D01*
X279096Y143587D01*
X279096Y143590D01*
X279094Y143594D01*
X278967Y143899D01*
X278520Y144346D01*
X277937Y144587D01*
X277306D01*
X276722Y144346D01*
X276276Y143899D01*
X276034Y143316D01*
Y142721D01*
X275232D01*
Y142690D01*
X273845D01*
Y143236D01*
X273837Y143272D01*
Y143566D01*
X273725Y143837D01*
X273724Y143841D01*
X273722Y143843D01*
X273596Y144149D01*
X273149Y144596D01*
X272566Y144837D01*
X271934D01*
X271351Y144596D01*
X270904Y144149D01*
X270663Y143566D01*
Y143227D01*
X270182Y142888D01*
X269865Y142981D01*
X269787Y143184D01*
Y143816D01*
X269546Y144399D01*
X269099Y144846D01*
X268564Y145068D01*
Y156653D01*
X268502Y156966D01*
X268325Y157230D01*
X268060Y157407D01*
X267748Y157469D01*
X267436Y157407D01*
X267171Y157230D01*
X266995Y156966D01*
X266932Y156653D01*
Y144477D01*
X266854Y144399D01*
X266728Y144094D01*
X266726Y144090D01*
X266725Y144087D01*
X266613Y143816D01*
Y143522D01*
X266605Y143486D01*
Y142690D01*
X264980D01*
Y132863D01*
X264479Y132656D01*
X263303Y133833D01*
Y139000D01*
X263242Y139307D01*
X263068Y139568D01*
X262807Y139742D01*
X262500Y139803D01*
Y142197D01*
X262807Y142258D01*
X263068Y142432D01*
X263242Y142693D01*
X263303Y143000D01*
Y166667D01*
X264832Y168197D01*
X285599D01*
X286697Y166732D01*
D02*
G37*
G36*
X257697D02*
Y143000D01*
X257758Y142693D01*
X257932Y142432D01*
X258193Y142258D01*
X258500Y142197D01*
Y139803D01*
X258193Y139742D01*
X257932Y139568D01*
X257758Y139307D01*
X257697Y139000D01*
Y134107D01*
X257610Y134042D01*
X257110Y134294D01*
Y136008D01*
X254142D01*
Y137008D01*
X253142D01*
Y142929D01*
X251173D01*
Y142721D01*
X250216D01*
Y142986D01*
X250209Y143022D01*
Y143316D01*
X250096Y143587D01*
X250096Y143590D01*
X250094Y143594D01*
X249967Y143899D01*
X249520Y144346D01*
X248937Y144587D01*
X248306D01*
X247722Y144346D01*
X247276Y143899D01*
X247034Y143316D01*
Y142721D01*
X246232D01*
Y142690D01*
X244845D01*
Y143236D01*
X244837Y143272D01*
Y143566D01*
X244725Y143837D01*
X244724Y143841D01*
X244722Y143843D01*
X244596Y144149D01*
X244149Y144596D01*
X243566Y144837D01*
X242934D01*
X242351Y144596D01*
X241904Y144149D01*
X241663Y143566D01*
Y143227D01*
X241182Y142888D01*
X240865Y142981D01*
X240787Y143184D01*
Y143816D01*
X240546Y144399D01*
X240099Y144846D01*
X239564Y145068D01*
Y156653D01*
X239502Y156966D01*
X239325Y157230D01*
X239060Y157407D01*
X238748Y157469D01*
X238436Y157407D01*
X238171Y157230D01*
X237995Y156966D01*
X237932Y156653D01*
Y144477D01*
X237854Y144399D01*
X237728Y144094D01*
X237726Y144090D01*
X237725Y144087D01*
X237613Y143816D01*
Y143522D01*
X237605Y143486D01*
Y142690D01*
X235980D01*
Y132863D01*
X235479Y132656D01*
X234303Y133833D01*
Y139000D01*
X234242Y139307D01*
X234068Y139568D01*
X233807Y139742D01*
X233500Y139803D01*
Y142197D01*
X233807Y142258D01*
X234068Y142432D01*
X234242Y142693D01*
X234303Y143000D01*
Y166667D01*
X235833Y168197D01*
X256599D01*
X257697Y166732D01*
D02*
G37*
G36*
X228697D02*
Y143000D01*
X228758Y142693D01*
X228932Y142432D01*
X229193Y142258D01*
X229500Y142197D01*
Y139803D01*
X229193Y139742D01*
X228932Y139568D01*
X228758Y139307D01*
X228697Y139000D01*
Y134107D01*
X228610Y134042D01*
X228110Y134294D01*
Y136008D01*
X225142D01*
Y137008D01*
X224142D01*
Y142929D01*
X222173D01*
Y142721D01*
X221216D01*
Y142986D01*
X221209Y143022D01*
Y143316D01*
X221096Y143587D01*
X221096Y143590D01*
X221094Y143594D01*
X220967Y143899D01*
X220520Y144346D01*
X219937Y144587D01*
X219306D01*
X218722Y144346D01*
X218276Y143899D01*
X218034Y143316D01*
Y142721D01*
X217231D01*
Y142690D01*
X215845D01*
Y143236D01*
X215837Y143272D01*
Y143566D01*
X215725Y143837D01*
X215724Y143841D01*
X215722Y143843D01*
X215596Y144149D01*
X215149Y144596D01*
X214566Y144837D01*
X213934D01*
X213351Y144596D01*
X212904Y144149D01*
X212663Y143566D01*
Y143227D01*
X212182Y142888D01*
X211865Y142981D01*
X211787Y143184D01*
Y143816D01*
X211546Y144399D01*
X211099Y144846D01*
X210564Y145068D01*
Y156653D01*
X210502Y156966D01*
X210325Y157230D01*
X210060Y157407D01*
X209748Y157469D01*
X209436Y157407D01*
X209171Y157230D01*
X208995Y156966D01*
X208932Y156653D01*
Y144477D01*
X208854Y144399D01*
X208728Y144094D01*
X208726Y144090D01*
X208725Y144087D01*
X208613Y143816D01*
Y143522D01*
X208605Y143486D01*
Y142690D01*
X206979D01*
Y132863D01*
X206480Y132656D01*
X205303Y133833D01*
Y139000D01*
X205242Y139307D01*
X205068Y139568D01*
X204807Y139742D01*
X204500Y139803D01*
Y142197D01*
X204807Y142258D01*
X205068Y142432D01*
X205242Y142693D01*
X205303Y143000D01*
Y166667D01*
X206833Y168197D01*
X227599D01*
X228697Y166732D01*
D02*
G37*
G36*
X199697D02*
Y143000D01*
X199758Y142693D01*
X199932Y142432D01*
X200193Y142258D01*
X200500Y142197D01*
Y139803D01*
X200193Y139742D01*
X199932Y139568D01*
X199758Y139307D01*
X199697Y139000D01*
Y134107D01*
X199610Y134042D01*
X199110Y134294D01*
Y136008D01*
X196142D01*
Y137008D01*
X195142D01*
Y142929D01*
X193173D01*
Y142721D01*
X192216D01*
Y142986D01*
X192209Y143022D01*
Y143316D01*
X192096Y143587D01*
X192096Y143590D01*
X192094Y143594D01*
X191967Y143899D01*
X191521Y144346D01*
X190937Y144587D01*
X190306D01*
X189722Y144346D01*
X189276Y143899D01*
X189034Y143316D01*
Y142721D01*
X188232D01*
Y142690D01*
X186845D01*
Y143236D01*
X186837Y143272D01*
Y143566D01*
X186725Y143837D01*
X186724Y143841D01*
X186722Y143843D01*
X186596Y144149D01*
X186149Y144596D01*
X185566Y144837D01*
X184934D01*
X184351Y144596D01*
X183904Y144149D01*
X183663Y143566D01*
Y143227D01*
X183182Y142888D01*
X182865Y142981D01*
X182787Y143184D01*
Y143816D01*
X182546Y144399D01*
X182099Y144846D01*
X181564Y145068D01*
Y156653D01*
X181502Y156966D01*
X181325Y157230D01*
X181060Y157407D01*
X180748Y157469D01*
X180436Y157407D01*
X180171Y157230D01*
X179994Y156966D01*
X179932Y156653D01*
Y144477D01*
X179854Y144399D01*
X179728Y144094D01*
X179726Y144090D01*
X179725Y144087D01*
X179613Y143816D01*
Y143522D01*
X179605Y143486D01*
Y142690D01*
X177980D01*
Y132863D01*
X177480Y132656D01*
X176303Y133833D01*
Y139000D01*
X176242Y139307D01*
X176068Y139568D01*
X175807Y139742D01*
X175500Y139803D01*
Y142197D01*
X175807Y142258D01*
X176068Y142432D01*
X176242Y142693D01*
X176303Y143000D01*
Y166667D01*
X177832Y168197D01*
X198599D01*
X199697Y166732D01*
D02*
G37*
G36*
X170697D02*
Y143000D01*
X170758Y142693D01*
X170932Y142432D01*
X171193Y142258D01*
X171500Y142197D01*
Y139803D01*
X171193Y139742D01*
X170932Y139568D01*
X170758Y139307D01*
X170697Y139000D01*
Y134107D01*
X170610Y134042D01*
X170110Y134294D01*
Y136008D01*
X167142D01*
Y137008D01*
X166142D01*
Y142929D01*
X164173D01*
Y142721D01*
X163216D01*
Y142986D01*
X163209Y143022D01*
Y143316D01*
X163096Y143587D01*
X163096Y143590D01*
X163094Y143594D01*
X162967Y143899D01*
X162521Y144346D01*
X161937Y144587D01*
X161306D01*
X160722Y144346D01*
X160276Y143899D01*
X160034Y143316D01*
Y142721D01*
X159231D01*
Y142690D01*
X157845D01*
Y143236D01*
X157837Y143272D01*
Y143566D01*
X157725Y143837D01*
X157724Y143841D01*
X157722Y143843D01*
X157596Y144149D01*
X157149Y144596D01*
X156566Y144837D01*
X155934D01*
X155351Y144596D01*
X154904Y144149D01*
X154663Y143566D01*
Y143227D01*
X154182Y142888D01*
X153865Y142981D01*
X153787Y143184D01*
Y143816D01*
X153546Y144399D01*
X153099Y144846D01*
X152564Y145068D01*
Y156653D01*
X152502Y156966D01*
X152325Y157230D01*
X152060Y157407D01*
X151748Y157469D01*
X151436Y157407D01*
X151171Y157230D01*
X150995Y156966D01*
X150932Y156653D01*
Y144477D01*
X150854Y144399D01*
X150728Y144094D01*
X150726Y144090D01*
X150725Y144087D01*
X150613Y143816D01*
Y143522D01*
X150605Y143486D01*
Y142690D01*
X148979D01*
Y132863D01*
X148479Y132656D01*
X147303Y133833D01*
Y139000D01*
X147242Y139307D01*
X147068Y139568D01*
X146807Y139742D01*
X146500Y139803D01*
Y142197D01*
X146807Y142258D01*
X147068Y142432D01*
X147242Y142693D01*
X147303Y143000D01*
Y166667D01*
X148832Y168197D01*
X169599D01*
X170697Y166732D01*
D02*
G37*
%LPC*%
G36*
X286110Y180429D02*
X284142D01*
Y175508D01*
X286110D01*
Y180429D01*
D02*
G37*
G36*
X257110D02*
X255142D01*
Y175508D01*
X257110D01*
Y180429D01*
D02*
G37*
G36*
X228110D02*
X226142D01*
Y175508D01*
X228110D01*
Y180429D01*
D02*
G37*
G36*
X199110D02*
X197142D01*
Y175508D01*
X199110D01*
Y180429D01*
D02*
G37*
G36*
X170110D02*
X168142D01*
Y175508D01*
X170110D01*
Y180429D01*
D02*
G37*
G36*
X286110Y142929D02*
X284142D01*
Y138008D01*
X286110D01*
Y142929D01*
D02*
G37*
G36*
X257110D02*
X255142D01*
Y138008D01*
X257110D01*
Y142929D01*
D02*
G37*
G36*
X228110D02*
X226142D01*
Y138008D01*
X228110D01*
Y142929D01*
D02*
G37*
G36*
X199110D02*
X197142D01*
Y138008D01*
X199110D01*
Y142929D01*
D02*
G37*
G36*
X170110D02*
X168142D01*
Y138008D01*
X170110D01*
Y142929D01*
D02*
G37*
%LPD*%
D15*
X277636Y142986D02*
X277621Y143000D01*
X278000Y137000D02*
X277636Y137364D01*
Y142986D01*
X272866Y136969D02*
X272264Y137570D01*
Y143236D01*
X272250Y143250D01*
X268186Y143486D02*
X268200Y143500D01*
X267748Y136969D02*
X268186Y137406D01*
Y143486D01*
X277636Y180486D02*
X277621Y180500D01*
X278000Y174500D02*
X277636Y174864D01*
Y180486D01*
X272866Y174469D02*
X272264Y175070D01*
Y180736D01*
X272250Y180750D01*
X268186Y180986D02*
X268200Y181000D01*
X267748Y174469D02*
X268186Y174906D01*
Y180986D01*
X248636Y142986D02*
X248621Y143000D01*
X249000Y137000D02*
X248636Y137364D01*
Y142986D01*
X243866Y136969D02*
X243264Y137570D01*
Y143236D01*
X243250Y143250D01*
X239186Y143486D02*
X239200Y143500D01*
X238748Y136969D02*
X239186Y137406D01*
Y143486D01*
X248636Y180486D02*
X248621Y180500D01*
X249000Y174500D02*
X248636Y174864D01*
Y180486D01*
X243866Y174469D02*
X243264Y175070D01*
Y180736D01*
X243250Y180750D01*
X239186Y180986D02*
X239200Y181000D01*
X238748Y174469D02*
X239186Y174906D01*
Y180986D01*
X219636Y142986D02*
X219621Y143000D01*
X220000Y137000D02*
X219636Y137364D01*
Y142986D01*
X214866Y136969D02*
X214264Y137570D01*
Y143236D01*
X214250Y143250D01*
X210186Y143486D02*
X210200Y143500D01*
X209748Y136969D02*
X210186Y137406D01*
Y143486D01*
X219636Y180486D02*
X219621Y180500D01*
X220000Y174500D02*
X219636Y174864D01*
Y180486D01*
X214866Y174469D02*
X214264Y175070D01*
Y180736D01*
X214250Y180750D01*
X210186Y180986D02*
X210200Y181000D01*
X209748Y174469D02*
X210186Y174906D01*
Y180986D01*
X190636Y142986D02*
X190621Y143000D01*
X191000Y137000D02*
X190636Y137364D01*
Y142986D01*
X185866Y136969D02*
X185264Y137570D01*
Y143236D01*
X185250Y143250D01*
X181186Y143486D02*
X181200Y143500D01*
X180748Y136969D02*
X181186Y137406D01*
Y143486D01*
X190636Y180486D02*
X190621Y180500D01*
X191000Y174500D02*
X190636Y174864D01*
Y180486D01*
X185866Y174469D02*
X185264Y175070D01*
Y180736D01*
X185250Y180750D01*
X181186Y180986D02*
X181200Y181000D01*
X180748Y174469D02*
X181186Y174906D01*
Y180986D01*
X161636Y142986D02*
X161621Y143000D01*
X162000Y137000D02*
X161636Y137364D01*
Y142986D01*
X156866Y136969D02*
X156264Y137570D01*
Y143236D01*
X156250Y143250D01*
X152186Y143486D02*
X152200Y143500D01*
X151748Y136969D02*
X152186Y137406D01*
Y143486D01*
X161636Y180486D02*
X161621Y180500D01*
X162000Y174500D02*
X161636Y174864D01*
Y180486D01*
X156866Y174469D02*
X156264Y175070D01*
Y180736D01*
X156250Y180750D01*
X152186Y180986D02*
X152200Y181000D01*
X151748Y174469D02*
X152186Y174906D01*
Y180986D01*
D16*
X278000Y137000D02*
D03*
X283142Y137008D02*
D03*
X267748Y136969D02*
D03*
X272866D02*
D03*
X278000Y174500D02*
D03*
X283142Y174508D02*
D03*
X267748Y174469D02*
D03*
X272866D02*
D03*
X249000Y137000D02*
D03*
X254142Y137008D02*
D03*
X238748Y136969D02*
D03*
X243866D02*
D03*
X249000Y174500D02*
D03*
X254142Y174508D02*
D03*
X238748Y174469D02*
D03*
X243866D02*
D03*
X220000Y137000D02*
D03*
X225142Y137008D02*
D03*
X209748Y136969D02*
D03*
X214866D02*
D03*
X220000Y174500D02*
D03*
X225142Y174508D02*
D03*
X209748Y174469D02*
D03*
X214866D02*
D03*
X191000Y137000D02*
D03*
X196142Y137008D02*
D03*
X180748Y136969D02*
D03*
X185866D02*
D03*
X191000Y174500D02*
D03*
X196142Y174508D02*
D03*
X180748Y174469D02*
D03*
X185866D02*
D03*
X162000Y137000D02*
D03*
X167142Y137008D02*
D03*
X151748Y136969D02*
D03*
X156866D02*
D03*
X162000Y174500D02*
D03*
X167142Y174508D02*
D03*
X151748Y174469D02*
D03*
X156866D02*
D03*
D17*
X277621Y143000D02*
D03*
X272250Y143250D02*
D03*
X268200Y143500D02*
D03*
X277621Y180500D02*
D03*
X272250Y180750D02*
D03*
X268200Y181000D02*
D03*
X248621Y143000D02*
D03*
X243250Y143250D02*
D03*
X239200Y143500D02*
D03*
X248621Y180500D02*
D03*
X243250Y180750D02*
D03*
X239200Y181000D02*
D03*
X219621Y143000D02*
D03*
X214250Y143250D02*
D03*
X210200Y143500D02*
D03*
X219621Y180500D02*
D03*
X214250Y180750D02*
D03*
X210200Y181000D02*
D03*
X190621Y143000D02*
D03*
X185250Y143250D02*
D03*
X181200Y143500D02*
D03*
X190621Y180500D02*
D03*
X185250Y180750D02*
D03*
X181200Y181000D02*
D03*
X161621Y143000D02*
D03*
X156250Y143250D02*
D03*
X152200Y143500D02*
D03*
X161621Y180500D02*
D03*
X156250Y180750D02*
D03*
X152200Y181000D02*
D03*
D18*
X277500Y158000D02*
D03*
Y195500D02*
D03*
X248500Y158000D02*
D03*
Y195500D02*
D03*
X219500Y158000D02*
D03*
Y195500D02*
D03*
X190500Y158000D02*
D03*
Y195500D02*
D03*
X161500Y158000D02*
D03*
Y195500D02*
D03*
M02*
