G04*
G04 #@! TF.GenerationSoftware,Altium Limited,Altium Designer,23.3.1 (30)*
G04*
G04 Layer_Physical_Order=2*
G04 Layer_Color=16711680*
%FSLAX25Y25*%
%MOIN*%
G70*
G04*
G04 #@! TF.SameCoordinates,55D14C98-EEC8-413B-A2D3-342376034AB9*
G04*
G04*
G04 #@! TF.FilePolarity,Positive*
G04*
G01*
G75*
%ADD22C,0.01500*%
%ADD23R,0.09843X0.03937*%
%ADD24C,0.01575*%
%ADD25C,0.01968*%
G36*
X355258Y124693D02*
X355432Y124432D01*
X355693Y124258D01*
X356000Y124197D01*
X379667D01*
X381197Y122668D01*
Y101901D01*
X379732Y100803D01*
X356000D01*
X355693Y100742D01*
X355432Y100568D01*
X355258Y100307D01*
X355197Y100000D01*
X352803D01*
X352742Y100307D01*
X352568Y100568D01*
X352307Y100742D01*
X352000Y100803D01*
X347107D01*
X347042Y100890D01*
X347294Y101390D01*
X349008D01*
Y104358D01*
X350008D01*
Y105358D01*
X355929D01*
Y107327D01*
X355721D01*
Y108284D01*
X355986D01*
X356022Y108291D01*
X356316D01*
X356587Y108404D01*
X356591Y108404D01*
X356593Y108406D01*
X356899Y108533D01*
X357346Y108979D01*
X357587Y109563D01*
Y110194D01*
X357346Y110778D01*
X356899Y111224D01*
X356316Y111466D01*
X355721D01*
Y112268D01*
X355690D01*
Y113655D01*
X356236D01*
X356272Y113663D01*
X356566D01*
X356837Y113775D01*
X356840Y113776D01*
X356843Y113778D01*
X357149Y113904D01*
X357596Y114351D01*
X357837Y114934D01*
Y115566D01*
X357596Y116149D01*
X357149Y116596D01*
X356566Y116837D01*
X356227D01*
X355888Y117318D01*
X355981Y117635D01*
X356184Y117713D01*
X356816D01*
X357399Y117954D01*
X357846Y118401D01*
X358067Y118936D01*
X369654D01*
X369966Y118998D01*
X370230Y119175D01*
X370407Y119440D01*
X370469Y119752D01*
X370407Y120064D01*
X370230Y120329D01*
X369966Y120505D01*
X369654Y120568D01*
X357477D01*
X357399Y120646D01*
X357094Y120772D01*
X357090Y120774D01*
X357087Y120775D01*
X356816Y120887D01*
X356522D01*
X356486Y120895D01*
X355690D01*
Y122520D01*
X345863D01*
X345656Y123021D01*
X346832Y124197D01*
X352000D01*
X352307Y124258D01*
X352568Y124432D01*
X352742Y124693D01*
X352803Y125000D01*
X355197D01*
X355258Y124693D01*
D02*
G37*
%LPC*%
G36*
X355929Y103358D02*
X351008D01*
Y101390D01*
X355929D01*
Y103358D01*
D02*
G37*
%LPD*%
D22*
X355986Y109864D02*
X356000Y109879D01*
X350000Y109500D02*
X350364Y109864D01*
X355986D01*
X349969Y114634D02*
X350570Y115236D01*
X356236D01*
X356250Y115250D01*
X356486Y119314D02*
X356500Y119300D01*
X349969Y119752D02*
X350406Y119314D01*
X356486D01*
D23*
X349969Y114634D02*
D03*
Y119752D02*
D03*
X350008Y104358D02*
D03*
X350000Y109500D02*
D03*
D24*
X356000Y109879D02*
D03*
X356250Y115250D02*
D03*
X356500Y119300D02*
D03*
D25*
X371000Y110000D02*
D03*
M02*
