M48
;Layer_Color=9474304
;FILE_FORMAT=2:4
INCH,TZ
;TYPE=PLATED
T1F00S00C0.0079
%
T01
X15220Y14350
X15625Y14325
X16162Y14300
X18120Y14350
X18525Y14325
X19062Y14300
X21020Y14350
X21425Y14325
X21962Y14300
X23920Y14350
X24325Y14325
X24862Y14300
X26820Y14350
X27225Y14325
X27762Y14300
X27750Y15800
X27762Y18050
X27225Y18075
X26820Y18100
X24862Y18050
X24325Y18075
X23920Y18100
X21962Y18050
X21425Y18075
X21020Y18100
X19062Y18050
X18525Y18075
X18120Y18100
X16162Y18050
X15625Y18075
X16150Y19550
X19050
X21950
X24850
X27750
X24850Y15800
X21950
X19050
X16150
X15220Y18100
M30
