G04*
G04 #@! TF.GenerationSoftware,Altium Limited,Altium Designer,23.3.1 (30)*
G04*
G04 Layer_Color=8388736*
%FSLAX25Y25*%
%MOIN*%
G70*
G04*
G04 #@! TF.SameCoordinates,76A80B4F-B454-4E83-830C-21A368A3A4FA*
G04*
G04*
G04 #@! TF.FilePolarity,Negative*
G04*
G01*
G75*
%ADD10R,0.02000X0.02000*%
%ADD11R,0.02000X0.02000*%
%ADD12R,0.02047X0.02047*%
%ADD13R,0.03366X0.03568*%
%ADD14R,0.02423X0.02254*%
%ADD23R,0.04737X0.10642*%
%ADD24C,0.02375*%
%ADD25C,0.02769*%
D10*
X271350Y152149D02*
D03*
X274500D02*
D03*
X277650D02*
D03*
Y145851D02*
D03*
X274500D02*
D03*
X271350D02*
D03*
Y189649D02*
D03*
X274500D02*
D03*
X277650D02*
D03*
Y183351D02*
D03*
X274500D02*
D03*
X271350D02*
D03*
X242350Y152149D02*
D03*
X245500D02*
D03*
X248650D02*
D03*
Y145851D02*
D03*
X245500D02*
D03*
X242350D02*
D03*
Y189649D02*
D03*
X245500D02*
D03*
X248650D02*
D03*
Y183351D02*
D03*
X245500D02*
D03*
X242350D02*
D03*
X213350Y152149D02*
D03*
X216500D02*
D03*
X219650D02*
D03*
Y145851D02*
D03*
X216500D02*
D03*
X213350D02*
D03*
Y189649D02*
D03*
X216500D02*
D03*
X219650D02*
D03*
Y183351D02*
D03*
X216500D02*
D03*
X213350D02*
D03*
X184350Y152149D02*
D03*
X187500D02*
D03*
X190650D02*
D03*
Y145851D02*
D03*
X187500D02*
D03*
X184350D02*
D03*
Y189649D02*
D03*
X187500D02*
D03*
X190650D02*
D03*
Y183351D02*
D03*
X187500D02*
D03*
X184350D02*
D03*
X155350Y152149D02*
D03*
X158500D02*
D03*
X161650D02*
D03*
Y145851D02*
D03*
X158500D02*
D03*
X155350D02*
D03*
Y189649D02*
D03*
X158500D02*
D03*
X161650D02*
D03*
Y183351D02*
D03*
X158500D02*
D03*
X155350D02*
D03*
D11*
X280800Y152150D02*
D03*
Y149000D02*
D03*
Y145850D02*
D03*
X268200D02*
D03*
Y149000D02*
D03*
Y152150D02*
D03*
X280800Y189650D02*
D03*
Y186500D02*
D03*
Y183350D02*
D03*
X268200D02*
D03*
Y186500D02*
D03*
Y189650D02*
D03*
X251800Y152150D02*
D03*
Y149000D02*
D03*
Y145850D02*
D03*
X239200D02*
D03*
Y149000D02*
D03*
Y152150D02*
D03*
X251800Y189650D02*
D03*
Y186500D02*
D03*
Y183350D02*
D03*
X239200D02*
D03*
Y186500D02*
D03*
Y189650D02*
D03*
X222800Y152150D02*
D03*
Y149000D02*
D03*
Y145850D02*
D03*
X210200D02*
D03*
Y149000D02*
D03*
Y152150D02*
D03*
X222800Y189650D02*
D03*
Y186500D02*
D03*
Y183350D02*
D03*
X210200D02*
D03*
Y186500D02*
D03*
Y189650D02*
D03*
X193800Y152150D02*
D03*
Y149000D02*
D03*
Y145850D02*
D03*
X181200D02*
D03*
Y149000D02*
D03*
Y152150D02*
D03*
X193800Y189650D02*
D03*
Y186500D02*
D03*
Y183350D02*
D03*
X181200D02*
D03*
Y186500D02*
D03*
Y189650D02*
D03*
X164800Y152150D02*
D03*
Y149000D02*
D03*
Y145850D02*
D03*
X152200D02*
D03*
Y149000D02*
D03*
Y152150D02*
D03*
X164800Y189650D02*
D03*
Y186500D02*
D03*
Y183350D02*
D03*
X152200D02*
D03*
Y186500D02*
D03*
Y189650D02*
D03*
D12*
X271575Y158000D02*
D03*
X268425D02*
D03*
X271575Y195500D02*
D03*
X268425D02*
D03*
X242575Y158000D02*
D03*
X239425D02*
D03*
X242575Y195500D02*
D03*
X239425D02*
D03*
X213575Y158000D02*
D03*
X210425D02*
D03*
X213575Y195500D02*
D03*
X210425D02*
D03*
X184575Y158000D02*
D03*
X181425D02*
D03*
X184575Y195500D02*
D03*
X181425D02*
D03*
X155575Y158000D02*
D03*
X152425D02*
D03*
X155575Y195500D02*
D03*
X152425D02*
D03*
D13*
X278037Y164500D02*
D03*
X282963D02*
D03*
X278037Y202000D02*
D03*
X282963D02*
D03*
X249037Y164500D02*
D03*
X253963D02*
D03*
X249037Y202000D02*
D03*
X253963D02*
D03*
X220037Y164500D02*
D03*
X224963D02*
D03*
X220037Y202000D02*
D03*
X224963D02*
D03*
X191037Y164500D02*
D03*
X195963D02*
D03*
X191037Y202000D02*
D03*
X195963D02*
D03*
X162037Y164500D02*
D03*
X166963D02*
D03*
X162037Y202000D02*
D03*
X166963D02*
D03*
D14*
X268313Y164500D02*
D03*
X271687D02*
D03*
X268313Y202000D02*
D03*
X271687D02*
D03*
X239313Y164500D02*
D03*
X242687D02*
D03*
X239313Y202000D02*
D03*
X242687D02*
D03*
X210313Y164500D02*
D03*
X213687D02*
D03*
X210313Y202000D02*
D03*
X213687D02*
D03*
X181313Y164500D02*
D03*
X184687D02*
D03*
X181313Y202000D02*
D03*
X184687D02*
D03*
X152313Y164500D02*
D03*
X155687D02*
D03*
X152313Y202000D02*
D03*
X155687D02*
D03*
D23*
X278000Y137000D02*
D03*
X283142Y137008D02*
D03*
X267748Y136969D02*
D03*
X272866D02*
D03*
X278000Y174500D02*
D03*
X283142Y174508D02*
D03*
X267748Y174469D02*
D03*
X272866D02*
D03*
X249000Y137000D02*
D03*
X254142Y137008D02*
D03*
X238748Y136969D02*
D03*
X243866D02*
D03*
X249000Y174500D02*
D03*
X254142Y174508D02*
D03*
X238748Y174469D02*
D03*
X243866D02*
D03*
X220000Y137000D02*
D03*
X225142Y137008D02*
D03*
X209748Y136969D02*
D03*
X214866D02*
D03*
X220000Y174500D02*
D03*
X225142Y174508D02*
D03*
X209748Y174469D02*
D03*
X214866D02*
D03*
X191000Y137000D02*
D03*
X196142Y137008D02*
D03*
X180748Y136969D02*
D03*
X185866D02*
D03*
X191000Y174500D02*
D03*
X196142Y174508D02*
D03*
X180748Y174469D02*
D03*
X185866D02*
D03*
X162000Y137000D02*
D03*
X167142Y137008D02*
D03*
X151748Y136969D02*
D03*
X156866D02*
D03*
X162000Y174500D02*
D03*
X167142Y174508D02*
D03*
X151748Y174469D02*
D03*
X156866D02*
D03*
D24*
X277621Y143000D02*
D03*
X272250Y143250D02*
D03*
X268200Y143500D02*
D03*
X277621Y180500D02*
D03*
X272250Y180750D02*
D03*
X268200Y181000D02*
D03*
X248621Y143000D02*
D03*
X243250Y143250D02*
D03*
X239200Y143500D02*
D03*
X248621Y180500D02*
D03*
X243250Y180750D02*
D03*
X239200Y181000D02*
D03*
X219621Y143000D02*
D03*
X214250Y143250D02*
D03*
X210200Y143500D02*
D03*
X219621Y180500D02*
D03*
X214250Y180750D02*
D03*
X210200Y181000D02*
D03*
X190621Y143000D02*
D03*
X185250Y143250D02*
D03*
X181200Y143500D02*
D03*
X190621Y180500D02*
D03*
X185250Y180750D02*
D03*
X181200Y181000D02*
D03*
X161621Y143000D02*
D03*
X156250Y143250D02*
D03*
X152200Y143500D02*
D03*
X161621Y180500D02*
D03*
X156250Y180750D02*
D03*
X152200Y181000D02*
D03*
D25*
X277500Y158000D02*
D03*
Y195500D02*
D03*
X248500Y158000D02*
D03*
Y195500D02*
D03*
X219500Y158000D02*
D03*
Y195500D02*
D03*
X190500Y158000D02*
D03*
Y195500D02*
D03*
X161500Y158000D02*
D03*
Y195500D02*
D03*
M02*
