G04*
G04 #@! TF.GenerationSoftware,Altium Limited,Altium Designer,23.3.1 (30)*
G04*
G04 Layer_Color=8388736*
%FSLAX25Y25*%
%MOIN*%
G70*
G04*
G04 #@! TF.SameCoordinates,55D14C98-EEC8-413B-A2D3-342376034AB9*
G04*
G04*
G04 #@! TF.FilePolarity,Negative*
G04*
G01*
G75*
%ADD14R,0.02000X0.02000*%
%ADD15R,0.02000X0.02000*%
%ADD16R,0.02047X0.02047*%
%ADD17R,0.03568X0.03366*%
%ADD18R,0.02254X0.02423*%
%ADD19R,0.10642X0.04737*%
%ADD20C,0.02375*%
%ADD21C,0.02769*%
D14*
X365149Y116150D02*
D03*
Y113000D02*
D03*
Y109850D02*
D03*
X358851D02*
D03*
Y113000D02*
D03*
Y116150D02*
D03*
D15*
X365150Y106700D02*
D03*
X362000D02*
D03*
X358850D02*
D03*
Y119300D02*
D03*
X362000D02*
D03*
X365150D02*
D03*
D16*
X371000Y115925D02*
D03*
Y119075D02*
D03*
D17*
X377500Y109463D02*
D03*
Y104537D02*
D03*
D18*
Y119187D02*
D03*
Y115813D02*
D03*
D19*
X349969Y114634D02*
D03*
Y119752D02*
D03*
X350008Y104358D02*
D03*
X350000Y109500D02*
D03*
D20*
X356000Y109879D02*
D03*
X356250Y115250D02*
D03*
X356500Y119300D02*
D03*
D21*
X371000Y110000D02*
D03*
M02*
