G04*
G04 #@! TF.GenerationSoftware,Altium Limited,Altium Designer,23.3.1 (30)*
G04*
G04 Layer_Physical_Order=2*
G04 Layer_Color=16711680*
%FSLAX25Y25*%
%MOIN*%
G70*
G04*
G04 #@! TF.SameCoordinates,DC285B44-F560-4AE8-B04C-E732481EF3D4*
G04*
G04*
G04 #@! TF.FilePolarity,Positive*
G04*
G01*
G75*
%ADD15C,0.01500*%
%ADD16R,0.03937X0.09843*%
%ADD17C,0.01575*%
G36*
X144697Y83167D02*
Y58303D01*
X143500D01*
X143193Y58242D01*
X142932Y58068D01*
X142758Y57807D01*
X142697Y57500D01*
Y52541D01*
X142571Y52438D01*
X142071Y52675D01*
Y54469D01*
X139102D01*
Y55468D01*
X138102D01*
Y61390D01*
X136134D01*
Y61190D01*
X135216D01*
Y61486D01*
X135209Y61522D01*
Y61816D01*
X135096Y62087D01*
X135096Y62090D01*
X135094Y62094D01*
X134967Y62399D01*
X134520Y62846D01*
X133937Y63087D01*
X133306D01*
X132722Y62846D01*
X132276Y62399D01*
X132034Y61816D01*
Y61190D01*
X129845D01*
Y61736D01*
X129837Y61772D01*
Y62066D01*
X129725Y62337D01*
X129724Y62340D01*
X129722Y62344D01*
X129596Y62649D01*
X129149Y63096D01*
X128566Y63337D01*
X127934D01*
X127351Y63096D01*
X126904Y62649D01*
X126663Y62066D01*
Y61727D01*
X126182Y61388D01*
X125865Y61481D01*
X125787Y61684D01*
Y62316D01*
X125546Y62899D01*
X125099Y63346D01*
X124516Y63587D01*
X123884D01*
X123301Y63346D01*
X122854Y62899D01*
X122728Y62594D01*
X122726Y62590D01*
X122725Y62587D01*
X122613Y62316D01*
Y62022D01*
X122605Y61986D01*
Y61190D01*
X120979D01*
Y51363D01*
X120480Y51156D01*
X119303Y52333D01*
Y57500D01*
X119242Y57807D01*
X119068Y58068D01*
X118807Y58242D01*
X118500Y58303D01*
X117303D01*
Y83167D01*
X120833Y86697D01*
X141167D01*
X144697Y83167D01*
D02*
G37*
G36*
X115697D02*
Y58303D01*
X114500D01*
X114193Y58242D01*
X113932Y58068D01*
X113758Y57807D01*
X113697Y57500D01*
Y52541D01*
X113571Y52438D01*
X113071Y52675D01*
Y54469D01*
X110102D01*
Y55468D01*
X109102D01*
Y61390D01*
X107134D01*
Y61190D01*
X106216D01*
Y61486D01*
X106209Y61522D01*
Y61816D01*
X106096Y62087D01*
X106096Y62090D01*
X106094Y62094D01*
X105967Y62399D01*
X105520Y62846D01*
X104937Y63087D01*
X104306D01*
X103722Y62846D01*
X103276Y62399D01*
X103034Y61816D01*
Y61190D01*
X100845D01*
Y61736D01*
X100837Y61772D01*
Y62066D01*
X100725Y62337D01*
X100724Y62340D01*
X100722Y62344D01*
X100596Y62649D01*
X100149Y63096D01*
X99566Y63337D01*
X98934D01*
X98351Y63096D01*
X97904Y62649D01*
X97663Y62066D01*
Y61727D01*
X97182Y61388D01*
X96865Y61481D01*
X96787Y61684D01*
Y62316D01*
X96546Y62899D01*
X96099Y63346D01*
X95516Y63587D01*
X94884D01*
X94301Y63346D01*
X93854Y62899D01*
X93728Y62594D01*
X93726Y62590D01*
X93725Y62587D01*
X93613Y62316D01*
Y62022D01*
X93605Y61986D01*
Y61190D01*
X91979D01*
Y51363D01*
X91479Y51156D01*
X90303Y52333D01*
Y57500D01*
X90242Y57807D01*
X90068Y58068D01*
X89807Y58242D01*
X89500Y58303D01*
X88303D01*
Y83167D01*
X91833Y86697D01*
X112168D01*
X115697Y83167D01*
D02*
G37*
G36*
X86697D02*
Y58303D01*
X85500D01*
X85193Y58242D01*
X84932Y58068D01*
X84758Y57807D01*
X84697Y57500D01*
Y52541D01*
X84571Y52438D01*
X84071Y52675D01*
Y54469D01*
X81102D01*
Y55468D01*
X80102D01*
Y61390D01*
X78134D01*
Y61190D01*
X77216D01*
Y61486D01*
X77209Y61522D01*
Y61816D01*
X77096Y62087D01*
X77096Y62090D01*
X77094Y62094D01*
X76967Y62399D01*
X76521Y62846D01*
X75937Y63087D01*
X75306D01*
X74722Y62846D01*
X74276Y62399D01*
X74034Y61816D01*
Y61190D01*
X71845D01*
Y61736D01*
X71837Y61772D01*
Y62066D01*
X71725Y62337D01*
X71724Y62340D01*
X71722Y62344D01*
X71596Y62649D01*
X71149Y63096D01*
X70566Y63337D01*
X69934D01*
X69351Y63096D01*
X68904Y62649D01*
X68663Y62066D01*
Y61727D01*
X68182Y61388D01*
X67865Y61481D01*
X67787Y61684D01*
Y62316D01*
X67546Y62899D01*
X67099Y63346D01*
X66516Y63587D01*
X65884D01*
X65301Y63346D01*
X64854Y62899D01*
X64728Y62594D01*
X64726Y62590D01*
X64725Y62587D01*
X64613Y62316D01*
Y62022D01*
X64605Y61986D01*
Y61190D01*
X62980D01*
Y51363D01*
X62480Y51156D01*
X61303Y52333D01*
Y57500D01*
X61242Y57807D01*
X61068Y58068D01*
X60807Y58242D01*
X60500Y58303D01*
X59303D01*
Y83167D01*
X62832Y86697D01*
X83167D01*
X86697Y83167D01*
D02*
G37*
G36*
X57697D02*
Y58303D01*
X56500D01*
X56193Y58242D01*
X55932Y58068D01*
X55758Y57807D01*
X55697Y57500D01*
Y52541D01*
X55571Y52438D01*
X55071Y52675D01*
Y54469D01*
X52102D01*
Y55468D01*
X51102D01*
Y61390D01*
X49134D01*
Y61190D01*
X48216D01*
Y61486D01*
X48209Y61522D01*
Y61816D01*
X48096Y62087D01*
X48096Y62090D01*
X48094Y62094D01*
X47967Y62399D01*
X47521Y62846D01*
X46937Y63087D01*
X46306D01*
X45722Y62846D01*
X45276Y62399D01*
X45034Y61816D01*
Y61190D01*
X42845D01*
Y61736D01*
X42837Y61772D01*
Y62066D01*
X42725Y62337D01*
X42724Y62340D01*
X42722Y62344D01*
X42596Y62649D01*
X42149Y63096D01*
X41566Y63337D01*
X40934D01*
X40351Y63096D01*
X39904Y62649D01*
X39663Y62066D01*
Y61727D01*
X39182Y61388D01*
X38865Y61481D01*
X38787Y61684D01*
Y62316D01*
X38546Y62899D01*
X38099Y63346D01*
X37516Y63587D01*
X36884D01*
X36301Y63346D01*
X35854Y62899D01*
X35728Y62594D01*
X35726Y62590D01*
X35725Y62587D01*
X35613Y62316D01*
Y62022D01*
X35605Y61986D01*
Y61190D01*
X33979D01*
Y51363D01*
X33479Y51156D01*
X32303Y52333D01*
Y57500D01*
X32242Y57807D01*
X32068Y58068D01*
X31807Y58242D01*
X31500Y58303D01*
X30303D01*
Y83167D01*
X33832Y86697D01*
X54167D01*
X57697Y83167D01*
D02*
G37*
G36*
X28697D02*
Y58303D01*
X27500D01*
X27193Y58242D01*
X26932Y58068D01*
X26758Y57807D01*
X26697Y57500D01*
Y52541D01*
X26571Y52438D01*
X26071Y52675D01*
Y54469D01*
X23102D01*
Y55468D01*
X22102D01*
Y61390D01*
X20134D01*
Y61190D01*
X19216D01*
Y61486D01*
X19209Y61522D01*
Y61816D01*
X19096Y62087D01*
X19096Y62090D01*
X19094Y62094D01*
X18967Y62399D01*
X18520Y62846D01*
X17937Y63087D01*
X17306D01*
X16722Y62846D01*
X16276Y62399D01*
X16034Y61816D01*
Y61190D01*
X13845D01*
Y61736D01*
X13837Y61772D01*
Y62066D01*
X13725Y62337D01*
X13724Y62340D01*
X13722Y62344D01*
X13596Y62649D01*
X13149Y63096D01*
X12566Y63337D01*
X11934D01*
X11351Y63096D01*
X10904Y62649D01*
X10663Y62066D01*
Y61727D01*
X10182Y61388D01*
X9865Y61481D01*
X9787Y61684D01*
Y62316D01*
X9546Y62899D01*
X9099Y63346D01*
X8516Y63587D01*
X7884D01*
X7301Y63346D01*
X6854Y62899D01*
X6728Y62594D01*
X6726Y62590D01*
X6725Y62587D01*
X6613Y62316D01*
Y62022D01*
X6605Y61986D01*
Y61190D01*
X4980D01*
Y51363D01*
X4479Y51156D01*
X3303Y52333D01*
Y57500D01*
X3242Y57807D01*
X3068Y58068D01*
X2807Y58242D01*
X2500Y58303D01*
X1303D01*
Y83167D01*
X4832Y86697D01*
X25168D01*
X28697Y83167D01*
D02*
G37*
G36*
X144697Y45667D02*
Y20803D01*
X143500D01*
X143193Y20742D01*
X142932Y20568D01*
X142758Y20307D01*
X142697Y20000D01*
Y15041D01*
X142571Y14938D01*
X142071Y15175D01*
Y16969D01*
X139102D01*
Y17968D01*
X138102D01*
Y23890D01*
X136134D01*
Y23690D01*
X135216D01*
Y23986D01*
X135209Y24022D01*
Y24316D01*
X135096Y24587D01*
X135096Y24590D01*
X135094Y24593D01*
X134967Y24899D01*
X134520Y25346D01*
X133937Y25587D01*
X133306D01*
X132722Y25346D01*
X132276Y24899D01*
X132034Y24316D01*
Y23690D01*
X129845D01*
Y24236D01*
X129837Y24272D01*
Y24566D01*
X129725Y24837D01*
X129724Y24840D01*
X129722Y24844D01*
X129596Y25149D01*
X129149Y25596D01*
X128566Y25837D01*
X127934D01*
X127351Y25596D01*
X126904Y25149D01*
X126663Y24566D01*
Y24227D01*
X126182Y23888D01*
X125865Y23981D01*
X125787Y24184D01*
Y24816D01*
X125546Y25399D01*
X125099Y25846D01*
X124516Y26087D01*
X123884D01*
X123301Y25846D01*
X122854Y25399D01*
X122728Y25093D01*
X122726Y25091D01*
X122725Y25087D01*
X122613Y24816D01*
Y24522D01*
X122605Y24486D01*
Y23690D01*
X120979D01*
Y13863D01*
X120480Y13656D01*
X119303Y14832D01*
Y20000D01*
X119242Y20307D01*
X119068Y20568D01*
X118807Y20742D01*
X118500Y20803D01*
X117303D01*
Y45667D01*
X120833Y49197D01*
X141167D01*
X144697Y45667D01*
D02*
G37*
G36*
X115697D02*
Y20803D01*
X114500D01*
X114193Y20742D01*
X113932Y20568D01*
X113758Y20307D01*
X113697Y20000D01*
Y15041D01*
X113571Y14938D01*
X113071Y15175D01*
Y16969D01*
X110102D01*
Y17968D01*
X109102D01*
Y23890D01*
X107134D01*
Y23690D01*
X106216D01*
Y23986D01*
X106209Y24022D01*
Y24316D01*
X106096Y24587D01*
X106096Y24590D01*
X106094Y24593D01*
X105967Y24899D01*
X105520Y25346D01*
X104937Y25587D01*
X104306D01*
X103722Y25346D01*
X103276Y24899D01*
X103034Y24316D01*
Y23690D01*
X100845D01*
Y24236D01*
X100837Y24272D01*
Y24566D01*
X100725Y24837D01*
X100724Y24840D01*
X100722Y24844D01*
X100596Y25149D01*
X100149Y25596D01*
X99566Y25837D01*
X98934D01*
X98351Y25596D01*
X97904Y25149D01*
X97663Y24566D01*
Y24227D01*
X97182Y23888D01*
X96865Y23981D01*
X96787Y24184D01*
Y24816D01*
X96546Y25399D01*
X96099Y25846D01*
X95516Y26087D01*
X94884D01*
X94301Y25846D01*
X93854Y25399D01*
X93728Y25093D01*
X93726Y25091D01*
X93725Y25087D01*
X93613Y24816D01*
Y24522D01*
X93605Y24486D01*
Y23690D01*
X91979D01*
Y13863D01*
X91479Y13656D01*
X90303Y14832D01*
Y20000D01*
X90242Y20307D01*
X90068Y20568D01*
X89807Y20742D01*
X89500Y20803D01*
X88303D01*
Y45667D01*
X91833Y49197D01*
X112168D01*
X115697Y45667D01*
D02*
G37*
G36*
X86697D02*
Y20803D01*
X85500D01*
X85193Y20742D01*
X84932Y20568D01*
X84758Y20307D01*
X84697Y20000D01*
Y15041D01*
X84571Y14938D01*
X84071Y15175D01*
Y16969D01*
X81102D01*
Y17968D01*
X80102D01*
Y23890D01*
X78134D01*
Y23690D01*
X77216D01*
Y23986D01*
X77209Y24022D01*
Y24316D01*
X77096Y24587D01*
X77096Y24590D01*
X77094Y24593D01*
X76967Y24899D01*
X76521Y25346D01*
X75937Y25587D01*
X75306D01*
X74722Y25346D01*
X74276Y24899D01*
X74034Y24316D01*
Y23690D01*
X71845D01*
Y24236D01*
X71837Y24272D01*
Y24566D01*
X71725Y24837D01*
X71724Y24840D01*
X71722Y24844D01*
X71596Y25149D01*
X71149Y25596D01*
X70566Y25837D01*
X69934D01*
X69351Y25596D01*
X68904Y25149D01*
X68663Y24566D01*
Y24227D01*
X68182Y23888D01*
X67865Y23981D01*
X67787Y24184D01*
Y24816D01*
X67546Y25399D01*
X67099Y25846D01*
X66516Y26087D01*
X65884D01*
X65301Y25846D01*
X64854Y25399D01*
X64728Y25093D01*
X64726Y25091D01*
X64725Y25087D01*
X64613Y24816D01*
Y24522D01*
X64605Y24486D01*
Y23690D01*
X62980D01*
Y13863D01*
X62480Y13656D01*
X61303Y14832D01*
Y20000D01*
X61242Y20307D01*
X61068Y20568D01*
X60807Y20742D01*
X60500Y20803D01*
X59303D01*
Y45667D01*
X62832Y49197D01*
X83167D01*
X86697Y45667D01*
D02*
G37*
G36*
X57697D02*
Y20803D01*
X56500D01*
X56193Y20742D01*
X55932Y20568D01*
X55758Y20307D01*
X55697Y20000D01*
Y15041D01*
X55571Y14938D01*
X55071Y15175D01*
Y16969D01*
X52102D01*
Y17968D01*
X51102D01*
Y23890D01*
X49134D01*
Y23690D01*
X48216D01*
Y23986D01*
X48209Y24022D01*
Y24316D01*
X48096Y24587D01*
X48096Y24590D01*
X48094Y24593D01*
X47967Y24899D01*
X47521Y25346D01*
X46937Y25587D01*
X46306D01*
X45722Y25346D01*
X45276Y24899D01*
X45034Y24316D01*
Y23690D01*
X42845D01*
Y24236D01*
X42837Y24272D01*
Y24566D01*
X42725Y24837D01*
X42724Y24840D01*
X42722Y24844D01*
X42596Y25149D01*
X42149Y25596D01*
X41566Y25837D01*
X40934D01*
X40351Y25596D01*
X39904Y25149D01*
X39663Y24566D01*
Y24227D01*
X39182Y23888D01*
X38865Y23981D01*
X38787Y24184D01*
Y24816D01*
X38546Y25399D01*
X38099Y25846D01*
X37516Y26087D01*
X36884D01*
X36301Y25846D01*
X35854Y25399D01*
X35728Y25093D01*
X35726Y25091D01*
X35725Y25087D01*
X35613Y24816D01*
Y24522D01*
X35605Y24486D01*
Y23690D01*
X33979D01*
Y13863D01*
X33479Y13656D01*
X32303Y14832D01*
Y20000D01*
X32242Y20307D01*
X32068Y20568D01*
X31807Y20742D01*
X31500Y20803D01*
X30303D01*
Y45667D01*
X33832Y49197D01*
X54167D01*
X57697Y45667D01*
D02*
G37*
G36*
X28697D02*
Y20803D01*
X27500D01*
X27193Y20742D01*
X26932Y20568D01*
X26758Y20307D01*
X26697Y20000D01*
Y15041D01*
X26571Y14938D01*
X26071Y15175D01*
Y16969D01*
X23102D01*
Y17968D01*
X22102D01*
Y23890D01*
X20134D01*
Y23690D01*
X19216D01*
Y23986D01*
X19209Y24022D01*
Y24316D01*
X19096Y24587D01*
X19096Y24590D01*
X19094Y24593D01*
X18967Y24899D01*
X18520Y25346D01*
X17937Y25587D01*
X17306D01*
X16722Y25346D01*
X16276Y24899D01*
X16034Y24316D01*
Y23690D01*
X13845D01*
Y24236D01*
X13837Y24272D01*
Y24566D01*
X13725Y24837D01*
X13724Y24840D01*
X13722Y24844D01*
X13596Y25149D01*
X13149Y25596D01*
X12566Y25837D01*
X11934D01*
X11351Y25596D01*
X10904Y25149D01*
X10663Y24566D01*
Y24227D01*
X10182Y23888D01*
X9865Y23981D01*
X9787Y24184D01*
Y24816D01*
X9546Y25399D01*
X9099Y25846D01*
X8516Y26087D01*
X7884D01*
X7301Y25846D01*
X6854Y25399D01*
X6728Y25093D01*
X6726Y25091D01*
X6725Y25087D01*
X6613Y24816D01*
Y24522D01*
X6605Y24486D01*
Y23690D01*
X4980D01*
Y13863D01*
X4479Y13656D01*
X3303Y14832D01*
Y20000D01*
X3242Y20307D01*
X3068Y20568D01*
X2807Y20742D01*
X2500Y20803D01*
X1303D01*
Y45667D01*
X4832Y49197D01*
X25168D01*
X28697Y45667D01*
D02*
G37*
%LPC*%
G36*
X142071Y61390D02*
X140102D01*
Y56468D01*
X142071D01*
Y61390D01*
D02*
G37*
G36*
X113071D02*
X111102D01*
Y56468D01*
X113071D01*
Y61390D01*
D02*
G37*
G36*
X84071D02*
X82102D01*
Y56468D01*
X84071D01*
Y61390D01*
D02*
G37*
G36*
X55071D02*
X53102D01*
Y56468D01*
X55071D01*
Y61390D01*
D02*
G37*
G36*
X26071D02*
X24102D01*
Y56468D01*
X26071D01*
Y61390D01*
D02*
G37*
G36*
X142071Y23890D02*
X140102D01*
Y18969D01*
X142071D01*
Y23890D01*
D02*
G37*
G36*
X113071D02*
X111102D01*
Y18969D01*
X113071D01*
Y23890D01*
D02*
G37*
G36*
X84071D02*
X82102D01*
Y18969D01*
X84071D01*
Y23890D01*
D02*
G37*
G36*
X55071D02*
X53102D01*
Y18969D01*
X55071D01*
Y23890D01*
D02*
G37*
G36*
X26071D02*
X24102D01*
Y18969D01*
X26071D01*
Y23890D01*
D02*
G37*
%LPD*%
D15*
X133636Y23986D02*
X133621Y24000D01*
X134000Y18000D02*
X133636Y18364D01*
Y23986D01*
X128866Y17968D02*
X128264Y18570D01*
Y24236D01*
X128250Y24250D01*
X124186Y24486D02*
X124200Y24500D01*
X123748Y17968D02*
X124186Y18406D01*
Y24486D01*
X133636Y61486D02*
X133621Y61500D01*
X134000Y55500D02*
X133636Y55864D01*
Y61486D01*
X128866Y55468D02*
X128264Y56070D01*
Y61736D01*
X128250Y61750D01*
X124186Y61986D02*
X124200Y62000D01*
X123748Y55468D02*
X124186Y55906D01*
Y61986D01*
X104636Y23986D02*
X104621Y24000D01*
X105000Y18000D02*
X104636Y18364D01*
Y23986D01*
X99866Y17968D02*
X99264Y18570D01*
Y24236D01*
X99250Y24250D01*
X95186Y24486D02*
X95200Y24500D01*
X94748Y17968D02*
X95186Y18406D01*
Y24486D01*
X104636Y61486D02*
X104621Y61500D01*
X105000Y55500D02*
X104636Y55864D01*
Y61486D01*
X99866Y55468D02*
X99264Y56070D01*
Y61736D01*
X99250Y61750D01*
X95186Y61986D02*
X95200Y62000D01*
X94748Y55468D02*
X95186Y55906D01*
Y61986D01*
X75636Y23986D02*
X75621Y24000D01*
X76000Y18000D02*
X75636Y18364D01*
Y23986D01*
X70866Y17968D02*
X70264Y18570D01*
Y24236D01*
X70250Y24250D01*
X66186Y24486D02*
X66200Y24500D01*
X65748Y17968D02*
X66186Y18406D01*
Y24486D01*
X75636Y61486D02*
X75621Y61500D01*
X76000Y55500D02*
X75636Y55864D01*
Y61486D01*
X70866Y55468D02*
X70264Y56070D01*
Y61736D01*
X70250Y61750D01*
X66186Y61986D02*
X66200Y62000D01*
X65748Y55468D02*
X66186Y55906D01*
Y61986D01*
X46636Y23986D02*
X46621Y24000D01*
X47000Y18000D02*
X46636Y18364D01*
Y23986D01*
X41866Y17968D02*
X41264Y18570D01*
Y24236D01*
X41250Y24250D01*
X37186Y24486D02*
X37200Y24500D01*
X36748Y17968D02*
X37186Y18406D01*
Y24486D01*
X46636Y61486D02*
X46621Y61500D01*
X47000Y55500D02*
X46636Y55864D01*
Y61486D01*
X41866Y55468D02*
X41264Y56070D01*
Y61736D01*
X41250Y61750D01*
X37186Y61986D02*
X37200Y62000D01*
X36748Y55468D02*
X37186Y55906D01*
Y61986D01*
X17636Y23986D02*
X17621Y24000D01*
X18000Y18000D02*
X17636Y18364D01*
Y23986D01*
X12866Y17968D02*
X12264Y18570D01*
Y24236D01*
X12250Y24250D01*
X8186Y24486D02*
X8200Y24500D01*
X7748Y17968D02*
X8186Y18406D01*
Y24486D01*
X17636Y61486D02*
X17621Y61500D01*
X18000Y55500D02*
X17636Y55864D01*
Y61486D01*
X12866Y55468D02*
X12264Y56070D01*
Y61736D01*
X12250Y61750D01*
X8186Y61986D02*
X8200Y62000D01*
X7748Y55468D02*
X8186Y55906D01*
Y61986D01*
D16*
X133984Y17968D02*
D03*
X139102D02*
D03*
X128866D02*
D03*
X123748D02*
D03*
X133984Y55468D02*
D03*
X139102D02*
D03*
X128866D02*
D03*
X123748D02*
D03*
X104984Y17968D02*
D03*
X110102D02*
D03*
X99866D02*
D03*
X94748D02*
D03*
X104984Y55468D02*
D03*
X110102D02*
D03*
X99866D02*
D03*
X94748D02*
D03*
X75984Y17968D02*
D03*
X81102D02*
D03*
X70866D02*
D03*
X65748D02*
D03*
X75984Y55468D02*
D03*
X81102D02*
D03*
X70866D02*
D03*
X65748D02*
D03*
X46984Y17968D02*
D03*
X52102D02*
D03*
X41866D02*
D03*
X36748D02*
D03*
X46984Y55468D02*
D03*
X52102D02*
D03*
X41866D02*
D03*
X36748D02*
D03*
X17984Y17968D02*
D03*
X23102D02*
D03*
X12866D02*
D03*
X7748D02*
D03*
X17984Y55468D02*
D03*
X23102D02*
D03*
X12866D02*
D03*
X7748D02*
D03*
D17*
X143200Y25200D02*
D03*
X133621Y24000D02*
D03*
X128250Y24250D02*
D03*
X124200Y24500D02*
D03*
X143200Y62700D02*
D03*
X133621Y61500D02*
D03*
X128250Y61750D02*
D03*
X124200Y62000D02*
D03*
X114200Y25200D02*
D03*
X104621Y24000D02*
D03*
X99250Y24250D02*
D03*
X95200Y24500D02*
D03*
X114200Y62700D02*
D03*
X104621Y61500D02*
D03*
X99250Y61750D02*
D03*
X95200Y62000D02*
D03*
X85200Y25200D02*
D03*
X75621Y24000D02*
D03*
X70250Y24250D02*
D03*
X66200Y24500D02*
D03*
X85200Y62700D02*
D03*
X75621Y61500D02*
D03*
X70250Y61750D02*
D03*
X66200Y62000D02*
D03*
X56200Y25200D02*
D03*
X46621Y24000D02*
D03*
X41250Y24250D02*
D03*
X37200Y24500D02*
D03*
X56200Y62700D02*
D03*
X46621Y61500D02*
D03*
X41250Y61750D02*
D03*
X37200Y62000D02*
D03*
X27200Y25200D02*
D03*
X17621Y24000D02*
D03*
X12250Y24250D02*
D03*
X8200Y24500D02*
D03*
X27200Y62700D02*
D03*
X17621Y61500D02*
D03*
X12250Y61750D02*
D03*
X8200Y62000D02*
D03*
M02*
