G04*
G04 #@! TF.GenerationSoftware,Altium Limited,Altium Designer,23.3.1 (30)*
G04*
G04 Layer_Color=65535*
%FSLAX25Y25*%
%MOIN*%
G70*
G04*
G04 #@! TF.SameCoordinates,55D14C98-EEC8-413B-A2D3-342376034AB9*
G04*
G04*
G04 #@! TF.FilePolarity,Positive*
G04*
G01*
G75*
%ADD10C,0.00600*%
%ADD11C,0.00787*%
%ADD12C,0.00197*%
%ADD13C,0.00300*%
G36*
X367149Y109100D02*
Y110600D01*
X368149D01*
Y109100D01*
X367149D01*
D02*
G37*
D10*
X356800Y103050D02*
Y104917D01*
Y122950D02*
X367200D01*
Y121083D02*
Y122950D01*
Y103050D02*
Y104917D01*
X356800Y103050D02*
X367200D01*
X356800Y121083D02*
Y122950D01*
D11*
X368500Y115532D02*
Y119468D01*
X373500Y115532D02*
Y119468D01*
X373957Y102854D02*
Y111146D01*
X381043Y102854D02*
Y111146D01*
X374798Y114601D02*
Y120399D01*
X380202Y114601D02*
Y120399D01*
D12*
X352000Y100000D02*
Y125000D01*
D13*
X368390Y124050D02*
X365057Y120718D01*
Y124050D02*
X368390Y120718D01*
X366724Y124050D02*
Y120718D01*
X365057Y122384D02*
X368390D01*
M02*
