G04*
G04 #@! TF.GenerationSoftware,Altium Limited,Altium Designer,23.3.1 (30)*
G04*
G04 Layer_Color=8388736*
%FSLAX25Y25*%
%MOIN*%
G70*
G04*
G04 #@! TF.SameCoordinates,DC285B44-F560-4AE8-B04C-E732481EF3D4*
G04*
G04*
G04 #@! TF.FilePolarity,Negative*
G04*
G01*
G75*
%ADD10R,0.01968X0.01870*%
%ADD11R,0.02423X0.02254*%
%ADD12R,0.02047X0.02047*%
%ADD13R,0.02000X0.02000*%
%ADD14R,0.02000X0.02000*%
%ADD22R,0.04737X0.10642*%
%ADD23C,0.02375*%
D10*
X133837Y39413D02*
D03*
Y43449D02*
D03*
X141300D02*
D03*
Y39413D02*
D03*
X133837Y76913D02*
D03*
Y80949D02*
D03*
X141300D02*
D03*
Y76913D02*
D03*
X104837Y39413D02*
D03*
Y43449D02*
D03*
X112300D02*
D03*
Y39413D02*
D03*
X104837Y76913D02*
D03*
Y80949D02*
D03*
X112300D02*
D03*
Y76913D02*
D03*
X75837Y39413D02*
D03*
Y43449D02*
D03*
X83300D02*
D03*
Y39413D02*
D03*
X75837Y76913D02*
D03*
Y80949D02*
D03*
X83300D02*
D03*
Y76913D02*
D03*
X46837Y39413D02*
D03*
Y43449D02*
D03*
X54300D02*
D03*
Y39413D02*
D03*
X46837Y76913D02*
D03*
Y80949D02*
D03*
X54300D02*
D03*
Y76913D02*
D03*
X17837Y39413D02*
D03*
Y43449D02*
D03*
X25300D02*
D03*
Y39413D02*
D03*
X17837Y76913D02*
D03*
Y80949D02*
D03*
X25300D02*
D03*
Y76913D02*
D03*
D11*
X127687Y45500D02*
D03*
X124313D02*
D03*
X127687Y83000D02*
D03*
X124313D02*
D03*
X98687Y45500D02*
D03*
X95313D02*
D03*
X98687Y83000D02*
D03*
X95313D02*
D03*
X69687Y45500D02*
D03*
X66313D02*
D03*
X69687Y83000D02*
D03*
X66313D02*
D03*
X40687Y45500D02*
D03*
X37313D02*
D03*
X40687Y83000D02*
D03*
X37313D02*
D03*
X11687Y45500D02*
D03*
X8313D02*
D03*
X11687Y83000D02*
D03*
X8313D02*
D03*
D12*
X124425Y39000D02*
D03*
X127575D02*
D03*
X124425Y76500D02*
D03*
X127575D02*
D03*
X95425Y39000D02*
D03*
X98575D02*
D03*
X95425Y76500D02*
D03*
X98575D02*
D03*
X66425Y39000D02*
D03*
X69575D02*
D03*
X66425Y76500D02*
D03*
X69575D02*
D03*
X37425Y39000D02*
D03*
X40575D02*
D03*
X37425Y76500D02*
D03*
X40575D02*
D03*
X8425Y39000D02*
D03*
X11575D02*
D03*
X8425Y76500D02*
D03*
X11575D02*
D03*
D13*
X127350Y33149D02*
D03*
X130500D02*
D03*
X133650D02*
D03*
Y26851D02*
D03*
X130500D02*
D03*
X127350D02*
D03*
Y70649D02*
D03*
X130500D02*
D03*
X133650D02*
D03*
Y64351D02*
D03*
X130500D02*
D03*
X127350D02*
D03*
X98350Y33149D02*
D03*
X101500D02*
D03*
X104650D02*
D03*
Y26851D02*
D03*
X101500D02*
D03*
X98350D02*
D03*
Y70649D02*
D03*
X101500D02*
D03*
X104650D02*
D03*
Y64351D02*
D03*
X101500D02*
D03*
X98350D02*
D03*
X69350Y33149D02*
D03*
X72500D02*
D03*
X75650D02*
D03*
Y26851D02*
D03*
X72500D02*
D03*
X69350D02*
D03*
Y70649D02*
D03*
X72500D02*
D03*
X75650D02*
D03*
Y64351D02*
D03*
X72500D02*
D03*
X69350D02*
D03*
X40350Y33149D02*
D03*
X43500D02*
D03*
X46650D02*
D03*
Y26851D02*
D03*
X43500D02*
D03*
X40350D02*
D03*
Y70649D02*
D03*
X43500D02*
D03*
X46650D02*
D03*
Y64351D02*
D03*
X43500D02*
D03*
X40350D02*
D03*
X11350Y33149D02*
D03*
X14500D02*
D03*
X17650D02*
D03*
Y26851D02*
D03*
X14500D02*
D03*
X11350D02*
D03*
Y70649D02*
D03*
X14500D02*
D03*
X17650D02*
D03*
Y64351D02*
D03*
X14500D02*
D03*
X11350D02*
D03*
D14*
X136800Y33150D02*
D03*
Y30000D02*
D03*
Y26850D02*
D03*
X124200D02*
D03*
Y30000D02*
D03*
Y33150D02*
D03*
X136800Y70650D02*
D03*
Y67500D02*
D03*
Y64350D02*
D03*
X124200D02*
D03*
Y67500D02*
D03*
Y70650D02*
D03*
X107800Y33150D02*
D03*
Y30000D02*
D03*
Y26850D02*
D03*
X95200D02*
D03*
Y30000D02*
D03*
Y33150D02*
D03*
X107800Y70650D02*
D03*
Y67500D02*
D03*
Y64350D02*
D03*
X95200D02*
D03*
Y67500D02*
D03*
Y70650D02*
D03*
X78800Y33150D02*
D03*
Y30000D02*
D03*
Y26850D02*
D03*
X66200D02*
D03*
Y30000D02*
D03*
Y33150D02*
D03*
X78800Y70650D02*
D03*
Y67500D02*
D03*
Y64350D02*
D03*
X66200D02*
D03*
Y67500D02*
D03*
Y70650D02*
D03*
X49800Y33150D02*
D03*
Y30000D02*
D03*
Y26850D02*
D03*
X37200D02*
D03*
Y30000D02*
D03*
Y33150D02*
D03*
X49800Y70650D02*
D03*
Y67500D02*
D03*
Y64350D02*
D03*
X37200D02*
D03*
Y67500D02*
D03*
Y70650D02*
D03*
X20800Y33150D02*
D03*
Y30000D02*
D03*
Y26850D02*
D03*
X8200D02*
D03*
Y30000D02*
D03*
Y33150D02*
D03*
X20800Y70650D02*
D03*
Y67500D02*
D03*
Y64350D02*
D03*
X8200D02*
D03*
Y67500D02*
D03*
Y70650D02*
D03*
D22*
X133984Y17968D02*
D03*
X139102D02*
D03*
X128866D02*
D03*
X123748D02*
D03*
X133984Y55468D02*
D03*
X139102D02*
D03*
X128866D02*
D03*
X123748D02*
D03*
X104984Y17968D02*
D03*
X110102D02*
D03*
X99866D02*
D03*
X94748D02*
D03*
X104984Y55468D02*
D03*
X110102D02*
D03*
X99866D02*
D03*
X94748D02*
D03*
X75984Y17968D02*
D03*
X81102D02*
D03*
X70866D02*
D03*
X65748D02*
D03*
X75984Y55468D02*
D03*
X81102D02*
D03*
X70866D02*
D03*
X65748D02*
D03*
X46984Y17968D02*
D03*
X52102D02*
D03*
X41866D02*
D03*
X36748D02*
D03*
X46984Y55468D02*
D03*
X52102D02*
D03*
X41866D02*
D03*
X36748D02*
D03*
X17984Y17968D02*
D03*
X23102D02*
D03*
X12866D02*
D03*
X7748D02*
D03*
X17984Y55468D02*
D03*
X23102D02*
D03*
X12866D02*
D03*
X7748D02*
D03*
D23*
X143200Y25200D02*
D03*
X133621Y24000D02*
D03*
X128250Y24250D02*
D03*
X124200Y24500D02*
D03*
X143200Y62700D02*
D03*
X133621Y61500D02*
D03*
X128250Y61750D02*
D03*
X124200Y62000D02*
D03*
X114200Y25200D02*
D03*
X104621Y24000D02*
D03*
X99250Y24250D02*
D03*
X95200Y24500D02*
D03*
X114200Y62700D02*
D03*
X104621Y61500D02*
D03*
X99250Y61750D02*
D03*
X95200Y62000D02*
D03*
X85200Y25200D02*
D03*
X75621Y24000D02*
D03*
X70250Y24250D02*
D03*
X66200Y24500D02*
D03*
X85200Y62700D02*
D03*
X75621Y61500D02*
D03*
X70250Y61750D02*
D03*
X66200Y62000D02*
D03*
X56200Y25200D02*
D03*
X46621Y24000D02*
D03*
X41250Y24250D02*
D03*
X37200Y24500D02*
D03*
X56200Y62700D02*
D03*
X46621Y61500D02*
D03*
X41250Y61750D02*
D03*
X37200Y62000D02*
D03*
X27200Y25200D02*
D03*
X17621Y24000D02*
D03*
X12250Y24250D02*
D03*
X8200Y24500D02*
D03*
X27200Y62700D02*
D03*
X17621Y61500D02*
D03*
X12250Y61750D02*
D03*
X8200Y62000D02*
D03*
M02*
