G04*
G04 #@! TF.GenerationSoftware,Altium Limited,Altium Designer,23.3.1 (30)*
G04*
G04 Layer_Color=16711935*
%FSLAX25Y25*%
%MOIN*%
G70*
G04*
G04 #@! TF.SameCoordinates,76A80B4F-B454-4E83-830C-21A368A3A4FA*
G04*
G04*
G04 #@! TF.FilePolarity,Negative*
G04*
G01*
G75*
%ADD23R,0.04737X0.10642*%
%ADD24C,0.02375*%
%ADD25C,0.02769*%
D23*
X278000Y137000D02*
D03*
X283142Y137008D02*
D03*
X267748Y136969D02*
D03*
X272866D02*
D03*
X278000Y174500D02*
D03*
X283142Y174508D02*
D03*
X267748Y174469D02*
D03*
X272866D02*
D03*
X249000Y137000D02*
D03*
X254142Y137008D02*
D03*
X238748Y136969D02*
D03*
X243866D02*
D03*
X249000Y174500D02*
D03*
X254142Y174508D02*
D03*
X238748Y174469D02*
D03*
X243866D02*
D03*
X220000Y137000D02*
D03*
X225142Y137008D02*
D03*
X209748Y136969D02*
D03*
X214866D02*
D03*
X220000Y174500D02*
D03*
X225142Y174508D02*
D03*
X209748Y174469D02*
D03*
X214866D02*
D03*
X191000Y137000D02*
D03*
X196142Y137008D02*
D03*
X180748Y136969D02*
D03*
X185866D02*
D03*
X191000Y174500D02*
D03*
X196142Y174508D02*
D03*
X180748Y174469D02*
D03*
X185866D02*
D03*
X162000Y137000D02*
D03*
X167142Y137008D02*
D03*
X151748Y136969D02*
D03*
X156866D02*
D03*
X162000Y174500D02*
D03*
X167142Y174508D02*
D03*
X151748Y174469D02*
D03*
X156866D02*
D03*
D24*
X277621Y143000D02*
D03*
X272250Y143250D02*
D03*
X268200Y143500D02*
D03*
X277621Y180500D02*
D03*
X272250Y180750D02*
D03*
X268200Y181000D02*
D03*
X248621Y143000D02*
D03*
X243250Y143250D02*
D03*
X239200Y143500D02*
D03*
X248621Y180500D02*
D03*
X243250Y180750D02*
D03*
X239200Y181000D02*
D03*
X219621Y143000D02*
D03*
X214250Y143250D02*
D03*
X210200Y143500D02*
D03*
X219621Y180500D02*
D03*
X214250Y180750D02*
D03*
X210200Y181000D02*
D03*
X190621Y143000D02*
D03*
X185250Y143250D02*
D03*
X181200Y143500D02*
D03*
X190621Y180500D02*
D03*
X185250Y180750D02*
D03*
X181200Y181000D02*
D03*
X161621Y143000D02*
D03*
X156250Y143250D02*
D03*
X152200Y143500D02*
D03*
X161621Y180500D02*
D03*
X156250Y180750D02*
D03*
X152200Y181000D02*
D03*
D25*
X277500Y158000D02*
D03*
Y195500D02*
D03*
X248500Y158000D02*
D03*
Y195500D02*
D03*
X219500Y158000D02*
D03*
Y195500D02*
D03*
X190500Y158000D02*
D03*
Y195500D02*
D03*
X161500Y158000D02*
D03*
Y195500D02*
D03*
M02*
