G04*
G04 #@! TF.GenerationSoftware,Altium Limited,Altium Designer,23.3.1 (30)*
G04*
G04 Layer_Physical_Order=1*
G04 Layer_Color=255*
%FSLAX25Y25*%
%MOIN*%
G70*
G04*
G04 #@! TF.SameCoordinates,55D14C98-EEC8-413B-A2D3-342376034AB9*
G04*
G04*
G04 #@! TF.FilePolarity,Positive*
G04*
G01*
G75*
%ADD14R,0.02000X0.02000*%
%ADD15R,0.02000X0.02000*%
%ADD16R,0.02047X0.02047*%
%ADD17R,0.03568X0.03366*%
%ADD18R,0.02254X0.02423*%
%ADD22C,0.01500*%
%ADD23R,0.09843X0.03937*%
%ADD24C,0.01575*%
%ADD25C,0.01968*%
G36*
X368976Y116925D02*
X371000D01*
X373024D01*
Y117551D01*
X375373D01*
Y116813D01*
X377500D01*
Y115813D01*
X378500D01*
Y113601D01*
X378882D01*
Y111946D01*
X374916D01*
Y106980D01*
Y105910D01*
X368174D01*
X366950Y107135D01*
Y107850D01*
X367149D01*
Y108850D01*
X365149D01*
Y110850D01*
X367149D01*
Y111000D01*
Y112000D01*
X365149D01*
Y114000D01*
X367149D01*
Y114150D01*
Y115150D01*
X365149D01*
Y117150D01*
X367149D01*
Y117607D01*
X368976D01*
Y116925D01*
D02*
G37*
G36*
X381197Y108309D02*
Y101901D01*
X379732Y100803D01*
X356000D01*
X355693Y100742D01*
X355432Y100568D01*
X355258Y100307D01*
X355197Y100000D01*
X352803D01*
X352742Y100307D01*
X352568Y100568D01*
X352307Y100742D01*
X352000Y100803D01*
X347107D01*
X347042Y100890D01*
X347294Y101390D01*
X349008D01*
Y104358D01*
X350008D01*
Y105358D01*
X355929D01*
Y107327D01*
X355929Y107327D01*
X355929D01*
X356081Y107777D01*
X356239Y107882D01*
X356550Y108194D01*
X357050Y107987D01*
Y104900D01*
X360000D01*
Y104700D01*
X361000D01*
Y106700D01*
X363000D01*
Y104700D01*
X364000D01*
Y104900D01*
X364715D01*
X366402Y103212D01*
X366915Y102870D01*
X367520Y102750D01*
X374916D01*
Y102054D01*
X380084D01*
Y108036D01*
X380105Y108040D01*
X380617Y108382D01*
X380735Y108500D01*
X381197Y108309D01*
D02*
G37*
%LPC*%
G36*
X373024Y114925D02*
X372000D01*
Y113902D01*
X373024D01*
Y114925D01*
D02*
G37*
G36*
X370000D02*
X368976D01*
Y113902D01*
X370000D01*
Y114925D01*
D02*
G37*
G36*
X376500Y114813D02*
X375373D01*
Y113601D01*
X376500D01*
Y114813D01*
D02*
G37*
G36*
X355929Y103358D02*
X351008D01*
Y101390D01*
X355929D01*
Y103358D01*
D02*
G37*
%LPD*%
D14*
X365149Y116150D02*
D03*
Y113000D02*
D03*
Y109850D02*
D03*
X358851D02*
D03*
Y113000D02*
D03*
Y116150D02*
D03*
D15*
X365150Y106700D02*
D03*
X362000D02*
D03*
X358850D02*
D03*
Y119300D02*
D03*
X362000D02*
D03*
X365150D02*
D03*
D16*
X371000Y115925D02*
D03*
Y119075D02*
D03*
D17*
X377500Y109463D02*
D03*
Y104537D02*
D03*
D18*
Y119187D02*
D03*
Y115813D02*
D03*
D22*
X356250Y115250D02*
X356900Y115900D01*
X355500Y114500D02*
X356250Y115250D01*
X356500Y119300D02*
X358850D01*
X350420D02*
X356500D01*
X349969Y119752D02*
X350420Y119300D01*
X358850D02*
X359100Y119550D01*
X371000Y119075D02*
X371056Y119131D01*
X377444D01*
X377500Y119187D01*
X370887Y119187D02*
X371000Y119075D01*
X363100Y109600D02*
X364899D01*
X365149Y109850D01*
X362250Y108750D02*
X363100Y109600D01*
X362250Y106950D02*
Y108750D01*
X362000Y106700D02*
X362250Y106950D01*
X367520Y104330D02*
X377293D01*
X377500Y104537D01*
X377537Y109500D02*
X379500D01*
X377500Y109463D02*
X377537Y109500D01*
X380463Y110463D02*
Y117500D01*
X379500Y109500D02*
X380463Y110463D01*
X379237Y118726D02*
X380463Y117500D01*
X377500Y119103D02*
Y119187D01*
Y119103D02*
X377877Y118726D01*
X379237D01*
X365262Y119187D02*
X370887D01*
X359100Y121100D02*
X360000Y122000D01*
X359100Y119550D02*
Y121100D01*
X364900Y119550D02*
Y120600D01*
X360000Y122000D02*
X363500D01*
X364900Y120600D01*
Y119550D02*
X365150Y119300D01*
X365262Y119187D01*
X350500Y109000D02*
X355121D01*
X350000Y109500D02*
X350500Y109000D01*
X356000Y109879D02*
Y111192D01*
X355121Y109000D02*
X356000Y109879D01*
X357558Y112750D02*
X358601D01*
X356000Y111192D02*
X357558Y112750D01*
X358601D02*
X358851Y113000D01*
X350102Y114500D02*
X355500D01*
X349969Y114634D02*
X350102Y114500D01*
X358601Y115900D02*
X358851Y116150D01*
X356900Y115900D02*
X358601D01*
X365150Y106700D02*
X367520Y104330D01*
X362250Y118008D02*
Y119050D01*
Y118008D02*
X363858Y116400D01*
X364899D01*
X362000Y119300D02*
X362250Y119050D01*
X364899Y116400D02*
X365149Y116150D01*
D23*
X349969Y114634D02*
D03*
Y119752D02*
D03*
X350008Y104358D02*
D03*
X350000Y109500D02*
D03*
D24*
X356000Y109879D02*
D03*
X356250Y115250D02*
D03*
X356500Y119300D02*
D03*
D25*
X371000Y110000D02*
D03*
M02*
