G04*
G04 #@! TF.GenerationSoftware,Altium Limited,Altium Designer,23.3.1 (30)*
G04*
G04 Layer_Physical_Order=1*
G04 Layer_Color=255*
%FSLAX25Y25*%
%MOIN*%
G70*
G04*
G04 #@! TF.SameCoordinates,76A80B4F-B454-4E83-830C-21A368A3A4FA*
G04*
G04*
G04 #@! TF.FilePolarity,Positive*
G04*
G01*
G75*
%ADD10R,0.02000X0.02000*%
%ADD11R,0.02000X0.02000*%
%ADD12R,0.02047X0.02047*%
%ADD13R,0.03366X0.03568*%
%ADD14R,0.02423X0.02254*%
%ADD15C,0.01500*%
%ADD16R,0.03937X0.09843*%
%ADD17C,0.01575*%
%ADD18C,0.01968*%
G36*
X275554Y199416D02*
X281590D01*
Y192674D01*
X280365Y191450D01*
X279650D01*
Y191649D01*
X278650D01*
Y189649D01*
X276650D01*
Y191649D01*
X275500D01*
Y189649D01*
X273500D01*
Y191649D01*
X272350D01*
Y189649D01*
X270350D01*
Y191649D01*
X269893D01*
Y193476D01*
X270575D01*
Y195500D01*
Y197524D01*
X269949D01*
Y199873D01*
X270687D01*
Y202000D01*
X271687D01*
Y203000D01*
X273899D01*
Y203382D01*
X275554D01*
Y199416D01*
D02*
G37*
G36*
X246554D02*
X252590D01*
Y192674D01*
X251365Y191450D01*
X250650D01*
Y191649D01*
X249650D01*
Y189649D01*
X247650D01*
Y191649D01*
X246500D01*
Y189649D01*
X244500D01*
Y191649D01*
X243350D01*
Y189649D01*
X241350D01*
Y191649D01*
X240893D01*
Y193476D01*
X241575D01*
Y195500D01*
Y197524D01*
X240949D01*
Y199873D01*
X241687D01*
Y202000D01*
X242687D01*
Y203000D01*
X244899D01*
Y203382D01*
X246554D01*
Y199416D01*
D02*
G37*
G36*
X217554D02*
X223590D01*
Y192674D01*
X222365Y191450D01*
X221650D01*
Y191649D01*
X220650D01*
Y189649D01*
X218650D01*
Y191649D01*
X217500D01*
Y189649D01*
X215500D01*
Y191649D01*
X214350D01*
Y189649D01*
X212350D01*
Y191649D01*
X211893D01*
Y193476D01*
X212575D01*
Y195500D01*
Y197524D01*
X211949D01*
Y199873D01*
X212687D01*
Y202000D01*
X213687D01*
Y203000D01*
X215899D01*
Y203382D01*
X217554D01*
Y199416D01*
D02*
G37*
G36*
X188554D02*
X194590D01*
Y192674D01*
X193365Y191450D01*
X192650D01*
Y191649D01*
X191650D01*
Y189649D01*
X189650D01*
Y191649D01*
X188500D01*
Y189649D01*
X186500D01*
Y191649D01*
X185350D01*
Y189649D01*
X183350D01*
Y191649D01*
X182893D01*
Y193476D01*
X183575D01*
Y195500D01*
Y197524D01*
X182949D01*
Y199873D01*
X183687D01*
Y202000D01*
X184687D01*
Y203000D01*
X186899D01*
Y203382D01*
X188554D01*
Y199416D01*
D02*
G37*
G36*
X159554D02*
X165590D01*
Y192674D01*
X164365Y191450D01*
X163650D01*
Y191649D01*
X162650D01*
Y189649D01*
X160650D01*
Y191649D01*
X159500D01*
Y189649D01*
X157500D01*
Y191649D01*
X156350D01*
Y189649D01*
X154350D01*
Y191649D01*
X153893D01*
Y193476D01*
X154575D01*
Y195500D01*
Y197524D01*
X153949D01*
Y199873D01*
X154687D01*
Y202000D01*
X155687D01*
Y203000D01*
X157899D01*
Y203382D01*
X159554D01*
Y199416D01*
D02*
G37*
G36*
X286697Y204232D02*
Y180500D01*
X286758Y180193D01*
X286932Y179932D01*
X287193Y179758D01*
X287500Y179697D01*
Y177303D01*
X287193Y177242D01*
X286932Y177068D01*
X286758Y176807D01*
X286697Y176500D01*
Y171607D01*
X286610Y171542D01*
X286110Y171794D01*
Y173508D01*
X283142D01*
Y174508D01*
X282142D01*
Y180429D01*
X280173D01*
X280173Y180429D01*
Y180429D01*
X279723Y180581D01*
X279618Y180739D01*
X279306Y181050D01*
X279513Y181550D01*
X282600D01*
Y184500D01*
X282800D01*
Y185500D01*
X280800D01*
Y187500D01*
X282800D01*
Y188500D01*
X282600D01*
Y189215D01*
X284288Y190902D01*
X284630Y191415D01*
X284751Y192020D01*
Y199416D01*
X285446D01*
Y204584D01*
X279464D01*
X279460Y204605D01*
X279117Y205118D01*
X279000Y205235D01*
X279191Y205697D01*
X285599D01*
X286697Y204232D01*
D02*
G37*
G36*
X257697D02*
Y180500D01*
X257758Y180193D01*
X257932Y179932D01*
X258193Y179758D01*
X258500Y179697D01*
Y177303D01*
X258193Y177242D01*
X257932Y177068D01*
X257758Y176807D01*
X257697Y176500D01*
Y171607D01*
X257610Y171542D01*
X257110Y171794D01*
Y173508D01*
X254142D01*
Y174508D01*
X253142D01*
Y180429D01*
X251173D01*
X251173Y180429D01*
Y180429D01*
X250723Y180581D01*
X250618Y180739D01*
X250306Y181050D01*
X250513Y181550D01*
X253600D01*
Y184500D01*
X253800D01*
Y185500D01*
X251800D01*
Y187500D01*
X253800D01*
Y188500D01*
X253600D01*
Y189215D01*
X255288Y190902D01*
X255630Y191415D01*
X255750Y192020D01*
Y199416D01*
X256446D01*
Y204584D01*
X250464D01*
X250460Y204605D01*
X250117Y205118D01*
X250000Y205235D01*
X250191Y205697D01*
X256599D01*
X257697Y204232D01*
D02*
G37*
G36*
X228697D02*
Y180500D01*
X228758Y180193D01*
X228932Y179932D01*
X229193Y179758D01*
X229500Y179697D01*
Y177303D01*
X229193Y177242D01*
X228932Y177068D01*
X228758Y176807D01*
X228697Y176500D01*
Y171607D01*
X228610Y171542D01*
X228110Y171794D01*
Y173508D01*
X225142D01*
Y174508D01*
X224142D01*
Y180429D01*
X222173D01*
X222173Y180429D01*
Y180429D01*
X221723Y180581D01*
X221618Y180739D01*
X221306Y181050D01*
X221513Y181550D01*
X224600D01*
Y184500D01*
X224800D01*
Y185500D01*
X222800D01*
Y187500D01*
X224800D01*
Y188500D01*
X224600D01*
Y189215D01*
X226288Y190902D01*
X226630Y191415D01*
X226750Y192020D01*
Y199416D01*
X227446D01*
Y204584D01*
X221464D01*
X221460Y204605D01*
X221117Y205118D01*
X221000Y205235D01*
X221191Y205697D01*
X227599D01*
X228697Y204232D01*
D02*
G37*
G36*
X199697D02*
Y180500D01*
X199758Y180193D01*
X199932Y179932D01*
X200193Y179758D01*
X200500Y179697D01*
Y177303D01*
X200193Y177242D01*
X199932Y177068D01*
X199758Y176807D01*
X199697Y176500D01*
Y171607D01*
X199610Y171542D01*
X199110Y171794D01*
Y173508D01*
X196142D01*
Y174508D01*
X195142D01*
Y180429D01*
X193173D01*
X193173Y180429D01*
Y180429D01*
X192723Y180581D01*
X192617Y180739D01*
X192306Y181050D01*
X192513Y181550D01*
X195600D01*
Y184500D01*
X195800D01*
Y185500D01*
X193800D01*
Y187500D01*
X195800D01*
Y188500D01*
X195600D01*
Y189215D01*
X197288Y190902D01*
X197630Y191415D01*
X197750Y192020D01*
Y199416D01*
X198446D01*
Y204584D01*
X192464D01*
X192460Y204605D01*
X192118Y205118D01*
X192000Y205235D01*
X192191Y205697D01*
X198599D01*
X199697Y204232D01*
D02*
G37*
G36*
X170697D02*
Y180500D01*
X170758Y180193D01*
X170932Y179932D01*
X171193Y179758D01*
X171500Y179697D01*
Y177303D01*
X171193Y177242D01*
X170932Y177068D01*
X170758Y176807D01*
X170697Y176500D01*
Y171607D01*
X170610Y171542D01*
X170110Y171794D01*
Y173508D01*
X167142D01*
Y174508D01*
X166142D01*
Y180429D01*
X164173D01*
X164173Y180429D01*
Y180429D01*
X163723Y180581D01*
X163618Y180739D01*
X163306Y181050D01*
X163513Y181550D01*
X166600D01*
Y184500D01*
X166800D01*
Y185500D01*
X164800D01*
Y187500D01*
X166800D01*
Y188500D01*
X166600D01*
Y189215D01*
X168288Y190902D01*
X168630Y191415D01*
X168751Y192020D01*
Y199416D01*
X169446D01*
Y204584D01*
X163464D01*
X163460Y204605D01*
X163118Y205118D01*
X163000Y205235D01*
X163191Y205697D01*
X169599D01*
X170697Y204232D01*
D02*
G37*
G36*
X275554Y161916D02*
X281590D01*
Y155174D01*
X280365Y153950D01*
X279650D01*
Y154149D01*
X278650D01*
Y152149D01*
X276650D01*
Y154149D01*
X275500D01*
Y152149D01*
X273500D01*
Y154149D01*
X272350D01*
Y152149D01*
X270350D01*
Y154149D01*
X269893D01*
Y155976D01*
X270575D01*
Y158000D01*
Y160024D01*
X269949D01*
Y162373D01*
X270687D01*
Y164500D01*
X271687D01*
Y165500D01*
X273899D01*
Y165882D01*
X275554D01*
Y161916D01*
D02*
G37*
G36*
X246554D02*
X252590D01*
Y155174D01*
X251365Y153950D01*
X250650D01*
Y154149D01*
X249650D01*
Y152149D01*
X247650D01*
Y154149D01*
X246500D01*
Y152149D01*
X244500D01*
Y154149D01*
X243350D01*
Y152149D01*
X241350D01*
Y154149D01*
X240893D01*
Y155976D01*
X241575D01*
Y158000D01*
Y160024D01*
X240949D01*
Y162373D01*
X241687D01*
Y164500D01*
X242687D01*
Y165500D01*
X244899D01*
Y165882D01*
X246554D01*
Y161916D01*
D02*
G37*
G36*
X217554D02*
X223590D01*
Y155174D01*
X222365Y153950D01*
X221650D01*
Y154149D01*
X220650D01*
Y152149D01*
X218650D01*
Y154149D01*
X217500D01*
Y152149D01*
X215500D01*
Y154149D01*
X214350D01*
Y152149D01*
X212350D01*
Y154149D01*
X211893D01*
Y155976D01*
X212575D01*
Y158000D01*
Y160024D01*
X211949D01*
Y162373D01*
X212687D01*
Y164500D01*
X213687D01*
Y165500D01*
X215899D01*
Y165882D01*
X217554D01*
Y161916D01*
D02*
G37*
G36*
X188554D02*
X194590D01*
Y155174D01*
X193365Y153950D01*
X192650D01*
Y154149D01*
X191650D01*
Y152149D01*
X189650D01*
Y154149D01*
X188500D01*
Y152149D01*
X186500D01*
Y154149D01*
X185350D01*
Y152149D01*
X183350D01*
Y154149D01*
X182893D01*
Y155976D01*
X183575D01*
Y158000D01*
Y160024D01*
X182949D01*
Y162373D01*
X183687D01*
Y164500D01*
X184687D01*
Y165500D01*
X186899D01*
Y165882D01*
X188554D01*
Y161916D01*
D02*
G37*
G36*
X159554D02*
X165590D01*
Y155174D01*
X164365Y153950D01*
X163650D01*
Y154149D01*
X162650D01*
Y152149D01*
X160650D01*
Y154149D01*
X159500D01*
Y152149D01*
X157500D01*
Y154149D01*
X156350D01*
Y152149D01*
X154350D01*
Y154149D01*
X153893D01*
Y155976D01*
X154575D01*
Y158000D01*
Y160024D01*
X153949D01*
Y162373D01*
X154687D01*
Y164500D01*
X155687D01*
Y165500D01*
X157899D01*
Y165882D01*
X159554D01*
Y161916D01*
D02*
G37*
G36*
X286697Y166732D02*
Y143000D01*
X286758Y142693D01*
X286932Y142432D01*
X287193Y142258D01*
X287500Y142197D01*
Y139803D01*
X287193Y139742D01*
X286932Y139568D01*
X286758Y139307D01*
X286697Y139000D01*
Y134107D01*
X286610Y134042D01*
X286110Y134294D01*
Y136008D01*
X283142D01*
Y137008D01*
X282142D01*
Y142929D01*
X280173D01*
X280173Y142929D01*
Y142929D01*
X279723Y143081D01*
X279618Y143239D01*
X279306Y143550D01*
X279513Y144050D01*
X282600D01*
Y147000D01*
X282800D01*
Y148000D01*
X280800D01*
Y150000D01*
X282800D01*
Y151000D01*
X282600D01*
Y151715D01*
X284288Y153402D01*
X284630Y153915D01*
X284751Y154520D01*
Y161916D01*
X285446D01*
Y167084D01*
X279464D01*
X279460Y167105D01*
X279117Y167617D01*
X279000Y167735D01*
X279191Y168197D01*
X285599D01*
X286697Y166732D01*
D02*
G37*
G36*
X257697D02*
Y143000D01*
X257758Y142693D01*
X257932Y142432D01*
X258193Y142258D01*
X258500Y142197D01*
Y139803D01*
X258193Y139742D01*
X257932Y139568D01*
X257758Y139307D01*
X257697Y139000D01*
Y134107D01*
X257610Y134042D01*
X257110Y134294D01*
Y136008D01*
X254142D01*
Y137008D01*
X253142D01*
Y142929D01*
X251173D01*
X251173Y142929D01*
Y142929D01*
X250723Y143081D01*
X250618Y143239D01*
X250306Y143550D01*
X250513Y144050D01*
X253600D01*
Y147000D01*
X253800D01*
Y148000D01*
X251800D01*
Y150000D01*
X253800D01*
Y151000D01*
X253600D01*
Y151715D01*
X255288Y153402D01*
X255630Y153915D01*
X255750Y154520D01*
Y161916D01*
X256446D01*
Y167084D01*
X250464D01*
X250460Y167105D01*
X250117Y167617D01*
X250000Y167735D01*
X250191Y168197D01*
X256599D01*
X257697Y166732D01*
D02*
G37*
G36*
X228697D02*
Y143000D01*
X228758Y142693D01*
X228932Y142432D01*
X229193Y142258D01*
X229500Y142197D01*
Y139803D01*
X229193Y139742D01*
X228932Y139568D01*
X228758Y139307D01*
X228697Y139000D01*
Y134107D01*
X228610Y134042D01*
X228110Y134294D01*
Y136008D01*
X225142D01*
Y137008D01*
X224142D01*
Y142929D01*
X222173D01*
X222173Y142929D01*
Y142929D01*
X221723Y143081D01*
X221618Y143239D01*
X221306Y143550D01*
X221513Y144050D01*
X224600D01*
Y147000D01*
X224800D01*
Y148000D01*
X222800D01*
Y150000D01*
X224800D01*
Y151000D01*
X224600D01*
Y151715D01*
X226288Y153402D01*
X226630Y153915D01*
X226750Y154520D01*
Y161916D01*
X227446D01*
Y167084D01*
X221464D01*
X221460Y167105D01*
X221117Y167617D01*
X221000Y167735D01*
X221191Y168197D01*
X227599D01*
X228697Y166732D01*
D02*
G37*
G36*
X199697D02*
Y143000D01*
X199758Y142693D01*
X199932Y142432D01*
X200193Y142258D01*
X200500Y142197D01*
Y139803D01*
X200193Y139742D01*
X199932Y139568D01*
X199758Y139307D01*
X199697Y139000D01*
Y134107D01*
X199610Y134042D01*
X199110Y134294D01*
Y136008D01*
X196142D01*
Y137008D01*
X195142D01*
Y142929D01*
X193173D01*
X193173Y142929D01*
Y142929D01*
X192723Y143081D01*
X192617Y143239D01*
X192306Y143550D01*
X192513Y144050D01*
X195600D01*
Y147000D01*
X195800D01*
Y148000D01*
X193800D01*
Y150000D01*
X195800D01*
Y151000D01*
X195600D01*
Y151715D01*
X197288Y153402D01*
X197630Y153915D01*
X197750Y154520D01*
Y161916D01*
X198446D01*
Y167084D01*
X192464D01*
X192460Y167105D01*
X192118Y167617D01*
X192000Y167735D01*
X192191Y168197D01*
X198599D01*
X199697Y166732D01*
D02*
G37*
G36*
X170697D02*
Y143000D01*
X170758Y142693D01*
X170932Y142432D01*
X171193Y142258D01*
X171500Y142197D01*
Y139803D01*
X171193Y139742D01*
X170932Y139568D01*
X170758Y139307D01*
X170697Y139000D01*
Y134107D01*
X170610Y134042D01*
X170110Y134294D01*
Y136008D01*
X167142D01*
Y137008D01*
X166142D01*
Y142929D01*
X164173D01*
X164173Y142929D01*
Y142929D01*
X163723Y143081D01*
X163618Y143239D01*
X163306Y143550D01*
X163513Y144050D01*
X166600D01*
Y147000D01*
X166800D01*
Y148000D01*
X164800D01*
Y150000D01*
X166800D01*
Y151000D01*
X166600D01*
Y151715D01*
X168288Y153402D01*
X168630Y153915D01*
X168751Y154520D01*
Y161916D01*
X169446D01*
Y167084D01*
X163464D01*
X163460Y167105D01*
X163118Y167617D01*
X163000Y167735D01*
X163191Y168197D01*
X169599D01*
X170697Y166732D01*
D02*
G37*
%LPC*%
G36*
X273899Y201000D02*
X272687D01*
Y199873D01*
X273899D01*
Y201000D01*
D02*
G37*
G36*
X273598Y197524D02*
X272575D01*
Y196500D01*
X273598D01*
Y197524D01*
D02*
G37*
G36*
Y194500D02*
X272575D01*
Y193476D01*
X273598D01*
Y194500D01*
D02*
G37*
G36*
X244899Y201000D02*
X243687D01*
Y199873D01*
X244899D01*
Y201000D01*
D02*
G37*
G36*
X244598Y197524D02*
X243575D01*
Y196500D01*
X244598D01*
Y197524D01*
D02*
G37*
G36*
Y194500D02*
X243575D01*
Y193476D01*
X244598D01*
Y194500D01*
D02*
G37*
G36*
X215899Y201000D02*
X214687D01*
Y199873D01*
X215899D01*
Y201000D01*
D02*
G37*
G36*
X215598Y197524D02*
X214575D01*
Y196500D01*
X215598D01*
Y197524D01*
D02*
G37*
G36*
Y194500D02*
X214575D01*
Y193476D01*
X215598D01*
Y194500D01*
D02*
G37*
G36*
X186899Y201000D02*
X185687D01*
Y199873D01*
X186899D01*
Y201000D01*
D02*
G37*
G36*
X186598Y197524D02*
X185575D01*
Y196500D01*
X186598D01*
Y197524D01*
D02*
G37*
G36*
Y194500D02*
X185575D01*
Y193476D01*
X186598D01*
Y194500D01*
D02*
G37*
G36*
X157899Y201000D02*
X156687D01*
Y199873D01*
X157899D01*
Y201000D01*
D02*
G37*
G36*
X157598Y197524D02*
X156575D01*
Y196500D01*
X157598D01*
Y197524D01*
D02*
G37*
G36*
Y194500D02*
X156575D01*
Y193476D01*
X157598D01*
Y194500D01*
D02*
G37*
G36*
X286110Y180429D02*
X284142D01*
Y175508D01*
X286110D01*
Y180429D01*
D02*
G37*
G36*
X257110D02*
X255142D01*
Y175508D01*
X257110D01*
Y180429D01*
D02*
G37*
G36*
X228110D02*
X226142D01*
Y175508D01*
X228110D01*
Y180429D01*
D02*
G37*
G36*
X199110D02*
X197142D01*
Y175508D01*
X199110D01*
Y180429D01*
D02*
G37*
G36*
X170110D02*
X168142D01*
Y175508D01*
X170110D01*
Y180429D01*
D02*
G37*
G36*
X273899Y163500D02*
X272687D01*
Y162373D01*
X273899D01*
Y163500D01*
D02*
G37*
G36*
X273598Y160024D02*
X272575D01*
Y159000D01*
X273598D01*
Y160024D01*
D02*
G37*
G36*
Y157000D02*
X272575D01*
Y155976D01*
X273598D01*
Y157000D01*
D02*
G37*
G36*
X244899Y163500D02*
X243687D01*
Y162373D01*
X244899D01*
Y163500D01*
D02*
G37*
G36*
X244598Y160024D02*
X243575D01*
Y159000D01*
X244598D01*
Y160024D01*
D02*
G37*
G36*
Y157000D02*
X243575D01*
Y155976D01*
X244598D01*
Y157000D01*
D02*
G37*
G36*
X215899Y163500D02*
X214687D01*
Y162373D01*
X215899D01*
Y163500D01*
D02*
G37*
G36*
X215598Y160024D02*
X214575D01*
Y159000D01*
X215598D01*
Y160024D01*
D02*
G37*
G36*
Y157000D02*
X214575D01*
Y155976D01*
X215598D01*
Y157000D01*
D02*
G37*
G36*
X186899Y163500D02*
X185687D01*
Y162373D01*
X186899D01*
Y163500D01*
D02*
G37*
G36*
X186598Y160024D02*
X185575D01*
Y159000D01*
X186598D01*
Y160024D01*
D02*
G37*
G36*
Y157000D02*
X185575D01*
Y155976D01*
X186598D01*
Y157000D01*
D02*
G37*
G36*
X157899Y163500D02*
X156687D01*
Y162373D01*
X157899D01*
Y163500D01*
D02*
G37*
G36*
X157598Y160024D02*
X156575D01*
Y159000D01*
X157598D01*
Y160024D01*
D02*
G37*
G36*
Y157000D02*
X156575D01*
Y155976D01*
X157598D01*
Y157000D01*
D02*
G37*
G36*
X286110Y142929D02*
X284142D01*
Y138008D01*
X286110D01*
Y142929D01*
D02*
G37*
G36*
X257110D02*
X255142D01*
Y138008D01*
X257110D01*
Y142929D01*
D02*
G37*
G36*
X228110D02*
X226142D01*
Y138008D01*
X228110D01*
Y142929D01*
D02*
G37*
G36*
X199110D02*
X197142D01*
Y138008D01*
X199110D01*
Y142929D01*
D02*
G37*
G36*
X170110D02*
X168142D01*
Y138008D01*
X170110D01*
Y142929D01*
D02*
G37*
%LPD*%
D10*
X271350Y152149D02*
D03*
X274500D02*
D03*
X277650D02*
D03*
Y145851D02*
D03*
X274500D02*
D03*
X271350D02*
D03*
Y189649D02*
D03*
X274500D02*
D03*
X277650D02*
D03*
Y183351D02*
D03*
X274500D02*
D03*
X271350D02*
D03*
X242350Y152149D02*
D03*
X245500D02*
D03*
X248650D02*
D03*
Y145851D02*
D03*
X245500D02*
D03*
X242350D02*
D03*
Y189649D02*
D03*
X245500D02*
D03*
X248650D02*
D03*
Y183351D02*
D03*
X245500D02*
D03*
X242350D02*
D03*
X213350Y152149D02*
D03*
X216500D02*
D03*
X219650D02*
D03*
Y145851D02*
D03*
X216500D02*
D03*
X213350D02*
D03*
Y189649D02*
D03*
X216500D02*
D03*
X219650D02*
D03*
Y183351D02*
D03*
X216500D02*
D03*
X213350D02*
D03*
X184350Y152149D02*
D03*
X187500D02*
D03*
X190650D02*
D03*
Y145851D02*
D03*
X187500D02*
D03*
X184350D02*
D03*
Y189649D02*
D03*
X187500D02*
D03*
X190650D02*
D03*
Y183351D02*
D03*
X187500D02*
D03*
X184350D02*
D03*
X155350Y152149D02*
D03*
X158500D02*
D03*
X161650D02*
D03*
Y145851D02*
D03*
X158500D02*
D03*
X155350D02*
D03*
Y189649D02*
D03*
X158500D02*
D03*
X161650D02*
D03*
Y183351D02*
D03*
X158500D02*
D03*
X155350D02*
D03*
D11*
X280800Y152150D02*
D03*
Y149000D02*
D03*
Y145850D02*
D03*
X268200D02*
D03*
Y149000D02*
D03*
Y152150D02*
D03*
X280800Y189650D02*
D03*
Y186500D02*
D03*
Y183350D02*
D03*
X268200D02*
D03*
Y186500D02*
D03*
Y189650D02*
D03*
X251800Y152150D02*
D03*
Y149000D02*
D03*
Y145850D02*
D03*
X239200D02*
D03*
Y149000D02*
D03*
Y152150D02*
D03*
X251800Y189650D02*
D03*
Y186500D02*
D03*
Y183350D02*
D03*
X239200D02*
D03*
Y186500D02*
D03*
Y189650D02*
D03*
X222800Y152150D02*
D03*
Y149000D02*
D03*
Y145850D02*
D03*
X210200D02*
D03*
Y149000D02*
D03*
Y152150D02*
D03*
X222800Y189650D02*
D03*
Y186500D02*
D03*
Y183350D02*
D03*
X210200D02*
D03*
Y186500D02*
D03*
Y189650D02*
D03*
X193800Y152150D02*
D03*
Y149000D02*
D03*
Y145850D02*
D03*
X181200D02*
D03*
Y149000D02*
D03*
Y152150D02*
D03*
X193800Y189650D02*
D03*
Y186500D02*
D03*
Y183350D02*
D03*
X181200D02*
D03*
Y186500D02*
D03*
Y189650D02*
D03*
X164800Y152150D02*
D03*
Y149000D02*
D03*
Y145850D02*
D03*
X152200D02*
D03*
Y149000D02*
D03*
Y152150D02*
D03*
X164800Y189650D02*
D03*
Y186500D02*
D03*
Y183350D02*
D03*
X152200D02*
D03*
Y186500D02*
D03*
Y189650D02*
D03*
D12*
X271575Y158000D02*
D03*
X268425D02*
D03*
X271575Y195500D02*
D03*
X268425D02*
D03*
X242575Y158000D02*
D03*
X239425D02*
D03*
X242575Y195500D02*
D03*
X239425D02*
D03*
X213575Y158000D02*
D03*
X210425D02*
D03*
X213575Y195500D02*
D03*
X210425D02*
D03*
X184575Y158000D02*
D03*
X181425D02*
D03*
X184575Y195500D02*
D03*
X181425D02*
D03*
X155575Y158000D02*
D03*
X152425D02*
D03*
X155575Y195500D02*
D03*
X152425D02*
D03*
D13*
X278037Y164500D02*
D03*
X282963D02*
D03*
X278037Y202000D02*
D03*
X282963D02*
D03*
X249037Y164500D02*
D03*
X253963D02*
D03*
X249037Y202000D02*
D03*
X253963D02*
D03*
X220037Y164500D02*
D03*
X224963D02*
D03*
X220037Y202000D02*
D03*
X224963D02*
D03*
X191037Y164500D02*
D03*
X195963D02*
D03*
X191037Y202000D02*
D03*
X195963D02*
D03*
X162037Y164500D02*
D03*
X166963D02*
D03*
X162037Y202000D02*
D03*
X166963D02*
D03*
D14*
X268313Y164500D02*
D03*
X271687D02*
D03*
X268313Y202000D02*
D03*
X271687D02*
D03*
X239313Y164500D02*
D03*
X242687D02*
D03*
X239313Y202000D02*
D03*
X242687D02*
D03*
X210313Y164500D02*
D03*
X213687D02*
D03*
X210313Y202000D02*
D03*
X213687D02*
D03*
X181313Y164500D02*
D03*
X184687D02*
D03*
X181313Y202000D02*
D03*
X184687D02*
D03*
X152313Y164500D02*
D03*
X155687D02*
D03*
X152313Y202000D02*
D03*
X155687D02*
D03*
D15*
X272250Y143250D02*
X271600Y143900D01*
X273000Y142500D02*
X272250Y143250D01*
X268200Y143500D02*
Y145850D01*
Y137420D02*
Y143500D01*
X267748Y136969D02*
X268200Y137420D01*
Y145850D02*
X267950Y146100D01*
X268425Y158000D02*
X268369Y158056D01*
Y164444D01*
X268313Y164500D01*
X268313Y157887D02*
X268425Y158000D01*
X277900Y150100D02*
Y151899D01*
X277650Y152149D01*
X278750Y149250D02*
X277900Y150100D01*
X280550Y149250D02*
X278750D01*
X280800Y149000D02*
X280550Y149250D01*
X283170Y154520D02*
Y164293D01*
X282963Y164500D01*
X278000Y164537D02*
Y166500D01*
X278037Y164500D02*
X278000Y164537D01*
X277037Y167463D02*
X270000D01*
X278000Y166500D02*
X277037Y167463D01*
X268774Y166237D02*
X270000Y167463D01*
X268397Y164500D02*
X268313D01*
X268397D02*
X268774Y164877D01*
Y166237D01*
X268313Y152262D02*
Y157887D01*
X266400Y146100D02*
X265500Y147000D01*
X267950Y146100D02*
X266400D01*
X267950Y151900D02*
X266900D01*
X265500Y147000D02*
Y150500D01*
X266900Y151900D01*
X267950D02*
X268200Y152150D01*
X268313Y152262D01*
X278500Y137500D02*
Y142121D01*
X278000Y137000D02*
X278500Y137500D01*
X277621Y143000D02*
X276308D01*
X278500Y142121D02*
X277621Y143000D01*
X274750Y144558D02*
Y145601D01*
X276308Y143000D02*
X274750Y144558D01*
Y145601D02*
X274500Y145851D01*
X273000Y137102D02*
Y142500D01*
X272866Y136969D02*
X273000Y137102D01*
X271600Y145601D02*
X271350Y145851D01*
X271600Y143900D02*
Y145601D01*
X280800Y152150D02*
X283170Y154520D01*
X269492Y149250D02*
X268450D01*
X269492D02*
X271100Y150858D01*
Y151899D01*
X268200Y149000D02*
X268450Y149250D01*
X271100Y151899D02*
X271350Y152149D01*
X272250Y180750D02*
X271600Y181400D01*
X273000Y180000D02*
X272250Y180750D01*
X268200Y181000D02*
Y183350D01*
Y174920D02*
Y181000D01*
X267748Y174469D02*
X268200Y174920D01*
Y183350D02*
X267950Y183600D01*
X268425Y195500D02*
X268369Y195556D01*
Y201944D01*
X268313Y202000D01*
X268313Y195387D02*
X268425Y195500D01*
X277900Y187600D02*
Y189399D01*
X277650Y189649D01*
X278750Y186750D02*
X277900Y187600D01*
X280550Y186750D02*
X278750D01*
X280800Y186500D02*
X280550Y186750D01*
X283170Y192020D02*
Y201793D01*
X282963Y202000D01*
X278000Y202037D02*
Y204000D01*
X278037Y202000D02*
X278000Y202037D01*
X277037Y204963D02*
X270000D01*
X278000Y204000D02*
X277037Y204963D01*
X268774Y203737D02*
X270000Y204963D01*
X268397Y202000D02*
X268313D01*
X268397D02*
X268774Y202377D01*
Y203737D01*
X268313Y189762D02*
Y195387D01*
X266400Y183600D02*
X265500Y184500D01*
X267950Y183600D02*
X266400D01*
X267950Y189400D02*
X266900D01*
X265500Y184500D02*
Y188000D01*
X266900Y189400D01*
X267950D02*
X268200Y189650D01*
X268313Y189762D01*
X278500Y175000D02*
Y179621D01*
X278000Y174500D02*
X278500Y175000D01*
X277621Y180500D02*
X276308D01*
X278500Y179621D02*
X277621Y180500D01*
X274750Y182058D02*
Y183101D01*
X276308Y180500D02*
X274750Y182058D01*
Y183101D02*
X274500Y183351D01*
X273000Y174602D02*
Y180000D01*
X272866Y174469D02*
X273000Y174602D01*
X271600Y183101D02*
X271350Y183351D01*
X271600Y181400D02*
Y183101D01*
X280800Y189650D02*
X283170Y192020D01*
X269492Y186750D02*
X268450D01*
X269492D02*
X271100Y188358D01*
Y189399D01*
X268200Y186500D02*
X268450Y186750D01*
X271100Y189399D02*
X271350Y189649D01*
X243250Y143250D02*
X242600Y143900D01*
X244000Y142500D02*
X243250Y143250D01*
X239200Y143500D02*
Y145850D01*
Y137420D02*
Y143500D01*
X238748Y136969D02*
X239200Y137420D01*
Y145850D02*
X238950Y146100D01*
X239425Y158000D02*
X239369Y158056D01*
Y164444D01*
X239313Y164500D01*
X239313Y157887D02*
X239425Y158000D01*
X248900Y150100D02*
Y151899D01*
X248650Y152149D01*
X249750Y149250D02*
X248900Y150100D01*
X251550Y149250D02*
X249750D01*
X251800Y149000D02*
X251550Y149250D01*
X254170Y154520D02*
Y164293D01*
X253963Y164500D01*
X249000Y164537D02*
Y166500D01*
X249037Y164500D02*
X249000Y164537D01*
X248037Y167463D02*
X241000D01*
X249000Y166500D02*
X248037Y167463D01*
X239774Y166237D02*
X241000Y167463D01*
X239397Y164500D02*
X239313D01*
X239397D02*
X239774Y164877D01*
Y166237D01*
X239313Y152262D02*
Y157887D01*
X237400Y146100D02*
X236500Y147000D01*
X238950Y146100D02*
X237400D01*
X238950Y151900D02*
X237900D01*
X236500Y147000D02*
Y150500D01*
X237900Y151900D01*
X238950D02*
X239200Y152150D01*
X239313Y152262D01*
X249500Y137500D02*
Y142121D01*
X249000Y137000D02*
X249500Y137500D01*
X248621Y143000D02*
X247308D01*
X249500Y142121D02*
X248621Y143000D01*
X245750Y144558D02*
Y145601D01*
X247308Y143000D02*
X245750Y144558D01*
Y145601D02*
X245500Y145851D01*
X244000Y137102D02*
Y142500D01*
X243866Y136969D02*
X244000Y137102D01*
X242600Y145601D02*
X242350Y145851D01*
X242600Y143900D02*
Y145601D01*
X251800Y152150D02*
X254170Y154520D01*
X240492Y149250D02*
X239450D01*
X240492D02*
X242100Y150858D01*
Y151899D01*
X239200Y149000D02*
X239450Y149250D01*
X242100Y151899D02*
X242350Y152149D01*
X243250Y180750D02*
X242600Y181400D01*
X244000Y180000D02*
X243250Y180750D01*
X239200Y181000D02*
Y183350D01*
Y174920D02*
Y181000D01*
X238748Y174469D02*
X239200Y174920D01*
Y183350D02*
X238950Y183600D01*
X239425Y195500D02*
X239369Y195556D01*
Y201944D01*
X239313Y202000D01*
X239313Y195387D02*
X239425Y195500D01*
X248900Y187600D02*
Y189399D01*
X248650Y189649D01*
X249750Y186750D02*
X248900Y187600D01*
X251550Y186750D02*
X249750D01*
X251800Y186500D02*
X251550Y186750D01*
X254170Y192020D02*
Y201793D01*
X253963Y202000D01*
X249000Y202037D02*
Y204000D01*
X249037Y202000D02*
X249000Y202037D01*
X248037Y204963D02*
X241000D01*
X249000Y204000D02*
X248037Y204963D01*
X239774Y203737D02*
X241000Y204963D01*
X239397Y202000D02*
X239313D01*
X239397D02*
X239774Y202377D01*
Y203737D01*
X239313Y189762D02*
Y195387D01*
X237400Y183600D02*
X236500Y184500D01*
X238950Y183600D02*
X237400D01*
X238950Y189400D02*
X237900D01*
X236500Y184500D02*
Y188000D01*
X237900Y189400D01*
X238950D02*
X239200Y189650D01*
X239313Y189762D01*
X249500Y175000D02*
Y179621D01*
X249000Y174500D02*
X249500Y175000D01*
X248621Y180500D02*
X247308D01*
X249500Y179621D02*
X248621Y180500D01*
X245750Y182058D02*
Y183101D01*
X247308Y180500D02*
X245750Y182058D01*
Y183101D02*
X245500Y183351D01*
X244000Y174602D02*
Y180000D01*
X243866Y174469D02*
X244000Y174602D01*
X242600Y183101D02*
X242350Y183351D01*
X242600Y181400D02*
Y183101D01*
X251800Y189650D02*
X254170Y192020D01*
X240492Y186750D02*
X239450D01*
X240492D02*
X242100Y188358D01*
Y189399D01*
X239200Y186500D02*
X239450Y186750D01*
X242100Y189399D02*
X242350Y189649D01*
X214250Y143250D02*
X213600Y143900D01*
X215000Y142500D02*
X214250Y143250D01*
X210200Y143500D02*
Y145850D01*
Y137420D02*
Y143500D01*
X209748Y136969D02*
X210200Y137420D01*
Y145850D02*
X209950Y146100D01*
X210425Y158000D02*
X210369Y158056D01*
Y164444D01*
X210313Y164500D01*
X210313Y157887D02*
X210425Y158000D01*
X219900Y150100D02*
Y151899D01*
X219650Y152149D01*
X220750Y149250D02*
X219900Y150100D01*
X222550Y149250D02*
X220750D01*
X222800Y149000D02*
X222550Y149250D01*
X225170Y154520D02*
Y164293D01*
X224963Y164500D01*
X220000Y164537D02*
Y166500D01*
X220037Y164500D02*
X220000Y164537D01*
X219037Y167463D02*
X212000D01*
X220000Y166500D02*
X219037Y167463D01*
X210774Y166237D02*
X212000Y167463D01*
X210397Y164500D02*
X210313D01*
X210397D02*
X210774Y164877D01*
Y166237D01*
X210313Y152262D02*
Y157887D01*
X208400Y146100D02*
X207500Y147000D01*
X209950Y146100D02*
X208400D01*
X209950Y151900D02*
X208900D01*
X207500Y147000D02*
Y150500D01*
X208900Y151900D01*
X209950D02*
X210200Y152150D01*
X210313Y152262D01*
X220500Y137500D02*
Y142121D01*
X220000Y137000D02*
X220500Y137500D01*
X219621Y143000D02*
X218308D01*
X220500Y142121D02*
X219621Y143000D01*
X216750Y144558D02*
Y145601D01*
X218308Y143000D02*
X216750Y144558D01*
Y145601D02*
X216500Y145851D01*
X215000Y137102D02*
Y142500D01*
X214866Y136969D02*
X215000Y137102D01*
X213600Y145601D02*
X213350Y145851D01*
X213600Y143900D02*
Y145601D01*
X222800Y152150D02*
X225170Y154520D01*
X211492Y149250D02*
X210450D01*
X211492D02*
X213100Y150858D01*
Y151899D01*
X210200Y149000D02*
X210450Y149250D01*
X213100Y151899D02*
X213350Y152149D01*
X214250Y180750D02*
X213600Y181400D01*
X215000Y180000D02*
X214250Y180750D01*
X210200Y181000D02*
Y183350D01*
Y174920D02*
Y181000D01*
X209748Y174469D02*
X210200Y174920D01*
Y183350D02*
X209950Y183600D01*
X210425Y195500D02*
X210369Y195556D01*
Y201944D01*
X210313Y202000D01*
X210313Y195387D02*
X210425Y195500D01*
X219900Y187600D02*
Y189399D01*
X219650Y189649D01*
X220750Y186750D02*
X219900Y187600D01*
X222550Y186750D02*
X220750D01*
X222800Y186500D02*
X222550Y186750D01*
X225170Y192020D02*
Y201793D01*
X224963Y202000D01*
X220000Y202037D02*
Y204000D01*
X220037Y202000D02*
X220000Y202037D01*
X219037Y204963D02*
X212000D01*
X220000Y204000D02*
X219037Y204963D01*
X210774Y203737D02*
X212000Y204963D01*
X210397Y202000D02*
X210313D01*
X210397D02*
X210774Y202377D01*
Y203737D01*
X210313Y189762D02*
Y195387D01*
X208400Y183600D02*
X207500Y184500D01*
X209950Y183600D02*
X208400D01*
X209950Y189400D02*
X208900D01*
X207500Y184500D02*
Y188000D01*
X208900Y189400D01*
X209950D02*
X210200Y189650D01*
X210313Y189762D01*
X220500Y175000D02*
Y179621D01*
X220000Y174500D02*
X220500Y175000D01*
X219621Y180500D02*
X218308D01*
X220500Y179621D02*
X219621Y180500D01*
X216750Y182058D02*
Y183101D01*
X218308Y180500D02*
X216750Y182058D01*
Y183101D02*
X216500Y183351D01*
X215000Y174602D02*
Y180000D01*
X214866Y174469D02*
X215000Y174602D01*
X213600Y183101D02*
X213350Y183351D01*
X213600Y181400D02*
Y183101D01*
X222800Y189650D02*
X225170Y192020D01*
X211492Y186750D02*
X210450D01*
X211492D02*
X213100Y188358D01*
Y189399D01*
X210200Y186500D02*
X210450Y186750D01*
X213100Y189399D02*
X213350Y189649D01*
X185250Y143250D02*
X184600Y143900D01*
X186000Y142500D02*
X185250Y143250D01*
X181200Y143500D02*
Y145850D01*
Y137420D02*
Y143500D01*
X180748Y136969D02*
X181200Y137420D01*
Y145850D02*
X180950Y146100D01*
X181425Y158000D02*
X181369Y158056D01*
Y164444D01*
X181313Y164500D01*
X181313Y157887D02*
X181425Y158000D01*
X190900Y150100D02*
Y151899D01*
X190650Y152149D01*
X191750Y149250D02*
X190900Y150100D01*
X193550Y149250D02*
X191750D01*
X193800Y149000D02*
X193550Y149250D01*
X196170Y154520D02*
Y164293D01*
X195963Y164500D01*
X191000Y164537D02*
Y166500D01*
X191037Y164500D02*
X191000Y164537D01*
X190037Y167463D02*
X183000D01*
X191000Y166500D02*
X190037Y167463D01*
X181774Y166237D02*
X183000Y167463D01*
X181397Y164500D02*
X181313D01*
X181397D02*
X181774Y164877D01*
Y166237D01*
X181313Y152262D02*
Y157887D01*
X179400Y146100D02*
X178500Y147000D01*
X180950Y146100D02*
X179400D01*
X180950Y151900D02*
X179900D01*
X178500Y147000D02*
Y150500D01*
X179900Y151900D01*
X180950D02*
X181200Y152150D01*
X181313Y152262D01*
X191500Y137500D02*
Y142121D01*
X191000Y137000D02*
X191500Y137500D01*
X190621Y143000D02*
X189308D01*
X191500Y142121D02*
X190621Y143000D01*
X187750Y144558D02*
Y145601D01*
X189308Y143000D02*
X187750Y144558D01*
Y145601D02*
X187500Y145851D01*
X186000Y137102D02*
Y142500D01*
X185866Y136969D02*
X186000Y137102D01*
X184600Y145601D02*
X184350Y145851D01*
X184600Y143900D02*
Y145601D01*
X193800Y152150D02*
X196170Y154520D01*
X182492Y149250D02*
X181450D01*
X182492D02*
X184100Y150858D01*
Y151899D01*
X181200Y149000D02*
X181450Y149250D01*
X184100Y151899D02*
X184350Y152149D01*
X185250Y180750D02*
X184600Y181400D01*
X186000Y180000D02*
X185250Y180750D01*
X181200Y181000D02*
Y183350D01*
Y174920D02*
Y181000D01*
X180748Y174469D02*
X181200Y174920D01*
Y183350D02*
X180950Y183600D01*
X181425Y195500D02*
X181369Y195556D01*
Y201944D01*
X181313Y202000D01*
X181313Y195387D02*
X181425Y195500D01*
X190900Y187600D02*
Y189399D01*
X190650Y189649D01*
X191750Y186750D02*
X190900Y187600D01*
X193550Y186750D02*
X191750D01*
X193800Y186500D02*
X193550Y186750D01*
X196170Y192020D02*
Y201793D01*
X195963Y202000D01*
X191000Y202037D02*
Y204000D01*
X191037Y202000D02*
X191000Y202037D01*
X190037Y204963D02*
X183000D01*
X191000Y204000D02*
X190037Y204963D01*
X181774Y203737D02*
X183000Y204963D01*
X181397Y202000D02*
X181313D01*
X181397D02*
X181774Y202377D01*
Y203737D01*
X181313Y189762D02*
Y195387D01*
X179400Y183600D02*
X178500Y184500D01*
X180950Y183600D02*
X179400D01*
X180950Y189400D02*
X179900D01*
X178500Y184500D02*
Y188000D01*
X179900Y189400D01*
X180950D02*
X181200Y189650D01*
X181313Y189762D01*
X191500Y175000D02*
Y179621D01*
X191000Y174500D02*
X191500Y175000D01*
X190621Y180500D02*
X189308D01*
X191500Y179621D02*
X190621Y180500D01*
X187750Y182058D02*
Y183101D01*
X189308Y180500D02*
X187750Y182058D01*
Y183101D02*
X187500Y183351D01*
X186000Y174602D02*
Y180000D01*
X185866Y174469D02*
X186000Y174602D01*
X184600Y183101D02*
X184350Y183351D01*
X184600Y181400D02*
Y183101D01*
X193800Y189650D02*
X196170Y192020D01*
X182492Y186750D02*
X181450D01*
X182492D02*
X184100Y188358D01*
Y189399D01*
X181200Y186500D02*
X181450Y186750D01*
X184100Y189399D02*
X184350Y189649D01*
X156250Y143250D02*
X155600Y143900D01*
X157000Y142500D02*
X156250Y143250D01*
X152200Y143500D02*
Y145850D01*
Y137420D02*
Y143500D01*
X151748Y136969D02*
X152200Y137420D01*
Y145850D02*
X151950Y146100D01*
X152425Y158000D02*
X152369Y158056D01*
Y164444D01*
X152313Y164500D01*
X152313Y157887D02*
X152425Y158000D01*
X161900Y150100D02*
Y151899D01*
X161650Y152149D01*
X162750Y149250D02*
X161900Y150100D01*
X164550Y149250D02*
X162750D01*
X164800Y149000D02*
X164550Y149250D01*
X167170Y154520D02*
Y164293D01*
X166963Y164500D01*
X162000Y164537D02*
Y166500D01*
X162037Y164500D02*
X162000Y164537D01*
X161037Y167463D02*
X154000D01*
X162000Y166500D02*
X161037Y167463D01*
X152774Y166237D02*
X154000Y167463D01*
X152397Y164500D02*
X152313D01*
X152397D02*
X152774Y164877D01*
Y166237D01*
X152313Y152262D02*
Y157887D01*
X150400Y146100D02*
X149500Y147000D01*
X151950Y146100D02*
X150400D01*
X151950Y151900D02*
X150900D01*
X149500Y147000D02*
Y150500D01*
X150900Y151900D01*
X151950D02*
X152200Y152150D01*
X152313Y152262D01*
X162500Y137500D02*
Y142121D01*
X162000Y137000D02*
X162500Y137500D01*
X161621Y143000D02*
X160308D01*
X162500Y142121D02*
X161621Y143000D01*
X158750Y144558D02*
Y145601D01*
X160308Y143000D02*
X158750Y144558D01*
Y145601D02*
X158500Y145851D01*
X157000Y137102D02*
Y142500D01*
X156866Y136969D02*
X157000Y137102D01*
X155600Y145601D02*
X155350Y145851D01*
X155600Y143900D02*
Y145601D01*
X164800Y152150D02*
X167170Y154520D01*
X153492Y149250D02*
X152450D01*
X153492D02*
X155100Y150858D01*
Y151899D01*
X152200Y149000D02*
X152450Y149250D01*
X155100Y151899D02*
X155350Y152149D01*
X156250Y180750D02*
X155600Y181400D01*
X157000Y180000D02*
X156250Y180750D01*
X152200Y181000D02*
Y183350D01*
Y174920D02*
Y181000D01*
X151748Y174469D02*
X152200Y174920D01*
Y183350D02*
X151950Y183600D01*
X152425Y195500D02*
X152369Y195556D01*
Y201944D01*
X152313Y202000D01*
X152313Y195387D02*
X152425Y195500D01*
X161900Y187600D02*
Y189399D01*
X161650Y189649D01*
X162750Y186750D02*
X161900Y187600D01*
X164550Y186750D02*
X162750D01*
X164800Y186500D02*
X164550Y186750D01*
X167170Y192020D02*
Y201793D01*
X166963Y202000D01*
X162000Y202037D02*
Y204000D01*
X162037Y202000D02*
X162000Y202037D01*
X161037Y204963D02*
X154000D01*
X162000Y204000D02*
X161037Y204963D01*
X152774Y203737D02*
X154000Y204963D01*
X152397Y202000D02*
X152313D01*
X152397D02*
X152774Y202377D01*
Y203737D01*
X152313Y189762D02*
Y195387D01*
X150400Y183600D02*
X149500Y184500D01*
X151950Y183600D02*
X150400D01*
X151950Y189400D02*
X150900D01*
X149500Y184500D02*
Y188000D01*
X150900Y189400D01*
X151950D02*
X152200Y189650D01*
X152313Y189762D01*
X162500Y175000D02*
Y179621D01*
X162000Y174500D02*
X162500Y175000D01*
X161621Y180500D02*
X160308D01*
X162500Y179621D02*
X161621Y180500D01*
X158750Y182058D02*
Y183101D01*
X160308Y180500D02*
X158750Y182058D01*
Y183101D02*
X158500Y183351D01*
X157000Y174602D02*
Y180000D01*
X156866Y174469D02*
X157000Y174602D01*
X155600Y183101D02*
X155350Y183351D01*
X155600Y181400D02*
Y183101D01*
X164800Y189650D02*
X167170Y192020D01*
X153492Y186750D02*
X152450D01*
X153492D02*
X155100Y188358D01*
Y189399D01*
X152200Y186500D02*
X152450Y186750D01*
X155100Y189399D02*
X155350Y189649D01*
D16*
X278000Y137000D02*
D03*
X283142Y137008D02*
D03*
X267748Y136969D02*
D03*
X272866D02*
D03*
X278000Y174500D02*
D03*
X283142Y174508D02*
D03*
X267748Y174469D02*
D03*
X272866D02*
D03*
X249000Y137000D02*
D03*
X254142Y137008D02*
D03*
X238748Y136969D02*
D03*
X243866D02*
D03*
X249000Y174500D02*
D03*
X254142Y174508D02*
D03*
X238748Y174469D02*
D03*
X243866D02*
D03*
X220000Y137000D02*
D03*
X225142Y137008D02*
D03*
X209748Y136969D02*
D03*
X214866D02*
D03*
X220000Y174500D02*
D03*
X225142Y174508D02*
D03*
X209748Y174469D02*
D03*
X214866D02*
D03*
X191000Y137000D02*
D03*
X196142Y137008D02*
D03*
X180748Y136969D02*
D03*
X185866D02*
D03*
X191000Y174500D02*
D03*
X196142Y174508D02*
D03*
X180748Y174469D02*
D03*
X185866D02*
D03*
X162000Y137000D02*
D03*
X167142Y137008D02*
D03*
X151748Y136969D02*
D03*
X156866D02*
D03*
X162000Y174500D02*
D03*
X167142Y174508D02*
D03*
X151748Y174469D02*
D03*
X156866D02*
D03*
D17*
X277621Y143000D02*
D03*
X272250Y143250D02*
D03*
X268200Y143500D02*
D03*
X277621Y180500D02*
D03*
X272250Y180750D02*
D03*
X268200Y181000D02*
D03*
X248621Y143000D02*
D03*
X243250Y143250D02*
D03*
X239200Y143500D02*
D03*
X248621Y180500D02*
D03*
X243250Y180750D02*
D03*
X239200Y181000D02*
D03*
X219621Y143000D02*
D03*
X214250Y143250D02*
D03*
X210200Y143500D02*
D03*
X219621Y180500D02*
D03*
X214250Y180750D02*
D03*
X210200Y181000D02*
D03*
X190621Y143000D02*
D03*
X185250Y143250D02*
D03*
X181200Y143500D02*
D03*
X190621Y180500D02*
D03*
X185250Y180750D02*
D03*
X181200Y181000D02*
D03*
X161621Y143000D02*
D03*
X156250Y143250D02*
D03*
X152200Y143500D02*
D03*
X161621Y180500D02*
D03*
X156250Y180750D02*
D03*
X152200Y181000D02*
D03*
D18*
X277500Y158000D02*
D03*
Y195500D02*
D03*
X248500Y158000D02*
D03*
Y195500D02*
D03*
X219500Y158000D02*
D03*
Y195500D02*
D03*
X190500Y158000D02*
D03*
Y195500D02*
D03*
X161500Y158000D02*
D03*
Y195500D02*
D03*
M02*
