G04*
G04 #@! TF.GenerationSoftware,Altium Limited,Altium Designer,23.3.1 (30)*
G04*
G04 Layer_Color=16711935*
%FSLAX25Y25*%
%MOIN*%
G70*
G04*
G04 #@! TF.SameCoordinates,DC285B44-F560-4AE8-B04C-E732481EF3D4*
G04*
G04*
G04 #@! TF.FilePolarity,Positive*
G04*
G01*
G75*
%ADD24C,0.00000*%
%ADD25C,0.01000*%
D24*
X6000Y89465D02*
X7009Y89579D01*
X7968Y89914D01*
X8828Y90454D01*
X9546Y91172D01*
X10086Y92032D01*
X10421Y92991D01*
X10535Y94000D01*
X10421Y95009D01*
X10086Y95968D01*
X9546Y96828D01*
X8828Y97546D01*
X7968Y98086D01*
X7009Y98421D01*
X6000Y98535D01*
X4991Y98421D01*
X4032Y98086D01*
X3173Y97546D01*
X2454Y96828D01*
X1914Y95968D01*
X1579Y95009D01*
X1465Y94000D01*
X1579Y92991D01*
X1914Y92032D01*
X2454Y91172D01*
X3173Y90454D01*
X4032Y89914D01*
X4991Y89579D01*
X6000Y89465D01*
X139500Y89965D02*
X140509Y90079D01*
X141468Y90414D01*
X142327Y90954D01*
X143046Y91672D01*
X143586Y92532D01*
X143921Y93491D01*
X144035Y94500D01*
X143921Y95509D01*
X143586Y96468D01*
X143046Y97328D01*
X142327Y98046D01*
X141468Y98586D01*
X140509Y98921D01*
X139500Y99035D01*
X138491Y98921D01*
X137532Y98586D01*
X136672Y98046D01*
X135954Y97328D01*
X135414Y96468D01*
X135079Y95509D01*
X134965Y94500D01*
X135079Y93491D01*
X135414Y92532D01*
X135954Y91672D01*
X136672Y90954D01*
X137532Y90414D01*
X138491Y90079D01*
X139500Y89965D01*
X140000Y1965D02*
X141009Y2079D01*
X141968Y2414D01*
X142827Y2954D01*
X143546Y3672D01*
X144086Y4532D01*
X144421Y5491D01*
X144535Y6500D01*
X144421Y7509D01*
X144086Y8468D01*
X143546Y9328D01*
X142827Y10046D01*
X141968Y10586D01*
X141009Y10921D01*
X140000Y11035D01*
X138991Y10921D01*
X138032Y10586D01*
X137172Y10046D01*
X136454Y9328D01*
X135914Y8468D01*
X135579Y7509D01*
X135465Y6500D01*
X135579Y5491D01*
X135914Y4532D01*
X136454Y3672D01*
X137172Y2954D01*
X138032Y2414D01*
X138991Y2079D01*
X140000Y1965D01*
X6000Y89465D02*
X7009Y89579D01*
X7968Y89914D01*
X8828Y90454D01*
X9546Y91172D01*
X10086Y92032D01*
X10421Y92991D01*
X10535Y94000D01*
X10421Y95009D01*
X10086Y95968D01*
X9546Y96828D01*
X8828Y97546D01*
X7968Y98086D01*
X7009Y98421D01*
X6000Y98535D01*
X4991Y98421D01*
X4032Y98086D01*
X3173Y97546D01*
X2454Y96828D01*
X1914Y95968D01*
X1579Y95009D01*
X1465Y94000D01*
X1579Y92991D01*
X1914Y92032D01*
X2454Y91172D01*
X3173Y90454D01*
X4032Y89914D01*
X4991Y89579D01*
X6000Y89465D01*
X139500Y89965D02*
X140509Y90079D01*
X141468Y90414D01*
X142327Y90954D01*
X143046Y91672D01*
X143586Y92532D01*
X143921Y93491D01*
X144035Y94500D01*
X143921Y95509D01*
X143586Y96468D01*
X143046Y97328D01*
X142327Y98046D01*
X141468Y98586D01*
X140509Y98921D01*
X139500Y99035D01*
X138491Y98921D01*
X137532Y98586D01*
X136672Y98046D01*
X135954Y97328D01*
X135414Y96468D01*
X135079Y95509D01*
X134965Y94500D01*
X135079Y93491D01*
X135414Y92532D01*
X135954Y91672D01*
X136672Y90954D01*
X137532Y90414D01*
X138491Y90079D01*
X139500Y89965D01*
X140000Y1965D02*
X141009Y2079D01*
X141968Y2414D01*
X142827Y2954D01*
X143546Y3672D01*
X144086Y4532D01*
X144421Y5491D01*
X144535Y6500D01*
X144421Y7509D01*
X144086Y8468D01*
X143546Y9328D01*
X142827Y10046D01*
X141968Y10586D01*
X141009Y10921D01*
X140000Y11035D01*
X138991Y10921D01*
X138032Y10586D01*
X137172Y10046D01*
X136454Y9328D01*
X135914Y8468D01*
X135579Y7509D01*
X135465Y6500D01*
X135579Y5491D01*
X135914Y4532D01*
X136454Y3672D01*
X137172Y2954D01*
X138032Y2414D01*
X138991Y2079D01*
X140000Y1965D01*
X6000Y89465D02*
X7009Y89579D01*
X7968Y89914D01*
X8828Y90454D01*
X9546Y91172D01*
X10086Y92032D01*
X10421Y92991D01*
X10535Y94000D01*
X10421Y95009D01*
X10086Y95968D01*
X9546Y96828D01*
X8828Y97546D01*
X7968Y98086D01*
X7009Y98421D01*
X6000Y98535D01*
X4991Y98421D01*
X4032Y98086D01*
X3173Y97546D01*
X2454Y96828D01*
X1914Y95968D01*
X1579Y95009D01*
X1465Y94000D01*
X1579Y92991D01*
X1914Y92032D01*
X2454Y91172D01*
X3173Y90454D01*
X4032Y89914D01*
X4991Y89579D01*
X6000Y89465D01*
X139500Y89965D02*
X140509Y90079D01*
X141468Y90414D01*
X142327Y90954D01*
X143046Y91672D01*
X143586Y92532D01*
X143921Y93491D01*
X144035Y94500D01*
X143921Y95509D01*
X143586Y96468D01*
X143046Y97328D01*
X142327Y98046D01*
X141468Y98586D01*
X140509Y98921D01*
X139500Y99035D01*
X138491Y98921D01*
X137532Y98586D01*
X136672Y98046D01*
X135954Y97328D01*
X135414Y96468D01*
X135079Y95509D01*
X134965Y94500D01*
X135079Y93491D01*
X135414Y92532D01*
X135954Y91672D01*
X136672Y90954D01*
X137532Y90414D01*
X138491Y90079D01*
X139500Y89965D01*
X140000Y1965D02*
X141009Y2079D01*
X141968Y2414D01*
X142827Y2954D01*
X143546Y3672D01*
X144086Y4532D01*
X144421Y5491D01*
X144535Y6500D01*
X144421Y7509D01*
X144086Y8468D01*
X143546Y9328D01*
X142827Y10046D01*
X141968Y10586D01*
X141009Y10921D01*
X140000Y11035D01*
X138991Y10921D01*
X138032Y10586D01*
X137172Y10046D01*
X136454Y9328D01*
X135914Y8468D01*
X135579Y7509D01*
X135465Y6500D01*
X135579Y5491D01*
X135914Y4532D01*
X136454Y3672D01*
X137172Y2954D01*
X138032Y2414D01*
X138991Y2079D01*
X140000Y1965D01*
X26500Y50500D02*
X27500Y51500D01*
Y57500D01*
X31500D01*
Y52000D02*
Y57500D01*
Y52000D02*
X33000Y50500D01*
X26500D02*
X33000D01*
X55500D02*
X56500Y51500D01*
Y57500D01*
X60500D01*
Y52000D02*
Y57500D01*
Y52000D02*
X62000Y50500D01*
X55500D02*
X62000D01*
X113500D02*
X114500Y51500D01*
Y57500D01*
X118500D01*
Y52000D02*
Y57500D01*
Y52000D02*
X120000Y50500D01*
X113500D02*
X120000D01*
X26500Y13000D02*
X27500Y14000D01*
Y20000D01*
X31500D01*
Y14500D02*
Y20000D01*
Y14500D02*
X33000Y13000D01*
X26500D02*
X33000D01*
X55500D02*
X56500Y14000D01*
Y20000D01*
X60500D01*
Y14500D02*
Y20000D01*
Y14500D02*
X62000Y13000D01*
X55500D02*
X62000D01*
X84500D02*
X85500Y14000D01*
Y20000D01*
X89500D01*
Y14500D02*
Y20000D01*
Y14500D02*
X91000Y13000D01*
X84500D02*
X91000D01*
X113500D02*
X114500Y14000D01*
Y20000D01*
X118500D01*
Y14500D02*
Y20000D01*
Y14500D02*
X120000Y13000D01*
X113500D02*
X120000D01*
X29500Y83500D02*
X33000Y87000D01*
X26000D02*
X33000D01*
X26000D02*
X29500Y83500D01*
X58500D02*
X62000Y87000D01*
X55000D02*
X62000D01*
X55000D02*
X58500Y83500D01*
X87500D02*
X91000Y87000D01*
X84000D02*
X91000D01*
X84000D02*
X87500Y83500D01*
X116500D02*
X120000Y87000D01*
X113000D02*
X120000D01*
X113000D02*
X116500Y83500D01*
Y46000D02*
X120000Y49500D01*
X113000D02*
X120000D01*
X113000D02*
X116500Y46000D01*
X58500D02*
X62000Y49500D01*
X55000D02*
X62000D01*
X55000D02*
X58500Y46000D01*
X29500D02*
X33000Y49500D01*
X26000D02*
X33000D01*
X26000D02*
X29500Y46000D01*
X84500Y50500D02*
X85500Y51500D01*
Y57500D01*
X89500D01*
Y52000D02*
Y57500D01*
Y52000D02*
X91000Y50500D01*
X84500D02*
X91000D01*
X87500Y46000D02*
X91000Y49500D01*
X84000D02*
X91000D01*
X84000D02*
X87500Y46000D01*
X500Y20000D02*
Y24000D01*
Y46000D01*
X4000Y49500D01*
X500D02*
X4000D01*
X500D02*
Y50500D01*
X4000D01*
X2500Y52000D02*
X4000Y50500D01*
X2500Y52000D02*
Y57500D01*
X500D02*
X2500D01*
X500D02*
Y61500D01*
Y83500D01*
X4500Y87500D01*
X500D02*
X4500D01*
X500D02*
Y100500D01*
X145500D01*
Y87500D02*
Y100500D01*
X142000Y87500D02*
X145500D01*
X142000Y87000D02*
Y87500D01*
Y87000D02*
X145500Y83500D01*
Y61500D02*
Y83500D01*
Y57500D02*
Y61500D01*
X143500Y57500D02*
X145500D01*
X143500Y52000D02*
Y57500D01*
X142500Y51000D02*
X143500Y52000D01*
X142500Y50500D02*
Y51000D01*
Y50500D02*
X145500D01*
Y49500D02*
Y50500D01*
X142500Y49500D02*
X145500D01*
X142500Y49000D02*
Y49500D01*
Y49000D02*
X145500Y46000D01*
Y24000D02*
Y46000D01*
Y20000D02*
Y24000D01*
X143500Y20000D02*
X145500D01*
X143500Y14500D02*
Y20000D01*
X142500Y13500D02*
X143500Y14500D01*
X142500Y13000D02*
Y13500D01*
Y13000D02*
X145500D01*
Y500D02*
Y13000D01*
X500Y500D02*
X145500D01*
X500D02*
Y13000D01*
X4000D01*
X2500Y14500D02*
X4000Y13000D01*
X2500Y14500D02*
Y20000D01*
X500D02*
X2500D01*
X26500Y50500D02*
X27500Y51500D01*
Y57500D01*
X31500D01*
Y52000D02*
Y57500D01*
Y52000D02*
X33000Y50500D01*
X26500D02*
X33000D01*
X55500D02*
X56500Y51500D01*
Y57500D01*
X60500D01*
Y52000D02*
Y57500D01*
Y52000D02*
X62000Y50500D01*
X55500D02*
X62000D01*
X113500D02*
X114500Y51500D01*
Y57500D01*
X118500D01*
Y52000D02*
Y57500D01*
Y52000D02*
X120000Y50500D01*
X113500D02*
X120000D01*
X26500Y13000D02*
X27500Y14000D01*
Y20000D01*
X31500D01*
Y14500D02*
Y20000D01*
Y14500D02*
X33000Y13000D01*
X26500D02*
X33000D01*
X55500D02*
X56500Y14000D01*
Y20000D01*
X60500D01*
Y14500D02*
Y20000D01*
Y14500D02*
X62000Y13000D01*
X55500D02*
X62000D01*
X84500D02*
X85500Y14000D01*
Y20000D01*
X89500D01*
Y14500D02*
Y20000D01*
Y14500D02*
X91000Y13000D01*
X84500D02*
X91000D01*
X113500D02*
X114500Y14000D01*
Y20000D01*
X118500D01*
Y14500D02*
Y20000D01*
Y14500D02*
X120000Y13000D01*
X113500D02*
X120000D01*
X84500Y50500D02*
X85500Y51500D01*
Y57500D01*
X89500D01*
Y52000D02*
Y57500D01*
Y52000D02*
X91000Y50500D01*
X84500D02*
X91000D01*
X500Y20000D02*
Y24000D01*
Y46000D01*
X4000Y49500D01*
X500D02*
X4000D01*
X500D02*
Y50500D01*
X4000D01*
X2500Y52000D02*
X4000Y50500D01*
X2500Y52000D02*
Y57500D01*
X500D02*
X2500D01*
X500D02*
Y61500D01*
Y83500D01*
X4500Y87500D01*
X500D02*
X4500D01*
X500D02*
Y100500D01*
X145500D01*
Y87500D02*
Y100500D01*
X142000Y87500D02*
X145500D01*
X142000Y87000D02*
Y87500D01*
Y87000D02*
X145500Y83500D01*
Y61500D02*
Y83500D01*
Y57500D02*
Y61500D01*
X143500Y57500D02*
X145500D01*
X143500Y52000D02*
Y57500D01*
X142500Y51000D02*
X143500Y52000D01*
X142500Y50500D02*
Y51000D01*
Y50500D02*
X145500D01*
Y49500D02*
Y50500D01*
X142500Y49500D02*
X145500D01*
X142500Y49000D02*
Y49500D01*
Y49000D02*
X145500Y46000D01*
Y24000D02*
Y46000D01*
Y20000D02*
Y24000D01*
X143500Y20000D02*
X145500D01*
X143500Y14500D02*
Y20000D01*
X142500Y13500D02*
X143500Y14500D01*
X142500Y13000D02*
Y13500D01*
Y13000D02*
X145500D01*
Y500D02*
Y13000D01*
X500Y500D02*
X145500D01*
X500D02*
Y13000D01*
X4000D01*
X2500Y14500D02*
X4000Y13000D01*
X2500Y14500D02*
Y20000D01*
X500D02*
X2500D01*
X89500Y48000D02*
X91000Y49500D01*
X84500D02*
X91000D01*
X84500Y50500D02*
X85500Y51500D01*
Y57500D01*
X89500D01*
Y52000D02*
Y57500D01*
Y52000D02*
X91000Y50500D01*
X84500D02*
X91000D01*
X113500Y87000D02*
X120000D01*
X113500Y49500D02*
X120000D01*
X118500Y48000D02*
X120000Y49500D01*
X60500Y48000D02*
X62000Y49500D01*
X26500D02*
X33000D01*
X31500Y48000D02*
X33000Y49500D01*
X26500Y50500D02*
X27500Y51500D01*
Y57500D01*
X31500D01*
Y52000D02*
Y57500D01*
Y52000D02*
X33000Y50500D01*
X26500D02*
X33000D01*
X55500D02*
X56500Y51500D01*
Y57500D01*
X60500D01*
Y52000D02*
Y57500D01*
Y52000D02*
X62000Y50500D01*
X55500D02*
X62000D01*
X113500D02*
X114500Y51500D01*
Y57500D01*
X118500D01*
Y52000D02*
Y57500D01*
Y52000D02*
X120000Y50500D01*
X113500D02*
X120000D01*
X26500Y13000D02*
X27500Y14000D01*
Y20000D01*
X31500D01*
Y14500D02*
Y20000D01*
Y14500D02*
X33000Y13000D01*
X26500D02*
X33000D01*
X55500D02*
X56500Y14000D01*
Y20000D01*
X60500D01*
Y14500D02*
Y20000D01*
Y14500D02*
X62000Y13000D01*
X55500D02*
X62000D01*
X84500D02*
X85500Y14000D01*
Y20000D01*
X89500D01*
Y14500D02*
Y20000D01*
Y14500D02*
X91000Y13000D01*
X84500D02*
X91000D01*
X113500D02*
X114500Y14000D01*
Y20000D01*
X118500D01*
Y14500D02*
Y20000D01*
Y14500D02*
X120000Y13000D01*
X113500D02*
X120000D01*
X500Y50500D02*
X4000D01*
X2500Y52000D02*
X4000Y50500D01*
X2500Y52000D02*
Y57500D01*
X500D02*
X2500D01*
X500D02*
Y61500D01*
X2500Y85500D02*
X4500Y87500D01*
X500D02*
X4500D01*
X500D02*
Y100500D01*
X145500D01*
Y87500D02*
Y100500D01*
X142000Y87500D02*
X145500D01*
X142000Y87000D02*
Y87500D01*
Y87000D02*
X143500Y85500D01*
X145500Y57500D02*
Y61500D01*
X143500Y57500D02*
X145500D01*
X143500Y52000D02*
Y57500D01*
X142500Y51000D02*
X143500Y52000D01*
X142500Y50500D02*
Y51000D01*
Y50500D02*
X145500D01*
X142500Y49500D02*
X145500D01*
X142500Y49000D02*
Y49500D01*
X143500Y20000D02*
X145500D01*
X143500Y14500D02*
Y20000D01*
X142500Y13500D02*
X143500Y14500D01*
X142500Y13000D02*
Y13500D01*
Y13000D02*
X145500D01*
Y500D02*
Y13000D01*
X500Y500D02*
X145500D01*
D25*
X87500D02*
Y100500D01*
X500Y12500D02*
X145500D01*
X116500Y500D02*
Y100500D01*
X500Y87500D02*
X145500D01*
X58500Y500D02*
Y100500D01*
X29500Y500D02*
Y100500D01*
X500Y50000D02*
X145500D01*
M02*
