M48
;Layer_Color=9474304
;FILE_FORMAT=2:4
INCH,TZ
;TYPE=PLATED
T1F00S00C0.0079
%
T01
X820Y2450
X1225Y2425
X1762Y2400
X2720Y2520
X3720Y2450
X4125Y2425
X4662Y2400
X5620Y2520
X6620Y2450
X7025Y2425
X7562Y2400
X8520Y2520
X9520Y2450
X9925Y2425
X10462Y2400
X11420Y2520
X12420Y2450
X12825Y2425
X13362Y2400
X14320Y2520
Y6270
X13362Y6150
X12825Y6175
X12420Y6200
X11420Y6270
X10462Y6150
X9925Y6175
X9520Y6200
X8520Y6270
X7562Y6150
X7025Y6175
X6620Y6200
X5620Y6270
X4662Y6150
X4125Y6175
X3720Y6200
X2720Y6270
X1762Y6150
X1225Y6175
X820Y6200
M30
