G04*
G04 #@! TF.GenerationSoftware,Altium Limited,Altium Designer,23.3.1 (30)*
G04*
G04 Layer_Color=16711935*
%FSLAX25Y25*%
%MOIN*%
G70*
G04*
G04 #@! TF.SameCoordinates,CB223118-D475-4B50-827B-9E4A1506652A*
G04*
G04*
G04 #@! TF.FilePolarity,Negative*
G04*
G01*
G75*
G04:AMPARAMS|DCode=14|XSize=45.28mil|YSize=45.28mil|CornerRadius=12.8mil|HoleSize=0mil|Usage=FLASHONLY|Rotation=0.000|XOffset=0mil|YOffset=0mil|HoleType=Round|Shape=RoundedRectangle|*
%AMROUNDEDRECTD14*
21,1,0.04528,0.01968,0,0,0.0*
21,1,0.01968,0.04528,0,0,0.0*
1,1,0.02559,0.00984,-0.00984*
1,1,0.02559,-0.00984,-0.00984*
1,1,0.02559,-0.00984,0.00984*
1,1,0.02559,0.00984,0.00984*
%
%ADD14ROUNDEDRECTD14*%
G04:AMPARAMS|DCode=15|XSize=45.28mil|YSize=45.28mil|CornerRadius=12.8mil|HoleSize=0mil|Usage=FLASHONLY|Rotation=90.000|XOffset=0mil|YOffset=0mil|HoleType=Round|Shape=RoundedRectangle|*
%AMROUNDEDRECTD15*
21,1,0.04528,0.01968,0,0,90.0*
21,1,0.01968,0.04528,0,0,90.0*
1,1,0.02559,0.00984,0.00984*
1,1,0.02559,0.00984,-0.00984*
1,1,0.02559,-0.00984,-0.00984*
1,1,0.02559,-0.00984,0.00984*
%
%ADD15ROUNDEDRECTD15*%
%ADD16R,0.03347X0.04528*%
%ADD17R,0.03347X0.04528*%
G04:AMPARAMS|DCode=18|XSize=33.47mil|YSize=45.28mil|CornerRadius=0mil|HoleSize=0mil|Usage=FLASHONLY|Rotation=255.000|XOffset=0mil|YOffset=0mil|HoleType=Round|Shape=Rectangle|*
%AMROTATEDRECTD18*
4,1,4,-0.01754,0.02202,0.02620,0.01030,0.01754,-0.02202,-0.02620,-0.01030,-0.01754,0.02202,0.0*
%
%ADD18ROTATEDRECTD18*%

G04:AMPARAMS|DCode=19|XSize=33.47mil|YSize=45.28mil|CornerRadius=0mil|HoleSize=0mil|Usage=FLASHONLY|Rotation=255.000|XOffset=0mil|YOffset=0mil|HoleType=Round|Shape=Rectangle|*
%AMROTATEDRECTD19*
4,1,4,-0.01754,0.02202,0.02620,0.01030,0.01754,-0.02202,-0.02620,-0.01030,-0.01754,0.02202,0.0*
%
%ADD19ROTATEDRECTD19*%

%ADD20R,0.04528X0.03347*%
%ADD21R,0.04528X0.03347*%
G04:AMPARAMS|DCode=22|XSize=33.47mil|YSize=45.28mil|CornerRadius=0mil|HoleSize=0mil|Usage=FLASHONLY|Rotation=285.000|XOffset=0mil|YOffset=0mil|HoleType=Round|Shape=Rectangle|*
%AMROTATEDRECTD22*
4,1,4,-0.02620,0.01030,0.01754,0.02202,0.02620,-0.01030,-0.01754,-0.02202,-0.02620,0.01030,0.0*
%
%ADD22ROTATEDRECTD22*%

G04:AMPARAMS|DCode=23|XSize=33.47mil|YSize=45.28mil|CornerRadius=0mil|HoleSize=0mil|Usage=FLASHONLY|Rotation=285.000|XOffset=0mil|YOffset=0mil|HoleType=Round|Shape=Rectangle|*
%AMROTATEDRECTD23*
4,1,4,-0.02620,0.01030,0.01754,0.02202,0.02620,-0.01030,-0.01754,-0.02202,-0.02620,0.01030,0.0*
%
%ADD23ROTATEDRECTD23*%

%ADD24C,0.10191*%
%ADD25C,0.02953*%
%ADD44R,0.01575X0.06693*%
%ADD45R,0.03740X0.07677*%
%ADD46R,0.03543X0.03937*%
D14*
X352400Y162300D02*
D03*
X360500Y162200D02*
D03*
X352200Y155400D02*
D03*
D15*
X360500Y155500D02*
D03*
D16*
X378000Y174063D02*
D03*
Y179182D02*
D03*
X310700Y189219D02*
D03*
Y184100D02*
D03*
D17*
X385106Y189418D02*
D03*
X378000Y184300D02*
D03*
X385106D02*
D03*
Y179182D02*
D03*
Y174064D02*
D03*
X378000Y189418D02*
D03*
X303594Y173864D02*
D03*
X310700Y178982D02*
D03*
X303594D02*
D03*
Y184100D02*
D03*
Y189218D02*
D03*
X310700Y173864D02*
D03*
D18*
X377245Y197775D02*
D03*
X372300Y199100D02*
D03*
D19*
X364252Y208613D02*
D03*
X367356Y200425D02*
D03*
X369196Y207289D02*
D03*
X374139Y205964D02*
D03*
X379083Y204640D02*
D03*
X362413Y201749D02*
D03*
D20*
X352119Y196700D02*
D03*
X347000D02*
D03*
D21*
X336764Y203806D02*
D03*
X341882Y196700D02*
D03*
Y203806D02*
D03*
X347000D02*
D03*
X352118D02*
D03*
X336764Y196700D02*
D03*
D22*
X326628Y201785D02*
D03*
X321683Y200461D02*
D03*
D23*
X309956Y204675D02*
D03*
X316739Y199136D02*
D03*
X314900Y206000D02*
D03*
X319844Y207325D02*
D03*
X324787Y208649D02*
D03*
X311795Y197811D02*
D03*
D24*
X342500Y219000D02*
D03*
X331700Y144400D02*
D03*
D25*
X315046Y188076D02*
D03*
X341100Y211100D02*
D03*
X338900Y182800D02*
D03*
X324000Y161300D02*
D03*
X351500Y178600D02*
D03*
X317500Y173700D02*
D03*
X333600Y184000D02*
D03*
X335600Y150369D02*
D03*
X327700D02*
D03*
D44*
X337916Y169373D02*
D03*
Y155200D02*
D03*
X335948Y169373D02*
D03*
Y155200D02*
D03*
X333980Y169373D02*
D03*
Y155200D02*
D03*
X332011Y169373D02*
D03*
Y155200D02*
D03*
X330043Y169373D02*
D03*
Y155200D02*
D03*
X328074Y169373D02*
D03*
Y155200D02*
D03*
X326105Y169373D02*
D03*
Y155200D02*
D03*
X324137Y169373D02*
D03*
Y155200D02*
D03*
X322168Y169373D02*
D03*
Y155200D02*
D03*
X320200Y169373D02*
D03*
Y155200D02*
D03*
D45*
X344609Y162287D02*
D03*
X313507D02*
D03*
D46*
X344059Y178600D02*
D03*
X338941D02*
D03*
X327741D02*
D03*
X332859D02*
D03*
M02*
