G04*
G04 #@! TF.GenerationSoftware,Altium Limited,Altium Designer,23.3.1 (30)*
G04*
G04 Layer_Color=16711935*
%FSLAX25Y25*%
%MOIN*%
G70*
G04*
G04 #@! TF.SameCoordinates,CB223118-D475-4B50-827B-9E4A1506652A*
G04*
G04*
G04 #@! TF.FilePolarity,Positive*
G04*
G01*
G75*
%ADD12C,0.00400*%
%ADD48C,0.00000*%
D12*
X317800Y152000D02*
X318700Y151100D01*
X325811Y149000D02*
X325580Y149851D01*
X325040Y150549D01*
X324275Y150988D01*
X323400Y151100D01*
X340300Y151520D02*
X339283Y151330D01*
X338417Y150765D01*
X337832Y149912D01*
X337618Y148900D01*
X334300Y212480D02*
X335412Y212649D01*
X336291Y213352D01*
X336700Y214400D01*
X348502Y215000D02*
X348738Y214013D01*
X349333Y213191D01*
X350198Y212660D01*
X351200Y212500D01*
X310361Y212478D02*
X309722Y211717D01*
X309099Y210943D01*
X308492Y210156D01*
X307902Y209357D01*
X307329Y208545D01*
X306773Y207721D01*
X306235Y206886D01*
X305714Y206039D01*
X305212Y205182D01*
X304727Y204314D01*
X304261Y203436D01*
X303814Y202549D01*
X303386Y201652D01*
X302976Y200747D01*
X302586Y199833D01*
X302216Y198911D01*
X301864Y197981D01*
X301533Y197044D01*
X301221Y196100D01*
X300929Y195150D01*
X300658Y194195D01*
X300407Y193233D01*
X300176Y192267D01*
X299965Y191295D01*
X299775Y190320D01*
X299606Y189341D01*
X299457Y188358D01*
X299329Y187373D01*
X299222Y186385D01*
X299136Y185395D01*
X299071Y184403D01*
X299027Y183410D01*
X299004Y182417D01*
X299001Y181423D01*
X299020Y180429D01*
X299060Y179437D01*
X299120Y178445D01*
X299202Y177454D01*
X299304Y176466D01*
X299427Y175480D01*
X299571Y174496D01*
X299736Y173516D01*
X299922Y172540D01*
X300128Y171568D01*
X300354Y170600D01*
X300601Y169638D01*
X300868Y168681D01*
X301155Y167729D01*
X301463Y166784D01*
X301790Y165846D01*
X302137Y164915D01*
X302503Y163991D01*
X302889Y163075D01*
X303294Y162168D01*
X303719Y161269D01*
X304162Y160380D01*
X304624Y159500D01*
X305104Y158630D01*
X305603Y157770D01*
X306119Y156921D01*
X306653Y156083D01*
X307205Y155257D01*
X307775Y154442D01*
X308361Y153640D01*
X308964Y152850D01*
X309584Y152074D01*
X378523Y151548D02*
X379156Y152320D01*
X379772Y153106D01*
X380371Y153904D01*
X380955Y154715D01*
X381521Y155538D01*
X382069Y156372D01*
X382601Y157217D01*
X383114Y158073D01*
X383610Y158940D01*
X384088Y159817D01*
X384547Y160703D01*
X384988Y161599D01*
X385410Y162504D01*
X385813Y163417D01*
X386198Y164339D01*
X386563Y165268D01*
X386908Y166205D01*
X387234Y167149D01*
X387541Y168099D01*
X387827Y169056D01*
X388094Y170018D01*
X388340Y170985D01*
X388567Y171958D01*
X388773Y172935D01*
X388959Y173916D01*
X389125Y174900D01*
X389270Y175888D01*
X389394Y176879D01*
X389498Y177872D01*
X389581Y178867D01*
X389644Y179864D01*
X389685Y180861D01*
X389706Y181859D01*
X389707Y182858D01*
X389686Y183856D01*
X389645Y184854D01*
X389583Y185850D01*
X389501Y186845D01*
X389398Y187838D01*
X389274Y188829D01*
X389129Y189817D01*
X388965Y190802D01*
X388779Y191783D01*
X388574Y192760D01*
X388348Y193733D01*
X388102Y194701D01*
X387836Y195663D01*
X387550Y196619D01*
X387244Y197570D01*
X386919Y198514D01*
X386574Y199451D01*
X386209Y200380D01*
X385826Y201302D01*
X385423Y202216D01*
X385001Y203121D01*
X384561Y204017D01*
X384102Y204904D01*
X383625Y205781D01*
X383130Y206648D01*
X382617Y207505D01*
X382086Y208350D01*
X381538Y209185D01*
X380972Y210008D01*
X380390Y210819D01*
X379791Y211618D01*
X379176Y212403D01*
X325811Y144406D02*
X325914Y143398D01*
X326188Y142422D01*
X326625Y141507D01*
X327212Y140681D01*
X327932Y139967D01*
X328763Y139387D01*
X329681Y138958D01*
X330659Y138691D01*
X331668Y138596D01*
X332679Y138675D01*
X333661Y138925D01*
X334586Y139340D01*
X335426Y139907D01*
X336157Y140609D01*
X336757Y141426D01*
X337209Y142333D01*
X337499Y143305D01*
X337618Y144311D01*
X348500Y219600D02*
X348397Y220608D01*
X348123Y221584D01*
X347686Y222499D01*
X347099Y223325D01*
X346379Y224039D01*
X345548Y224619D01*
X344630Y225049D01*
X343652Y225315D01*
X342643Y225410D01*
X341632Y225331D01*
X340650Y225081D01*
X339725Y224666D01*
X338885Y224099D01*
X338154Y223397D01*
X337554Y222580D01*
X337102Y221673D01*
X336812Y220702D01*
X336693Y219695D01*
X365800Y151520D02*
X378500D01*
X340300D02*
X365800D01*
X309584Y152000D02*
X317800D01*
X318700Y151100D02*
X323400D01*
X351200Y212500D02*
X379176D01*
X310361Y212478D02*
X334300Y212480D01*
X336692Y214408D02*
Y219700D01*
X348499Y215002D02*
Y219500D01*
X337618Y144300D02*
Y149100D01*
X325811Y144400D02*
Y149000D01*
D48*
X317576Y151749D02*
X317980Y151102D01*
X318699Y150848D01*
X309333Y151983D02*
X309584Y151749D01*
X310171Y212642D02*
X309528Y211878D01*
X308903Y211101D01*
X308293Y210311D01*
X307701Y209508D01*
X307125Y208693D01*
X306567Y207866D01*
X306026Y207028D01*
X305503Y206178D01*
X304999Y205317D01*
X304512Y204446D01*
X304044Y203565D01*
X303595Y202674D01*
X303164Y201774D01*
X302753Y200865D01*
X302361Y199948D01*
X301988Y199022D01*
X301635Y198089D01*
X301301Y197149D01*
X300988Y196202D01*
X300694Y195248D01*
X300421Y194289D01*
X300168Y193323D01*
X299936Y192353D01*
X299724Y191378D01*
X299532Y190399D01*
X299361Y189416D01*
X299212Y188429D01*
X299082Y187440D01*
X298974Y186448D01*
X298887Y185454D01*
X298820Y184459D01*
X298775Y183462D01*
X298751Y182465D01*
X298748Y181467D01*
X298765Y180470D01*
X298804Y179472D01*
X298864Y178477D01*
X298945Y177482D01*
X299047Y176489D01*
X299169Y175499D01*
X299313Y174512D01*
X299477Y173528D01*
X299662Y172547D01*
X299868Y171571D01*
X300094Y170599D01*
X300341Y169633D01*
X300608Y168671D01*
X300895Y167716D01*
X301202Y166767D01*
X301529Y165824D01*
X301876Y164889D01*
X302243Y163961D01*
X302629Y163041D01*
X303034Y162129D01*
X303459Y161226D01*
X303903Y160332D01*
X304365Y159448D01*
X304846Y158574D01*
X305345Y157710D01*
X305862Y156857D01*
X306397Y156015D01*
X306950Y155184D01*
X307520Y154365D01*
X308107Y153559D01*
X308712Y152765D01*
X309332Y151984D01*
X310364Y212729D02*
X310171Y212642D01*
X334330Y212730D02*
X334300Y212732D01*
X334328Y212730D02*
X334330Y212730D01*
X334330D02*
X335297Y212871D01*
X336068Y213471D01*
X336443Y214372D01*
X336441Y214408D02*
X336443Y214372D01*
X336442Y219730D02*
X336441Y219700D01*
X348751Y219604D02*
X348654Y220599D01*
X348397Y221565D01*
X347987Y222477D01*
X347435Y223311D01*
X346755Y224044D01*
X345966Y224658D01*
X345087Y225135D01*
X344143Y225464D01*
X343158Y225636D01*
X342158Y225646D01*
X341170Y225495D01*
X340219Y225185D01*
X339331Y224725D01*
X338529Y224128D01*
X337835Y223409D01*
X337265Y222587D01*
X336837Y221684D01*
X336560Y220723D01*
X336442Y219730D01*
X348751Y219600D02*
X348751Y219604D01*
X348746Y219548D02*
X348751Y219600D01*
X348751Y219500D02*
X348746Y219548D01*
X348753Y215010D02*
X348751Y215035D01*
X348753Y215010D02*
X348966Y214118D01*
X349503Y213376D01*
X350284Y212896D01*
X351188Y212751D01*
X351200Y212752D02*
X351188Y212751D01*
X379427Y212500D02*
X379176Y212752D01*
X379430Y212499D02*
X379427Y212500D01*
X387415Y198403D02*
X387061Y199356D01*
X386686Y200302D01*
X386292Y201240D01*
X385878Y202170D01*
X385444Y203090D01*
X384990Y204000D01*
X384517Y204901D01*
X384025Y205792D01*
X383514Y206672D01*
X382985Y207541D01*
X382437Y208398D01*
X381871Y209243D01*
X381287Y210076D01*
X380685Y210897D01*
X380066Y211704D01*
X379430Y212499D01*
X388930Y193226D02*
X388700Y194281D01*
X388432Y195327D01*
X388129Y196364D01*
X387790Y197389D01*
X387415Y198403D01*
X389500Y188100D02*
X389457Y189132D01*
X389379Y190161D01*
X389264Y191188D01*
X389115Y192209D01*
X388930Y193226D01*
X389769Y181703D02*
X389801Y182771D01*
X389802Y183840D01*
X389773Y184907D01*
X389712Y185974D01*
X389621Y187039D01*
X389500Y188100D01*
X389500Y175000D02*
X389609Y175953D01*
X389695Y176909D01*
X389757Y177867D01*
X389795Y178825D01*
X389810Y179785D01*
X389801Y180744D01*
X389769Y181703D01*
X388930Y171660D02*
X389185Y172762D01*
X389375Y173876D01*
X389500Y175000D01*
X384100Y166517D02*
X385072Y166916D01*
X385977Y167448D01*
X386797Y168104D01*
X387516Y168869D01*
X388119Y169729D01*
X388593Y170666D01*
X388930Y171660D01*
X367683Y166517D02*
X366811Y166340D01*
X366072Y165845D01*
X365577Y165106D01*
X365400Y164235D01*
X363568Y151268D02*
X364391Y151591D01*
X365028Y152205D01*
X365382Y153015D01*
X365399Y153899D01*
X340245Y151265D02*
X339341Y151078D01*
X338574Y150563D01*
X338058Y149797D01*
X337870Y148893D01*
X337869Y144278D02*
X337867Y144298D01*
X325560Y144388D02*
X325659Y143394D01*
X325917Y142429D01*
X326329Y141519D01*
X326882Y140687D01*
X327562Y139955D01*
X328352Y139344D01*
X329230Y138868D01*
X330174Y138540D01*
X331158Y138370D01*
X332157Y138360D01*
X333145Y138513D01*
X334094Y138823D01*
X334981Y139283D01*
X335782Y139880D01*
X336476Y140599D01*
X337044Y141421D01*
X337472Y142324D01*
X337748Y143284D01*
X337865Y144276D01*
X325559Y144406D02*
X325559Y144402D01*
X325559Y144401D02*
X325560Y144388D01*
X325559Y144400D02*
X325560Y144386D01*
X325556Y148989D02*
X325218Y149970D01*
X324435Y150651D01*
X323417Y150849D01*
X323400Y150848D02*
X323417Y150849D01*
X317576Y151749D02*
X317980Y151102D01*
X318699Y150848D01*
X309333Y151983D02*
X309584Y151749D01*
X310171Y212642D02*
X309528Y211878D01*
X308903Y211101D01*
X308293Y210311D01*
X307701Y209508D01*
X307125Y208693D01*
X306567Y207866D01*
X306026Y207028D01*
X305503Y206178D01*
X304999Y205317D01*
X304512Y204446D01*
X304044Y203565D01*
X303595Y202674D01*
X303164Y201774D01*
X302753Y200865D01*
X302361Y199948D01*
X301988Y199022D01*
X301635Y198089D01*
X301301Y197149D01*
X300988Y196202D01*
X300694Y195248D01*
X300421Y194289D01*
X300168Y193323D01*
X299936Y192353D01*
X299724Y191378D01*
X299532Y190399D01*
X299361Y189416D01*
X299212Y188429D01*
X299082Y187440D01*
X298974Y186448D01*
X298887Y185454D01*
X298820Y184459D01*
X298775Y183462D01*
X298751Y182465D01*
X298748Y181467D01*
X298765Y180470D01*
X298804Y179472D01*
X298864Y178477D01*
X298945Y177482D01*
X299047Y176489D01*
X299169Y175499D01*
X299313Y174512D01*
X299477Y173528D01*
X299662Y172547D01*
X299868Y171571D01*
X300094Y170599D01*
X300341Y169633D01*
X300608Y168671D01*
X300895Y167716D01*
X301202Y166767D01*
X301529Y165824D01*
X301876Y164889D01*
X302243Y163961D01*
X302629Y163041D01*
X303034Y162129D01*
X303459Y161226D01*
X303903Y160332D01*
X304365Y159448D01*
X304846Y158574D01*
X305345Y157710D01*
X305862Y156857D01*
X306397Y156015D01*
X306950Y155184D01*
X307520Y154365D01*
X308107Y153559D01*
X308712Y152765D01*
X309332Y151984D01*
X310364Y212729D02*
X310171Y212642D01*
X334330Y212730D02*
X334300Y212732D01*
X334328Y212730D02*
X334330Y212730D01*
X334330D02*
X335297Y212871D01*
X336068Y213471D01*
X336443Y214372D01*
X336441Y214408D02*
X336443Y214372D01*
X336442Y219730D02*
X336441Y219700D01*
X348751Y219604D02*
X348654Y220599D01*
X348397Y221565D01*
X347987Y222477D01*
X347435Y223311D01*
X346755Y224044D01*
X345966Y224658D01*
X345087Y225135D01*
X344143Y225464D01*
X343158Y225636D01*
X342158Y225646D01*
X341170Y225495D01*
X340219Y225185D01*
X339331Y224725D01*
X338529Y224128D01*
X337835Y223409D01*
X337265Y222587D01*
X336837Y221684D01*
X336560Y220723D01*
X336442Y219730D01*
X348751Y219600D02*
X348751Y219604D01*
X348746Y219548D02*
X348751Y219600D01*
X348751Y219500D02*
X348746Y219548D01*
X348753Y215010D02*
X348751Y215035D01*
X348753Y215010D02*
X348966Y214118D01*
X349503Y213376D01*
X350284Y212896D01*
X351188Y212751D01*
X351200Y212752D02*
X351188Y212751D01*
X379427Y212500D02*
X379176Y212752D01*
X379430Y212499D02*
X379427Y212500D01*
X387415Y198403D02*
X387061Y199356D01*
X386686Y200302D01*
X386292Y201240D01*
X385878Y202170D01*
X385444Y203090D01*
X384990Y204000D01*
X384517Y204901D01*
X384025Y205792D01*
X383514Y206672D01*
X382985Y207541D01*
X382437Y208398D01*
X381871Y209243D01*
X381287Y210076D01*
X380685Y210897D01*
X380066Y211704D01*
X379430Y212499D01*
X388930Y193226D02*
X388700Y194281D01*
X388432Y195327D01*
X388129Y196364D01*
X387790Y197389D01*
X387415Y198403D01*
X389500Y188100D02*
X389457Y189132D01*
X389379Y190161D01*
X389264Y191188D01*
X389115Y192209D01*
X388930Y193226D01*
X389769Y181703D02*
X389801Y182771D01*
X389802Y183840D01*
X389773Y184907D01*
X389712Y185974D01*
X389621Y187039D01*
X389500Y188100D01*
X389500Y175000D02*
X389609Y175953D01*
X389695Y176909D01*
X389757Y177867D01*
X389795Y178825D01*
X389810Y179785D01*
X389801Y180744D01*
X389769Y181703D01*
X388930Y171660D02*
X389185Y172762D01*
X389375Y173876D01*
X389500Y175000D01*
X384100Y166517D02*
X385072Y166916D01*
X385977Y167448D01*
X386797Y168104D01*
X387516Y168869D01*
X388119Y169729D01*
X388593Y170666D01*
X388930Y171660D01*
X367683Y166517D02*
X366811Y166340D01*
X366072Y165845D01*
X365577Y165106D01*
X365400Y164235D01*
X363568Y151268D02*
X364391Y151591D01*
X365028Y152205D01*
X365382Y153015D01*
X365399Y153899D01*
X340245Y151265D02*
X339341Y151078D01*
X338574Y150563D01*
X338058Y149797D01*
X337870Y148893D01*
X337869Y144278D02*
X337867Y144298D01*
X325560Y144388D02*
X325659Y143394D01*
X325917Y142429D01*
X326329Y141519D01*
X326882Y140687D01*
X327562Y139955D01*
X328352Y139344D01*
X329230Y138868D01*
X330174Y138540D01*
X331158Y138370D01*
X332157Y138360D01*
X333145Y138513D01*
X334094Y138823D01*
X334981Y139283D01*
X335782Y139880D01*
X336476Y140599D01*
X337044Y141421D01*
X337472Y142324D01*
X337748Y143284D01*
X337865Y144276D01*
X325559Y144406D02*
X325559Y144402D01*
X325559Y144401D02*
X325560Y144388D01*
X325559Y144400D02*
X325560Y144386D01*
X325556Y148989D02*
X325218Y149970D01*
X324435Y150651D01*
X323417Y150849D01*
X323400Y150848D02*
X323417Y150849D01*
X317576Y151749D02*
X317980Y151102D01*
X318699Y150848D01*
X309333Y151983D02*
X309584Y151749D01*
X310171Y212642D02*
X309528Y211878D01*
X308903Y211101D01*
X308293Y210311D01*
X307701Y209508D01*
X307125Y208693D01*
X306567Y207866D01*
X306026Y207028D01*
X305503Y206178D01*
X304999Y205317D01*
X304512Y204446D01*
X304044Y203565D01*
X303595Y202674D01*
X303164Y201774D01*
X302753Y200865D01*
X302361Y199948D01*
X301988Y199022D01*
X301635Y198089D01*
X301301Y197149D01*
X300988Y196202D01*
X300694Y195248D01*
X300421Y194289D01*
X300168Y193323D01*
X299936Y192353D01*
X299724Y191378D01*
X299532Y190399D01*
X299361Y189416D01*
X299212Y188429D01*
X299082Y187440D01*
X298974Y186448D01*
X298887Y185454D01*
X298820Y184459D01*
X298775Y183462D01*
X298751Y182465D01*
X298748Y181467D01*
X298765Y180470D01*
X298804Y179472D01*
X298864Y178477D01*
X298945Y177482D01*
X299047Y176489D01*
X299169Y175499D01*
X299313Y174512D01*
X299477Y173528D01*
X299662Y172547D01*
X299868Y171571D01*
X300094Y170599D01*
X300341Y169633D01*
X300608Y168671D01*
X300895Y167716D01*
X301202Y166767D01*
X301529Y165824D01*
X301876Y164889D01*
X302243Y163961D01*
X302629Y163041D01*
X303034Y162129D01*
X303459Y161226D01*
X303903Y160332D01*
X304365Y159448D01*
X304846Y158574D01*
X305345Y157710D01*
X305862Y156857D01*
X306397Y156015D01*
X306950Y155184D01*
X307520Y154365D01*
X308107Y153559D01*
X308712Y152765D01*
X309332Y151984D01*
X310364Y212729D02*
X310171Y212642D01*
X334330Y212730D02*
X334300Y212732D01*
X334328Y212730D02*
X334330Y212730D01*
X334330D02*
X335297Y212871D01*
X336068Y213471D01*
X336443Y214372D01*
X336441Y214408D02*
X336443Y214372D01*
X336442Y219730D02*
X336441Y219700D01*
X348751Y219604D02*
X348654Y220599D01*
X348397Y221565D01*
X347987Y222477D01*
X347435Y223311D01*
X346755Y224044D01*
X345966Y224658D01*
X345087Y225135D01*
X344143Y225464D01*
X343158Y225636D01*
X342158Y225646D01*
X341170Y225495D01*
X340219Y225185D01*
X339331Y224725D01*
X338529Y224128D01*
X337835Y223409D01*
X337265Y222587D01*
X336837Y221684D01*
X336560Y220723D01*
X336442Y219730D01*
X348751Y219600D02*
X348751Y219604D01*
X348746Y219548D02*
X348751Y219600D01*
X348751Y219500D02*
X348746Y219548D01*
X348753Y215010D02*
X348751Y215035D01*
X348753Y215010D02*
X348966Y214118D01*
X349503Y213376D01*
X350284Y212896D01*
X351188Y212751D01*
X351200Y212752D02*
X351188Y212751D01*
X379427Y212500D02*
X379176Y212752D01*
X379430Y212499D02*
X379427Y212500D01*
X387415Y198403D02*
X387061Y199356D01*
X386686Y200302D01*
X386292Y201240D01*
X385878Y202170D01*
X385444Y203090D01*
X384990Y204000D01*
X384517Y204901D01*
X384025Y205792D01*
X383514Y206672D01*
X382985Y207541D01*
X382437Y208398D01*
X381871Y209243D01*
X381287Y210076D01*
X380685Y210897D01*
X380066Y211704D01*
X379430Y212499D01*
X388930Y193226D02*
X388700Y194281D01*
X388432Y195327D01*
X388129Y196364D01*
X387790Y197389D01*
X387415Y198403D01*
X389500Y188100D02*
X389457Y189132D01*
X389379Y190161D01*
X389264Y191188D01*
X389115Y192209D01*
X388930Y193226D01*
X389769Y181703D02*
X389801Y182771D01*
X389802Y183840D01*
X389773Y184907D01*
X389712Y185974D01*
X389621Y187039D01*
X389500Y188100D01*
X389500Y175000D02*
X389609Y175953D01*
X389695Y176909D01*
X389757Y177867D01*
X389795Y178825D01*
X389810Y179785D01*
X389801Y180744D01*
X389769Y181703D01*
X388930Y171660D02*
X389185Y172762D01*
X389375Y173876D01*
X389500Y175000D01*
X384100Y166517D02*
X385072Y166916D01*
X385977Y167448D01*
X386797Y168104D01*
X387516Y168869D01*
X388119Y169729D01*
X388593Y170666D01*
X388930Y171660D01*
X367683Y166517D02*
X366811Y166340D01*
X366072Y165845D01*
X365577Y165106D01*
X365400Y164235D01*
X363568Y151268D02*
X364391Y151591D01*
X365028Y152205D01*
X365382Y153015D01*
X365399Y153899D01*
X340245Y151265D02*
X339341Y151078D01*
X338574Y150563D01*
X338058Y149797D01*
X337870Y148893D01*
X337869Y144278D02*
X337867Y144298D01*
X325560Y144388D02*
X325659Y143394D01*
X325917Y142429D01*
X326329Y141519D01*
X326882Y140687D01*
X327562Y139955D01*
X328352Y139344D01*
X329230Y138868D01*
X330174Y138540D01*
X331158Y138370D01*
X332157Y138360D01*
X333145Y138513D01*
X334094Y138823D01*
X334981Y139283D01*
X335782Y139880D01*
X336476Y140599D01*
X337044Y141421D01*
X337472Y142324D01*
X337748Y143284D01*
X337865Y144276D01*
X325559Y144406D02*
X325559Y144402D01*
X325559Y144401D02*
X325560Y144388D01*
X325559Y144400D02*
X325560Y144386D01*
X325556Y148989D02*
X325218Y149970D01*
X324435Y150651D01*
X323417Y150849D01*
X323400Y150848D02*
X323417Y150849D01*
X317576Y151749D02*
X317980Y151102D01*
X318699Y150848D01*
X309333Y151983D02*
X309584Y151749D01*
X310171Y212642D02*
X309528Y211878D01*
X308903Y211101D01*
X308293Y210311D01*
X307701Y209508D01*
X307125Y208693D01*
X306567Y207866D01*
X306026Y207028D01*
X305503Y206178D01*
X304999Y205317D01*
X304512Y204446D01*
X304044Y203565D01*
X303595Y202674D01*
X303164Y201774D01*
X302753Y200865D01*
X302361Y199948D01*
X301988Y199022D01*
X301635Y198089D01*
X301301Y197149D01*
X300988Y196202D01*
X300694Y195248D01*
X300421Y194289D01*
X300168Y193323D01*
X299936Y192353D01*
X299724Y191378D01*
X299532Y190399D01*
X299361Y189416D01*
X299212Y188429D01*
X299082Y187440D01*
X298974Y186448D01*
X298887Y185454D01*
X298820Y184459D01*
X298775Y183462D01*
X298751Y182465D01*
X298748Y181467D01*
X298765Y180470D01*
X298804Y179472D01*
X298864Y178477D01*
X298945Y177482D01*
X299047Y176489D01*
X299169Y175499D01*
X299313Y174512D01*
X299477Y173528D01*
X299662Y172547D01*
X299868Y171571D01*
X300094Y170599D01*
X300341Y169633D01*
X300608Y168671D01*
X300895Y167716D01*
X301202Y166767D01*
X301529Y165824D01*
X301876Y164889D01*
X302243Y163961D01*
X302629Y163041D01*
X303034Y162129D01*
X303459Y161226D01*
X303903Y160332D01*
X304365Y159448D01*
X304846Y158574D01*
X305345Y157710D01*
X305862Y156857D01*
X306397Y156015D01*
X306950Y155184D01*
X307520Y154365D01*
X308107Y153559D01*
X308712Y152765D01*
X309332Y151984D01*
X310364Y212729D02*
X310171Y212642D01*
X334330Y212730D02*
X334300Y212732D01*
X334328Y212730D02*
X334330Y212730D01*
X334330D02*
X335297Y212871D01*
X336068Y213471D01*
X336443Y214372D01*
X336441Y214408D02*
X336443Y214372D01*
X336442Y219730D02*
X336441Y219700D01*
X348751Y219604D02*
X348654Y220599D01*
X348397Y221565D01*
X347987Y222477D01*
X347435Y223311D01*
X346755Y224044D01*
X345966Y224658D01*
X345087Y225135D01*
X344143Y225464D01*
X343158Y225636D01*
X342158Y225646D01*
X341170Y225495D01*
X340219Y225185D01*
X339331Y224725D01*
X338529Y224128D01*
X337835Y223409D01*
X337265Y222587D01*
X336837Y221684D01*
X336560Y220723D01*
X336442Y219730D01*
X348751Y219600D02*
X348751Y219604D01*
X348746Y219548D02*
X348751Y219600D01*
X348751Y219500D02*
X348746Y219548D01*
X348753Y215010D02*
X348751Y215035D01*
X348753Y215010D02*
X348966Y214118D01*
X349503Y213376D01*
X350284Y212896D01*
X351188Y212751D01*
X351200Y212752D02*
X351188Y212751D01*
X379427Y212500D02*
X379176Y212752D01*
X379430Y212499D02*
X379427Y212500D01*
X387415Y198403D02*
X387061Y199356D01*
X386686Y200302D01*
X386292Y201240D01*
X385878Y202170D01*
X385444Y203090D01*
X384990Y204000D01*
X384517Y204901D01*
X384025Y205792D01*
X383514Y206672D01*
X382985Y207541D01*
X382437Y208398D01*
X381871Y209243D01*
X381287Y210076D01*
X380685Y210897D01*
X380066Y211704D01*
X379430Y212499D01*
X388930Y193226D02*
X388700Y194281D01*
X388432Y195327D01*
X388129Y196364D01*
X387790Y197389D01*
X387415Y198403D01*
X389500Y188100D02*
X389457Y189132D01*
X389379Y190161D01*
X389264Y191188D01*
X389115Y192209D01*
X388930Y193226D01*
X389769Y181703D02*
X389801Y182771D01*
X389802Y183840D01*
X389773Y184907D01*
X389712Y185974D01*
X389621Y187039D01*
X389500Y188100D01*
X389500Y175000D02*
X389609Y175953D01*
X389695Y176909D01*
X389757Y177867D01*
X389795Y178825D01*
X389810Y179785D01*
X389801Y180744D01*
X389769Y181703D01*
X388930Y171660D02*
X389185Y172762D01*
X389375Y173876D01*
X389500Y175000D01*
X384100Y166517D02*
X385072Y166916D01*
X385977Y167448D01*
X386797Y168104D01*
X387516Y168869D01*
X388119Y169729D01*
X388593Y170666D01*
X388930Y171660D01*
X367683Y166517D02*
X366811Y166340D01*
X366072Y165845D01*
X365577Y165106D01*
X365400Y164235D01*
X363568Y151268D02*
X364391Y151591D01*
X365028Y152205D01*
X365382Y153015D01*
X365399Y153899D01*
X340245Y151265D02*
X339341Y151078D01*
X338574Y150563D01*
X338058Y149797D01*
X337870Y148893D01*
X337869Y144278D02*
X337867Y144298D01*
X325560Y144388D02*
X325659Y143394D01*
X325917Y142429D01*
X326329Y141519D01*
X326882Y140687D01*
X327562Y139955D01*
X328352Y139344D01*
X329230Y138868D01*
X330174Y138540D01*
X331158Y138370D01*
X332157Y138360D01*
X333145Y138513D01*
X334094Y138823D01*
X334981Y139283D01*
X335782Y139880D01*
X336476Y140599D01*
X337044Y141421D01*
X337472Y142324D01*
X337748Y143284D01*
X337865Y144276D01*
X325559Y144406D02*
X325559Y144402D01*
X325559Y144401D02*
X325560Y144388D01*
X325559Y144400D02*
X325560Y144386D01*
X325556Y148989D02*
X325218Y149970D01*
X324435Y150651D01*
X323417Y150849D01*
X323400Y150848D02*
X323417Y150849D01*
X317576Y151749D02*
X317980Y151102D01*
X318699Y150848D01*
X309333Y151983D02*
X309584Y151749D01*
X310171Y212642D02*
X309528Y211878D01*
X308903Y211101D01*
X308293Y210311D01*
X307701Y209508D01*
X307125Y208693D01*
X306567Y207866D01*
X306026Y207028D01*
X305503Y206178D01*
X304999Y205317D01*
X304512Y204446D01*
X304044Y203565D01*
X303595Y202674D01*
X303164Y201774D01*
X302753Y200865D01*
X302361Y199948D01*
X301988Y199022D01*
X301635Y198089D01*
X301301Y197149D01*
X300988Y196202D01*
X300694Y195248D01*
X300421Y194289D01*
X300168Y193323D01*
X299936Y192353D01*
X299724Y191378D01*
X299532Y190399D01*
X299361Y189416D01*
X299212Y188429D01*
X299082Y187440D01*
X298974Y186448D01*
X298887Y185454D01*
X298820Y184459D01*
X298775Y183462D01*
X298751Y182465D01*
X298748Y181467D01*
X298765Y180470D01*
X298804Y179472D01*
X298864Y178477D01*
X298945Y177482D01*
X299047Y176489D01*
X299169Y175499D01*
X299313Y174512D01*
X299477Y173528D01*
X299662Y172547D01*
X299868Y171571D01*
X300094Y170599D01*
X300341Y169633D01*
X300608Y168671D01*
X300895Y167716D01*
X301202Y166767D01*
X301529Y165824D01*
X301876Y164889D01*
X302243Y163961D01*
X302629Y163041D01*
X303034Y162129D01*
X303459Y161226D01*
X303903Y160332D01*
X304365Y159448D01*
X304846Y158574D01*
X305345Y157710D01*
X305862Y156857D01*
X306397Y156015D01*
X306950Y155184D01*
X307520Y154365D01*
X308107Y153559D01*
X308712Y152765D01*
X309332Y151984D01*
X310364Y212729D02*
X310171Y212642D01*
X334330Y212730D02*
X334300Y212732D01*
X334328Y212730D02*
X334330Y212730D01*
X334330D02*
X335297Y212871D01*
X336068Y213471D01*
X336443Y214372D01*
X336441Y214408D02*
X336443Y214372D01*
X336442Y219730D02*
X336441Y219700D01*
X348751Y219604D02*
X348654Y220599D01*
X348397Y221565D01*
X347987Y222477D01*
X347435Y223311D01*
X346755Y224044D01*
X345966Y224658D01*
X345087Y225135D01*
X344143Y225464D01*
X343158Y225636D01*
X342158Y225646D01*
X341170Y225495D01*
X340219Y225185D01*
X339331Y224725D01*
X338529Y224128D01*
X337835Y223409D01*
X337265Y222587D01*
X336837Y221684D01*
X336560Y220723D01*
X336442Y219730D01*
X348751Y219600D02*
X348751Y219604D01*
X348746Y219548D02*
X348751Y219600D01*
X348751Y219500D02*
X348746Y219548D01*
X348753Y215010D02*
X348751Y215035D01*
X348753Y215010D02*
X348966Y214118D01*
X349503Y213376D01*
X350284Y212896D01*
X351188Y212751D01*
X351200Y212752D02*
X351188Y212751D01*
X379427Y212500D02*
X379176Y212752D01*
X379430Y212499D02*
X379427Y212500D01*
X387415Y198403D02*
X387061Y199356D01*
X386686Y200302D01*
X386292Y201240D01*
X385878Y202170D01*
X385444Y203090D01*
X384990Y204000D01*
X384517Y204901D01*
X384025Y205792D01*
X383514Y206672D01*
X382985Y207541D01*
X382437Y208398D01*
X381871Y209243D01*
X381287Y210076D01*
X380685Y210897D01*
X380066Y211704D01*
X379430Y212499D01*
X388930Y193226D02*
X388700Y194281D01*
X388432Y195327D01*
X388129Y196364D01*
X387790Y197389D01*
X387415Y198403D01*
X389500Y188100D02*
X389457Y189132D01*
X389379Y190161D01*
X389264Y191188D01*
X389115Y192209D01*
X388930Y193226D01*
X389769Y181703D02*
X389801Y182771D01*
X389802Y183840D01*
X389773Y184907D01*
X389712Y185974D01*
X389621Y187039D01*
X389500Y188100D01*
X389500Y175000D02*
X389609Y175953D01*
X389695Y176909D01*
X389757Y177867D01*
X389795Y178825D01*
X389810Y179785D01*
X389801Y180744D01*
X389769Y181703D01*
X388930Y171660D02*
X389185Y172762D01*
X389375Y173876D01*
X389500Y175000D01*
X384100Y166517D02*
X385072Y166916D01*
X385977Y167448D01*
X386797Y168104D01*
X387516Y168869D01*
X388119Y169729D01*
X388593Y170666D01*
X388930Y171660D01*
X367683Y166517D02*
X366811Y166340D01*
X366072Y165845D01*
X365577Y165106D01*
X365400Y164235D01*
X363568Y151268D02*
X364391Y151591D01*
X365028Y152205D01*
X365382Y153015D01*
X365399Y153899D01*
X340245Y151265D02*
X339341Y151078D01*
X338574Y150563D01*
X338058Y149797D01*
X337870Y148893D01*
X337869Y144278D02*
X337867Y144298D01*
X325560Y144388D02*
X325659Y143394D01*
X325917Y142429D01*
X326329Y141519D01*
X326882Y140687D01*
X327562Y139955D01*
X328352Y139344D01*
X329230Y138868D01*
X330174Y138540D01*
X331158Y138370D01*
X332157Y138360D01*
X333145Y138513D01*
X334094Y138823D01*
X334981Y139283D01*
X335782Y139880D01*
X336476Y140599D01*
X337044Y141421D01*
X337472Y142324D01*
X337748Y143284D01*
X337865Y144276D01*
X325559Y144406D02*
X325559Y144402D01*
X325559Y144401D02*
X325560Y144388D01*
X325559Y144400D02*
X325560Y144386D01*
X325556Y148989D02*
X325218Y149970D01*
X324435Y150651D01*
X323417Y150849D01*
X323400Y150848D02*
X323417Y150849D01*
X317576Y151749D02*
X317980Y151102D01*
X318699Y150848D01*
X309333Y151983D02*
X309584Y151749D01*
X310171Y212642D02*
X309528Y211878D01*
X308903Y211101D01*
X308293Y210311D01*
X307701Y209508D01*
X307125Y208693D01*
X306567Y207866D01*
X306026Y207028D01*
X305503Y206178D01*
X304999Y205317D01*
X304512Y204446D01*
X304044Y203565D01*
X303595Y202674D01*
X303164Y201774D01*
X302753Y200865D01*
X302361Y199948D01*
X301988Y199022D01*
X301635Y198089D01*
X301301Y197149D01*
X300988Y196202D01*
X300694Y195248D01*
X300421Y194289D01*
X300168Y193323D01*
X299936Y192353D01*
X299724Y191378D01*
X299532Y190399D01*
X299361Y189416D01*
X299212Y188429D01*
X299082Y187440D01*
X298974Y186448D01*
X298887Y185454D01*
X298820Y184459D01*
X298775Y183462D01*
X298751Y182465D01*
X298748Y181467D01*
X298765Y180470D01*
X298804Y179472D01*
X298864Y178477D01*
X298945Y177482D01*
X299047Y176489D01*
X299169Y175499D01*
X299313Y174512D01*
X299477Y173528D01*
X299662Y172547D01*
X299868Y171571D01*
X300094Y170599D01*
X300341Y169633D01*
X300608Y168671D01*
X300895Y167716D01*
X301202Y166767D01*
X301529Y165824D01*
X301876Y164889D01*
X302243Y163961D01*
X302629Y163041D01*
X303034Y162129D01*
X303459Y161226D01*
X303903Y160332D01*
X304365Y159448D01*
X304846Y158574D01*
X305345Y157710D01*
X305862Y156857D01*
X306397Y156015D01*
X306950Y155184D01*
X307520Y154365D01*
X308107Y153559D01*
X308712Y152765D01*
X309332Y151984D01*
X310364Y212729D02*
X310171Y212642D01*
X334330Y212730D02*
X334300Y212732D01*
X334328Y212730D02*
X334330Y212730D01*
X334330D02*
X335297Y212871D01*
X336068Y213471D01*
X336443Y214372D01*
X336441Y214408D02*
X336443Y214372D01*
X336442Y219730D02*
X336441Y219700D01*
X348751Y219604D02*
X348654Y220599D01*
X348397Y221565D01*
X347987Y222477D01*
X347435Y223311D01*
X346755Y224044D01*
X345966Y224658D01*
X345087Y225135D01*
X344143Y225464D01*
X343158Y225636D01*
X342158Y225646D01*
X341170Y225495D01*
X340219Y225185D01*
X339331Y224725D01*
X338529Y224128D01*
X337835Y223409D01*
X337265Y222587D01*
X336837Y221684D01*
X336560Y220723D01*
X336442Y219730D01*
X348751Y219600D02*
X348751Y219604D01*
X348746Y219548D02*
X348751Y219600D01*
X348751Y219500D02*
X348746Y219548D01*
X348753Y215010D02*
X348751Y215035D01*
X348753Y215010D02*
X348966Y214118D01*
X349503Y213376D01*
X350284Y212896D01*
X351188Y212751D01*
X351200Y212752D02*
X351188Y212751D01*
X379427Y212500D02*
X379176Y212752D01*
X379430Y212499D02*
X379427Y212500D01*
X387415Y198403D02*
X387061Y199356D01*
X386686Y200302D01*
X386292Y201240D01*
X385878Y202170D01*
X385444Y203090D01*
X384990Y204000D01*
X384517Y204901D01*
X384025Y205792D01*
X383514Y206672D01*
X382985Y207541D01*
X382437Y208398D01*
X381871Y209243D01*
X381287Y210076D01*
X380685Y210897D01*
X380066Y211704D01*
X379430Y212499D01*
X388930Y193226D02*
X388700Y194281D01*
X388432Y195327D01*
X388129Y196364D01*
X387790Y197389D01*
X387415Y198403D01*
X389500Y188100D02*
X389457Y189132D01*
X389379Y190161D01*
X389264Y191188D01*
X389115Y192209D01*
X388930Y193226D01*
X389769Y181703D02*
X389801Y182771D01*
X389802Y183840D01*
X389773Y184907D01*
X389712Y185974D01*
X389621Y187039D01*
X389500Y188100D01*
X389500Y175000D02*
X389609Y175953D01*
X389695Y176909D01*
X389757Y177867D01*
X389795Y178825D01*
X389810Y179785D01*
X389801Y180744D01*
X389769Y181703D01*
X388930Y171660D02*
X389185Y172762D01*
X389375Y173876D01*
X389500Y175000D01*
X384100Y166517D02*
X385072Y166916D01*
X385977Y167448D01*
X386797Y168104D01*
X387516Y168869D01*
X388119Y169729D01*
X388593Y170666D01*
X388930Y171660D01*
X367683Y166517D02*
X366811Y166340D01*
X366072Y165845D01*
X365577Y165106D01*
X365400Y164235D01*
X363568Y151268D02*
X364391Y151591D01*
X365028Y152205D01*
X365382Y153015D01*
X365399Y153899D01*
X340245Y151265D02*
X339341Y151078D01*
X338574Y150563D01*
X338058Y149797D01*
X337870Y148893D01*
X337869Y144278D02*
X337867Y144298D01*
X325560Y144388D02*
X325659Y143394D01*
X325917Y142429D01*
X326329Y141519D01*
X326882Y140687D01*
X327562Y139955D01*
X328352Y139344D01*
X329230Y138868D01*
X330174Y138540D01*
X331158Y138370D01*
X332157Y138360D01*
X333145Y138513D01*
X334094Y138823D01*
X334981Y139283D01*
X335782Y139880D01*
X336476Y140599D01*
X337044Y141421D01*
X337472Y142324D01*
X337748Y143284D01*
X337865Y144276D01*
X325559Y144406D02*
X325559Y144402D01*
X325559Y144401D02*
X325560Y144388D01*
X325559Y144400D02*
X325560Y144386D01*
X325556Y148989D02*
X325218Y149970D01*
X324435Y150651D01*
X323417Y150849D01*
X323400Y150848D02*
X323417Y150849D01*
X317576Y151749D02*
X317980Y151102D01*
X318699Y150848D01*
X309333Y151983D02*
X309584Y151749D01*
X310171Y212642D02*
X309528Y211878D01*
X308903Y211101D01*
X308293Y210311D01*
X307701Y209508D01*
X307125Y208693D01*
X306567Y207866D01*
X306026Y207028D01*
X305503Y206178D01*
X304999Y205317D01*
X304512Y204446D01*
X304044Y203565D01*
X303595Y202674D01*
X303164Y201774D01*
X302753Y200865D01*
X302361Y199948D01*
X301988Y199022D01*
X301635Y198089D01*
X301301Y197149D01*
X300988Y196202D01*
X300694Y195248D01*
X300421Y194289D01*
X300168Y193323D01*
X299936Y192353D01*
X299724Y191378D01*
X299532Y190399D01*
X299361Y189416D01*
X299212Y188429D01*
X299082Y187440D01*
X298974Y186448D01*
X298887Y185454D01*
X298820Y184459D01*
X298775Y183462D01*
X298751Y182465D01*
X298748Y181467D01*
X298765Y180470D01*
X298804Y179472D01*
X298864Y178477D01*
X298945Y177482D01*
X299047Y176489D01*
X299169Y175499D01*
X299313Y174512D01*
X299477Y173528D01*
X299662Y172547D01*
X299868Y171571D01*
X300094Y170599D01*
X300341Y169633D01*
X300608Y168671D01*
X300895Y167716D01*
X301202Y166767D01*
X301529Y165824D01*
X301876Y164889D01*
X302243Y163961D01*
X302629Y163041D01*
X303034Y162129D01*
X303459Y161226D01*
X303903Y160332D01*
X304365Y159448D01*
X304846Y158574D01*
X305345Y157710D01*
X305862Y156857D01*
X306397Y156015D01*
X306950Y155184D01*
X307520Y154365D01*
X308107Y153559D01*
X308712Y152765D01*
X309332Y151984D01*
X310364Y212729D02*
X310171Y212642D01*
X334330Y212730D02*
X334300Y212732D01*
X334328Y212730D02*
X334330Y212730D01*
X334330D02*
X335297Y212871D01*
X336068Y213471D01*
X336443Y214372D01*
X336441Y214408D02*
X336443Y214372D01*
X336442Y219730D02*
X336441Y219700D01*
X348751Y219604D02*
X348654Y220599D01*
X348397Y221565D01*
X347987Y222477D01*
X347435Y223311D01*
X346755Y224044D01*
X345966Y224658D01*
X345087Y225135D01*
X344143Y225464D01*
X343158Y225636D01*
X342158Y225646D01*
X341170Y225495D01*
X340219Y225185D01*
X339331Y224725D01*
X338529Y224128D01*
X337835Y223409D01*
X337265Y222587D01*
X336837Y221684D01*
X336560Y220723D01*
X336442Y219730D01*
X348751Y219600D02*
X348751Y219604D01*
X348746Y219548D02*
X348751Y219600D01*
X348751Y219500D02*
X348746Y219548D01*
X348753Y215010D02*
X348751Y215035D01*
X348753Y215010D02*
X348966Y214118D01*
X349503Y213376D01*
X350284Y212896D01*
X351188Y212751D01*
X351200Y212752D02*
X351188Y212751D01*
X379427Y212500D02*
X379176Y212752D01*
X379430Y212499D02*
X379427Y212500D01*
X387415Y198403D02*
X387061Y199356D01*
X386686Y200302D01*
X386292Y201240D01*
X385878Y202170D01*
X385444Y203090D01*
X384990Y204000D01*
X384517Y204901D01*
X384025Y205792D01*
X383514Y206672D01*
X382985Y207541D01*
X382437Y208398D01*
X381871Y209243D01*
X381287Y210076D01*
X380685Y210897D01*
X380066Y211704D01*
X379430Y212499D01*
X388930Y193226D02*
X388700Y194281D01*
X388432Y195327D01*
X388129Y196364D01*
X387790Y197389D01*
X387415Y198403D01*
X389500Y188100D02*
X389457Y189132D01*
X389379Y190161D01*
X389264Y191188D01*
X389115Y192209D01*
X388930Y193226D01*
X389769Y181703D02*
X389801Y182771D01*
X389802Y183840D01*
X389773Y184907D01*
X389712Y185974D01*
X389621Y187039D01*
X389500Y188100D01*
X389500Y175000D02*
X389609Y175953D01*
X389695Y176909D01*
X389757Y177867D01*
X389795Y178825D01*
X389810Y179785D01*
X389801Y180744D01*
X389769Y181703D01*
X388930Y171660D02*
X389185Y172762D01*
X389375Y173876D01*
X389500Y175000D01*
X384100Y166517D02*
X385072Y166916D01*
X385977Y167448D01*
X386797Y168104D01*
X387516Y168869D01*
X388119Y169729D01*
X388593Y170666D01*
X388930Y171660D01*
X367683Y166517D02*
X366811Y166340D01*
X366072Y165845D01*
X365577Y165106D01*
X365400Y164235D01*
X363568Y151268D02*
X364391Y151591D01*
X365028Y152205D01*
X365382Y153015D01*
X365399Y153899D01*
X340245Y151265D02*
X339341Y151078D01*
X338574Y150563D01*
X338058Y149797D01*
X337870Y148893D01*
X337869Y144278D02*
X337867Y144298D01*
X325560Y144388D02*
X325659Y143394D01*
X325917Y142429D01*
X326329Y141519D01*
X326882Y140687D01*
X327562Y139955D01*
X328352Y139344D01*
X329230Y138868D01*
X330174Y138540D01*
X331158Y138370D01*
X332157Y138360D01*
X333145Y138513D01*
X334094Y138823D01*
X334981Y139283D01*
X335782Y139880D01*
X336476Y140599D01*
X337044Y141421D01*
X337472Y142324D01*
X337748Y143284D01*
X337865Y144276D01*
X325559Y144406D02*
X325559Y144402D01*
X325559Y144401D02*
X325560Y144388D01*
X325559Y144400D02*
X325560Y144386D01*
X325556Y148989D02*
X325218Y149970D01*
X324435Y150651D01*
X323417Y150849D01*
X323400Y150848D02*
X323417Y150849D01*
X317576Y151749D02*
X317980Y151102D01*
X318699Y150848D01*
X309333Y151983D02*
X309584Y151749D01*
X310171Y212642D02*
X309528Y211878D01*
X308903Y211101D01*
X308293Y210311D01*
X307701Y209508D01*
X307125Y208693D01*
X306567Y207866D01*
X306026Y207028D01*
X305503Y206178D01*
X304999Y205317D01*
X304512Y204446D01*
X304044Y203565D01*
X303595Y202674D01*
X303164Y201774D01*
X302753Y200865D01*
X302361Y199948D01*
X301988Y199022D01*
X301635Y198089D01*
X301301Y197149D01*
X300988Y196202D01*
X300694Y195248D01*
X300421Y194289D01*
X300168Y193323D01*
X299936Y192353D01*
X299724Y191378D01*
X299532Y190399D01*
X299361Y189416D01*
X299212Y188429D01*
X299082Y187440D01*
X298974Y186448D01*
X298887Y185454D01*
X298820Y184459D01*
X298775Y183462D01*
X298751Y182465D01*
X298748Y181467D01*
X298765Y180470D01*
X298804Y179472D01*
X298864Y178477D01*
X298945Y177482D01*
X299047Y176489D01*
X299169Y175499D01*
X299313Y174512D01*
X299477Y173528D01*
X299662Y172547D01*
X299868Y171571D01*
X300094Y170599D01*
X300341Y169633D01*
X300608Y168671D01*
X300895Y167716D01*
X301202Y166767D01*
X301529Y165824D01*
X301876Y164889D01*
X302243Y163961D01*
X302629Y163041D01*
X303034Y162129D01*
X303459Y161226D01*
X303903Y160332D01*
X304365Y159448D01*
X304846Y158574D01*
X305345Y157710D01*
X305862Y156857D01*
X306397Y156015D01*
X306950Y155184D01*
X307520Y154365D01*
X308107Y153559D01*
X308712Y152765D01*
X309332Y151984D01*
X310364Y212729D02*
X310171Y212642D01*
X334330Y212730D02*
X334300Y212732D01*
X334328Y212730D02*
X334330Y212730D01*
X334330D02*
X335297Y212871D01*
X336068Y213471D01*
X336443Y214372D01*
X336441Y214408D02*
X336443Y214372D01*
X336442Y219730D02*
X336441Y219700D01*
X348751Y219604D02*
X348654Y220599D01*
X348397Y221565D01*
X347987Y222477D01*
X347435Y223311D01*
X346755Y224044D01*
X345966Y224658D01*
X345087Y225135D01*
X344143Y225464D01*
X343158Y225636D01*
X342158Y225646D01*
X341170Y225495D01*
X340219Y225185D01*
X339331Y224725D01*
X338529Y224128D01*
X337835Y223409D01*
X337265Y222587D01*
X336837Y221684D01*
X336560Y220723D01*
X336442Y219730D01*
X348751Y219600D02*
X348751Y219604D01*
X348746Y219548D02*
X348751Y219600D01*
X348751Y219500D02*
X348746Y219548D01*
X348753Y215010D02*
X348751Y215035D01*
X348753Y215010D02*
X348966Y214118D01*
X349503Y213376D01*
X350284Y212896D01*
X351188Y212751D01*
X351200Y212752D02*
X351188Y212751D01*
X379427Y212500D02*
X379176Y212752D01*
X379430Y212499D02*
X379427Y212500D01*
X387415Y198403D02*
X387061Y199356D01*
X386686Y200302D01*
X386292Y201240D01*
X385878Y202170D01*
X385444Y203090D01*
X384990Y204000D01*
X384517Y204901D01*
X384025Y205792D01*
X383514Y206672D01*
X382985Y207541D01*
X382437Y208398D01*
X381871Y209243D01*
X381287Y210076D01*
X380685Y210897D01*
X380066Y211704D01*
X379430Y212499D01*
X388930Y193226D02*
X388700Y194281D01*
X388432Y195327D01*
X388129Y196364D01*
X387790Y197389D01*
X387415Y198403D01*
X389500Y188100D02*
X389457Y189132D01*
X389379Y190161D01*
X389264Y191188D01*
X389115Y192209D01*
X388930Y193226D01*
X389769Y181703D02*
X389801Y182771D01*
X389802Y183840D01*
X389773Y184907D01*
X389712Y185974D01*
X389621Y187039D01*
X389500Y188100D01*
X389500Y175000D02*
X389609Y175953D01*
X389695Y176909D01*
X389757Y177867D01*
X389795Y178825D01*
X389810Y179785D01*
X389801Y180744D01*
X389769Y181703D01*
X388930Y171660D02*
X389185Y172762D01*
X389375Y173876D01*
X389500Y175000D01*
X384100Y166517D02*
X385072Y166916D01*
X385977Y167448D01*
X386797Y168104D01*
X387516Y168869D01*
X388119Y169729D01*
X388593Y170666D01*
X388930Y171660D01*
X367683Y166517D02*
X366811Y166340D01*
X366072Y165845D01*
X365577Y165106D01*
X365400Y164235D01*
X363568Y151268D02*
X364391Y151591D01*
X365028Y152205D01*
X365382Y153015D01*
X365399Y153899D01*
X340245Y151265D02*
X339341Y151078D01*
X338574Y150563D01*
X338058Y149797D01*
X337870Y148893D01*
X337869Y144278D02*
X337867Y144298D01*
X325560Y144388D02*
X325659Y143394D01*
X325917Y142429D01*
X326329Y141519D01*
X326882Y140687D01*
X327562Y139955D01*
X328352Y139344D01*
X329230Y138868D01*
X330174Y138540D01*
X331158Y138370D01*
X332157Y138360D01*
X333145Y138513D01*
X334094Y138823D01*
X334981Y139283D01*
X335782Y139880D01*
X336476Y140599D01*
X337044Y141421D01*
X337472Y142324D01*
X337748Y143284D01*
X337865Y144276D01*
X325559Y144406D02*
X325559Y144402D01*
X325559Y144401D02*
X325560Y144388D01*
X325559Y144400D02*
X325560Y144386D01*
X325556Y148989D02*
X325218Y149970D01*
X324435Y150651D01*
X323417Y150849D01*
X323400Y150848D02*
X323417Y150849D01*
X317576Y151749D02*
X317980Y151102D01*
X318699Y150848D01*
X309333Y151983D02*
X309584Y151749D01*
X310171Y212642D02*
X309528Y211878D01*
X308903Y211101D01*
X308293Y210311D01*
X307701Y209508D01*
X307125Y208693D01*
X306567Y207866D01*
X306026Y207028D01*
X305503Y206178D01*
X304999Y205317D01*
X304512Y204446D01*
X304044Y203565D01*
X303595Y202674D01*
X303164Y201774D01*
X302753Y200865D01*
X302361Y199948D01*
X301988Y199022D01*
X301635Y198089D01*
X301301Y197149D01*
X300988Y196202D01*
X300694Y195248D01*
X300421Y194289D01*
X300168Y193323D01*
X299936Y192353D01*
X299724Y191378D01*
X299532Y190399D01*
X299361Y189416D01*
X299212Y188429D01*
X299082Y187440D01*
X298974Y186448D01*
X298887Y185454D01*
X298820Y184459D01*
X298775Y183462D01*
X298751Y182465D01*
X298748Y181467D01*
X298765Y180470D01*
X298804Y179472D01*
X298864Y178477D01*
X298945Y177482D01*
X299047Y176489D01*
X299169Y175499D01*
X299313Y174512D01*
X299477Y173528D01*
X299662Y172547D01*
X299868Y171571D01*
X300094Y170599D01*
X300341Y169633D01*
X300608Y168671D01*
X300895Y167716D01*
X301202Y166767D01*
X301529Y165824D01*
X301876Y164889D01*
X302243Y163961D01*
X302629Y163041D01*
X303034Y162129D01*
X303459Y161226D01*
X303903Y160332D01*
X304365Y159448D01*
X304846Y158574D01*
X305345Y157710D01*
X305862Y156857D01*
X306397Y156015D01*
X306950Y155184D01*
X307520Y154365D01*
X308107Y153559D01*
X308712Y152765D01*
X309332Y151984D01*
X310364Y212729D02*
X310171Y212642D01*
X334330Y212730D02*
X334300Y212732D01*
X334328Y212730D02*
X334330Y212730D01*
X334330D02*
X335297Y212871D01*
X336068Y213471D01*
X336443Y214372D01*
X336441Y214408D02*
X336443Y214372D01*
X336442Y219730D02*
X336441Y219700D01*
X348751Y219604D02*
X348654Y220599D01*
X348397Y221565D01*
X347987Y222477D01*
X347435Y223311D01*
X346755Y224044D01*
X345966Y224658D01*
X345087Y225135D01*
X344143Y225464D01*
X343158Y225636D01*
X342158Y225646D01*
X341170Y225495D01*
X340219Y225185D01*
X339331Y224725D01*
X338529Y224128D01*
X337835Y223409D01*
X337265Y222587D01*
X336837Y221684D01*
X336560Y220723D01*
X336442Y219730D01*
X348751Y219600D02*
X348751Y219604D01*
X348746Y219548D02*
X348751Y219600D01*
X348751Y219500D02*
X348746Y219548D01*
X348753Y215010D02*
X348751Y215035D01*
X348753Y215010D02*
X348966Y214118D01*
X349503Y213376D01*
X350284Y212896D01*
X351188Y212751D01*
X351200Y212752D02*
X351188Y212751D01*
X379427Y212500D02*
X379176Y212752D01*
X379430Y212499D02*
X379427Y212500D01*
X387415Y198403D02*
X387061Y199356D01*
X386686Y200302D01*
X386292Y201240D01*
X385878Y202170D01*
X385444Y203090D01*
X384990Y204000D01*
X384517Y204901D01*
X384025Y205792D01*
X383514Y206672D01*
X382985Y207541D01*
X382437Y208398D01*
X381871Y209243D01*
X381287Y210076D01*
X380685Y210897D01*
X380066Y211704D01*
X379430Y212499D01*
X388930Y193226D02*
X388700Y194281D01*
X388432Y195327D01*
X388129Y196364D01*
X387790Y197389D01*
X387415Y198403D01*
X389500Y188100D02*
X389457Y189132D01*
X389379Y190161D01*
X389264Y191188D01*
X389115Y192209D01*
X388930Y193226D01*
X389769Y181703D02*
X389801Y182771D01*
X389802Y183840D01*
X389773Y184907D01*
X389712Y185974D01*
X389621Y187039D01*
X389500Y188100D01*
X389500Y175000D02*
X389609Y175953D01*
X389695Y176909D01*
X389757Y177867D01*
X389795Y178825D01*
X389810Y179785D01*
X389801Y180744D01*
X389769Y181703D01*
X388930Y171660D02*
X389185Y172762D01*
X389375Y173876D01*
X389500Y175000D01*
X384100Y166517D02*
X385072Y166916D01*
X385977Y167448D01*
X386797Y168104D01*
X387516Y168869D01*
X388119Y169729D01*
X388593Y170666D01*
X388930Y171660D01*
X367683Y166517D02*
X366811Y166340D01*
X366072Y165845D01*
X365577Y165106D01*
X365400Y164235D01*
X363568Y151268D02*
X364391Y151591D01*
X365028Y152205D01*
X365382Y153015D01*
X365399Y153899D01*
X340245Y151265D02*
X339341Y151078D01*
X338574Y150563D01*
X338058Y149797D01*
X337870Y148893D01*
X337869Y144278D02*
X337867Y144298D01*
X325560Y144388D02*
X325659Y143394D01*
X325917Y142429D01*
X326329Y141519D01*
X326882Y140687D01*
X327562Y139955D01*
X328352Y139344D01*
X329230Y138868D01*
X330174Y138540D01*
X331158Y138370D01*
X332157Y138360D01*
X333145Y138513D01*
X334094Y138823D01*
X334981Y139283D01*
X335782Y139880D01*
X336476Y140599D01*
X337044Y141421D01*
X337472Y142324D01*
X337748Y143284D01*
X337865Y144276D01*
X325559Y144406D02*
X325559Y144402D01*
X325559Y144401D02*
X325560Y144388D01*
X325559Y144400D02*
X325560Y144386D01*
X325556Y148989D02*
X325218Y149970D01*
X324435Y150651D01*
X323417Y150849D01*
X323400Y150848D02*
X323417Y150849D01*
X305385Y169100D02*
Y193942D01*
Y169100D02*
X308928D01*
Y193942D01*
X305385D02*
X308928D01*
X305819Y201712D02*
X329815Y208142D01*
X305819Y201712D02*
X306735Y198290D01*
X330732Y204719D01*
X329815Y208142D02*
X330732Y204719D01*
X332000Y202015D02*
X356842D01*
X332000Y198472D02*
Y202015D01*
Y198472D02*
X356842D01*
Y202015D01*
X359187Y208116D02*
X383183Y201686D01*
X358270Y204694D02*
X359187Y208116D01*
X358270Y204694D02*
X382266Y198264D01*
X383183Y201686D01*
X383315Y169339D02*
Y194182D01*
X379772D02*
X383315D01*
X379772Y169339D02*
Y194182D01*
Y169339D02*
X383315D01*
X309584Y151749D02*
X317576D01*
X310364Y212729D02*
X334300Y212732D01*
X334328Y212730D02*
X334330Y212730D01*
X336441Y214408D02*
Y219700D01*
X348751Y215035D02*
Y219500D01*
X351200Y212752D02*
X379176D01*
X378051Y166517D02*
X384100D01*
X367683D02*
X378051D01*
X365400Y164235D02*
X365400Y161926D01*
Y153900D02*
Y161926D01*
X340247Y151268D02*
X363568D01*
X337870Y144300D02*
Y148893D01*
X325559Y144406D02*
X325560Y144388D01*
X325559Y144400D02*
Y148991D01*
X318699Y150848D02*
X323400D01*
M02*
