G04*
G04 #@! TF.GenerationSoftware,Altium Limited,Altium Designer,23.3.1 (30)*
G04*
G04 Layer_Physical_Order=1*
G04 Layer_Color=255*
%FSLAX25Y25*%
%MOIN*%
G70*
G04*
G04 #@! TF.SameCoordinates,CB223118-D475-4B50-827B-9E4A1506652A*
G04*
G04*
G04 #@! TF.FilePolarity,Positive*
G04*
G01*
G75*
%ADD26R,0.09843X0.03937*%
%ADD27C,0.00500*%
G04:AMPARAMS|DCode=28|XSize=39.37mil|YSize=39.37mil|CornerRadius=9.84mil|HoleSize=0mil|Usage=FLASHONLY|Rotation=0.000|XOffset=0mil|YOffset=0mil|HoleType=Round|Shape=RoundedRectangle|*
%AMROUNDEDRECTD28*
21,1,0.03937,0.01968,0,0,0.0*
21,1,0.01968,0.03937,0,0,0.0*
1,1,0.01968,0.00984,-0.00984*
1,1,0.01968,-0.00984,-0.00984*
1,1,0.01968,-0.00984,0.00984*
1,1,0.01968,0.00984,0.00984*
%
%ADD28ROUNDEDRECTD28*%
G04:AMPARAMS|DCode=29|XSize=39.37mil|YSize=39.37mil|CornerRadius=9.84mil|HoleSize=0mil|Usage=FLASHONLY|Rotation=90.000|XOffset=0mil|YOffset=0mil|HoleType=Round|Shape=RoundedRectangle|*
%AMROUNDEDRECTD29*
21,1,0.03937,0.01968,0,0,90.0*
21,1,0.01968,0.03937,0,0,90.0*
1,1,0.01968,0.00984,0.00984*
1,1,0.01968,0.00984,-0.00984*
1,1,0.01968,-0.00984,-0.00984*
1,1,0.01968,-0.00984,0.00984*
%
%ADD29ROUNDEDRECTD29*%
%ADD30R,0.02756X0.03937*%
%ADD31R,0.02756X0.03937*%
G04:AMPARAMS|DCode=32|XSize=27.56mil|YSize=39.37mil|CornerRadius=0mil|HoleSize=0mil|Usage=FLASHONLY|Rotation=255.000|XOffset=0mil|YOffset=0mil|HoleType=Round|Shape=Rectangle|*
%AMROTATEDRECTD32*
4,1,4,-0.01545,0.01841,0.02258,0.00822,0.01545,-0.01841,-0.02258,-0.00822,-0.01545,0.01841,0.0*
%
%ADD32ROTATEDRECTD32*%

G04:AMPARAMS|DCode=33|XSize=27.56mil|YSize=39.37mil|CornerRadius=0mil|HoleSize=0mil|Usage=FLASHONLY|Rotation=255.000|XOffset=0mil|YOffset=0mil|HoleType=Round|Shape=Rectangle|*
%AMROTATEDRECTD33*
4,1,4,-0.01545,0.01841,0.02258,0.00822,0.01545,-0.01841,-0.02258,-0.00822,-0.01545,0.01841,0.0*
%
%ADD33ROTATEDRECTD33*%

%ADD34R,0.03937X0.02756*%
%ADD35R,0.03937X0.02756*%
G04:AMPARAMS|DCode=36|XSize=27.56mil|YSize=39.37mil|CornerRadius=0mil|HoleSize=0mil|Usage=FLASHONLY|Rotation=285.000|XOffset=0mil|YOffset=0mil|HoleType=Round|Shape=Rectangle|*
%AMROTATEDRECTD36*
4,1,4,-0.02258,0.00822,0.01545,0.01841,0.02258,-0.00822,-0.01545,-0.01841,-0.02258,0.00822,0.0*
%
%ADD36ROTATEDRECTD36*%

G04:AMPARAMS|DCode=37|XSize=27.56mil|YSize=39.37mil|CornerRadius=0mil|HoleSize=0mil|Usage=FLASHONLY|Rotation=285.000|XOffset=0mil|YOffset=0mil|HoleType=Round|Shape=Rectangle|*
%AMROTATEDRECTD37*
4,1,4,-0.02258,0.00822,0.01545,0.01841,0.02258,-0.00822,-0.01545,-0.01841,-0.02258,0.00822,0.0*
%
%ADD37ROTATEDRECTD37*%

%ADD38C,0.09600*%
%ADD39C,0.02362*%
G36*
X347946Y216858D02*
X347948Y215034D01*
X347958Y214982D01*
X347955Y214928D01*
X348020Y214446D01*
X348058Y214334D01*
X348086Y214218D01*
X348468Y213386D01*
X348569Y213247D01*
X348652Y213132D01*
X348652Y213132D01*
X348652Y213132D01*
X348652Y213132D01*
X349324Y212509D01*
X349450Y212432D01*
X349591Y212345D01*
X350450Y212027D01*
X350566Y212008D01*
X350680Y211978D01*
X351139Y211950D01*
X351164Y211953D01*
X351188Y211948D01*
X378841Y211949D01*
X380077Y210441D01*
X382340Y207138D01*
X384313Y203655D01*
X385983Y200015D01*
X386659Y198131D01*
X386665Y198122D01*
X386667Y198111D01*
X386906Y197498D01*
X387330Y196253D01*
X387700Y194990D01*
X388014Y193713D01*
X388143Y193068D01*
X388266Y192452D01*
X388459Y191211D01*
X388598Y189962D01*
X388682Y188708D01*
X388697Y188081D01*
X388707Y188039D01*
X388704Y187997D01*
X388804Y187220D01*
X388937Y185657D01*
X389003Y184090D01*
X389002Y182522D01*
X388967Y181739D01*
X388973Y181703D01*
X388967Y181667D01*
X389005Y180845D01*
X389010Y179200D01*
X388944Y177556D01*
X388807Y175917D01*
X388703Y175101D01*
X388705Y175083D01*
X388700Y175065D01*
X388667Y174660D01*
X388565Y173853D01*
X388428Y173052D01*
X388257Y172257D01*
X388154Y171864D01*
X388154Y171863D01*
X388153Y171863D01*
X388050Y171466D01*
X387745Y170704D01*
X387349Y169986D01*
X386866Y169322D01*
X386304Y168724D01*
X385672Y168201D01*
X384980Y167760D01*
X384239Y167408D01*
X383971Y167320D01*
X378051Y167320D01*
X367683D01*
X367642Y167312D01*
X367600Y167316D01*
X367156Y167270D01*
X367044Y167235D01*
X366929Y167212D01*
X366108Y166870D01*
X365980Y166783D01*
X365850Y166697D01*
X365221Y166068D01*
X365134Y165937D01*
X365047Y165809D01*
X364705Y164988D01*
X364682Y164873D01*
X364647Y164761D01*
X364601Y164317D01*
X364605Y164275D01*
X364597Y164235D01*
X364597Y161926D01*
Y153900D01*
X364611Y153831D01*
X364609Y153761D01*
X364660Y153472D01*
X364536Y152902D01*
X364203Y152424D01*
X363713Y152110D01*
X363497Y152071D01*
X340247D01*
X340202Y152062D01*
X340157Y152066D01*
X339693Y152013D01*
X339584Y151978D01*
X339473Y151955D01*
X338621Y151597D01*
X338493Y151511D01*
X338365Y151425D01*
X337743Y150804D01*
X337547Y150811D01*
X337233Y150883D01*
X337198Y150904D01*
X337025Y151322D01*
X336552Y151795D01*
X335934Y152050D01*
X335266D01*
X334648Y151795D01*
X334175Y151322D01*
X333919Y150704D01*
Y150035D01*
X334029Y149770D01*
X333900Y149577D01*
X333649Y149380D01*
X332400Y149715D01*
X331000D01*
X329648Y149353D01*
X329637Y149346D01*
X329240Y149694D01*
X329381Y150035D01*
Y150704D01*
X329125Y151322D01*
X328652Y151795D01*
X328034Y152050D01*
X327366D01*
X326748Y151795D01*
X326275Y151322D01*
X326111Y150926D01*
X325979Y150853D01*
X325568Y150780D01*
X325552Y150783D01*
X325078Y151195D01*
X324953Y151267D01*
X324806Y151350D01*
X324065Y151599D01*
X323948Y151614D01*
X323833Y151640D01*
X323441Y151652D01*
X323429Y151649D01*
X323417Y151652D01*
X318700Y151651D01*
X318640Y151651D01*
X318528Y151691D01*
X318436Y151765D01*
X318373Y151866D01*
X318360Y151924D01*
X318332Y151987D01*
X318318Y152056D01*
X318269Y152129D01*
X318233Y152210D01*
X318183Y152258D01*
X318144Y152316D01*
X318070Y152365D01*
X318006Y152426D01*
X317941Y152452D01*
X317883Y152490D01*
X317797Y152507D01*
X317714Y152539D01*
X317645Y152538D01*
X317576Y152551D01*
X309873Y152551D01*
X308683Y154057D01*
X306410Y157413D01*
X304440Y160950D01*
X302785Y164645D01*
X301458Y168470D01*
X300467Y172395D01*
X299822Y176392D01*
X299526Y180429D01*
X299582Y184477D01*
X299989Y188505D01*
X300745Y192483D01*
X301843Y196379D01*
X303276Y200166D01*
X305032Y203813D01*
X307099Y207295D01*
X309460Y210583D01*
X310616Y211928D01*
X334292Y211929D01*
X334684Y211921D01*
X334800Y211942D01*
X334917Y211951D01*
X335626Y212150D01*
X335763Y212220D01*
X335901Y212289D01*
X336483Y212741D01*
X336583Y212857D01*
X336685Y212974D01*
X337053Y213612D01*
X337090Y213722D01*
X337139Y213827D01*
X337224Y214187D01*
X337228Y214281D01*
X337246Y214373D01*
X337245Y216472D01*
X337745Y216606D01*
X338247Y215737D01*
X339236Y214747D01*
X340448Y214047D01*
X341800Y213685D01*
X343200D01*
X344551Y214047D01*
X345763Y214747D01*
X346753Y215737D01*
X347453Y216949D01*
X347946Y216858D01*
D02*
G37*
%LPC*%
G36*
X341434Y212781D02*
X340766D01*
X340148Y212525D01*
X339675Y212052D01*
X339419Y211434D01*
Y210766D01*
X339675Y210148D01*
X340148Y209675D01*
X340766Y209419D01*
X341434D01*
X342052Y209675D01*
X342525Y210148D01*
X342781Y210766D01*
Y211434D01*
X342525Y212052D01*
X342052Y212525D01*
X341434Y212781D01*
D02*
G37*
G36*
X321742Y209777D02*
X316973Y208500D01*
X316973Y208500D01*
X316798Y208453D01*
Y208453D01*
X312030Y207175D01*
X312030Y207175D01*
X311855Y207128D01*
X311855Y207128D01*
X311547Y207046D01*
X307086Y205850D01*
X307828Y203082D01*
X305611Y202488D01*
X305611D01*
X305330Y202349D01*
X305123Y202114D01*
X305023Y201817D01*
X305043Y201504D01*
X305960Y198082D01*
X306099Y197801D01*
X306334Y197594D01*
X306631Y197494D01*
X306943Y197514D01*
X309160Y198108D01*
X309897Y195358D01*
X314666Y196636D01*
Y196636D01*
X314841Y196683D01*
X315149Y196765D01*
X319302Y197878D01*
X319785Y198008D01*
X319785D01*
X319785Y198008D01*
X324553Y199285D01*
X323817Y202035D01*
X330939Y203944D01*
X330939D01*
X331220Y204082D01*
X331427Y204318D01*
X331527Y204614D01*
X331507Y204927D01*
X330590Y208350D01*
X330451Y208630D01*
X330216Y208837D01*
X329919Y208938D01*
X329607Y208917D01*
X329607Y208917D01*
X322484Y207009D01*
X321742Y209777D01*
D02*
G37*
G36*
X362353Y211066D02*
X361612Y208298D01*
X359395Y208892D01*
X359395Y208892D01*
X359082Y208912D01*
X358785Y208811D01*
X358550Y208605D01*
X358411Y208324D01*
X357494Y204901D01*
X357494Y204901D01*
X357474Y204589D01*
X357574Y204292D01*
X357781Y204057D01*
X358062Y203918D01*
X360279Y203324D01*
X359542Y200574D01*
X364003Y199379D01*
X364311Y199296D01*
Y199296D01*
X364486Y199250D01*
X364486Y199250D01*
X369255Y197972D01*
Y197972D01*
X369738Y197842D01*
X374198Y196647D01*
X374935Y199397D01*
X382058Y197488D01*
X382058Y197488D01*
X382370Y197468D01*
X382667Y197569D01*
X382903Y197775D01*
X383041Y198056D01*
X383958Y201479D01*
X383958Y201479D01*
X383979Y201791D01*
X383878Y202088D01*
X383671Y202323D01*
X383390Y202462D01*
X376268Y204370D01*
X377010Y207139D01*
X372241Y208417D01*
Y208417D01*
X371758Y208546D01*
X367297Y209742D01*
Y209742D01*
X366814Y209871D01*
X362353Y211066D01*
D02*
G37*
G36*
X339232Y205684D02*
Y205684D01*
X334295D01*
Y202818D01*
X332000D01*
X331693Y202757D01*
X331432Y202583D01*
X331258Y202322D01*
X331197Y202015D01*
Y198472D01*
X331258Y198164D01*
X331432Y197904D01*
X331693Y197730D01*
X332000Y197669D01*
X334295D01*
Y194822D01*
X339232D01*
Y194822D01*
X339413D01*
Y194822D01*
X344350D01*
Y194822D01*
X344531D01*
Y194822D01*
X349468D01*
Y197669D01*
X356842D01*
X357150Y197730D01*
X357410Y197904D01*
X357584Y198164D01*
X357645Y198472D01*
Y202015D01*
X357584Y202322D01*
X357410Y202583D01*
X357150Y202757D01*
X356842Y202818D01*
X349468D01*
Y205684D01*
X344836D01*
X344531Y205684D01*
Y205684D01*
X344350D01*
X344350Y205684D01*
X344046Y205684D01*
X339413D01*
Y205684D01*
X339232D01*
D02*
G37*
G36*
X315380Y189757D02*
X314711D01*
X314094Y189501D01*
X313621Y189028D01*
X313365Y188410D01*
Y187741D01*
X313621Y187124D01*
X314094Y186651D01*
X314711Y186395D01*
X315380D01*
X315998Y186651D01*
X316471Y187124D01*
X316727Y187741D01*
Y188410D01*
X316471Y189028D01*
X315998Y189501D01*
X315380Y189757D01*
D02*
G37*
G36*
X308928Y194745D02*
X305385D01*
X305078Y194684D01*
X304817Y194510D01*
X304643Y194250D01*
X304582Y193942D01*
Y186568D01*
X301716D01*
Y181632D01*
X301716D01*
Y181450D01*
X301716D01*
Y176513D01*
X301716D01*
Y176332D01*
X301716D01*
Y171395D01*
X304582D01*
Y169100D01*
X304643Y168793D01*
X304817Y168532D01*
X305078Y168358D01*
X305385Y168297D01*
X308928D01*
X309236Y168358D01*
X309496Y168532D01*
X309670Y168793D01*
X309731Y169100D01*
Y171395D01*
X312578D01*
Y172935D01*
X315997D01*
X316075Y172748D01*
X316548Y172275D01*
X317166Y172019D01*
X317834D01*
X318452Y172275D01*
X318925Y172748D01*
X319003Y172935D01*
X321179D01*
Y171213D01*
X332021D01*
Y176150D01*
X332021D01*
Y176331D01*
X332021D01*
Y180950D01*
X332021Y181269D01*
X332021Y181769D01*
Y182494D01*
X332521Y182701D01*
X332648Y182575D01*
X333266Y182319D01*
X333934D01*
X334552Y182575D01*
X335025Y183048D01*
X335281Y183666D01*
Y184334D01*
X335025Y184952D01*
X334552Y185425D01*
X333934Y185681D01*
X333266D01*
X332648Y185425D01*
X332521Y185299D01*
X332021Y185506D01*
Y186387D01*
X321179D01*
Y181769D01*
X321179Y181450D01*
X321179Y180950D01*
Y179747D01*
X312578D01*
Y181450D01*
X312578D01*
Y181632D01*
X312578D01*
Y186568D01*
X309731D01*
Y193942D01*
X309670Y194250D01*
X309496Y194510D01*
X309236Y194684D01*
X308928Y194745D01*
D02*
G37*
G36*
X351834Y180281D02*
X351166D01*
X350548Y180025D01*
X350075Y179552D01*
X349819Y178934D01*
Y178266D01*
X350075Y177648D01*
X350548Y177175D01*
X351166Y176919D01*
X351834D01*
X352452Y177175D01*
X352925Y177648D01*
X353181Y178266D01*
Y178934D01*
X352925Y179552D01*
X352452Y180025D01*
X351834Y180281D01*
D02*
G37*
G36*
X383315Y194985D02*
X379772D01*
X379464Y194924D01*
X379204Y194750D01*
X379030Y194489D01*
X378969Y194182D01*
Y191887D01*
X376122D01*
Y186950D01*
X376122D01*
Y186768D01*
X376122D01*
Y181832D01*
X376122D01*
Y181650D01*
X376122D01*
Y176713D01*
X378969D01*
Y169339D01*
X379030Y169032D01*
X379204Y168772D01*
X379464Y168598D01*
X379772Y168536D01*
X383315D01*
X383622Y168598D01*
X383883Y168772D01*
X384057Y169032D01*
X384118Y169339D01*
Y176713D01*
X386984D01*
Y181650D01*
X386984D01*
Y181832D01*
X386984D01*
Y186768D01*
X386984D01*
Y186950D01*
X386984D01*
Y191887D01*
X384118D01*
Y194182D01*
X384057Y194489D01*
X383883Y194750D01*
X383622Y194924D01*
X383315Y194985D01*
D02*
G37*
G36*
X353384Y164798D02*
X351416D01*
X350837Y164682D01*
X350346Y164354D01*
X350018Y163863D01*
X349902Y163284D01*
Y161316D01*
X350018Y160737D01*
X350346Y160246D01*
X350837Y159918D01*
X351416Y159802D01*
X353384D01*
X353963Y159918D01*
X354454Y160246D01*
X354782Y160737D01*
X354898Y161316D01*
Y163284D01*
X354782Y163863D01*
X354454Y164354D01*
X353963Y164682D01*
X353384Y164798D01*
D02*
G37*
G36*
X361484Y157998D02*
X359516D01*
X358937Y157882D01*
X358446Y157554D01*
X358118Y157063D01*
X358002Y156484D01*
Y154516D01*
X358118Y153937D01*
X358446Y153446D01*
X358937Y153118D01*
X359516Y153002D01*
X361484D01*
X362063Y153118D01*
X362554Y153446D01*
X362882Y153937D01*
X362998Y154516D01*
Y156484D01*
X362882Y157063D01*
X362554Y157554D01*
X362063Y157882D01*
X361484Y157998D01*
D02*
G37*
G36*
X353184Y157898D02*
X351216D01*
X350637Y157782D01*
X350146Y157454D01*
X349818Y156963D01*
X349702Y156384D01*
Y154416D01*
X349818Y153837D01*
X350146Y153346D01*
X350637Y153018D01*
X351216Y152902D01*
X353184D01*
X353763Y153018D01*
X354254Y153346D01*
X354582Y153837D01*
X354698Y154416D01*
Y156384D01*
X354582Y156963D01*
X354254Y157454D01*
X353763Y157782D01*
X353184Y157898D01*
D02*
G37*
%LPD*%
D26*
X326600Y173682D02*
D03*
Y178800D02*
D03*
Y183918D02*
D03*
Y189036D02*
D03*
D27*
X317500Y173700D02*
X326582D01*
X310864D02*
X317500D01*
X326582D02*
X326600Y173682D01*
X310700Y173864D02*
X310864Y173700D01*
X326682Y184000D02*
X333600D01*
X326600Y183918D02*
X326682Y184000D01*
X326418Y178982D02*
X326600Y178800D01*
X310700Y178982D02*
X326418D01*
X326600Y178800D02*
X326700Y178700D01*
X310700Y178982D02*
X310882Y178800D01*
X310700Y184100D02*
X310882Y183918D01*
D28*
X352400Y162300D02*
D03*
X360500Y162200D02*
D03*
X352200Y155400D02*
D03*
D29*
X360500Y155500D02*
D03*
D30*
X378000Y174063D02*
D03*
Y179182D02*
D03*
X310700Y189219D02*
D03*
Y184100D02*
D03*
D31*
X385106Y189418D02*
D03*
X378000Y184300D02*
D03*
X385106D02*
D03*
Y179182D02*
D03*
Y174064D02*
D03*
X378000Y189418D02*
D03*
X303594Y173864D02*
D03*
X310700Y178982D02*
D03*
X303594D02*
D03*
Y184100D02*
D03*
Y189218D02*
D03*
X310700Y173864D02*
D03*
D32*
X377245Y197775D02*
D03*
X372300Y199100D02*
D03*
D33*
X364252Y208613D02*
D03*
X367356Y200425D02*
D03*
X369196Y207289D02*
D03*
X374139Y205964D02*
D03*
X379083Y204640D02*
D03*
X362413Y201749D02*
D03*
D34*
X352119Y196700D02*
D03*
X347000D02*
D03*
D35*
X336764Y203806D02*
D03*
X341882Y196700D02*
D03*
Y203806D02*
D03*
X347000D02*
D03*
X352118D02*
D03*
X336764Y196700D02*
D03*
D36*
X326628Y201785D02*
D03*
X321683Y200461D02*
D03*
D37*
X309956Y204675D02*
D03*
X316739Y199136D02*
D03*
X314900Y206000D02*
D03*
X319844Y207325D02*
D03*
X324787Y208649D02*
D03*
X311795Y197811D02*
D03*
D38*
X342500Y219000D02*
D03*
X331700Y144400D02*
D03*
D39*
X315046Y188076D02*
D03*
X341100Y211100D02*
D03*
X338900Y182800D02*
D03*
X324000Y161300D02*
D03*
X351500Y178600D02*
D03*
X317500Y173700D02*
D03*
X333600Y184000D02*
D03*
X335600Y150369D02*
D03*
X327700D02*
D03*
M02*
