G04*
G04 #@! TF.GenerationSoftware,Altium Limited,Altium Designer,23.3.1 (30)*
G04*
G04 Layer_Physical_Order=3*
G04 Layer_Color=16440176*
%FSLAX25Y25*%
%MOIN*%
G70*
G04*
G04 #@! TF.SameCoordinates,31E1B7B5-1CAE-4E1F-A508-08906AB7C5AB*
G04*
G04*
G04 #@! TF.FilePolarity,Positive*
G04*
G01*
G75*
%ADD35C,0.00500*%
G04:AMPARAMS|DCode=37|XSize=39.37mil|YSize=39.37mil|CornerRadius=9.84mil|HoleSize=0mil|Usage=FLASHONLY|Rotation=90.000|XOffset=0mil|YOffset=0mil|HoleType=Round|Shape=RoundedRectangle|*
%AMROUNDEDRECTD37*
21,1,0.03937,0.01968,0,0,90.0*
21,1,0.01968,0.03937,0,0,90.0*
1,1,0.01968,0.00984,0.00984*
1,1,0.01968,0.00984,-0.00984*
1,1,0.01968,-0.00984,-0.00984*
1,1,0.01968,-0.00984,0.00984*
%
%ADD37ROUNDEDRECTD37*%
%ADD39C,0.02362*%
G36*
X400277Y351541D02*
X402540Y348238D01*
X404513Y344755D01*
X406183Y341115D01*
X406859Y339231D01*
X406865Y339222D01*
X406867Y339211D01*
X407106Y338598D01*
X407530Y337353D01*
X407900Y336090D01*
X407924Y335990D01*
X407845Y335833D01*
X407523Y335526D01*
X405819D01*
X404485Y336860D01*
X404237Y337026D01*
X403945Y337084D01*
X399542D01*
X399542Y337084D01*
X399249Y337026D01*
X399001Y336860D01*
X399001Y336860D01*
X397668Y335526D01*
X392834D01*
X392735Y336026D01*
X392852Y336075D01*
X393325Y336548D01*
X393581Y337166D01*
Y337834D01*
X393325Y338452D01*
X392852Y338925D01*
X392234Y339181D01*
X391566D01*
X390948Y338925D01*
X390475Y338452D01*
X390219Y337834D01*
Y337166D01*
X390475Y336548D01*
X390948Y336075D01*
X391065Y336026D01*
X390966Y335526D01*
X388461D01*
X388321Y335666D01*
Y336221D01*
X388452Y336275D01*
X388925Y336748D01*
X389181Y337366D01*
Y338034D01*
X388925Y338652D01*
X388452Y339125D01*
X387834Y339381D01*
X387166D01*
X386548Y339125D01*
X386075Y338652D01*
X385819Y338034D01*
Y337366D01*
X386075Y336748D01*
X386548Y336275D01*
X386792Y336174D01*
Y334844D01*
X386800Y334804D01*
Y331952D01*
X386613Y331765D01*
X372371D01*
X372367Y331766D01*
X372260D01*
X372255Y331765D01*
X364403D01*
X364325Y331952D01*
X363852Y332425D01*
X363234Y332681D01*
X362566D01*
X361948Y332425D01*
X361475Y331952D01*
X361397Y331765D01*
X351236D01*
X351200Y331801D01*
Y337449D01*
X351163Y337637D01*
Y338807D01*
X351500Y338949D01*
X351663Y338984D01*
X351893Y338830D01*
X352200Y338769D01*
X377043D01*
X377350Y338830D01*
X377610Y339004D01*
X377784Y339264D01*
X377845Y339572D01*
Y343115D01*
X377784Y343422D01*
X377610Y343683D01*
X377350Y343857D01*
X377043Y343918D01*
X353253D01*
X353061Y344380D01*
X357917Y349235D01*
X360197D01*
X360275Y349048D01*
X360748Y348575D01*
X361366Y348319D01*
X362034D01*
X362652Y348575D01*
X363125Y349048D01*
X363381Y349666D01*
Y350334D01*
X363323Y350476D01*
X364213Y351366D01*
X387835D01*
X388016Y350931D01*
X388489Y350458D01*
X389106Y350202D01*
X389775D01*
X390393Y350458D01*
X390866Y350931D01*
X391122Y351549D01*
Y352217D01*
X390985Y352549D01*
X391306Y353049D01*
X394964Y353049D01*
X395171Y352549D01*
X394875Y352252D01*
X394619Y351634D01*
Y350966D01*
X394875Y350348D01*
X395348Y349875D01*
X395966Y349619D01*
X396634D01*
X397252Y349875D01*
X397725Y350348D01*
X397981Y350966D01*
Y351634D01*
X397725Y352252D01*
X397429Y352549D01*
X397636Y353049D01*
X399041Y353049D01*
X400277Y351541D01*
D02*
G37*
G36*
X351010Y344491D02*
X349857Y343339D01*
X349691Y343091D01*
X349633Y342798D01*
Y337487D01*
X349671Y337299D01*
Y331898D01*
X349537Y331765D01*
X338676D01*
X338665Y331776D01*
Y334887D01*
X339025Y335248D01*
X339281Y335866D01*
Y336534D01*
X339025Y337152D01*
X338552Y337625D01*
X337934Y337881D01*
X337266D01*
X336648Y337625D01*
X336175Y337152D01*
X335919Y336534D01*
Y335866D01*
X336175Y335248D01*
X336648Y334775D01*
X337135Y334573D01*
Y333996D01*
X336973Y333834D01*
X331348D01*
X330930Y334251D01*
Y335472D01*
X330930Y335472D01*
X330872Y335765D01*
X330707Y336013D01*
X330099Y336621D01*
X329851Y336786D01*
X329558Y336845D01*
X328013D01*
X326734Y338124D01*
X326754Y338223D01*
X326963Y338602D01*
X327143Y338614D01*
X350751Y344940D01*
X351010Y344491D01*
D02*
G37*
G36*
X404962Y334221D02*
X404962Y334221D01*
X405210Y334055D01*
X405502Y333997D01*
X405502Y333997D01*
X407358D01*
Y326942D01*
X407076Y326825D01*
X406603Y326352D01*
X406347Y325734D01*
Y325066D01*
X406603Y324448D01*
X407076Y323975D01*
X407693Y323719D01*
X408362D01*
X408702Y323860D01*
X409038Y323700D01*
X409198Y323539D01*
X409167Y322839D01*
X409173Y322803D01*
X409167Y322766D01*
X409199Y322082D01*
X408945Y321846D01*
X408706Y321754D01*
X408374Y321892D01*
X407705D01*
X407087Y321636D01*
X406614Y321163D01*
X406358Y320545D01*
Y319876D01*
X406614Y319258D01*
X407087Y318785D01*
X407705Y318529D01*
X408374D01*
X408641Y318640D01*
X409114Y318295D01*
X409007Y317017D01*
X408904Y316201D01*
X408905Y316183D01*
X408900Y316165D01*
X408867Y315760D01*
X408765Y314953D01*
X408629Y314152D01*
X408457Y313357D01*
X408354Y312964D01*
X408354Y312964D01*
X408353Y312963D01*
X408250Y312566D01*
X407945Y311804D01*
X407549Y311086D01*
X407066Y310422D01*
X406504Y309824D01*
X405872Y309300D01*
X405180Y308859D01*
X404439Y308508D01*
X404171Y308420D01*
X398251Y308420D01*
X387883D01*
X387842Y308412D01*
X387800Y308416D01*
X387356Y308370D01*
X387244Y308335D01*
X387129Y308312D01*
X386308Y307970D01*
X386180Y307884D01*
X386050Y307797D01*
X385421Y307168D01*
X385333Y307037D01*
X385247Y306909D01*
X384905Y306088D01*
X384882Y305973D01*
X384847Y305861D01*
X384801Y305417D01*
X384805Y305375D01*
X384797Y305335D01*
X384797Y303638D01*
X384297Y303589D01*
X384282Y303663D01*
X383954Y304154D01*
X383463Y304482D01*
X382884Y304598D01*
X380916D01*
X380337Y304482D01*
X379846Y304154D01*
X379518Y303663D01*
X379402Y303084D01*
Y301116D01*
X379518Y300537D01*
X379846Y300046D01*
X380337Y299718D01*
X380916Y299602D01*
X382884D01*
X383463Y299718D01*
X383954Y300046D01*
X384282Y300537D01*
X384297Y300611D01*
X384797Y300562D01*
Y295000D01*
X384811Y294931D01*
X384809Y294861D01*
X384860Y294572D01*
X384736Y294002D01*
X384403Y293524D01*
X383913Y293210D01*
X383697Y293171D01*
X360447D01*
X360402Y293162D01*
X360356Y293166D01*
X359893Y293113D01*
X359784Y293078D01*
X359673Y293055D01*
X358821Y292697D01*
X358693Y292611D01*
X358565Y292525D01*
X357943Y291904D01*
X357747Y291911D01*
X357433Y291983D01*
X357398Y292004D01*
X357225Y292422D01*
X356752Y292895D01*
X356134Y293150D01*
X355466D01*
X355278Y293073D01*
X352910Y295441D01*
X352662Y295606D01*
X352369Y295665D01*
X339717D01*
X334674Y300707D01*
Y308800D01*
Y315793D01*
X337278Y318397D01*
X337466Y318319D01*
X338134D01*
X338752Y318575D01*
X339225Y319048D01*
X339481Y319666D01*
Y320334D01*
X339225Y320952D01*
X338752Y321425D01*
X338665Y321461D01*
Y330235D01*
X361397D01*
X361475Y330048D01*
X361948Y329575D01*
X362566Y329319D01*
X363234D01*
X363852Y329575D01*
X364325Y330048D01*
X364403Y330235D01*
X370608D01*
X370935Y329908D01*
Y321203D01*
X370748Y321125D01*
X370275Y320652D01*
X370019Y320034D01*
Y319366D01*
X370275Y318748D01*
X370748Y318275D01*
X371366Y318019D01*
X372034D01*
X372652Y318275D01*
X373125Y318748D01*
X373381Y319366D01*
Y320034D01*
X373125Y320652D01*
X372652Y321125D01*
X372465Y321203D01*
Y330124D01*
X372576Y330235D01*
X387247D01*
X392621Y324862D01*
X392869Y324696D01*
X393162Y324638D01*
X393296D01*
X393375Y324448D01*
X393848Y323975D01*
X394466Y323719D01*
X395134D01*
X395752Y323975D01*
X396225Y324448D01*
X396481Y325066D01*
Y325734D01*
X396225Y326352D01*
X395752Y326825D01*
X395134Y327081D01*
X394466D01*
X393848Y326825D01*
X393375Y326352D01*
X393307Y326339D01*
X388329Y331317D01*
Y333932D01*
X388394Y333997D01*
X397984D01*
X398277Y334055D01*
X398525Y334221D01*
X398707Y334403D01*
X399169Y334211D01*
Y310439D01*
X399230Y310132D01*
X399404Y309872D01*
X399664Y309698D01*
X399972Y309636D01*
X403515D01*
X403822Y309698D01*
X404083Y309872D01*
X404257Y310132D01*
X404318Y310439D01*
Y334211D01*
X404780Y334403D01*
X404962Y334221D01*
D02*
G37*
%LPC*%
G36*
X368199Y350378D02*
X367530D01*
X366912Y350122D01*
X366440Y349649D01*
X366184Y349031D01*
Y348363D01*
X366440Y347745D01*
X366912Y347272D01*
X367530Y347016D01*
X368199D01*
X368817Y347272D01*
X369290Y347745D01*
X369546Y348363D01*
Y349031D01*
X369290Y349649D01*
X368817Y350122D01*
X368199Y350378D01*
D02*
G37*
G36*
X379282Y350012D02*
X378985Y349911D01*
X378750Y349705D01*
X378611Y349424D01*
X377694Y346001D01*
X377694Y346001D01*
X377674Y345689D01*
X377774Y345392D01*
X377981Y345157D01*
X378262Y345018D01*
X402258Y338588D01*
X402258Y338588D01*
X402570Y338568D01*
X402867Y338669D01*
X403103Y338875D01*
X403241Y339156D01*
X404158Y342579D01*
X404158Y342579D01*
X404179Y342891D01*
X404078Y343188D01*
X403871Y343423D01*
X403590Y343562D01*
X379595Y349992D01*
X379594Y349992D01*
X379282Y350012D01*
D02*
G37*
G36*
X367734Y335681D02*
X367066D01*
X366448Y335425D01*
X365975Y334952D01*
X365719Y334334D01*
Y333666D01*
X365975Y333048D01*
X366448Y332575D01*
X367066Y332319D01*
X367734D01*
X368352Y332575D01*
X368825Y333048D01*
X369081Y333666D01*
Y334334D01*
X368825Y334952D01*
X368352Y335425D01*
X367734Y335681D01*
D02*
G37*
G36*
X343634Y340281D02*
X342966D01*
X342348Y340025D01*
X341875Y339552D01*
X341619Y338934D01*
Y338266D01*
X341875Y337648D01*
X342348Y337175D01*
X342966Y336919D01*
X343634D01*
X344252Y337175D01*
X344725Y337648D01*
X344981Y338266D01*
Y338934D01*
X344725Y339552D01*
X344252Y340025D01*
X343634Y340281D01*
D02*
G37*
G36*
X354134Y326781D02*
X353466D01*
X352848Y326525D01*
X352375Y326052D01*
X352119Y325434D01*
Y324766D01*
X352375Y324148D01*
X352848Y323675D01*
X353466Y323419D01*
X354134D01*
X354752Y323675D01*
X355225Y324148D01*
X355481Y324766D01*
Y325434D01*
X355225Y326052D01*
X354752Y326525D01*
X354134Y326781D01*
D02*
G37*
G36*
X359434Y325581D02*
X358766D01*
X358148Y325325D01*
X357675Y324852D01*
X357419Y324234D01*
Y323566D01*
X357675Y322948D01*
X358148Y322475D01*
X358766Y322219D01*
X359434D01*
X360052Y322475D01*
X360525Y322948D01*
X360781Y323566D01*
Y324234D01*
X360525Y324852D01*
X360052Y325325D01*
X359434Y325581D01*
D02*
G37*
G36*
X394034Y321081D02*
X393366D01*
X392748Y320825D01*
X392275Y320352D01*
X392019Y319734D01*
Y319066D01*
X392275Y318448D01*
X392748Y317975D01*
X393366Y317719D01*
X394034D01*
X394652Y317975D01*
X395125Y318448D01*
X395381Y319066D01*
Y319734D01*
X395125Y320352D01*
X394652Y320825D01*
X394034Y321081D01*
D02*
G37*
G36*
X382884Y310498D02*
X380916D01*
X380337Y310382D01*
X379846Y310054D01*
X379518Y309563D01*
X379402Y308984D01*
Y307016D01*
X379518Y306437D01*
X379846Y305946D01*
X380337Y305618D01*
X380916Y305502D01*
X382884D01*
X383463Y305618D01*
X383954Y305946D01*
X384282Y306437D01*
X384398Y307016D01*
Y308984D01*
X384282Y309563D01*
X383954Y310054D01*
X383463Y310382D01*
X382884Y310498D01*
D02*
G37*
G36*
X372584D02*
X370616D01*
X370037Y310382D01*
X369546Y310054D01*
X369218Y309563D01*
X369102Y308984D01*
Y307016D01*
X369218Y306437D01*
X369546Y305946D01*
X370037Y305618D01*
X370616Y305502D01*
X372584D01*
X373163Y305618D01*
X373654Y305946D01*
X373982Y306437D01*
X374098Y307016D01*
Y308984D01*
X373982Y309563D01*
X373654Y310054D01*
X373163Y310382D01*
X372584Y310498D01*
D02*
G37*
G36*
X344534Y304081D02*
X343866D01*
X343248Y303825D01*
X342775Y303352D01*
X342519Y302734D01*
Y302066D01*
X342775Y301448D01*
X343248Y300975D01*
X343866Y300719D01*
X344534D01*
X345152Y300975D01*
X345625Y301448D01*
X345881Y302066D01*
Y302734D01*
X345625Y303352D01*
X345152Y303825D01*
X344534Y304081D01*
D02*
G37*
G36*
X372604Y304710D02*
X370635D01*
X370056Y304595D01*
X369565Y304267D01*
X369237Y303776D01*
X369122Y303197D01*
Y301228D01*
X369237Y300649D01*
X369565Y300158D01*
X370056Y299830D01*
X370635Y299715D01*
X372604D01*
X373183Y299830D01*
X373674Y300158D01*
X374002Y300649D01*
X374117Y301228D01*
Y303197D01*
X374002Y303776D01*
X373674Y304267D01*
X373183Y304595D01*
X372604Y304710D01*
D02*
G37*
G36*
X372604Y298856D02*
X370635D01*
X370056Y298741D01*
X369565Y298413D01*
X369237Y297922D01*
X369122Y297343D01*
Y295374D01*
X369237Y294795D01*
X369565Y294304D01*
X370056Y293976D01*
X370635Y293861D01*
X372604D01*
X373183Y293976D01*
X373674Y294304D01*
X374002Y294795D01*
X374117Y295374D01*
Y297343D01*
X374002Y297922D01*
X373674Y298413D01*
X373183Y298741D01*
X372604Y298856D01*
D02*
G37*
%LPD*%
D35*
X323794Y341271D02*
Y341271D01*
X377100Y345696D02*
Y349400D01*
Y345696D02*
X380896Y341900D01*
X363896Y352131D02*
X389193D01*
X357600Y350000D02*
X361765D01*
X363896Y352131D01*
X389193D02*
X389441Y351883D01*
X350398Y342798D02*
X357600Y350000D01*
X333338Y308723D02*
Y308800D01*
Y308723D02*
X333872Y308190D01*
X333338Y308800D02*
X333910D01*
X323700D02*
X333338D01*
X333888Y309350D01*
Y309354D01*
X387556Y335349D02*
Y337644D01*
Y334844D02*
Y335349D01*
X388043Y334862D01*
X387556Y335349D02*
Y335439D01*
X387564Y334324D02*
Y334836D01*
Y331000D02*
Y334324D01*
X387640D01*
X388043Y334728D01*
X386967Y331000D02*
X387564D01*
X372259D02*
X386967D01*
Y331037D02*
X387524Y331595D01*
X386967Y331000D02*
Y331037D01*
X337900Y331459D02*
Y333069D01*
X338314Y331000D02*
X338317Y331004D01*
X337900Y330586D02*
X338314Y331000D01*
X350435D01*
X337900D02*
X338314D01*
X337900Y330586D02*
Y331000D01*
Y320100D02*
Y330586D01*
Y331000D02*
Y331459D01*
X338298Y331061D01*
X337290Y333069D02*
X337805Y333584D01*
X337236Y333015D02*
X337290Y333069D01*
X337900D01*
X337217D02*
X337290D01*
X337217Y333015D02*
X337236D01*
X331031Y333069D02*
X337217D01*
Y333015D02*
Y333069D01*
Y333015D02*
X337786Y332446D01*
X350435Y331581D02*
Y337449D01*
Y331000D02*
Y331484D01*
Y331581D01*
Y331484D02*
X350878Y331042D01*
X349934Y331080D02*
X350435Y331581D01*
X371700Y330441D02*
Y330900D01*
Y319700D02*
Y330441D01*
X372259Y331000D02*
X372260Y331001D01*
X371700Y330441D02*
X372259Y331000D01*
X371600D02*
X372259D01*
X372260Y331001D02*
X372367D01*
X370924Y331000D02*
X371600D01*
X362900D02*
X370924D01*
X371570Y330354D02*
X371688D01*
X370924Y331000D02*
X371570Y330354D01*
X382400Y337500D02*
X382500Y337400D01*
X382400Y337500D02*
Y341200D01*
X387500Y337700D02*
X387556Y337644D01*
X333910Y316109D02*
X337800Y320000D01*
X321649Y310851D02*
Y314633D01*
X321041Y315241D02*
Y319527D01*
Y315241D02*
X321649Y314633D01*
X387564Y334836D02*
X387638Y334762D01*
X387556Y334844D02*
X387564Y334836D01*
X323794Y341271D02*
X323794Y341385D01*
X323794Y341271D02*
X323794Y341064D01*
X337800Y320000D02*
X337900Y320100D01*
X333910Y300391D02*
Y308800D01*
Y300391D02*
X339400Y294900D01*
X333910Y308800D02*
Y316109D01*
X352369Y294900D02*
X355800Y291469D01*
X339400Y294900D02*
X352369D01*
X337600Y336200D02*
X337900Y335900D01*
Y333069D02*
Y335900D01*
X381700Y341900D02*
X382400Y341200D01*
X380896Y341900D02*
X381700D01*
X394798Y325402D02*
X394800Y325400D01*
X387564Y331000D02*
X393162Y325402D01*
X394798D01*
X350435Y331000D02*
X362900D01*
X408028Y325400D02*
X408123Y325495D01*
Y334073D01*
X327496Y348266D02*
X328646Y349869D01*
X329168Y350400D02*
X333800D01*
X328646Y349869D02*
X328699Y349931D01*
X329168Y350400D01*
X321649Y310851D02*
X323700Y308800D01*
X323794Y341385D02*
X325439Y344802D01*
X387638Y334762D02*
X397984D01*
X329558Y336080D02*
X330166Y335472D01*
X327697Y336080D02*
X329558D01*
X330166Y333934D02*
Y335472D01*
Y333934D02*
X331031Y333069D01*
X323794Y339983D02*
X327697Y336080D01*
X397984Y334762D02*
X399542Y336319D01*
X323794Y339983D02*
Y341064D01*
X325439Y344802D02*
X327496Y348266D01*
X399542Y336319D02*
X403945D01*
X350398Y337487D02*
Y342798D01*
X405502Y334762D02*
X407692D01*
X407985Y334469D01*
X408065Y334360D01*
X408123Y334073D01*
X403945Y336319D02*
X405502Y334762D01*
X371600Y331000D02*
X371700Y330900D01*
X350435Y331000D02*
X350435Y331000D01*
X350398Y337487D02*
X350435Y337449D01*
D37*
X382100Y296400D02*
D03*
D39*
X338500Y314800D02*
D03*
X377100Y349400D02*
D03*
X382500Y337400D02*
D03*
X333179Y335858D02*
D03*
X362900Y331000D02*
D03*
X387500Y337700D02*
D03*
X337800Y320000D02*
D03*
X386300Y311800D02*
D03*
X337600Y336200D02*
D03*
X408028Y325400D02*
D03*
X389441Y351883D02*
D03*
X361700Y350000D02*
D03*
X333800Y350400D02*
D03*
X321041Y319527D02*
D03*
X394800Y325400D02*
D03*
X394350Y331750D02*
D03*
X356964Y333000D02*
D03*
X371700Y319700D02*
D03*
X355800Y291469D02*
D03*
M02*
