G04*
G04 #@! TF.GenerationSoftware,Altium Limited,Altium Designer,23.0.1 (38)*
G04*
G04 Layer_Color=8388736*
%FSLAX25Y25*%
%MOIN*%
G70*
G04*
G04 #@! TF.SameCoordinates,C8DA3EBC-D80D-4B36-BEA7-CCC05AEA56C0*
G04*
G04*
G04 #@! TF.FilePolarity,Negative*
G04*
G01*
G75*
%ADD12R,0.10433X0.04528*%
%ADD13R,0.03347X0.04528*%
%ADD14R,0.03347X0.04528*%
G04:AMPARAMS|DCode=15|XSize=33.47mil|YSize=45.28mil|CornerRadius=0mil|HoleSize=0mil|Usage=FLASHONLY|Rotation=255.000|XOffset=0mil|YOffset=0mil|HoleType=Round|Shape=Rectangle|*
%AMROTATEDRECTD15*
4,1,4,-0.01754,0.02202,0.02620,0.01030,0.01754,-0.02202,-0.02620,-0.01030,-0.01754,0.02202,0.0*
%
%ADD15ROTATEDRECTD15*%

G04:AMPARAMS|DCode=16|XSize=33.47mil|YSize=45.28mil|CornerRadius=0mil|HoleSize=0mil|Usage=FLASHONLY|Rotation=255.000|XOffset=0mil|YOffset=0mil|HoleType=Round|Shape=Rectangle|*
%AMROTATEDRECTD16*
4,1,4,-0.01754,0.02202,0.02620,0.01030,0.01754,-0.02202,-0.02620,-0.01030,-0.01754,0.02202,0.0*
%
%ADD16ROTATEDRECTD16*%

%ADD17R,0.04528X0.03347*%
%ADD18R,0.04528X0.03347*%
G04:AMPARAMS|DCode=19|XSize=33.47mil|YSize=45.28mil|CornerRadius=0mil|HoleSize=0mil|Usage=FLASHONLY|Rotation=285.000|XOffset=0mil|YOffset=0mil|HoleType=Round|Shape=Rectangle|*
%AMROTATEDRECTD19*
4,1,4,-0.02620,0.01030,0.01754,0.02202,0.02620,-0.01030,-0.01754,-0.02202,-0.02620,0.01030,0.0*
%
%ADD19ROTATEDRECTD19*%

G04:AMPARAMS|DCode=20|XSize=33.47mil|YSize=45.28mil|CornerRadius=0mil|HoleSize=0mil|Usage=FLASHONLY|Rotation=285.000|XOffset=0mil|YOffset=0mil|HoleType=Round|Shape=Rectangle|*
%AMROTATEDRECTD20*
4,1,4,-0.02620,0.01030,0.01754,0.02202,0.02620,-0.01030,-0.01754,-0.02202,-0.02620,0.01030,0.0*
%
%ADD20ROTATEDRECTD20*%

%ADD21C,0.10191*%
D12*
X326600Y173682D02*
D03*
Y178800D02*
D03*
Y183918D02*
D03*
Y189036D02*
D03*
D13*
X378000Y174063D02*
D03*
Y179182D02*
D03*
X310700Y189219D02*
D03*
Y184100D02*
D03*
D14*
X385106Y189418D02*
D03*
X378000Y184300D02*
D03*
X385106D02*
D03*
Y179182D02*
D03*
Y174064D02*
D03*
X378000Y189418D02*
D03*
X303594Y173864D02*
D03*
X310700Y178982D02*
D03*
X303594D02*
D03*
Y184100D02*
D03*
Y189218D02*
D03*
X310700Y173864D02*
D03*
D15*
X377245Y197775D02*
D03*
X372300Y199100D02*
D03*
D16*
X364252Y208613D02*
D03*
X367356Y200425D02*
D03*
X369196Y207289D02*
D03*
X374139Y205964D02*
D03*
X379083Y204640D02*
D03*
X362413Y201749D02*
D03*
D17*
X352119Y196700D02*
D03*
X347000D02*
D03*
D18*
X336764Y203806D02*
D03*
X341882Y196700D02*
D03*
Y203806D02*
D03*
X347000D02*
D03*
X352118D02*
D03*
X336764Y196700D02*
D03*
D19*
X326628Y201785D02*
D03*
X321683Y200461D02*
D03*
D20*
X309956Y204675D02*
D03*
X316739Y199136D02*
D03*
X314900Y206000D02*
D03*
X319844Y207325D02*
D03*
X324787Y208649D02*
D03*
X311795Y197811D02*
D03*
D21*
X342500Y219000D02*
D03*
X331700Y144400D02*
D03*
M02*
