M48
;Layer_Color=9474304
;FILE_FORMAT=2:4
INCH,TZ
;TYPE=PLATED
T1F00S00C0.0118
T2F00S00C0.0240
T3F00S00C0.0866
%
T01
X34770Y29140
X35580Y29147
X34420Y30240
X38630Y31180
X39370Y31940
X39480Y32540
X39435Y33175
X39190Y33750
X38750Y33770
X38250Y33740
X37710Y34940
X36786Y34870
X36170Y35000
X36290Y33100
X36740Y33400
X35696Y33300
X35380Y32510
X35910Y32390
X37170Y31970
X33780Y32000
X33850Y31480
X33440Y32510
X33318Y33586
X33760Y33620
X34330Y33860
X33790Y35170
X33380Y35040
X32102Y32620
X32104Y31953
X40804Y32021
X40803Y32540
X39630Y35130
X38944Y35188
T02
X37162Y29636
X37162Y30221
X37160Y30800
X38190
Y30210
X38210Y29640
T03
X35190Y28550
X36270Y36010
M30
