<?xml version="1.0" encoding="utf-8" standalone="no"?>
<!DOCTYPE svg PUBLIC "-//W3C//DTD SVG 1.1//EN"
  "http://www.w3.org/Graphics/SVG/1.1/DTD/svg11.dtd">
<svg xmlns:xlink="http://www.w3.org/1999/xlink" width="720pt" height="360pt" viewBox="0 0 720 360" xmlns="http://www.w3.org/2000/svg" version="1.1">
 <metadata>
  <rdf:RDF xmlns:dc="http://purl.org/dc/elements/1.1/" xmlns:cc="http://creativecommons.org/ns#" xmlns:rdf="http://www.w3.org/1999/02/22-rdf-syntax-ns#">
   <cc:Work>
    <dc:type rdf:resource="http://purl.org/dc/dcmitype/StillImage"/>
    <dc:date>2023-04-17T01:41:10.271763</dc:date>
    <dc:format>image/svg+xml</dc:format>
    <dc:creator>
     <cc:Agent>
      <dc:title>Matplotlib v3.6.3, https://matplotlib.org/</dc:title>
     </cc:Agent>
    </dc:creator>
   </cc:Work>
  </rdf:RDF>
 </metadata>
 <defs>
  <style type="text/css">*{stroke-linejoin: round; stroke-linecap: butt}</style>
 </defs>
 <g id="figure_1">
  <g id="patch_1">
   <path d="M 0 360 
L 720 360 
L 720 0 
L 0 0 
z
" style="fill: #ffffff"/>
  </g>
  <g id="axes_1">
   <g id="patch_2">
    <path d="M 38.265 152.6 
L 716 152.6 
L 716 18.64 
L 38.265 18.64 
z
" style="fill: #ffffff"/>
   </g>
   <g id="matplotlib.axis_1">
    <g id="xtick_1">
     <g id="line2d_1">
      <defs>
       <path id="m6df070f8c3" d="M 0 0 
L 0 3.5 
" style="stroke: #262626; stroke-width: 0.8"/>
      </defs>
      <g>
       <use xlink:href="#m6df070f8c3" x="69.071136" y="152.6" style="fill: #262626; stroke: #262626; stroke-width: 0.8"/>
      </g>
     </g>
     <g id="text_1">
      <!-- 0 -->
      <g style="fill: #262626" transform="translate(66.290668 166.757812) scale(0.1 -0.1)">
       <defs>
        <path id="ArialMT-30" d="M 266 2259 
Q 266 3072 433 3567 
Q 600 4063 929 4331 
Q 1259 4600 1759 4600 
Q 2128 4600 2406 4451 
Q 2684 4303 2865 4023 
Q 3047 3744 3150 3342 
Q 3253 2941 3253 2259 
Q 3253 1453 3087 958 
Q 2922 463 2592 192 
Q 2263 -78 1759 -78 
Q 1097 -78 719 397 
Q 266 969 266 2259 
z
M 844 2259 
Q 844 1131 1108 757 
Q 1372 384 1759 384 
Q 2147 384 2411 759 
Q 2675 1134 2675 2259 
Q 2675 3391 2411 3762 
Q 2147 4134 1753 4134 
Q 1366 4134 1134 3806 
Q 844 3388 844 2259 
z
" transform="scale(0.015625)"/>
       </defs>
       <use xlink:href="#ArialMT-30"/>
      </g>
     </g>
    </g>
    <g id="xtick_2">
     <g id="line2d_2">
      <g>
       <use xlink:href="#m6df070f8c3" x="174.1219" y="152.6" style="fill: #262626; stroke: #262626; stroke-width: 0.8"/>
      </g>
     </g>
     <g id="text_2">
      <!-- 200 -->
      <g style="fill: #262626" transform="translate(165.780494 166.757812) scale(0.1 -0.1)">
       <defs>
        <path id="ArialMT-32" d="M 3222 541 
L 3222 0 
L 194 0 
Q 188 203 259 391 
Q 375 700 629 1000 
Q 884 1300 1366 1694 
Q 2113 2306 2375 2664 
Q 2638 3022 2638 3341 
Q 2638 3675 2398 3904 
Q 2159 4134 1775 4134 
Q 1369 4134 1125 3890 
Q 881 3647 878 3216 
L 300 3275 
Q 359 3922 746 4261 
Q 1134 4600 1788 4600 
Q 2447 4600 2831 4234 
Q 3216 3869 3216 3328 
Q 3216 3053 3103 2787 
Q 2991 2522 2730 2228 
Q 2469 1934 1863 1422 
Q 1356 997 1212 845 
Q 1069 694 975 541 
L 3222 541 
z
" transform="scale(0.015625)"/>
       </defs>
       <use xlink:href="#ArialMT-32"/>
       <use xlink:href="#ArialMT-30" x="55.615234"/>
       <use xlink:href="#ArialMT-30" x="111.230469"/>
      </g>
     </g>
    </g>
    <g id="xtick_3">
     <g id="line2d_3">
      <g>
       <use xlink:href="#m6df070f8c3" x="279.172663" y="152.6" style="fill: #262626; stroke: #262626; stroke-width: 0.8"/>
      </g>
     </g>
     <g id="text_3">
      <!-- 400 -->
      <g style="fill: #262626" transform="translate(270.831257 166.757812) scale(0.1 -0.1)">
       <defs>
        <path id="ArialMT-34" d="M 2069 0 
L 2069 1097 
L 81 1097 
L 81 1613 
L 2172 4581 
L 2631 4581 
L 2631 1613 
L 3250 1613 
L 3250 1097 
L 2631 1097 
L 2631 0 
L 2069 0 
z
M 2069 1613 
L 2069 3678 
L 634 1613 
L 2069 1613 
z
" transform="scale(0.015625)"/>
       </defs>
       <use xlink:href="#ArialMT-34"/>
       <use xlink:href="#ArialMT-30" x="55.615234"/>
       <use xlink:href="#ArialMT-30" x="111.230469"/>
      </g>
     </g>
    </g>
    <g id="xtick_4">
     <g id="line2d_4">
      <g>
       <use xlink:href="#m6df070f8c3" x="384.223427" y="152.6" style="fill: #262626; stroke: #262626; stroke-width: 0.8"/>
      </g>
     </g>
     <g id="text_4">
      <!-- 600 -->
      <g style="fill: #262626" transform="translate(375.88202 166.757812) scale(0.1 -0.1)">
       <defs>
        <path id="ArialMT-36" d="M 3184 3459 
L 2625 3416 
Q 2550 3747 2413 3897 
Q 2184 4138 1850 4138 
Q 1581 4138 1378 3988 
Q 1113 3794 959 3422 
Q 806 3050 800 2363 
Q 1003 2672 1297 2822 
Q 1591 2972 1913 2972 
Q 2475 2972 2870 2558 
Q 3266 2144 3266 1488 
Q 3266 1056 3080 686 
Q 2894 316 2569 119 
Q 2244 -78 1831 -78 
Q 1128 -78 684 439 
Q 241 956 241 2144 
Q 241 3472 731 4075 
Q 1159 4600 1884 4600 
Q 2425 4600 2770 4297 
Q 3116 3994 3184 3459 
z
M 888 1484 
Q 888 1194 1011 928 
Q 1134 663 1356 523 
Q 1578 384 1822 384 
Q 2178 384 2434 671 
Q 2691 959 2691 1453 
Q 2691 1928 2437 2201 
Q 2184 2475 1800 2475 
Q 1419 2475 1153 2201 
Q 888 1928 888 1484 
z
" transform="scale(0.015625)"/>
       </defs>
       <use xlink:href="#ArialMT-36"/>
       <use xlink:href="#ArialMT-30" x="55.615234"/>
       <use xlink:href="#ArialMT-30" x="111.230469"/>
      </g>
     </g>
    </g>
    <g id="xtick_5">
     <g id="line2d_5">
      <g>
       <use xlink:href="#m6df070f8c3" x="489.27419" y="152.6" style="fill: #262626; stroke: #262626; stroke-width: 0.8"/>
      </g>
     </g>
     <g id="text_5">
      <!-- 800 -->
      <g style="fill: #262626" transform="translate(480.932784 166.757812) scale(0.1 -0.1)">
       <defs>
        <path id="ArialMT-38" d="M 1131 2484 
Q 781 2613 612 2850 
Q 444 3088 444 3419 
Q 444 3919 803 4259 
Q 1163 4600 1759 4600 
Q 2359 4600 2725 4251 
Q 3091 3903 3091 3403 
Q 3091 3084 2923 2848 
Q 2756 2613 2416 2484 
Q 2838 2347 3058 2040 
Q 3278 1734 3278 1309 
Q 3278 722 2862 322 
Q 2447 -78 1769 -78 
Q 1091 -78 675 323 
Q 259 725 259 1325 
Q 259 1772 486 2073 
Q 713 2375 1131 2484 
z
M 1019 3438 
Q 1019 3113 1228 2906 
Q 1438 2700 1772 2700 
Q 2097 2700 2305 2904 
Q 2513 3109 2513 3406 
Q 2513 3716 2298 3927 
Q 2084 4138 1766 4138 
Q 1444 4138 1231 3931 
Q 1019 3725 1019 3438 
z
M 838 1322 
Q 838 1081 952 856 
Q 1066 631 1291 507 
Q 1516 384 1775 384 
Q 2178 384 2440 643 
Q 2703 903 2703 1303 
Q 2703 1709 2433 1975 
Q 2163 2241 1756 2241 
Q 1359 2241 1098 1978 
Q 838 1716 838 1322 
z
" transform="scale(0.015625)"/>
       </defs>
       <use xlink:href="#ArialMT-38"/>
       <use xlink:href="#ArialMT-30" x="55.615234"/>
       <use xlink:href="#ArialMT-30" x="111.230469"/>
      </g>
     </g>
    </g>
    <g id="xtick_6">
     <g id="line2d_6">
      <g>
       <use xlink:href="#m6df070f8c3" x="594.324953" y="152.6" style="fill: #262626; stroke: #262626; stroke-width: 0.8"/>
      </g>
     </g>
     <g id="text_6">
      <!-- 1000 -->
      <g style="fill: #262626" transform="translate(583.203078 166.757812) scale(0.1 -0.1)">
       <defs>
        <path id="ArialMT-31" d="M 2384 0 
L 1822 0 
L 1822 3584 
Q 1619 3391 1289 3197 
Q 959 3003 697 2906 
L 697 3450 
Q 1169 3672 1522 3987 
Q 1875 4303 2022 4600 
L 2384 4600 
L 2384 0 
z
" transform="scale(0.015625)"/>
       </defs>
       <use xlink:href="#ArialMT-31"/>
       <use xlink:href="#ArialMT-30" x="55.615234"/>
       <use xlink:href="#ArialMT-30" x="111.230469"/>
       <use xlink:href="#ArialMT-30" x="166.845703"/>
      </g>
     </g>
    </g>
    <g id="xtick_7">
     <g id="line2d_7">
      <g>
       <use xlink:href="#m6df070f8c3" x="699.375717" y="152.6" style="fill: #262626; stroke: #262626; stroke-width: 0.8"/>
      </g>
     </g>
     <g id="text_7">
      <!-- 1200 -->
      <g style="fill: #262626" transform="translate(688.253842 166.757812) scale(0.1 -0.1)">
       <use xlink:href="#ArialMT-31"/>
       <use xlink:href="#ArialMT-32" x="55.615234"/>
       <use xlink:href="#ArialMT-30" x="111.230469"/>
       <use xlink:href="#ArialMT-30" x="166.845703"/>
      </g>
     </g>
    </g>
    <g id="text_8">
     <!-- Samples -->
     <g style="fill: #262626" transform="translate(357.680156 180.025) scale(0.1 -0.1)">
      <defs>
       <path id="ArialMT-53" d="M 288 1472 
L 859 1522 
Q 900 1178 1048 958 
Q 1197 738 1509 602 
Q 1822 466 2213 466 
Q 2559 466 2825 569 
Q 3091 672 3220 851 
Q 3350 1031 3350 1244 
Q 3350 1459 3225 1620 
Q 3100 1781 2813 1891 
Q 2628 1963 1997 2114 
Q 1366 2266 1113 2400 
Q 784 2572 623 2826 
Q 463 3081 463 3397 
Q 463 3744 659 4045 
Q 856 4347 1234 4503 
Q 1613 4659 2075 4659 
Q 2584 4659 2973 4495 
Q 3363 4331 3572 4012 
Q 3781 3694 3797 3291 
L 3216 3247 
Q 3169 3681 2898 3903 
Q 2628 4125 2100 4125 
Q 1550 4125 1298 3923 
Q 1047 3722 1047 3438 
Q 1047 3191 1225 3031 
Q 1400 2872 2139 2705 
Q 2878 2538 3153 2413 
Q 3553 2228 3743 1945 
Q 3934 1663 3934 1294 
Q 3934 928 3725 604 
Q 3516 281 3123 101 
Q 2731 -78 2241 -78 
Q 1619 -78 1198 103 
Q 778 284 539 648 
Q 300 1013 288 1472 
z
" transform="scale(0.015625)"/>
       <path id="ArialMT-61" d="M 2588 409 
Q 2275 144 1986 34 
Q 1697 -75 1366 -75 
Q 819 -75 525 192 
Q 231 459 231 875 
Q 231 1119 342 1320 
Q 453 1522 633 1644 
Q 813 1766 1038 1828 
Q 1203 1872 1538 1913 
Q 2219 1994 2541 2106 
Q 2544 2222 2544 2253 
Q 2544 2597 2384 2738 
Q 2169 2928 1744 2928 
Q 1347 2928 1158 2789 
Q 969 2650 878 2297 
L 328 2372 
Q 403 2725 575 2942 
Q 747 3159 1072 3276 
Q 1397 3394 1825 3394 
Q 2250 3394 2515 3294 
Q 2781 3194 2906 3042 
Q 3031 2891 3081 2659 
Q 3109 2516 3109 2141 
L 3109 1391 
Q 3109 606 3145 398 
Q 3181 191 3288 0 
L 2700 0 
Q 2613 175 2588 409 
z
M 2541 1666 
Q 2234 1541 1622 1453 
Q 1275 1403 1131 1340 
Q 988 1278 909 1158 
Q 831 1038 831 891 
Q 831 666 1001 516 
Q 1172 366 1500 366 
Q 1825 366 2078 508 
Q 2331 650 2450 897 
Q 2541 1088 2541 1459 
L 2541 1666 
z
" transform="scale(0.015625)"/>
       <path id="ArialMT-6d" d="M 422 0 
L 422 3319 
L 925 3319 
L 925 2853 
Q 1081 3097 1340 3245 
Q 1600 3394 1931 3394 
Q 2300 3394 2536 3241 
Q 2772 3088 2869 2813 
Q 3263 3394 3894 3394 
Q 4388 3394 4653 3120 
Q 4919 2847 4919 2278 
L 4919 0 
L 4359 0 
L 4359 2091 
Q 4359 2428 4304 2576 
Q 4250 2725 4106 2815 
Q 3963 2906 3769 2906 
Q 3419 2906 3187 2673 
Q 2956 2441 2956 1928 
L 2956 0 
L 2394 0 
L 2394 2156 
Q 2394 2531 2256 2718 
Q 2119 2906 1806 2906 
Q 1569 2906 1367 2781 
Q 1166 2656 1075 2415 
Q 984 2175 984 1722 
L 984 0 
L 422 0 
z
" transform="scale(0.015625)"/>
       <path id="ArialMT-70" d="M 422 -1272 
L 422 3319 
L 934 3319 
L 934 2888 
Q 1116 3141 1344 3267 
Q 1572 3394 1897 3394 
Q 2322 3394 2647 3175 
Q 2972 2956 3137 2557 
Q 3303 2159 3303 1684 
Q 3303 1175 3120 767 
Q 2938 359 2589 142 
Q 2241 -75 1856 -75 
Q 1575 -75 1351 44 
Q 1128 163 984 344 
L 984 -1272 
L 422 -1272 
z
M 931 1641 
Q 931 1000 1190 694 
Q 1450 388 1819 388 
Q 2194 388 2461 705 
Q 2728 1022 2728 1688 
Q 2728 2322 2467 2637 
Q 2206 2953 1844 2953 
Q 1484 2953 1207 2617 
Q 931 2281 931 1641 
z
" transform="scale(0.015625)"/>
       <path id="ArialMT-6c" d="M 409 0 
L 409 4581 
L 972 4581 
L 972 0 
L 409 0 
z
" transform="scale(0.015625)"/>
       <path id="ArialMT-65" d="M 2694 1069 
L 3275 997 
Q 3138 488 2766 206 
Q 2394 -75 1816 -75 
Q 1088 -75 661 373 
Q 234 822 234 1631 
Q 234 2469 665 2931 
Q 1097 3394 1784 3394 
Q 2450 3394 2872 2941 
Q 3294 2488 3294 1666 
Q 3294 1616 3291 1516 
L 816 1516 
Q 847 969 1125 678 
Q 1403 388 1819 388 
Q 2128 388 2347 550 
Q 2566 713 2694 1069 
z
M 847 1978 
L 2700 1978 
Q 2663 2397 2488 2606 
Q 2219 2931 1791 2931 
Q 1403 2931 1139 2672 
Q 875 2413 847 1978 
z
" transform="scale(0.015625)"/>
       <path id="ArialMT-73" d="M 197 991 
L 753 1078 
Q 800 744 1014 566 
Q 1228 388 1613 388 
Q 2000 388 2187 545 
Q 2375 703 2375 916 
Q 2375 1106 2209 1216 
Q 2094 1291 1634 1406 
Q 1016 1563 777 1677 
Q 538 1791 414 1992 
Q 291 2194 291 2438 
Q 291 2659 392 2848 
Q 494 3038 669 3163 
Q 800 3259 1026 3326 
Q 1253 3394 1513 3394 
Q 1903 3394 2198 3281 
Q 2494 3169 2634 2976 
Q 2775 2784 2828 2463 
L 2278 2388 
Q 2241 2644 2061 2787 
Q 1881 2931 1553 2931 
Q 1166 2931 1000 2803 
Q 834 2675 834 2503 
Q 834 2394 903 2306 
Q 972 2216 1119 2156 
Q 1203 2125 1616 2013 
Q 2213 1853 2448 1751 
Q 2684 1650 2818 1456 
Q 2953 1263 2953 975 
Q 2953 694 2789 445 
Q 2625 197 2315 61 
Q 2006 -75 1616 -75 
Q 969 -75 630 194 
Q 291 463 197 991 
z
" transform="scale(0.015625)"/>
      </defs>
      <use xlink:href="#ArialMT-53"/>
      <use xlink:href="#ArialMT-61" x="66.699219"/>
      <use xlink:href="#ArialMT-6d" x="122.314453"/>
      <use xlink:href="#ArialMT-70" x="205.615234"/>
      <use xlink:href="#ArialMT-6c" x="261.230469"/>
      <use xlink:href="#ArialMT-65" x="283.447266"/>
      <use xlink:href="#ArialMT-73" x="339.0625"/>
     </g>
    </g>
   </g>
   <g id="matplotlib.axis_2">
    <g id="ytick_1">
     <g id="line2d_8">
      <defs>
       <path id="m846e29303d" d="M 0 0 
L -3.5 0 
" style="stroke: #262626; stroke-width: 0.8"/>
      </defs>
      <g>
       <use xlink:href="#m846e29303d" x="38.265" y="150.439355" style="fill: #262626; stroke: #262626; stroke-width: 0.8"/>
      </g>
     </g>
     <g id="text_9">
      <!-- 9.2 -->
      <g style="fill: #262626" transform="translate(17.365 154.018261) scale(0.1 -0.1)">
       <defs>
        <path id="ArialMT-39" d="M 350 1059 
L 891 1109 
Q 959 728 1153 556 
Q 1347 384 1650 384 
Q 1909 384 2104 503 
Q 2300 622 2425 820 
Q 2550 1019 2634 1356 
Q 2719 1694 2719 2044 
Q 2719 2081 2716 2156 
Q 2547 1888 2255 1720 
Q 1963 1553 1622 1553 
Q 1053 1553 659 1965 
Q 266 2378 266 3053 
Q 266 3750 677 4175 
Q 1088 4600 1706 4600 
Q 2153 4600 2523 4359 
Q 2894 4119 3086 3673 
Q 3278 3228 3278 2384 
Q 3278 1506 3087 986 
Q 2897 466 2520 194 
Q 2144 -78 1638 -78 
Q 1100 -78 759 220 
Q 419 519 350 1059 
z
M 2653 3081 
Q 2653 3566 2395 3850 
Q 2138 4134 1775 4134 
Q 1400 4134 1122 3828 
Q 844 3522 844 3034 
Q 844 2597 1108 2323 
Q 1372 2050 1759 2050 
Q 2150 2050 2401 2323 
Q 2653 2597 2653 3081 
z
" transform="scale(0.015625)"/>
        <path id="ArialMT-2e" d="M 581 0 
L 581 641 
L 1222 641 
L 1222 0 
L 581 0 
z
" transform="scale(0.015625)"/>
       </defs>
       <use xlink:href="#ArialMT-39"/>
       <use xlink:href="#ArialMT-2e" x="55.615234"/>
       <use xlink:href="#ArialMT-32" x="83.398438"/>
      </g>
     </g>
    </g>
    <g id="ytick_2">
     <g id="line2d_9">
      <g>
       <use xlink:href="#m846e29303d" x="38.265" y="111.154897" style="fill: #262626; stroke: #262626; stroke-width: 0.8"/>
      </g>
     </g>
     <g id="text_10">
      <!-- 9.4 -->
      <g style="fill: #262626" transform="translate(17.365 114.733804) scale(0.1 -0.1)">
       <use xlink:href="#ArialMT-39"/>
       <use xlink:href="#ArialMT-2e" x="55.615234"/>
       <use xlink:href="#ArialMT-34" x="83.398438"/>
      </g>
     </g>
    </g>
    <g id="ytick_3">
     <g id="line2d_10">
      <g>
       <use xlink:href="#m846e29303d" x="38.265" y="71.87044" style="fill: #262626; stroke: #262626; stroke-width: 0.8"/>
      </g>
     </g>
     <g id="text_11">
      <!-- 9.6 -->
      <g style="fill: #262626" transform="translate(17.365 75.449346) scale(0.1 -0.1)">
       <use xlink:href="#ArialMT-39"/>
       <use xlink:href="#ArialMT-2e" x="55.615234"/>
       <use xlink:href="#ArialMT-36" x="83.398438"/>
      </g>
     </g>
    </g>
    <g id="ytick_4">
     <g id="line2d_11">
      <g>
       <use xlink:href="#m846e29303d" x="38.265" y="32.585982" style="fill: #262626; stroke: #262626; stroke-width: 0.8"/>
      </g>
     </g>
     <g id="text_12">
      <!-- 9.8 -->
      <g style="fill: #262626" transform="translate(17.365 36.164889) scale(0.1 -0.1)">
       <use xlink:href="#ArialMT-39"/>
       <use xlink:href="#ArialMT-2e" x="55.615234"/>
       <use xlink:href="#ArialMT-38" x="83.398438"/>
      </g>
     </g>
    </g>
    <g id="text_13">
     <!-- Acceleration -->
     <g style="fill: #262626" transform="translate(11.3775 113.133281) rotate(-90) scale(0.1 -0.1)">
      <defs>
       <path id="ArialMT-41" d="M -9 0 
L 1750 4581 
L 2403 4581 
L 4278 0 
L 3588 0 
L 3053 1388 
L 1138 1388 
L 634 0 
L -9 0 
z
M 1313 1881 
L 2866 1881 
L 2388 3150 
Q 2169 3728 2063 4100 
Q 1975 3659 1816 3225 
L 1313 1881 
z
" transform="scale(0.015625)"/>
       <path id="ArialMT-63" d="M 2588 1216 
L 3141 1144 
Q 3050 572 2676 248 
Q 2303 -75 1759 -75 
Q 1078 -75 664 370 
Q 250 816 250 1647 
Q 250 2184 428 2587 
Q 606 2991 970 3192 
Q 1334 3394 1763 3394 
Q 2303 3394 2647 3120 
Q 2991 2847 3088 2344 
L 2541 2259 
Q 2463 2594 2264 2762 
Q 2066 2931 1784 2931 
Q 1359 2931 1093 2626 
Q 828 2322 828 1663 
Q 828 994 1084 691 
Q 1341 388 1753 388 
Q 2084 388 2306 591 
Q 2528 794 2588 1216 
z
" transform="scale(0.015625)"/>
       <path id="ArialMT-72" d="M 416 0 
L 416 3319 
L 922 3319 
L 922 2816 
Q 1116 3169 1280 3281 
Q 1444 3394 1641 3394 
Q 1925 3394 2219 3213 
L 2025 2691 
Q 1819 2813 1613 2813 
Q 1428 2813 1281 2702 
Q 1134 2591 1072 2394 
Q 978 2094 978 1738 
L 978 0 
L 416 0 
z
" transform="scale(0.015625)"/>
       <path id="ArialMT-74" d="M 1650 503 
L 1731 6 
Q 1494 -44 1306 -44 
Q 1000 -44 831 53 
Q 663 150 594 308 
Q 525 466 525 972 
L 525 2881 
L 113 2881 
L 113 3319 
L 525 3319 
L 525 4141 
L 1084 4478 
L 1084 3319 
L 1650 3319 
L 1650 2881 
L 1084 2881 
L 1084 941 
Q 1084 700 1114 631 
Q 1144 563 1211 522 
Q 1278 481 1403 481 
Q 1497 481 1650 503 
z
" transform="scale(0.015625)"/>
       <path id="ArialMT-69" d="M 425 3934 
L 425 4581 
L 988 4581 
L 988 3934 
L 425 3934 
z
M 425 0 
L 425 3319 
L 988 3319 
L 988 0 
L 425 0 
z
" transform="scale(0.015625)"/>
       <path id="ArialMT-6f" d="M 213 1659 
Q 213 2581 725 3025 
Q 1153 3394 1769 3394 
Q 2453 3394 2887 2945 
Q 3322 2497 3322 1706 
Q 3322 1066 3130 698 
Q 2938 331 2570 128 
Q 2203 -75 1769 -75 
Q 1072 -75 642 372 
Q 213 819 213 1659 
z
M 791 1659 
Q 791 1022 1069 705 
Q 1347 388 1769 388 
Q 2188 388 2466 706 
Q 2744 1025 2744 1678 
Q 2744 2294 2464 2611 
Q 2184 2928 1769 2928 
Q 1347 2928 1069 2612 
Q 791 2297 791 1659 
z
" transform="scale(0.015625)"/>
       <path id="ArialMT-6e" d="M 422 0 
L 422 3319 
L 928 3319 
L 928 2847 
Q 1294 3394 1984 3394 
Q 2284 3394 2536 3286 
Q 2788 3178 2913 3003 
Q 3038 2828 3088 2588 
Q 3119 2431 3119 2041 
L 3119 0 
L 2556 0 
L 2556 2019 
Q 2556 2363 2490 2533 
Q 2425 2703 2258 2804 
Q 2091 2906 1866 2906 
Q 1506 2906 1245 2678 
Q 984 2450 984 1813 
L 984 0 
L 422 0 
z
" transform="scale(0.015625)"/>
      </defs>
      <use xlink:href="#ArialMT-41"/>
      <use xlink:href="#ArialMT-63" x="66.699219"/>
      <use xlink:href="#ArialMT-63" x="116.699219"/>
      <use xlink:href="#ArialMT-65" x="166.699219"/>
      <use xlink:href="#ArialMT-6c" x="222.314453"/>
      <use xlink:href="#ArialMT-65" x="244.53125"/>
      <use xlink:href="#ArialMT-72" x="300.146484"/>
      <use xlink:href="#ArialMT-61" x="333.447266"/>
      <use xlink:href="#ArialMT-74" x="389.0625"/>
      <use xlink:href="#ArialMT-69" x="416.845703"/>
      <use xlink:href="#ArialMT-6f" x="439.0625"/>
      <use xlink:href="#ArialMT-6e" x="494.677734"/>
     </g>
    </g>
   </g>
   <g id="line2d_12">
    <path d="M 69.071136 95.441114 
L 69.59639 71.87044 
L 70.121644 115.083343 
L 70.646898 103.298006 
L 71.172152 62.049326 
L 71.697405 58.12088 
L 72.222659 113.11912 
L 72.747913 95.441114 
L 73.273167 71.87044 
L 73.798421 65.977771 
L 74.323675 105.262229 
L 74.848928 111.154897 
L 75.374182 65.977771 
L 75.899436 77.763109 
L 76.42469 64.013548 
L 76.949944 73.834663 
L 77.475197 101.333783 
L 78.000451 117.047566 
L 78.525705 46.335543 
L 79.050959 56.156657 
L 79.576213 95.441114 
L 80.101467 69.906217 
L 80.62672 103.298006 
L 81.151974 87.584223 
L 81.677228 67.941994 
L 82.202482 65.977771 
L 82.727736 107.226452 
L 83.252989 89.548446 
L 83.778243 83.655777 
L 84.303497 73.834663 
L 84.828751 95.441114 
L 85.354005 95.441114 
L 85.879259 65.977771 
L 86.404512 64.013548 
L 86.929766 93.476891 
L 87.45502 113.11912 
L 87.980274 60.085103 
L 88.505528 69.906217 
L 89.030781 99.36956 
L 89.556035 111.154897 
L 90.081289 60.085103 
L 90.606543 77.763109 
L 91.65705 95.441114 
L 92.182304 79.727331 
L 92.707558 99.36956 
L 93.232812 65.977771 
L 93.758066 64.013548 
L 94.28332 109.190674 
L 94.808573 105.262229 
L 95.333827 73.834663 
L 95.859081 65.977771 
L 96.384335 93.476891 
L 96.909589 77.763109 
L 97.434842 91.512669 
L 97.960096 67.941994 
L 98.48535 87.584223 
L 99.010604 64.013548 
L 99.535858 109.190674 
L 101.111619 64.013548 
L 101.636873 109.190674 
L 102.162127 101.333783 
L 102.687381 65.977771 
L 103.212634 71.87044 
L 103.737888 85.62 
L 104.263142 105.262229 
L 104.788396 73.834663 
L 105.838904 89.548446 
L 106.364157 109.190674 
L 106.889411 69.906217 
L 107.414665 83.655777 
L 107.939919 81.691554 
L 108.465173 101.333783 
L 108.990426 69.906217 
L 109.51568 81.691554 
L 110.040934 81.691554 
L 110.566188 99.36956 
L 111.091442 85.62 
L 111.616696 103.298006 
L 112.141949 64.013548 
L 112.667203 77.763109 
L 113.192457 95.441114 
L 113.717711 105.262229 
L 114.242965 62.049326 
L 114.768218 73.834663 
L 115.293472 105.262229 
L 115.818726 105.262229 
L 116.34398 64.013548 
L 116.869234 60.085103 
L 117.394488 105.262229 
L 117.919741 103.298006 
L 118.444995 67.941994 
L 118.970249 67.941994 
L 119.495503 105.262229 
L 120.020757 93.476891 
L 121.071264 58.12088 
L 121.596518 103.298006 
L 123.17228 73.834663 
L 123.697533 91.512669 
L 124.222787 75.798886 
L 124.748041 107.226452 
L 125.273295 115.083343 
L 125.798549 54.192434 
L 126.323802 65.977771 
L 126.849056 91.512669 
L 127.37431 95.441114 
L 127.899564 85.62 
L 128.424818 107.226452 
L 128.950071 67.941994 
L 129.475325 64.013548 
L 130.000579 107.226452 
L 130.525833 95.441114 
L 131.576341 58.12088 
L 132.101594 115.083343 
L 132.626848 117.047566 
L 133.152102 67.941994 
L 133.677356 58.12088 
L 134.20261 117.047566 
L 134.727863 105.262229 
L 135.253117 65.977771 
L 135.778371 64.013548 
L 136.303625 109.190674 
L 136.828879 109.190674 
L 137.354133 71.87044 
L 137.879386 107.226452 
L 138.40464 58.12088 
L 138.929894 48.299765 
L 139.455148 109.190674 
L 139.980402 64.013548 
L 140.505655 117.047566 
L 141.030909 130.797126 
L 141.556163 56.156657 
L 142.081417 107.226452 
L 142.606671 75.798886 
L 143.131925 122.940235 
L 143.657178 67.941994 
L 144.182432 79.727331 
L 144.707686 113.11912 
L 145.23294 79.727331 
L 145.758194 122.940235 
L 146.283447 64.013548 
L 146.808701 115.083343 
L 147.333955 79.727331 
L 147.859209 103.298006 
L 148.384463 52.228211 
L 148.909717 117.047566 
L 149.43497 65.977771 
L 149.960224 99.36956 
L 150.485478 81.691554 
L 151.010732 60.085103 
L 151.535986 105.262229 
L 152.061239 44.37132 
L 152.586493 91.512669 
L 153.111747 113.11912 
L 153.637001 75.798886 
L 154.162255 124.904457 
L 154.687509 73.834663 
L 155.212762 50.263988 
L 155.738016 71.87044 
L 156.26327 65.977771 
L 156.788524 124.904457 
L 157.313778 79.727331 
L 157.839031 115.083343 
L 158.364285 91.512669 
L 158.889539 48.299765 
L 159.414793 119.011789 
L 159.940047 60.085103 
L 160.465301 60.085103 
L 160.990554 107.226452 
L 161.515808 93.476891 
L 162.041062 93.476891 
L 162.566316 119.011789 
L 163.09157 91.512669 
L 163.616823 48.299765 
L 164.142077 109.190674 
L 164.667331 95.441114 
L 165.192585 65.977771 
L 165.717839 56.156657 
L 166.243092 113.11912 
L 166.768346 103.298006 
L 167.818854 54.192434 
L 168.344108 85.62 
L 169.394615 103.298006 
L 169.919869 119.011789 
L 170.445123 95.441114 
L 170.970377 60.085103 
L 171.495631 67.941994 
L 172.020884 67.941994 
L 172.546138 69.906217 
L 173.596646 65.977771 
L 174.1219 62.049326 
L 174.647154 67.941994 
L 175.172407 91.512669 
L 175.697661 81.691554 
L 176.222915 62.049326 
L 177.273423 83.655777 
L 177.798676 85.62 
L 178.32393 91.512669 
L 178.849184 73.834663 
L 179.374438 77.763109 
L 179.899692 69.906217 
L 180.424946 71.87044 
L 181.475453 115.083343 
L 182.000707 56.156657 
L 182.525961 77.763109 
L 183.051215 105.262229 
L 183.576468 75.798886 
L 184.101722 124.904457 
L 184.626976 75.798886 
L 185.15223 77.763109 
L 185.677484 117.047566 
L 186.202738 79.727331 
L 186.727991 107.226452 
L 187.253245 52.228211 
L 187.778499 91.512669 
L 188.303753 52.228211 
L 188.829007 105.262229 
L 189.35426 73.834663 
L 190.404768 44.37132 
L 190.930022 91.512669 
L 191.455276 64.013548 
L 191.98053 77.763109 
L 192.505783 69.906217 
L 193.031037 109.190674 
L 193.556291 56.156657 
L 194.081545 113.11912 
L 194.606799 95.441114 
L 195.132052 99.36956 
L 195.657306 95.441114 
L 196.18256 103.298006 
L 196.707814 113.11912 
L 197.233068 65.977771 
L 197.758322 124.904457 
L 198.283575 60.085103 
L 198.808829 75.798886 
L 199.334083 77.763109 
L 199.859337 85.62 
L 200.384591 58.12088 
L 200.909844 52.228211 
L 201.435098 101.333783 
L 201.960352 46.335543 
L 202.485606 107.226452 
L 203.01086 93.476891 
L 203.536114 107.226452 
L 204.061367 69.906217 
L 204.586621 119.011789 
L 205.111875 101.333783 
L 205.637129 99.36956 
L 206.162383 91.512669 
L 206.687636 105.262229 
L 207.21289 101.333783 
L 207.738144 101.333783 
L 208.263398 111.154897 
L 208.788652 83.655777 
L 209.313905 91.512669 
L 209.839159 58.12088 
L 210.364413 75.798886 
L 210.889667 75.798886 
L 211.414921 79.727331 
L 211.940175 109.190674 
L 212.465428 109.190674 
L 212.990682 71.87044 
L 213.515936 60.085103 
L 214.04119 107.226452 
L 215.091697 85.62 
L 215.616951 56.156657 
L 216.142205 109.190674 
L 216.667459 99.36956 
L 217.192713 73.834663 
L 217.717967 58.12088 
L 218.24322 117.047566 
L 218.768474 115.083343 
L 219.293728 60.085103 
L 219.818982 67.941994 
L 220.344236 97.405337 
L 220.869489 95.441114 
L 221.394743 64.013548 
L 221.919997 101.333783 
L 222.445251 64.013548 
L 222.970505 56.156657 
L 223.495759 117.047566 
L 224.021012 81.691554 
L 224.546266 85.62 
L 225.07152 101.333783 
L 225.596774 52.228211 
L 226.122028 79.727331 
L 226.647281 64.013548 
L 227.172535 42.407097 
L 227.697789 120.976012 
L 228.223043 44.37132 
L 228.748297 117.047566 
L 229.273551 77.763109 
L 229.798804 107.226452 
L 230.324058 93.476891 
L 230.849312 85.62 
L 231.374566 117.047566 
L 231.89982 56.156657 
L 232.425073 93.476891 
L 232.950327 64.013548 
L 233.475581 48.299765 
L 234.000835 119.011789 
L 234.526089 67.941994 
L 235.051343 107.226452 
L 235.576596 117.047566 
L 236.10185 60.085103 
L 236.627104 79.727331 
L 237.152358 93.476891 
L 237.677612 97.405337 
L 238.202865 75.798886 
L 238.728119 113.11912 
L 239.253373 58.12088 
L 239.778627 64.013548 
L 240.303881 103.298006 
L 240.829135 120.976012 
L 241.354388 52.228211 
L 241.879642 60.085103 
L 242.404896 101.333783 
L 242.93015 109.190674 
L 243.455404 58.12088 
L 243.980657 75.798886 
L 244.505911 85.62 
L 245.031165 109.190674 
L 245.556419 52.228211 
L 246.081673 50.263988 
L 246.606926 115.083343 
L 247.13218 58.12088 
L 247.657434 107.226452 
L 248.182688 115.083343 
L 248.707942 50.263988 
L 249.233196 119.011789 
L 249.758449 48.299765 
L 250.283703 48.299765 
L 250.808957 99.36956 
L 251.334211 62.049326 
L 251.859465 77.763109 
L 252.384718 42.407097 
L 252.909972 117.047566 
L 253.435226 46.335543 
L 253.96048 91.512669 
L 254.485734 52.228211 
L 255.010988 85.62 
L 255.536241 99.36956 
L 256.061495 34.550205 
L 256.586749 95.441114 
L 257.112003 36.514428 
L 257.637257 126.86868 
L 258.16251 75.798886 
L 258.687764 126.86868 
L 259.213018 111.154897 
L 259.738272 50.263988 
L 260.263526 128.832903 
L 260.78878 40.442874 
L 261.314033 124.904457 
L 261.839287 62.049326 
L 262.364541 60.085103 
L 262.889795 62.049326 
L 263.415049 65.977771 
L 263.940302 115.083343 
L 264.465556 54.192434 
L 264.99081 119.011789 
L 265.516064 28.657537 
L 266.041318 128.832903 
L 266.566572 62.049326 
L 267.091825 128.832903 
L 267.617079 52.228211 
L 268.142333 134.725572 
L 268.667587 65.977771 
L 269.192841 119.011789 
L 269.718094 44.37132 
L 270.243348 130.797126 
L 270.768602 52.228211 
L 271.293856 109.190674 
L 271.81911 42.407097 
L 272.344364 101.333783 
L 272.869617 64.013548 
L 273.394871 58.12088 
L 273.920125 111.154897 
L 274.445379 73.834663 
L 274.970633 95.441114 
L 275.495886 95.441114 
L 276.02114 77.763109 
L 276.546394 56.156657 
L 277.071648 111.154897 
L 277.596902 107.226452 
L 278.122156 65.977771 
L 278.647409 130.797126 
L 279.172663 46.335543 
L 279.697917 91.512669 
L 280.223171 60.085103 
L 280.748425 97.405337 
L 281.273678 60.085103 
L 281.798932 58.12088 
L 282.324186 99.36956 
L 282.84944 46.335543 
L 283.374694 107.226452 
L 283.899947 54.192434 
L 284.425201 117.047566 
L 284.950455 40.442874 
L 285.475709 95.441114 
L 286.000963 32.585982 
L 286.526217 109.190674 
L 287.05147 95.441114 
L 287.576724 40.442874 
L 288.101978 81.691554 
L 288.627232 52.228211 
L 289.152486 136.689795 
L 289.677739 64.013548 
L 290.202993 134.725572 
L 290.728247 69.906217 
L 291.253501 71.87044 
L 291.778755 138.654018 
L 292.304009 97.405337 
L 292.829262 115.083343 
L 293.354516 38.478651 
L 293.87977 130.797126 
L 294.405024 48.299765 
L 294.930278 134.725572 
L 295.455531 50.263988 
L 295.980785 91.512669 
L 296.506039 30.62176 
L 297.031293 109.190674 
L 297.556547 95.441114 
L 298.081801 44.37132 
L 298.607054 64.013548 
L 299.132308 73.834663 
L 299.657562 107.226452 
L 300.182816 42.407097 
L 300.70807 81.691554 
L 301.233323 56.156657 
L 301.758577 105.262229 
L 302.283831 48.299765 
L 302.809085 77.763109 
L 303.334339 60.085103 
L 303.859593 81.691554 
L 304.384846 54.192434 
L 304.9101 40.442874 
L 305.435354 113.11912 
L 305.960608 56.156657 
L 306.485862 111.154897 
L 307.011115 107.226452 
L 307.536369 65.977771 
L 308.061623 65.977771 
L 308.586877 48.299765 
L 309.112131 44.37132 
L 309.637385 111.154897 
L 310.162638 87.584223 
L 310.687892 126.86868 
L 311.213146 89.548446 
L 311.7384 109.190674 
L 312.263654 113.11912 
L 312.788907 126.86868 
L 313.314161 113.11912 
L 313.839415 85.62 
L 314.364669 134.725572 
L 314.889923 134.725572 
L 315.415177 73.834663 
L 315.94043 142.582463 
L 316.465684 71.87044 
L 316.990938 85.62 
L 317.516192 42.407097 
L 318.041446 83.655777 
L 318.566699 56.156657 
L 319.091953 40.442874 
L 319.617207 136.689795 
L 320.142461 44.37132 
L 320.667715 128.832903 
L 321.192968 128.832903 
L 321.718222 73.834663 
L 322.243476 130.797126 
L 322.76873 38.478651 
L 323.293984 65.977771 
L 323.819238 77.763109 
L 324.344491 42.407097 
L 324.869745 99.36956 
L 325.394999 64.013548 
L 325.920253 126.86868 
L 326.445507 93.476891 
L 326.97076 136.689795 
L 327.496014 132.761349 
L 328.021268 62.049326 
L 328.546522 134.725572 
L 329.071776 52.228211 
L 329.59703 91.512669 
L 330.122283 46.335543 
L 330.647537 89.548446 
L 331.172791 40.442874 
L 331.698045 50.263988 
L 332.223299 52.228211 
L 332.748552 83.655777 
L 333.273806 42.407097 
L 333.79906 58.12088 
L 334.324314 40.442874 
L 334.849568 105.262229 
L 335.374822 71.87044 
L 335.900075 99.36956 
L 336.425329 64.013548 
L 336.950583 109.190674 
L 337.475837 115.083343 
L 338.001091 91.512669 
L 338.526344 115.083343 
L 339.051598 44.37132 
L 339.576852 40.442874 
L 340.102106 99.36956 
L 340.62736 79.727331 
L 341.152614 97.405337 
L 341.677867 122.940235 
L 342.203121 73.834663 
L 342.728375 105.262229 
L 343.253629 50.263988 
L 343.778883 56.156657 
L 344.304136 44.37132 
L 344.82939 52.228211 
L 345.354644 101.333783 
L 345.879898 60.085103 
L 346.405152 81.691554 
L 346.930406 46.335543 
L 347.455659 117.047566 
L 347.980913 48.299765 
L 348.506167 71.87044 
L 349.031421 65.977771 
L 349.556675 64.013548 
L 350.081928 64.013548 
L 350.607182 54.192434 
L 351.132436 132.761349 
L 351.65769 67.941994 
L 352.182944 138.654018 
L 352.708198 128.832903 
L 353.233451 40.442874 
L 353.758705 146.510909 
L 354.283959 42.407097 
L 354.809213 120.976012 
L 355.334467 91.512669 
L 355.85972 34.550205 
L 356.384974 97.405337 
L 356.910228 44.37132 
L 357.435482 130.797126 
L 357.960736 83.655777 
L 358.485989 120.976012 
L 359.011243 50.263988 
L 359.536497 67.941994 
L 360.061751 44.37132 
L 360.587005 79.727331 
L 361.112259 101.333783 
L 361.637512 32.585982 
L 362.162766 73.834663 
L 362.68802 56.156657 
L 363.213274 122.940235 
L 363.738528 32.585982 
L 364.263781 89.548446 
L 364.789035 40.442874 
L 365.314289 111.154897 
L 365.839543 50.263988 
L 366.364797 83.655777 
L 366.890051 65.977771 
L 367.415304 87.584223 
L 368.465812 52.228211 
L 368.991066 111.154897 
L 369.51632 44.37132 
L 370.041573 115.083343 
L 370.566827 99.36956 
L 371.092081 77.763109 
L 371.617335 128.832903 
L 372.142589 38.478651 
L 372.667843 58.12088 
L 373.193096 93.476891 
L 373.71835 56.156657 
L 374.243604 87.584223 
L 374.768858 50.263988 
L 375.294112 113.11912 
L 375.819365 48.299765 
L 376.344619 89.548446 
L 376.869873 40.442874 
L 377.395127 111.154897 
L 377.920381 89.548446 
L 378.445635 42.407097 
L 378.970888 99.36956 
L 379.496142 42.407097 
L 380.021396 117.047566 
L 380.54665 115.083343 
L 381.071904 75.798886 
L 381.597157 140.61824 
L 382.122411 71.87044 
L 382.647665 40.442874 
L 383.172919 91.512669 
L 383.698173 38.478651 
L 384.74868 140.61824 
L 385.273934 44.37132 
L 386.324442 119.011789 
L 387.374949 67.941994 
L 387.900203 124.904457 
L 388.425457 128.832903 
L 388.950711 69.906217 
L 389.475965 64.013548 
L 390.001219 126.86868 
L 390.526472 120.976012 
L 391.051726 50.263988 
L 391.57698 115.083343 
L 392.102234 122.940235 
L 392.627488 36.514428 
L 393.152741 93.476891 
L 393.677995 42.407097 
L 394.203249 75.798886 
L 394.728503 126.86868 
L 395.253757 56.156657 
L 395.779011 142.582463 
L 396.304264 40.442874 
L 396.829518 91.512669 
L 397.354772 122.940235 
L 397.880026 107.226452 
L 398.40528 105.262229 
L 398.930533 54.192434 
L 399.455787 124.904457 
L 399.981041 67.941994 
L 400.506295 132.761349 
L 401.031549 56.156657 
L 401.556802 120.976012 
L 402.082056 67.941994 
L 402.60731 117.047566 
L 403.132564 60.085103 
L 403.657818 113.11912 
L 404.183072 124.904457 
L 404.708325 56.156657 
L 405.233579 105.262229 
L 405.758833 83.655777 
L 406.284087 128.832903 
L 406.809341 30.62176 
L 407.334594 97.405337 
L 407.859848 75.798886 
L 408.385102 126.86868 
L 408.910356 71.87044 
L 409.43561 136.689795 
L 409.960864 128.832903 
L 410.486117 46.335543 
L 411.011371 140.61824 
L 411.536625 42.407097 
L 412.061879 28.657537 
L 412.587133 126.86868 
L 413.112386 46.335543 
L 413.63764 128.832903 
L 414.162894 134.725572 
L 414.688148 58.12088 
L 415.213402 48.299765 
L 415.738656 105.262229 
L 416.263909 124.904457 
L 416.789163 50.263988 
L 417.314417 91.512669 
L 417.839671 109.190674 
L 418.364925 115.083343 
L 418.890178 52.228211 
L 419.415432 71.87044 
L 419.940686 117.047566 
L 420.46594 83.655777 
L 420.991194 103.298006 
L 421.516448 85.62 
L 422.041701 58.12088 
L 422.566955 56.156657 
L 423.092209 99.36956 
L 423.617463 113.11912 
L 424.142717 73.834663 
L 424.66797 120.976012 
L 425.193224 75.798886 
L 425.718478 46.335543 
L 426.243732 99.36956 
L 427.29424 103.298006 
L 427.819493 62.049326 
L 428.344747 120.976012 
L 428.870001 103.298006 
L 429.395255 26.693314 
L 429.920509 91.512669 
L 430.445762 50.263988 
L 430.971016 38.478651 
L 431.49627 120.976012 
L 432.021524 30.62176 
L 432.546778 109.190674 
L 433.072032 97.405337 
L 433.597285 128.832903 
L 434.122539 48.299765 
L 434.647793 93.476891 
L 435.173047 58.12088 
L 435.698301 95.441114 
L 436.223554 58.12088 
L 436.748808 42.407097 
L 437.274062 71.87044 
L 437.799316 48.299765 
L 438.32457 124.904457 
L 438.849823 73.834663 
L 439.375077 83.655777 
L 439.900331 46.335543 
L 440.425585 120.976012 
L 440.950839 38.478651 
L 441.476093 126.86868 
L 442.001346 101.333783 
L 442.5266 85.62 
L 443.051854 111.154897 
L 443.577108 105.262229 
L 444.102362 130.797126 
L 444.627615 52.228211 
L 445.152869 111.154897 
L 445.678123 77.763109 
L 446.203377 120.976012 
L 446.728631 48.299765 
L 447.253885 113.11912 
L 447.779138 73.834663 
L 448.304392 124.904457 
L 448.829646 71.87044 
L 449.3549 130.797126 
L 449.880154 132.761349 
L 450.405407 56.156657 
L 450.930661 130.797126 
L 451.455915 34.550205 
L 451.981169 60.085103 
L 452.506423 101.333783 
L 453.031677 30.62176 
L 453.55693 113.11912 
L 454.082184 111.154897 
L 454.607438 97.405337 
L 455.132692 122.940235 
L 455.657946 89.548446 
L 456.183199 93.476891 
L 456.708453 36.514428 
L 457.233707 77.763109 
L 457.758961 73.834663 
L 458.284215 56.156657 
L 458.809469 132.761349 
L 459.334722 91.512669 
L 459.859976 85.62 
L 460.38523 105.262229 
L 460.910484 46.335543 
L 461.435738 69.906217 
L 461.960991 69.906217 
L 462.486245 56.156657 
L 463.011499 126.86868 
L 463.536753 93.476891 
L 464.062007 101.333783 
L 464.587261 113.11912 
L 465.112514 34.550205 
L 465.637768 93.476891 
L 466.163022 60.085103 
L 466.688276 34.550205 
L 467.21353 122.940235 
L 467.738783 48.299765 
L 468.264037 132.761349 
L 468.789291 130.797126 
L 469.314545 91.512669 
L 469.839799 117.047566 
L 470.365053 73.834663 
L 470.890306 120.976012 
L 471.41556 48.299765 
L 471.940814 122.940235 
L 472.466068 67.941994 
L 472.991322 89.548446 
L 473.516575 44.37132 
L 474.041829 122.940235 
L 474.567083 52.228211 
L 475.092337 75.798886 
L 475.617591 48.299765 
L 476.142844 85.62 
L 476.668098 48.299765 
L 477.193352 38.478651 
L 477.718606 93.476891 
L 478.24386 50.263988 
L 478.769114 89.548446 
L 479.294367 69.906217 
L 479.819621 140.61824 
L 480.344875 67.941994 
L 480.870129 119.011789 
L 481.395383 134.725572 
L 481.920636 60.085103 
L 482.44589 124.904457 
L 482.971144 38.478651 
L 483.496398 38.478651 
L 484.021652 95.441114 
L 484.546906 50.263988 
L 485.072159 128.832903 
L 485.597413 109.190674 
L 486.122667 77.763109 
L 486.647921 126.86868 
L 487.173175 54.192434 
L 487.698428 65.977771 
L 488.223682 83.655777 
L 488.748936 40.442874 
L 489.27419 122.940235 
L 489.799444 124.904457 
L 490.324698 46.335543 
L 490.849951 111.154897 
L 491.375205 42.407097 
L 491.900459 44.37132 
L 492.425713 138.654018 
L 492.950967 89.548446 
L 493.47622 103.298006 
L 494.001474 105.262229 
L 494.526728 34.550205 
L 495.051982 89.548446 
L 495.577236 52.228211 
L 496.10249 30.62176 
L 496.627743 124.904457 
L 497.152997 60.085103 
L 497.678251 126.86868 
L 498.203505 136.689795 
L 498.728759 64.013548 
L 499.254012 119.011789 
L 499.779266 38.478651 
L 500.30452 77.763109 
L 500.829774 64.013548 
L 501.355028 64.013548 
L 501.880282 62.049326 
L 502.405535 40.442874 
L 502.930789 117.047566 
L 503.456043 48.299765 
L 503.981297 111.154897 
L 504.506551 79.727331 
L 505.031804 119.011789 
L 505.557058 58.12088 
L 506.082312 99.36956 
L 506.607566 67.941994 
L 507.13282 122.940235 
L 507.658074 46.335543 
L 508.183327 122.940235 
L 508.708581 120.976012 
L 509.233835 107.226452 
L 509.759089 109.190674 
L 510.284343 85.62 
L 510.809596 120.976012 
L 511.33485 36.514428 
L 511.860104 93.476891 
L 512.385358 54.192434 
L 512.910612 36.514428 
L 513.435865 119.011789 
L 513.961119 73.834663 
L 514.486373 138.654018 
L 515.011627 128.832903 
L 515.536881 48.299765 
L 516.062135 130.797126 
L 516.587388 42.407097 
L 517.112642 65.977771 
L 517.637896 75.798886 
L 518.16315 40.442874 
L 518.688404 91.512669 
L 519.213657 97.405337 
L 519.738911 115.083343 
L 520.264165 117.047566 
L 520.789419 65.977771 
L 521.314673 73.834663 
L 521.839927 83.655777 
L 522.36518 42.407097 
L 522.890434 144.546686 
L 523.415688 119.011789 
L 523.940942 32.585982 
L 524.991449 117.047566 
L 525.516703 111.154897 
L 526.041957 83.655777 
L 526.567211 67.941994 
L 527.092465 64.013548 
L 527.617719 77.763109 
L 528.142972 83.655777 
L 528.668226 79.727331 
L 529.19348 97.405337 
L 529.718734 107.226452 
L 530.769241 54.192434 
L 531.294495 89.548446 
L 531.819749 54.192434 
L 532.870257 115.083343 
L 533.395511 77.763109 
L 533.920764 85.62 
L 534.446018 58.12088 
L 534.971272 105.262229 
L 535.496526 83.655777 
L 536.02178 103.298006 
L 536.547033 69.906217 
L 537.072287 113.11912 
L 537.597541 52.228211 
L 538.122795 67.941994 
L 538.648049 138.654018 
L 539.173303 99.36956 
L 540.22381 107.226452 
L 540.749064 32.585982 
L 541.274318 91.512669 
L 541.799572 79.727331 
L 542.324825 62.049326 
L 542.850079 101.333783 
L 543.375333 130.797126 
L 543.900587 40.442874 
L 544.425841 48.299765 
L 544.951095 124.904457 
L 545.476348 69.906217 
L 546.001602 65.977771 
L 546.526856 71.87044 
L 547.05211 119.011789 
L 547.577364 42.407097 
L 548.102617 111.154897 
L 548.627871 115.083343 
L 549.153125 52.228211 
L 549.678379 52.228211 
L 550.203633 126.86868 
L 550.728886 120.976012 
L 551.25414 32.585982 
L 551.779394 83.655777 
L 552.304648 117.047566 
L 552.829902 119.011789 
L 553.355156 52.228211 
L 553.880409 58.12088 
L 554.405663 113.11912 
L 554.930917 95.441114 
L 555.456171 109.190674 
L 556.506678 85.62 
L 557.031932 113.11912 
L 557.557186 95.441114 
L 558.08244 71.87044 
L 558.607694 67.941994 
L 559.132948 71.87044 
L 559.658201 60.085103 
L 560.708709 93.476891 
L 561.233963 62.049326 
L 561.759217 79.727331 
L 562.28447 109.190674 
L 562.809724 107.226452 
L 563.860232 119.011789 
L 564.385486 85.62 
L 564.91074 62.049326 
L 565.435993 99.36956 
L 565.961247 69.906217 
L 566.486501 64.013548 
L 567.011755 119.011789 
L 567.537009 95.441114 
L 568.587516 42.407097 
L 569.11277 128.832903 
L 569.638024 136.689795 
L 570.163278 48.299765 
L 570.688532 122.940235 
L 571.213785 40.442874 
L 571.739039 44.37132 
L 572.264293 99.36956 
L 572.789547 44.37132 
L 573.314801 109.190674 
L 573.840054 77.763109 
L 574.365308 128.832903 
L 574.890562 73.834663 
L 575.415816 120.976012 
L 575.94107 130.797126 
L 576.466324 91.512669 
L 576.991577 120.976012 
L 577.516831 85.62 
L 578.042085 87.584223 
L 578.567339 24.729091 
L 579.092593 115.083343 
L 579.617846 48.299765 
L 580.1431 38.478651 
L 580.668354 91.512669 
L 581.193608 38.478651 
L 581.718862 85.62 
L 582.244116 85.62 
L 582.769369 130.797126 
L 583.294623 69.906217 
L 583.819877 117.047566 
L 584.345131 130.797126 
L 584.870385 42.407097 
L 585.395638 128.832903 
L 585.920892 48.299765 
L 586.446146 46.335543 
L 586.9714 93.476891 
L 587.496654 34.550205 
L 588.021908 109.190674 
L 588.547161 103.298006 
L 589.072415 105.262229 
L 589.597669 117.047566 
L 590.122923 95.441114 
L 590.648177 105.262229 
L 591.17343 36.514428 
L 591.698684 89.548446 
L 592.223938 44.37132 
L 592.749192 46.335543 
L 593.274446 142.582463 
L 593.799699 40.442874 
L 594.324953 128.832903 
L 594.850207 132.761349 
L 595.375461 58.12088 
L 595.900715 132.761349 
L 596.425969 50.263988 
L 596.951222 44.37132 
L 597.476476 91.512669 
L 598.00173 52.228211 
L 598.526984 120.976012 
L 599.052238 99.36956 
L 599.577491 97.405337 
L 600.102745 120.976012 
L 600.627999 73.834663 
L 601.153253 99.36956 
L 601.678507 48.299765 
L 602.203761 69.906217 
L 602.729014 44.37132 
L 603.254268 46.335543 
L 603.779522 109.190674 
L 604.304776 34.550205 
L 604.83003 89.548446 
L 605.355283 58.12088 
L 605.880537 115.083343 
L 606.405791 58.12088 
L 606.931045 111.154897 
L 607.456299 79.727331 
L 607.981553 120.976012 
L 608.506806 71.87044 
L 609.03206 130.797126 
L 609.557314 124.904457 
L 610.082568 83.655777 
L 610.607822 124.904457 
L 611.133075 79.727331 
L 611.658329 113.11912 
L 612.183583 48.299765 
L 612.708837 113.11912 
L 613.234091 42.407097 
L 613.759345 65.977771 
L 614.284598 73.834663 
L 614.809852 54.192434 
L 615.335106 83.655777 
L 615.86036 64.013548 
L 616.385614 119.011789 
L 616.910867 101.333783 
L 617.436121 120.976012 
L 617.961375 119.011789 
L 618.486629 36.514428 
L 619.011883 109.190674 
L 619.537137 42.407097 
L 620.06239 46.335543 
L 620.587644 140.61824 
L 621.112898 48.299765 
L 621.638152 120.976012 
L 622.163406 103.298006 
L 622.688659 50.263988 
L 623.213913 95.441114 
L 623.739167 65.977771 
L 624.264421 44.37132 
L 624.789675 124.904457 
L 625.314929 109.190674 
L 625.840182 105.262229 
L 626.365436 120.976012 
L 626.89069 34.550205 
L 627.415944 105.262229 
L 627.941198 52.228211 
L 628.466451 83.655777 
L 628.991705 99.36956 
L 629.516959 40.442874 
L 630.042213 79.727331 
L 630.567467 56.156657 
L 631.09272 136.689795 
L 631.617974 40.442874 
L 632.143228 103.298006 
L 632.668482 52.228211 
L 633.193736 115.083343 
L 633.71899 75.798886 
L 634.244243 128.832903 
L 634.769497 46.335543 
L 635.294751 95.441114 
L 635.820005 109.190674 
L 636.345259 130.797126 
L 636.870512 56.156657 
L 637.395766 95.441114 
L 637.92102 87.584223 
L 638.446274 115.083343 
L 638.971528 56.156657 
L 639.496782 130.797126 
L 640.022035 50.263988 
L 640.547289 95.441114 
L 641.072543 60.085103 
L 641.597797 122.940235 
L 642.123051 50.263988 
L 642.648304 109.190674 
L 643.173558 44.37132 
L 643.698812 119.011789 
L 644.224066 81.691554 
L 644.74932 134.725572 
L 645.799827 34.550205 
L 646.325081 134.725572 
L 646.850335 44.37132 
L 647.375589 95.441114 
L 647.900843 97.405337 
L 648.426096 40.442874 
L 648.95135 119.011789 
L 649.476604 52.228211 
L 650.001858 107.226452 
L 650.527112 113.11912 
L 651.052366 52.228211 
L 651.577619 136.689795 
L 652.102873 69.906217 
L 652.628127 42.407097 
L 653.153381 111.154897 
L 653.678635 30.62176 
L 654.203888 97.405337 
L 654.729142 126.86868 
L 655.254396 87.584223 
L 655.77965 126.86868 
L 656.304904 67.941994 
L 656.830158 50.263988 
L 657.355411 89.548446 
L 657.880665 40.442874 
L 658.405919 134.725572 
L 658.931173 87.584223 
L 659.456427 115.083343 
L 659.98168 99.36956 
L 660.506934 50.263988 
L 661.032188 122.940235 
L 661.557442 46.335543 
L 662.082696 119.011789 
L 662.60795 62.049326 
L 663.133203 71.87044 
L 663.658457 60.085103 
L 664.183711 67.941994 
L 664.708965 107.226452 
L 665.234219 50.263988 
L 665.759472 109.190674 
L 666.284726 40.442874 
L 666.80998 122.940235 
L 667.335234 89.548446 
L 667.860488 126.86868 
L 668.385741 75.798886 
L 668.910995 91.512669 
L 669.436249 101.333783 
L 669.961503 101.333783 
L 670.486757 79.727331 
L 671.012011 93.476891 
L 671.537264 97.405337 
L 672.062518 130.797126 
L 672.587772 56.156657 
L 673.113026 105.262229 
L 673.63828 81.691554 
L 674.163533 120.976012 
L 674.688787 54.192434 
L 675.214041 113.11912 
L 675.739295 89.548446 
L 676.264549 119.011789 
L 676.789803 85.62 
L 677.315056 67.941994 
L 677.84031 130.797126 
L 678.365564 60.085103 
L 678.890818 130.797126 
L 679.416072 67.941994 
L 679.941325 60.085103 
L 680.466579 87.584223 
L 680.991833 44.37132 
L 681.517087 120.976012 
L 682.042341 89.548446 
L 682.567595 119.011789 
L 683.092848 101.333783 
L 683.618102 32.585982 
L 684.143356 119.011789 
L 684.66861 36.514428 
L 685.193864 105.262229 
L 685.193864 105.262229 
" clip-path="url(#p91903caf37)" style="fill: none; stroke: #1f77b4; stroke-width: 1.5; stroke-linecap: round"/>
   </g>
   <g id="patch_3">
    <path d="M 38.265 152.6 
L 38.265 18.64 
" style="fill: none; stroke: #262626; stroke-width: 0.8; stroke-linejoin: miter; stroke-linecap: square"/>
   </g>
   <g id="patch_4">
    <path d="M 716 152.6 
L 716 18.64 
" style="fill: none; stroke: #262626; stroke-width: 0.8; stroke-linejoin: miter; stroke-linecap: square"/>
   </g>
   <g id="patch_5">
    <path d="M 38.265 152.6 
L 716 152.6 
" style="fill: none; stroke: #262626; stroke-width: 0.8; stroke-linejoin: miter; stroke-linecap: square"/>
   </g>
   <g id="patch_6">
    <path d="M 38.265 18.64 
L 716 18.64 
" style="fill: none; stroke: #262626; stroke-width: 0.8; stroke-linejoin: miter; stroke-linecap: square"/>
   </g>
   <g id="text_14">
    <!-- Fourier Analysis in Z Dimension -->
    <g style="fill: #262626" transform="translate(292.7725 12.64) scale(0.12 -0.12)">
     <defs>
      <path id="ArialMT-46" d="M 525 0 
L 525 4581 
L 3616 4581 
L 3616 4041 
L 1131 4041 
L 1131 2622 
L 3281 2622 
L 3281 2081 
L 1131 2081 
L 1131 0 
L 525 0 
z
" transform="scale(0.015625)"/>
      <path id="ArialMT-75" d="M 2597 0 
L 2597 488 
Q 2209 -75 1544 -75 
Q 1250 -75 995 37 
Q 741 150 617 320 
Q 494 491 444 738 
Q 409 903 409 1263 
L 409 3319 
L 972 3319 
L 972 1478 
Q 972 1038 1006 884 
Q 1059 663 1231 536 
Q 1403 409 1656 409 
Q 1909 409 2131 539 
Q 2353 669 2445 892 
Q 2538 1116 2538 1541 
L 2538 3319 
L 3100 3319 
L 3100 0 
L 2597 0 
z
" transform="scale(0.015625)"/>
      <path id="ArialMT-20" transform="scale(0.015625)"/>
      <path id="ArialMT-79" d="M 397 -1278 
L 334 -750 
Q 519 -800 656 -800 
Q 844 -800 956 -737 
Q 1069 -675 1141 -563 
Q 1194 -478 1313 -144 
Q 1328 -97 1363 -6 
L 103 3319 
L 709 3319 
L 1400 1397 
Q 1534 1031 1641 628 
Q 1738 1016 1872 1384 
L 2581 3319 
L 3144 3319 
L 1881 -56 
Q 1678 -603 1566 -809 
Q 1416 -1088 1222 -1217 
Q 1028 -1347 759 -1347 
Q 597 -1347 397 -1278 
z
" transform="scale(0.015625)"/>
      <path id="ArialMT-5a" d="M 128 0 
L 128 563 
L 2475 3497 
Q 2725 3809 2950 4041 
L 394 4041 
L 394 4581 
L 3675 4581 
L 3675 4041 
L 1103 863 
L 825 541 
L 3750 541 
L 3750 0 
L 128 0 
z
" transform="scale(0.015625)"/>
      <path id="ArialMT-44" d="M 494 0 
L 494 4581 
L 2072 4581 
Q 2606 4581 2888 4516 
Q 3281 4425 3559 4188 
Q 3922 3881 4101 3404 
Q 4281 2928 4281 2316 
Q 4281 1794 4159 1391 
Q 4038 988 3847 723 
Q 3656 459 3429 307 
Q 3203 156 2883 78 
Q 2563 0 2147 0 
L 494 0 
z
M 1100 541 
L 2078 541 
Q 2531 541 2789 625 
Q 3047 709 3200 863 
Q 3416 1078 3536 1442 
Q 3656 1806 3656 2325 
Q 3656 3044 3420 3430 
Q 3184 3816 2847 3947 
Q 2603 4041 2063 4041 
L 1100 4041 
L 1100 541 
z
" transform="scale(0.015625)"/>
     </defs>
     <use xlink:href="#ArialMT-46"/>
     <use xlink:href="#ArialMT-6f" x="61.083984"/>
     <use xlink:href="#ArialMT-75" x="116.699219"/>
     <use xlink:href="#ArialMT-72" x="172.314453"/>
     <use xlink:href="#ArialMT-69" x="205.615234"/>
     <use xlink:href="#ArialMT-65" x="227.832031"/>
     <use xlink:href="#ArialMT-72" x="283.447266"/>
     <use xlink:href="#ArialMT-20" x="316.748047"/>
     <use xlink:href="#ArialMT-41" x="339.03125"/>
     <use xlink:href="#ArialMT-6e" x="405.730469"/>
     <use xlink:href="#ArialMT-61" x="461.345703"/>
     <use xlink:href="#ArialMT-6c" x="516.960938"/>
     <use xlink:href="#ArialMT-79" x="539.177734"/>
     <use xlink:href="#ArialMT-73" x="589.177734"/>
     <use xlink:href="#ArialMT-69" x="639.177734"/>
     <use xlink:href="#ArialMT-73" x="661.394531"/>
     <use xlink:href="#ArialMT-20" x="711.394531"/>
     <use xlink:href="#ArialMT-69" x="739.177734"/>
     <use xlink:href="#ArialMT-6e" x="761.394531"/>
     <use xlink:href="#ArialMT-20" x="817.009766"/>
     <use xlink:href="#ArialMT-5a" x="844.792969"/>
     <use xlink:href="#ArialMT-20" x="905.876953"/>
     <use xlink:href="#ArialMT-44" x="933.660156"/>
     <use xlink:href="#ArialMT-69" x="1005.876953"/>
     <use xlink:href="#ArialMT-6d" x="1028.09375"/>
     <use xlink:href="#ArialMT-65" x="1111.394531"/>
     <use xlink:href="#ArialMT-6e" x="1167.009766"/>
     <use xlink:href="#ArialMT-73" x="1222.625"/>
     <use xlink:href="#ArialMT-69" x="1272.625"/>
     <use xlink:href="#ArialMT-6f" x="1294.841797"/>
     <use xlink:href="#ArialMT-6e" x="1350.457031"/>
    </g>
   </g>
  </g>
  <g id="axes_2">
   <g id="patch_7">
    <path d="M 38.265 326.28 
L 716 326.28 
L 716 192.32 
L 38.265 192.32 
z
" style="fill: #ffffff"/>
   </g>
   <g id="matplotlib.axis_3">
    <g id="xtick_8">
     <g id="line2d_13">
      <g>
       <use xlink:href="#m6df070f8c3" x="69.071136" y="326.28" style="fill: #262626; stroke: #262626; stroke-width: 0.8"/>
      </g>
     </g>
     <g id="text_15">
      <!-- 0 -->
      <g style="fill: #262626" transform="translate(66.290668 340.437812) scale(0.1 -0.1)">
       <use xlink:href="#ArialMT-30"/>
      </g>
     </g>
    </g>
    <g id="xtick_9">
     <g id="line2d_14">
      <g>
       <use xlink:href="#m6df070f8c3" x="195.132883" y="326.28" style="fill: #262626; stroke: #262626; stroke-width: 0.8"/>
      </g>
     </g>
     <g id="text_16">
      <!-- 2 -->
      <g style="fill: #262626" transform="translate(192.352414 340.437812) scale(0.1 -0.1)">
       <use xlink:href="#ArialMT-32"/>
      </g>
     </g>
    </g>
    <g id="xtick_10">
     <g id="line2d_15">
      <g>
       <use xlink:href="#m6df070f8c3" x="321.194629" y="326.28" style="fill: #262626; stroke: #262626; stroke-width: 0.8"/>
      </g>
     </g>
     <g id="text_17">
      <!-- 4 -->
      <g style="fill: #262626" transform="translate(318.41416 340.437812) scale(0.1 -0.1)">
       <use xlink:href="#ArialMT-34"/>
      </g>
     </g>
    </g>
    <g id="xtick_11">
     <g id="line2d_16">
      <g>
       <use xlink:href="#m6df070f8c3" x="447.256375" y="326.28" style="fill: #262626; stroke: #262626; stroke-width: 0.8"/>
      </g>
     </g>
     <g id="text_18">
      <!-- 6 -->
      <g style="fill: #262626" transform="translate(444.475907 340.437812) scale(0.1 -0.1)">
       <use xlink:href="#ArialMT-36"/>
      </g>
     </g>
    </g>
    <g id="xtick_12">
     <g id="line2d_17">
      <g>
       <use xlink:href="#m6df070f8c3" x="573.318122" y="326.28" style="fill: #262626; stroke: #262626; stroke-width: 0.8"/>
      </g>
     </g>
     <g id="text_19">
      <!-- 8 -->
      <g style="fill: #262626" transform="translate(570.537653 340.437812) scale(0.1 -0.1)">
       <use xlink:href="#ArialMT-38"/>
      </g>
     </g>
    </g>
    <g id="xtick_13">
     <g id="line2d_18">
      <g>
       <use xlink:href="#m6df070f8c3" x="699.379868" y="326.28" style="fill: #262626; stroke: #262626; stroke-width: 0.8"/>
      </g>
     </g>
     <g id="text_20">
      <!-- 10 -->
      <g style="fill: #262626" transform="translate(693.81893 340.437812) scale(0.1 -0.1)">
       <use xlink:href="#ArialMT-31"/>
       <use xlink:href="#ArialMT-30" x="55.615234"/>
      </g>
     </g>
    </g>
    <g id="text_21">
     <!-- Frequency (hz) -->
     <g style="fill: #262626" transform="translate(343.512187 353.705) scale(0.1 -0.1)">
      <defs>
       <path id="ArialMT-71" d="M 2538 -1272 
L 2538 353 
Q 2406 169 2170 47 
Q 1934 -75 1669 -75 
Q 1078 -75 651 397 
Q 225 869 225 1691 
Q 225 2191 398 2587 
Q 572 2984 901 3189 
Q 1231 3394 1625 3394 
Q 2241 3394 2594 2875 
L 2594 3319 
L 3100 3319 
L 3100 -1272 
L 2538 -1272 
z
M 803 1669 
Q 803 1028 1072 708 
Q 1341 388 1716 388 
Q 2075 388 2334 692 
Q 2594 997 2594 1619 
Q 2594 2281 2320 2615 
Q 2047 2950 1678 2950 
Q 1313 2950 1058 2639 
Q 803 2328 803 1669 
z
" transform="scale(0.015625)"/>
       <path id="ArialMT-28" d="M 1497 -1347 
Q 1031 -759 709 28 
Q 388 816 388 1659 
Q 388 2403 628 3084 
Q 909 3875 1497 4659 
L 1900 4659 
Q 1522 4009 1400 3731 
Q 1209 3300 1100 2831 
Q 966 2247 966 1656 
Q 966 153 1900 -1347 
L 1497 -1347 
z
" transform="scale(0.015625)"/>
       <path id="ArialMT-68" d="M 422 0 
L 422 4581 
L 984 4581 
L 984 2938 
Q 1378 3394 1978 3394 
Q 2347 3394 2619 3248 
Q 2891 3103 3008 2847 
Q 3125 2591 3125 2103 
L 3125 0 
L 2563 0 
L 2563 2103 
Q 2563 2525 2380 2717 
Q 2197 2909 1863 2909 
Q 1613 2909 1392 2779 
Q 1172 2650 1078 2428 
Q 984 2206 984 1816 
L 984 0 
L 422 0 
z
" transform="scale(0.015625)"/>
       <path id="ArialMT-7a" d="M 125 0 
L 125 456 
L 2238 2881 
Q 1878 2863 1603 2863 
L 250 2863 
L 250 3319 
L 2963 3319 
L 2963 2947 
L 1166 841 
L 819 456 
Q 1197 484 1528 484 
L 3063 484 
L 3063 0 
L 125 0 
z
" transform="scale(0.015625)"/>
       <path id="ArialMT-29" d="M 791 -1347 
L 388 -1347 
Q 1322 153 1322 1656 
Q 1322 2244 1188 2822 
Q 1081 3291 891 3722 
Q 769 4003 388 4659 
L 791 4659 
Q 1378 3875 1659 3084 
Q 1900 2403 1900 1659 
Q 1900 816 1576 28 
Q 1253 -759 791 -1347 
z
" transform="scale(0.015625)"/>
      </defs>
      <use xlink:href="#ArialMT-46"/>
      <use xlink:href="#ArialMT-72" x="61.083984"/>
      <use xlink:href="#ArialMT-65" x="94.384766"/>
      <use xlink:href="#ArialMT-71" x="150"/>
      <use xlink:href="#ArialMT-75" x="205.615234"/>
      <use xlink:href="#ArialMT-65" x="261.230469"/>
      <use xlink:href="#ArialMT-6e" x="316.845703"/>
      <use xlink:href="#ArialMT-63" x="372.460938"/>
      <use xlink:href="#ArialMT-79" x="422.460938"/>
      <use xlink:href="#ArialMT-20" x="472.460938"/>
      <use xlink:href="#ArialMT-28" x="500.244141"/>
      <use xlink:href="#ArialMT-68" x="533.544922"/>
      <use xlink:href="#ArialMT-7a" x="589.160156"/>
      <use xlink:href="#ArialMT-29" x="639.160156"/>
     </g>
    </g>
   </g>
   <g id="matplotlib.axis_4">
    <g id="ytick_5">
     <g id="line2d_19">
      <g>
       <use xlink:href="#m846e29303d" x="38.265" y="320.413923" style="fill: #262626; stroke: #262626; stroke-width: 0.8"/>
      </g>
     </g>
     <g id="text_22">
      <!-- 0 -->
      <g style="fill: #262626" transform="translate(25.704063 323.992829) scale(0.1 -0.1)">
       <use xlink:href="#ArialMT-30"/>
      </g>
     </g>
    </g>
    <g id="ytick_6">
     <g id="line2d_20">
      <g>
       <use xlink:href="#m846e29303d" x="38.265" y="283.244945" style="fill: #262626; stroke: #262626; stroke-width: 0.8"/>
      </g>
     </g>
     <g id="text_23">
      <!-- 5 -->
      <g style="fill: #262626" transform="translate(25.704063 286.823851) scale(0.1 -0.1)">
       <defs>
        <path id="ArialMT-35" d="M 266 1200 
L 856 1250 
Q 922 819 1161 601 
Q 1400 384 1738 384 
Q 2144 384 2425 690 
Q 2706 997 2706 1503 
Q 2706 1984 2436 2262 
Q 2166 2541 1728 2541 
Q 1456 2541 1237 2417 
Q 1019 2294 894 2097 
L 366 2166 
L 809 4519 
L 3088 4519 
L 3088 3981 
L 1259 3981 
L 1013 2750 
Q 1425 3038 1878 3038 
Q 2478 3038 2890 2622 
Q 3303 2206 3303 1553 
Q 3303 931 2941 478 
Q 2500 -78 1738 -78 
Q 1113 -78 717 272 
Q 322 622 266 1200 
z
" transform="scale(0.015625)"/>
       </defs>
       <use xlink:href="#ArialMT-35"/>
      </g>
     </g>
    </g>
    <g id="ytick_7">
     <g id="line2d_21">
      <g>
       <use xlink:href="#m846e29303d" x="38.265" y="246.075967" style="fill: #262626; stroke: #262626; stroke-width: 0.8"/>
      </g>
     </g>
     <g id="text_24">
      <!-- 10 -->
      <g style="fill: #262626" transform="translate(20.143125 249.654873) scale(0.1 -0.1)">
       <use xlink:href="#ArialMT-31"/>
       <use xlink:href="#ArialMT-30" x="55.615234"/>
      </g>
     </g>
    </g>
    <g id="ytick_8">
     <g id="line2d_22">
      <g>
       <use xlink:href="#m846e29303d" x="38.265" y="208.906988" style="fill: #262626; stroke: #262626; stroke-width: 0.8"/>
      </g>
     </g>
     <g id="text_25">
      <!-- 15 -->
      <g style="fill: #262626" transform="translate(20.143125 212.485895) scale(0.1 -0.1)">
       <use xlink:href="#ArialMT-31"/>
       <use xlink:href="#ArialMT-35" x="55.615234"/>
      </g>
     </g>
    </g>
    <g id="text_26">
     <!-- Amplitude -->
     <g style="fill: #262626" transform="translate(14.155625 281.532812) rotate(-90) scale(0.1 -0.1)">
      <defs>
       <path id="ArialMT-64" d="M 2575 0 
L 2575 419 
Q 2259 -75 1647 -75 
Q 1250 -75 917 144 
Q 584 363 401 755 
Q 219 1147 219 1656 
Q 219 2153 384 2558 
Q 550 2963 881 3178 
Q 1213 3394 1622 3394 
Q 1922 3394 2156 3267 
Q 2391 3141 2538 2938 
L 2538 4581 
L 3097 4581 
L 3097 0 
L 2575 0 
z
M 797 1656 
Q 797 1019 1065 703 
Q 1334 388 1700 388 
Q 2069 388 2326 689 
Q 2584 991 2584 1609 
Q 2584 2291 2321 2609 
Q 2059 2928 1675 2928 
Q 1300 2928 1048 2622 
Q 797 2316 797 1656 
z
" transform="scale(0.015625)"/>
      </defs>
      <use xlink:href="#ArialMT-41"/>
      <use xlink:href="#ArialMT-6d" x="66.699219"/>
      <use xlink:href="#ArialMT-70" x="150"/>
      <use xlink:href="#ArialMT-6c" x="205.615234"/>
      <use xlink:href="#ArialMT-69" x="227.832031"/>
      <use xlink:href="#ArialMT-74" x="250.048828"/>
      <use xlink:href="#ArialMT-75" x="277.832031"/>
      <use xlink:href="#ArialMT-64" x="333.447266"/>
      <use xlink:href="#ArialMT-65" x="389.0625"/>
     </g>
    </g>
   </g>
   <g id="line2d_23">
    <path d="M 69.071136 320.190909 
L 70.129766 319.62087 
L 71.188397 319.808229 
L 72.247027 319.245555 
L 73.305657 318.88372 
L 74.364287 315.954064 
L 75.422917 316.327891 
L 76.481547 312.172832 
L 77.540177 317.678289 
L 78.598807 313.694516 
L 79.657438 311.506439 
L 80.716068 315.860035 
L 81.774698 312.960479 
L 82.833328 315.282377 
L 84.950588 309.088073 
L 86.009218 315.500233 
L 87.067848 307.905805 
L 88.126478 312.044258 
L 89.185109 306.051591 
L 90.243739 312.189276 
L 91.302369 308.096837 
L 92.360999 311.531155 
L 93.419629 307.568885 
L 94.478259 301.759025 
L 95.536889 310.675674 
L 96.595519 313.783857 
L 97.654149 306.545916 
L 98.71278 294.782151 
L 99.77141 295.890188 
L 100.83004 302.420484 
L 101.88867 311.36038 
L 102.9473 295.553081 
L 104.00593 297.072096 
L 105.06456 313.766753 
L 106.12319 311.297637 
L 107.181821 310.302409 
L 108.240451 294.792366 
L 109.299081 305.438739 
L 110.357711 283.972689 
L 111.416341 299.437605 
L 112.474971 287.863706 
L 113.533601 305.024221 
L 114.592231 275.48338 
L 116.709492 313.322435 
L 117.768122 283.291859 
L 118.826752 267.355019 
L 119.885382 299.957586 
L 120.944012 306.604617 
L 122.002642 274.396521 
L 123.061272 275.33816 
L 124.119902 268.309208 
L 125.178532 297.836766 
L 126.237163 293.485151 
L 127.295793 310.766604 
L 128.354423 278.287221 
L 129.413053 300.884774 
L 130.471683 276.501778 
L 131.530313 304.028947 
L 132.588943 288.714166 
L 133.647573 284.539824 
L 134.706204 295.220202 
L 135.764834 303.857056 
L 136.823464 315.229112 
L 137.882094 306.193358 
L 138.940724 273.54552 
L 139.999354 272.744028 
L 141.057984 291.796624 
L 142.116614 274.816216 
L 143.175244 254.714456 
L 144.233875 277.611457 
L 145.292505 263.156077 
L 146.351135 295.425962 
L 147.409765 287.196875 
L 148.468395 308.613941 
L 149.527025 291.64035 
L 150.585655 281.809414 
L 151.644285 316.016229 
L 152.702915 292.611833 
L 153.761546 309.848904 
L 154.820176 243.847155 
L 155.878806 275.180798 
L 156.937436 298.443775 
L 157.996066 310.401254 
L 159.054696 301.209145 
L 160.113326 273.873959 
L 161.171956 283.171764 
L 162.230587 294.232053 
L 163.289217 276.611199 
L 164.347847 287.768017 
L 165.406477 275.878253 
L 166.465107 288.417695 
L 167.523737 292.829799 
L 168.582367 305.222376 
L 169.640997 283.165355 
L 170.699627 274.791348 
L 171.758258 289.569397 
L 172.816888 299.805073 
L 173.875518 281.573073 
L 174.934148 298.364637 
L 175.992778 264.714133 
L 177.051408 288.515976 
L 178.110038 266.50308 
L 179.168668 295.375325 
L 180.227299 272.275755 
L 181.285929 289.555107 
L 182.344559 311.163907 
L 183.403189 282.047677 
L 184.461819 258.310545 
L 185.520449 268.630477 
L 186.579079 303.352131 
L 187.637709 265.096313 
L 188.696339 279.948386 
L 189.75497 247.721145 
L 190.8136 286.780501 
L 191.87223 291.948101 
L 192.93086 291.299719 
L 193.98949 305.85346 
L 195.04812 271.58732 
L 197.16538 260.962856 
L 198.22401 277.742166 
L 199.282641 281.756785 
L 200.341271 272.686101 
L 201.399901 280.26031 
L 202.458531 296.983036 
L 203.517161 297.978165 
L 204.575791 312.780862 
L 205.634421 305.131649 
L 206.693051 290.203736 
L 207.751682 293.655307 
L 208.810312 274.330836 
L 210.927572 308.126876 
L 211.986202 310.163332 
L 213.044832 293.469795 
L 214.103462 294.935532 
L 215.162092 311.998708 
L 216.220722 292.858662 
L 217.279353 270.904024 
L 218.337983 302.847938 
L 219.396613 304.87084 
L 220.455243 310.963013 
L 221.513873 266.587151 
L 222.572503 301.448347 
L 223.631133 288.727254 
L 224.689763 314.134422 
L 225.748393 292.453482 
L 226.807024 288.820288 
L 227.865654 315.670931 
L 228.924284 310.484005 
L 229.982914 314.432018 
L 231.041544 294.552453 
L 232.100174 314.068325 
L 233.158804 298.810941 
L 234.217434 291.487467 
L 235.276065 301.205039 
L 236.334695 300.75837 
L 237.393325 285.37104 
L 238.451955 300.308925 
L 239.510585 298.713304 
L 240.569215 297.597148 
L 241.627845 307.97773 
L 242.686475 303.962738 
L 243.745105 297.941822 
L 244.803736 315.153844 
L 246.920996 281.27604 
L 247.979626 294.085039 
L 249.038256 291.444649 
L 250.096886 293.52444 
L 251.155516 306.0384 
L 252.214146 304.564376 
L 253.272776 301.24257 
L 254.331407 298.578082 
L 255.390037 297.943839 
L 256.448667 306.507291 
L 257.507297 313.724049 
L 258.565927 281.464279 
L 259.624557 296.63886 
L 260.683187 282.402879 
L 261.741817 304.103002 
L 262.800448 281.410549 
L 263.859078 295.714413 
L 264.917708 274.1768 
L 265.976338 301.950889 
L 267.034968 302.202761 
L 268.093598 271.269412 
L 269.152228 284.204195 
L 270.210858 312.840459 
L 271.269488 302.876425 
L 272.328119 297.066019 
L 273.386749 310.981102 
L 274.445379 305.989861 
L 275.504009 286.738897 
L 276.562639 295.529793 
L 277.621269 295.094935 
L 278.679899 302.950009 
L 279.738529 295.337757 
L 280.797159 296.219604 
L 281.85579 313.36696 
L 282.91442 315.854658 
L 283.97305 303.679521 
L 285.03168 303.427699 
L 286.09031 286.865568 
L 287.14894 305.48536 
L 288.20757 315.775642 
L 289.2662 306.585067 
L 290.324831 306.623011 
L 291.383461 308.867704 
L 292.442091 300.877373 
L 293.500721 307.991005 
L 294.559351 296.302302 
L 295.617981 272.429858 
L 297.735241 302.081422 
L 298.793871 303.204118 
L 299.852502 310.144608 
L 300.911132 285.255332 
L 301.969762 276.719118 
L 303.028392 303.518602 
L 304.087022 295.530457 
L 305.145652 315.15186 
L 306.204282 305.816666 
L 308.321542 258.142188 
L 309.380173 271.06735 
L 310.438803 304.553348 
L 311.497433 308.577111 
L 312.556063 304.690514 
L 313.614693 284.640205 
L 314.673323 312.559796 
L 315.731953 291.704587 
L 316.790583 304.371964 
L 317.849214 305.377295 
L 318.907844 300.521326 
L 319.966474 305.072978 
L 321.025104 283.105375 
L 322.083734 310.653013 
L 323.142364 308.955736 
L 324.200994 292.361865 
L 325.259624 260.846395 
L 326.318254 318.039717 
L 327.376885 285.855284 
L 328.435515 300.171575 
L 329.494145 282.337907 
L 330.552775 293.359502 
L 331.611405 299.779887 
L 332.670035 290.550807 
L 333.728665 313.232557 
L 334.787295 276.658888 
L 336.904556 309.418525 
L 337.963186 299.384924 
L 339.021816 293.462906 
L 340.080446 294.008624 
L 341.139076 295.327958 
L 342.197706 311.045089 
L 344.314966 277.299769 
L 345.373597 291.872706 
L 346.432227 298.549187 
L 347.490857 296.920394 
L 348.549487 298.217536 
L 349.608117 308.4077 
L 350.666747 303.117161 
L 351.725377 280.649436 
L 352.784007 297.668275 
L 353.842637 306.958578 
L 354.901268 310.907845 
L 355.959898 308.179476 
L 357.018528 302.812122 
L 358.077158 286.62525 
L 359.135788 314.537355 
L 360.194418 309.961987 
L 361.253048 306.780547 
L 362.311678 300.298728 
L 363.370308 308.03815 
L 364.428939 297.154491 
L 365.487569 297.210024 
L 366.546199 298.084596 
L 367.604829 296.569782 
L 369.722089 283.690709 
L 370.780719 285.467658 
L 371.839349 319.57977 
L 372.89798 270.664139 
L 373.95661 280.825334 
L 375.01524 283.116783 
L 376.07387 293.655867 
L 377.1325 312.097793 
L 378.19113 305.672338 
L 379.24976 283.359999 
L 380.30839 292.608034 
L 381.36702 313.174029 
L 382.425651 313.619527 
L 383.484281 283.290883 
L 384.542911 317.089725 
L 385.601541 277.118403 
L 386.660171 291.851165 
L 387.718801 315.206366 
L 388.777431 306.42613 
L 389.836061 295.35047 
L 390.894692 264.659928 
L 391.953322 313.674327 
L 393.011952 308.160211 
L 394.070582 297.912277 
L 396.187842 283.591065 
L 397.246472 298.289426 
L 398.305102 308.839868 
L 399.363732 300.200548 
L 400.422363 292.783628 
L 402.539623 312.12177 
L 403.598253 287.432491 
L 404.656883 279.43336 
L 405.715513 304.515466 
L 406.774143 314.413227 
L 407.832773 295.353121 
L 408.891403 265.556044 
L 409.950034 251.930343 
L 411.008664 308.91755 
L 412.067294 300.939538 
L 413.125924 302.441515 
L 414.184554 277.708997 
L 415.243184 300.671616 
L 416.301814 276.588684 
L 417.360444 296.862756 
L 418.419075 300.444239 
L 419.477705 260.581682 
L 420.536335 272.267459 
L 421.594965 307.096703 
L 422.653595 298.564939 
L 423.712225 282.828301 
L 424.770855 286.958575 
L 425.829485 277.802612 
L 426.888115 290.071468 
L 427.946746 295.356505 
L 429.005376 289.331648 
L 430.064006 287.37833 
L 431.122636 310.718738 
L 432.181266 296.611955 
L 433.239896 288.234153 
L 434.298526 282.274502 
L 435.357156 302.787895 
L 436.415786 310.845625 
L 437.474417 282.794449 
L 438.533047 292.7303 
L 439.591677 285.990587 
L 440.650307 281.925808 
L 441.708937 283.75549 
L 442.767567 279.659171 
L 443.826197 304.95219 
L 444.884827 302.906678 
L 445.943458 209.934494 
L 447.002088 308.953382 
L 448.060718 305.69529 
L 449.119348 304.968943 
L 450.177978 265.244941 
L 451.236608 276.410738 
L 452.295238 276.350939 
L 453.353868 265.104704 
L 454.412498 307.399547 
L 455.471129 269.710378 
L 456.529759 299.219994 
L 457.588389 305.149262 
L 458.647019 309.241906 
L 459.705649 282.091836 
L 461.822909 310.21284 
L 462.881539 285.54339 
L 463.940169 306.446274 
L 464.9988 311.297406 
L 466.05743 283.384183 
L 467.11606 301.626999 
L 468.17469 301.031936 
L 469.23332 303.321919 
L 470.29195 284.195769 
L 471.35058 300.883553 
L 472.40921 287.93099 
L 473.467841 270.756263 
L 474.526471 303.482594 
L 475.585101 300.870699 
L 476.643731 309.661814 
L 477.702361 315.724756 
L 478.760991 292.19133 
L 480.878251 306.87849 
L 481.936881 302.967079 
L 482.995512 292.830631 
L 484.054142 299.576537 
L 485.112772 289.129701 
L 486.171402 251.327644 
L 487.230032 292.934516 
L 488.288662 298.220109 
L 489.347292 280.723565 
L 490.405922 290.008638 
L 491.464552 302.84918 
L 492.523183 299.446292 
L 493.581813 280.280415 
L 494.640443 316.964105 
L 495.699073 316.697834 
L 496.757703 256.42976 
L 497.816333 295.453558 
L 498.874963 280.035871 
L 499.933593 301.398214 
L 500.992224 304.698036 
L 502.050854 295.242393 
L 503.109484 307.765299 
L 504.168114 305.246524 
L 505.226744 296.99471 
L 506.285374 275.01795 
L 507.344004 262.737297 
L 508.402634 254.025509 
L 509.461264 312.189664 
L 510.519895 282.843548 
L 511.578525 308.788109 
L 512.637155 302.167806 
L 513.695785 283.669969 
L 514.754415 257.949538 
L 515.813045 306.807681 
L 516.871675 311.664771 
L 517.930305 306.125474 
L 518.988935 282.462801 
L 520.047566 297.52723 
L 521.106196 295.486186 
L 522.164826 287.829379 
L 523.223456 298.987782 
L 524.282086 275.016211 
L 525.340716 273.669911 
L 526.399346 300.91737 
L 527.457976 241.754454 
L 528.516607 291.894369 
L 529.575237 282.728247 
L 530.633867 280.339228 
L 531.692497 244.965884 
L 532.751127 235.478681 
L 533.809757 293.45042 
L 534.868387 286.909338 
L 535.927017 284.188619 
L 536.985647 269.600636 
L 538.044278 252.125086 
L 539.102908 270.92621 
L 540.161538 269.965823 
L 541.220168 281.183722 
L 542.278798 252.944879 
L 543.337428 270.12651 
L 544.396058 283.136643 
L 545.454688 238.394627 
L 546.513318 259.193067 
L 547.571949 275.707289 
L 548.630579 267.600287 
L 549.689209 253.471368 
L 550.747839 306.254654 
L 551.806469 287.713394 
L 552.865099 290.563755 
L 553.923729 275.734169 
L 554.982359 292.866696 
L 556.04099 233.572158 
L 557.09962 230.931484 
L 558.15825 287.982019 
L 559.21688 312.22721 
L 560.27551 294.937153 
L 561.33414 253.069862 
L 562.39277 287.555842 
L 563.4514 311.61748 
L 564.51003 278.248903 
L 565.568661 273.285916 
L 566.627291 227.592386 
L 567.685921 290.464609 
L 569.803181 249.74221 
L 570.861811 247.709307 
L 571.920441 305.799142 
L 572.979071 303.577603 
L 574.037701 268.240784 
L 575.096332 308.591452 
L 576.154962 274.610244 
L 577.213592 218.613923 
L 578.272222 276.879364 
L 579.330852 280.356021 
L 580.389482 239.800234 
L 581.448112 248.160133 
L 582.506742 241.885357 
L 583.565373 305.568417 
L 584.624003 285.014839 
L 585.682633 292.275183 
L 586.741263 308.162347 
L 587.799893 283.348909 
L 588.858523 231.36778 
L 589.917153 268.954453 
L 590.975783 293.362238 
L 592.034413 294.535639 
L 593.093044 268.142723 
L 594.151674 289.823818 
L 595.210304 280.433883 
L 596.268934 267.954953 
L 597.327564 305.825753 
L 598.386194 298.398547 
L 599.444824 271.115092 
L 600.503454 260.296471 
L 601.562085 286.895793 
L 602.620715 285.424877 
L 603.679345 286.239165 
L 604.737975 260.118825 
L 605.796605 227.981312 
L 606.855235 277.571121 
L 607.913865 268.239109 
L 608.972495 198.409091 
L 610.031125 295.389717 
L 611.089756 234.815994 
L 612.148386 281.645472 
L 613.207016 273.420704 
L 614.265646 298.47226 
L 615.324276 310.713897 
L 616.382906 307.404445 
L 617.441536 300.959332 
L 618.500166 285.938357 
L 619.558796 313.894411 
L 620.617427 256.241057 
L 621.676057 241.793681 
L 622.734687 262.688003 
L 623.793317 306.208417 
L 624.851947 273.481447 
L 625.910577 281.437533 
L 626.969207 290.496181 
L 628.027837 259.931733 
L 629.086468 235.450599 
L 630.145098 247.086936 
L 631.203728 267.537573 
L 632.262358 298.974479 
L 633.320988 235.836452 
L 634.379618 280.564632 
L 635.438248 305.761665 
L 636.496878 313.619515 
L 637.555508 282.168219 
L 638.614139 262.348666 
L 639.672769 275.414675 
L 640.731399 244.189111 
L 641.790029 295.351522 
L 642.848659 312.624271 
L 643.907289 308.367098 
L 646.024549 253.221801 
L 647.083179 275.212689 
L 648.14181 252.958885 
L 649.20044 294.05732 
L 650.25907 298.228242 
L 651.3177 267.856096 
L 652.37633 258.154674 
L 654.49359 304.175691 
L 655.55222 305.707536 
L 656.610851 276.667806 
L 657.669481 301.024146 
L 658.728111 278.527511 
L 659.786741 291.70941 
L 660.845371 283.022483 
L 661.904001 263.114479 
L 662.962631 316.749444 
L 664.021261 267.469097 
L 665.079891 276.011143 
L 666.138522 307.549323 
L 667.197152 256.666292 
L 668.255782 281.234689 
L 669.314412 289.254555 
L 670.373042 284.776905 
L 671.431672 290.705193 
L 672.490302 281.179356 
L 673.548932 283.272505 
L 674.607562 308.607127 
L 675.666193 293.684187 
L 676.724823 273.630098 
L 677.783453 303.422567 
L 678.842083 301.357123 
L 679.900713 255.974647 
L 680.959343 280.352235 
L 682.017973 284.961622 
L 683.076603 270.260911 
L 684.135234 285.97365 
L 685.193864 279.563293 
L 685.193864 279.563293 
" clip-path="url(#p255edaedfd)" style="fill: none; stroke: #1f77b4; stroke-width: 1.5; stroke-linecap: round"/>
   </g>
   <g id="patch_8">
    <path d="M 38.265 326.28 
L 38.265 192.32 
" style="fill: none; stroke: #262626; stroke-width: 0.8; stroke-linejoin: miter; stroke-linecap: square"/>
   </g>
   <g id="patch_9">
    <path d="M 716 326.28 
L 716 192.32 
" style="fill: none; stroke: #262626; stroke-width: 0.8; stroke-linejoin: miter; stroke-linecap: square"/>
   </g>
   <g id="patch_10">
    <path d="M 38.265 326.28 
L 716 326.28 
" style="fill: none; stroke: #262626; stroke-width: 0.8; stroke-linejoin: miter; stroke-linecap: square"/>
   </g>
   <g id="patch_11">
    <path d="M 38.265 192.32 
L 716 192.32 
" style="fill: none; stroke: #262626; stroke-width: 0.8; stroke-linejoin: miter; stroke-linecap: square"/>
   </g>
  </g>
 </g>
 <defs>
  <clipPath id="p91903caf37">
   <rect x="38.265" y="18.64" width="677.735" height="133.96"/>
  </clipPath>
  <clipPath id="p255edaedfd">
   <rect x="38.265" y="192.32" width="677.735" height="133.96"/>
  </clipPath>
 </defs>
</svg>
