G04*
G04 #@! TF.GenerationSoftware,Altium Limited,Altium Designer,23.0.1 (38)*
G04*
G04 Layer_Color=8388736*
%FSLAX25Y25*%
%MOIN*%
G70*
G04*
G04 #@! TF.SameCoordinates,536616DB-6320-4C19-9CD4-41BAC6144A30*
G04*
G04*
G04 #@! TF.FilePolarity,Negative*
G04*
G01*
G75*
G36*
X292020Y276321D02*
X292020D01*
X292020Y276322D01*
Y276321D01*
D02*
G37*
G36*
X272161Y272371D02*
Y272371D01*
Y272371D01*
D01*
D02*
G37*
G36*
X286238Y277674D02*
X287030Y277605D01*
X287819Y277501D01*
X288210Y277432D01*
X286722Y268989D01*
Y268989D01*
X286722Y268989D01*
X286514Y269024D01*
X286097Y269079D01*
X285677Y269115D01*
X285257Y269134D01*
X285046Y269136D01*
Y277709D01*
X285444D01*
X286238Y277674D01*
D02*
G37*
G36*
X282957Y268907D02*
X282752Y268859D01*
X282346Y268750D01*
X281944Y268624D01*
X281549Y268480D01*
X281353Y268401D01*
D01*
X281353D01*
X281353D01*
X278073Y276322D01*
X278440Y276474D01*
X279187Y276746D01*
X279946Y276985D01*
X280714Y277191D01*
X281102Y277277D01*
X281102D01*
X282957Y268907D01*
D02*
G37*
G36*
X292387Y276169D02*
X293108Y275833D01*
X293813Y275466D01*
X294502Y275068D01*
X294837Y274855D01*
X290231Y267625D01*
X290231Y267625D01*
X290052Y267736D01*
X289688Y267946D01*
X289314Y268141D01*
X288933Y268319D01*
X288739Y268401D01*
X292020Y276321D01*
X292387Y276169D01*
D02*
G37*
G36*
X268210Y266459D02*
Y266459D01*
Y266459D01*
D01*
D02*
G37*
G36*
X279511Y267391D02*
Y267391D01*
X279511D01*
X279340Y267268D01*
X279006Y267012D01*
X278683Y266741D01*
X278373Y266457D01*
X278222Y266309D01*
X272161Y272371D01*
X272442Y272652D01*
X273028Y273190D01*
X273637Y273701D01*
X274268Y274185D01*
X274594Y274413D01*
X279511Y267391D01*
D02*
G37*
G36*
X298213Y272090D02*
X298750Y271504D01*
X299261Y270895D01*
X299745Y270264D01*
X299973Y269938D01*
X292951Y265021D01*
X292951D01*
X292828Y265192D01*
X292572Y265526D01*
X292302Y265849D01*
X292017Y266159D01*
X291870Y266309D01*
X297932Y272371D01*
X298213Y272090D01*
D02*
G37*
G36*
X276907Y264671D02*
Y264671D01*
X276796Y264492D01*
X276586Y264127D01*
X276391Y263754D01*
X276213Y263372D01*
X276131Y263179D01*
X276131Y263179D01*
X268210Y266459D01*
X268362Y266827D01*
X268699Y267547D01*
X269066Y268253D01*
X269463Y268941D01*
X269677Y269277D01*
X276907Y264671D01*
D02*
G37*
G36*
X302034Y266092D02*
X302306Y265345D01*
X302545Y264586D01*
X302751Y263818D01*
X302837Y263430D01*
X294467Y261574D01*
X294420Y261779D01*
X294311Y262186D01*
X294184Y262588D01*
X294040Y262983D01*
X293962Y263179D01*
X293962Y263179D01*
X293962Y263179D01*
X301882Y266459D01*
X302034Y266092D01*
D02*
G37*
G36*
X275542Y261161D02*
X275542D01*
Y261161D01*
X275508Y260954D01*
X275453Y260536D01*
X275417Y260117D01*
X275398Y259696D01*
X275396Y259486D01*
X266823D01*
Y259883D01*
X266858Y260678D01*
X266927Y261470D01*
X267031Y262259D01*
X267100Y262650D01*
X275542Y261161D01*
D02*
G37*
G36*
X303269Y259088D02*
X303234Y258294D01*
X303165Y257501D01*
X303061Y256713D01*
X302992Y256321D01*
X294550Y257810D01*
X294550D01*
X294584Y258018D01*
X294639Y258435D01*
X294676Y258855D01*
X294694Y259275D01*
X294696Y259486D01*
X303269D01*
Y259088D01*
D02*
G37*
G36*
X275672Y257192D02*
X275781Y256785D01*
X275908Y256384D01*
X276052Y255988D01*
X276131Y255793D01*
X268210Y252512D01*
X268058Y252880D01*
X267786Y253627D01*
X267547Y254385D01*
X267341Y255153D01*
X267255Y255542D01*
X267255Y255542D01*
X275625Y257397D01*
X275672Y257192D01*
D02*
G37*
G36*
X297932Y246600D02*
X297932D01*
X297650Y246319D01*
X297064Y245782D01*
X296455Y245271D01*
X295824Y244787D01*
X295498Y244559D01*
X290581Y251581D01*
D01*
Y251581D01*
Y251581D01*
X290752Y251703D01*
X291086Y251960D01*
X291409Y252230D01*
X291719Y252515D01*
X291870Y252662D01*
X297932Y246600D01*
D02*
G37*
G36*
X293962Y255793D02*
X301882Y252512D01*
X301882D01*
X301730Y252145D01*
X301394Y251424D01*
X301026Y250719D01*
X300629Y250030D01*
X300415Y249695D01*
X293185Y254301D01*
X293185D01*
X293296Y254480D01*
X293507Y254844D01*
X293701Y255218D01*
X293879Y255599D01*
X293962Y255793D01*
X293962Y255793D01*
D02*
G37*
G36*
X277141Y253951D02*
X277264Y253780D01*
X277520Y253446D01*
X277791Y253123D01*
X278075Y252813D01*
X278222Y252662D01*
X272161Y246600D01*
X271879Y246881D01*
X271342Y247468D01*
X270831Y248077D01*
X270347Y248708D01*
X270119Y249034D01*
X277141Y253951D01*
X277141D01*
X277141Y253951D01*
D02*
G37*
G36*
X280040Y251236D02*
X280404Y251025D01*
X280778Y250831D01*
X281159Y250653D01*
X281353Y250570D01*
X281353Y250570D01*
X278073Y242650D01*
X277705Y242802D01*
X276984Y243138D01*
X276279Y243506D01*
X275590Y243903D01*
X275255Y244117D01*
X279861Y251347D01*
X280040Y251236D01*
D02*
G37*
G36*
X288739Y250570D02*
X292020Y242650D01*
X291652Y242498D01*
X290905Y242226D01*
X290146Y241987D01*
X289378Y241781D01*
X288990Y241695D01*
Y241695D01*
X287135Y250064D01*
X287340Y250112D01*
X287747Y250221D01*
X288148Y250348D01*
X288544Y250492D01*
X288739Y250570D01*
Y250570D01*
X288739Y250570D01*
D02*
G37*
G36*
X283578Y249948D02*
X283996Y249893D01*
X284415Y249856D01*
X284836Y249838D01*
X285046Y249836D01*
Y241263D01*
X284648Y241263D01*
X283854Y241298D01*
X283062Y241367D01*
X282273Y241471D01*
X281882Y241540D01*
X283370Y249982D01*
Y249982D01*
X283578Y249948D01*
D02*
G37*
M02*
