G04*
G04 #@! TF.GenerationSoftware,Altium Limited,Altium Designer,23.0.1 (38)*
G04*
G04 Layer_Physical_Order=1*
G04 Layer_Color=255*
%FSLAX25Y25*%
%MOIN*%
G70*
G04*
G04 #@! TF.SameCoordinates,AE6E3CEE-A53B-43E9-B4DB-3CF7AADE453F*
G04*
G04*
G04 #@! TF.FilePolarity,Positive*
G04*
G01*
G75*
%ADD15R,0.03937X0.02559*%
%ADD16R,0.02165X0.03150*%
%ADD17R,0.01181X0.02559*%
%ADD18C,0.01000*%
%ADD19C,0.09000*%
%ADD20C,0.01800*%
D15*
X686620Y106262D02*
D03*
X697257Y106261D02*
D03*
X697261Y101930D02*
D03*
X686624Y101931D02*
D03*
D16*
X698638Y120863D02*
D03*
X685463Y120866D02*
D03*
D17*
X695025Y112665D02*
D03*
X693054Y112666D02*
D03*
X691081Y112664D02*
D03*
X689115Y112661D02*
D03*
D18*
X695639Y106261D02*
X697257D01*
Y116143D01*
X695100Y118300D02*
X697257Y116143D01*
X695100Y118300D02*
Y121500D01*
X688752Y121800D02*
X689115Y121437D01*
X682455Y114655D02*
X684345D01*
X687000Y112000D01*
X680400Y112482D02*
X686620Y106262D01*
X680400Y112482D02*
Y115900D01*
X682000Y117500D01*
X689115D01*
Y112661D02*
Y117500D01*
Y121437D01*
X691600Y116959D02*
X693141D01*
X695025Y115075D01*
Y112665D02*
Y115075D01*
X689589Y102420D02*
X691320D01*
X691081Y109981D02*
Y112664D01*
X691320Y102420D02*
Y106224D01*
X687000Y110545D02*
Y112000D01*
X693770Y101930D02*
X697261D01*
X690122Y107422D02*
X690781Y108081D01*
X691868D01*
X692981Y109194D01*
Y109426D01*
X693054Y109500D01*
X687000Y110545D02*
X690122Y107422D01*
X691320Y106224D01*
X693054Y109500D02*
Y112666D01*
X693770Y101930D02*
Y107755D01*
X694954Y108940D01*
X687113Y102420D02*
X689589D01*
X686624Y101931D02*
X687113Y102420D01*
D19*
X712403Y114548D02*
D03*
D20*
X682455Y114655D02*
D03*
X695100Y121500D02*
D03*
X688752Y121800D02*
D03*
X691600Y116959D02*
D03*
X691081Y109981D02*
D03*
X694954Y108940D02*
D03*
M02*
