G04*
G04 #@! TF.GenerationSoftware,Altium Limited,Altium Designer,23.0.1 (38)*
G04*
G04 Layer_Color=16711935*
%FSLAX25Y25*%
%MOIN*%
G70*
G04*
G04 #@! TF.SameCoordinates,AE6E3CEE-A53B-43E9-B4DB-3CF7AADE453F*
G04*
G04*
G04 #@! TF.FilePolarity,Positive*
G04*
G01*
G75*
%ADD28C,0.00025*%
%ADD29C,0.00200*%
%ADD30C,0.00500*%
D28*
X692033Y88716D02*
D03*
D29*
X695921Y99859D02*
X694981Y100143D01*
X694020Y100349D01*
X693047Y100474D01*
X692065Y100517D01*
X691084Y100479D01*
X690110Y100360D01*
X689148Y100160D01*
X688207Y99880D01*
X679000Y108149D02*
X682498D01*
X679000D02*
Y124800D01*
X701386Y108200D02*
X718403D01*
X682498Y108149D02*
X682500Y99900D01*
X695920Y99859D02*
X701383Y99900D01*
X682500D02*
X688207Y99880D01*
X679000Y124800D02*
X692000D01*
X705000D01*
Y120900D02*
Y124800D01*
Y121000D02*
X718403D01*
Y108348D02*
Y121000D01*
X701383Y99900D02*
X701386Y108200D01*
D30*
X716500Y135100D02*
X717500D01*
X717000D01*
Y138099D01*
X716500Y137599D01*
X718999D02*
X719499Y138099D01*
X720499D01*
X720998Y137599D01*
Y135600D01*
X720499Y135100D01*
X719499D01*
X718999Y135600D01*
Y137599D01*
X721998Y135100D02*
Y137099D01*
X722498D01*
X722998Y136600D01*
Y135100D01*
Y136600D01*
X723498Y137099D01*
X723998Y136600D01*
Y135100D01*
X724997D02*
Y137099D01*
X725497D01*
X725997Y136600D01*
Y135100D01*
Y136600D01*
X726497Y137099D01*
X726997Y136600D01*
Y135100D01*
X730995Y137099D02*
X732995Y135100D01*
X731995Y136100D01*
X732995Y137099D01*
X730995Y135100D01*
X738993Y138099D02*
X737993Y137599D01*
X736993Y136600D01*
Y135600D01*
X737493Y135100D01*
X738493D01*
X738993Y135600D01*
Y136100D01*
X738493Y136600D01*
X736993D01*
X739992Y135100D02*
Y135600D01*
X740492D01*
Y135100D01*
X739992D01*
X744491Y138099D02*
X742492D01*
Y136600D01*
X743491Y137099D01*
X743991D01*
X744491Y136600D01*
Y135600D01*
X743991Y135100D01*
X742991D01*
X742492Y135600D01*
X748490Y135100D02*
Y137099D01*
X748989D01*
X749489Y136600D01*
Y135100D01*
Y136600D01*
X749989Y137099D01*
X750489Y136600D01*
Y135100D01*
X751489D02*
Y137099D01*
X751989D01*
X752488Y136600D01*
Y135100D01*
Y136600D01*
X752988Y137099D01*
X753488Y136600D01*
Y135100D01*
X715900Y132699D02*
X716400Y133199D01*
X717400D01*
X717899Y132699D01*
Y130700D01*
X717400Y130200D01*
X716400D01*
X715900Y130700D01*
Y132699D01*
X718899Y130200D02*
Y130700D01*
X719399D01*
Y130200D01*
X718899D01*
X722898D02*
Y133199D01*
X721398Y131700D01*
X723398D01*
X727396Y130200D02*
Y132199D01*
X727896D01*
X728396Y131700D01*
Y130200D01*
Y131700D01*
X728896Y132199D01*
X729396Y131700D01*
Y130200D01*
X730395D02*
Y132199D01*
X730895D01*
X731395Y131700D01*
Y130200D01*
Y131700D01*
X731895Y132199D01*
X732395Y131700D01*
Y130200D01*
X736893Y132699D02*
Y132199D01*
X736393D01*
X737393D01*
X736893D01*
Y130700D01*
X737393Y130200D01*
X738893Y133199D02*
Y130200D01*
Y131700D01*
X739392Y132199D01*
X740392D01*
X740892Y131700D01*
Y130200D01*
X741892D02*
X742891D01*
X742391D01*
Y132199D01*
X741892D01*
X746390D02*
X744891D01*
X744391Y131700D01*
Y130700D01*
X744891Y130200D01*
X746390D01*
X747390D02*
Y133199D01*
Y131200D02*
X748889Y132199D01*
X747390Y131200D02*
X748889Y130200D01*
X750889Y129700D02*
X751389Y130200D01*
Y130700D01*
X750889D01*
Y130200D01*
X751389D01*
X750889Y129700D01*
X750389Y129200D01*
X756387Y133199D02*
Y130200D01*
X757886D01*
X758386Y130700D01*
Y131200D01*
Y131700D01*
X757886Y132199D01*
X756387D01*
X759386Y130200D02*
X760386D01*
X759886D01*
Y133199D01*
X759386D01*
X762385Y132199D02*
X763385D01*
X763884Y131700D01*
Y130200D01*
X762385D01*
X761885Y130700D01*
X762385Y131200D01*
X763884D01*
X766884Y132199D02*
X765384D01*
X764884Y131700D01*
Y130700D01*
X765384Y130200D01*
X766884D01*
X767883D02*
Y133199D01*
Y131200D02*
X769383Y132199D01*
X767883Y131200D02*
X769383Y130200D01*
X773881D02*
X775381D01*
X775881Y130700D01*
X775381Y131200D01*
X774381D01*
X773881Y131700D01*
X774381Y132199D01*
X775881D01*
X777380Y130200D02*
X778380D01*
X778880Y130700D01*
Y131700D01*
X778380Y132199D01*
X777380D01*
X776880Y131700D01*
Y130700D01*
X777380Y130200D01*
X779879D02*
X780879D01*
X780379D01*
Y133199D01*
X779879D01*
X784378D02*
Y130200D01*
X782878D01*
X782378Y130700D01*
Y131700D01*
X782878Y132199D01*
X784378D01*
X786877Y130200D02*
X785877D01*
X785378Y130700D01*
Y131700D01*
X785877Y132199D01*
X786877D01*
X787377Y131700D01*
Y131200D01*
X785378D01*
X788377Y132199D02*
Y130200D01*
Y131200D01*
X788876Y131700D01*
X789376Y132199D01*
X789876D01*
X791376Y130200D02*
Y132199D01*
X791875D01*
X792375Y131700D01*
Y130200D01*
Y131700D01*
X792875Y132199D01*
X793375Y131700D01*
Y130200D01*
X794874Y132199D02*
X795874D01*
X796374Y131700D01*
Y130200D01*
X794874D01*
X794375Y130700D01*
X794874Y131200D01*
X796374D01*
X797374Y130200D02*
X798873D01*
X799373Y130700D01*
X798873Y131200D01*
X797873D01*
X797374Y131700D01*
X797873Y132199D01*
X799373D01*
X800373Y130200D02*
Y133199D01*
Y131200D02*
X801872Y132199D01*
X800373Y131200D02*
X801872Y130200D01*
M02*
